;TYPE=PLATED
;Layer: PTH_Through_Via
;EasyEDA Pro v3.2.149.88089769, 2026-08-16 16:57:32
;Gerber Generator version 0.3
M48
METRIC,LZ,0000.00000
;Hole size 1 = 0.30480 METRIC
T01C0.30480
;Hole size 2 = 0.30500 METRIC
T02C0.30500
%
G05
G90
T01
X94.25826Y-98.9029
X94.25826Y-100.30295
X95.65831Y-100.30295
X95.65831Y-98.9029
X94.95828Y-98.20288
X94.95828Y-99.60292
X94.95828Y-101.00297
X92.85821Y-100.30295
X92.85821Y-98.9029
X93.55823Y-98.20288
X93.55823Y-99.60292
X93.55823Y-101.00297
T02
X120.523Y-81.026
X120.65Y-116.84
X120.65Y-111.506
X120.65Y-106.426
X120.65Y-101.473
X120.59798Y-96.393
X120.59798Y-91.313
X120.47098Y-86.233
X89.281Y-115.09272
X91.313Y-117.602
X75.63939Y-80.137
X75.692Y-90.297
X75.692Y-100.74172
X75.692Y-110.64772
X75.692Y-120.91072
X75.692Y-130.94372
X105.20401Y-121.793
X106.27681Y-94.12919
X106.299Y-91.186
X85.0059Y-90.424
X83.312Y-90.424
X85.09Y-96.012
X90.043Y-96.32836
X106.172Y-89.916
X97.45701Y-121.793
X103.45699Y-115.57
X83.693Y-96.266
X79.629Y-80.899
X88.265Y-96.52
X79.883Y-113.157
X92.583Y-111.506
X79.629Y-79.883
X85.09Y-128.778
X86.38832Y-130.07632
X101.473Y-111.379
X80.01Y-120.142
X80.01Y-109.855
X79.883Y-99.949
X79.629Y-90.043
X70.358Y-79.121
X71.247Y-79.121
X72.136Y-79.121
X71.247Y-80.137
X70.358Y-80.137
X72.136Y-80.137
X72.136Y-81.153
X71.247Y-81.153
X70.358Y-81.153
X70.485Y-89.281
X70.485Y-90.297
X70.485Y-91.313
X71.374Y-91.313
X71.374Y-90.297
X71.374Y-89.281
X72.263Y-89.281
X72.263Y-90.297
X72.263Y-91.313
X70.52404Y-99.72572
X70.52404Y-100.74172
X70.52404Y-101.75772
X71.41304Y-101.75772
X71.41304Y-100.74172
X71.41304Y-99.72572
X72.30204Y-99.72572
X72.30204Y-100.74172
X72.30204Y-101.75772
X70.56163Y-109.63172
X70.56163Y-110.64772
X70.56163Y-111.66372
X71.45063Y-111.66372
X71.45063Y-110.64772
X71.45063Y-109.63172
X72.33963Y-109.63172
X72.33963Y-110.64772
X72.33963Y-111.66372
X70.52404Y-119.89472
X70.52404Y-120.91072
X70.52404Y-121.92672
X71.41304Y-121.92672
X71.41304Y-120.91072
X71.41304Y-119.89472
X72.30204Y-119.89472
X72.30204Y-120.91072
X72.30204Y-121.92672
X70.43463Y-129.92772
X70.43463Y-130.94372
X70.43463Y-131.95972
X71.32363Y-131.95972
X71.32363Y-130.94372
X71.32363Y-129.92772
X72.21263Y-129.92772
X72.21263Y-130.94372
X72.21263Y-131.95972
X73.025Y-136.08202
X74.1154Y-134.5674
X74.21314Y-124.46
X79.756Y-129.286
X90.043Y-98.552
X82.6135Y-96.7105
X71.374Y-127.762
X67.437Y-136.906
X71.374Y-117.475
X71.374Y-107.569
X71.374Y-97.409
X71.247Y-86.995
X62.611Y-74.549
X101.346Y-127.0
X105.156Y-127.0
X108.839Y-127.0
X70.104Y-103.759
X66.929Y-130.175
X112.53064Y-127.0
X116.21364Y-127.0
X97.68585Y-139.954
X101.35464Y-139.954
X105.16464Y-139.954
X108.84764Y-139.954
X112.53064Y-139.954
X116.21364Y-139.954
X66.294Y-125.222
X65.659Y-120.142
X65.024Y-114.935
X64.262Y-109.601
X63.627Y-105.029
X62.992Y-99.695
X62.357Y-94.361
X61.722Y-89.535
X61.087Y-84.709
X60.325Y-79.248
X115.77782Y-133.51825
X111.506Y-133.477
X107.569Y-133.477
X103.886Y-133.477
X99.949Y-133.477
X95.758Y-130.42905
X95.885Y-136.65205
X124.587Y-128.524
X127.127Y-128.524
X129.667Y-128.524
X132.207Y-128.524
X129.66598Y-142.54122
X132.20598Y-142.54122
X127.12598Y-142.54122
X124.58598Y-142.54122
X121.412Y-134.112
X121.412Y-131.572
X121.412Y-136.652
X121.412Y-139.192
X132.1435Y-78.0761
X129.6035Y-78.0761
X127.0635Y-78.0761
X124.5235Y-78.0761
X132.2705Y-64.9951
X129.7305Y-64.9951
X127.1905Y-64.9951
X124.6505Y-64.9951
X121.25975Y-67.7545
X121.25975Y-70.2945
X121.25975Y-72.8345
X121.25975Y-75.3745
X109.601Y-74.549
X108.712Y-74.549
X103.886Y-75.946
X102.87Y-75.946
X112.776Y-72.3265
X112.776Y-73.2155
X84.328Y-69.723
X84.328Y-70.91641
X88.49928Y-70.231
X88.519Y-71.882
X90.424Y-75.438
X81.534Y-91.821
X112.522Y-77.597
X74.08614Y-83.693
X74.1741Y-93.853
X74.21314Y-104.394
X74.295Y-114.427
M30