G04 Layer: TopPasteMaskLayer*
G04 EasyEDA Pro v3.2.149.88089769, 2026-08-16 16:57:31*
G04 Gerber Generator version 0.3*
G04 Scale: 100 percent, Rotated: No, Reflected: No*
G04 Dimensions in millimeters*
G04 Leading zeros omitted, absolute positions, 4 integers and 5 decimals*
G04 Generated by one-click*
G04 Object Configs: Pad,Via,Track,Text,Image,Dimension,BoardOutline,BoardCutout,CopperFilled,SolidRegion,FPCStiffener,Line,PlaneZone,ComponentProperty,ComponentSilkscreen,TearDrop*
G04 Layer Configs: 1,15,16,2,3,4,5,6,7,8,9,10,11,13,14,56*
G04 Copper Areas: 0*
%FSLAX45Y45*%
%MOMM*%
%ADD10R,0.9X0.8*%
%ADD11R,0.54X0.5*%
%ADD12R,0.5X0.54*%
%ADD13R,0.8X0.9*%
%ADD14R,0.8X0.8*%
%ADD15R,1.0X0.75001*%
%ADD16R,1.5X0.9*%
%ADD17R,0.9X1.5*%
%ADD18R,0.9X0.9*%
%ADD19R,1.4046X0.4*%
%ADD20R,1.4X0.4*%
%ADD21R,2.65001X3.99999*%
%ADD22R,2.0X2.0*%
%ADD23R,1.25999X3.61*%
%ADD24R,2.1924X2.04749*%
G75*


G04 PolygonModel Start*
G36*
G01X8332000Y-9535300D02*
G01X8332000Y-9489300D01*
G01X8336001Y-9485300D01*
G01X8386064Y-9485300D01*
G01X8390065Y-9489300D01*
G01X8390065Y-9535300D01*
G01X8386064Y-9539300D01*
G01X8336001Y-9539300D01*
G01X8332000Y-9535300D01*
G37*
G36*
G01X8305000Y-9535300D02*
G01X8300999Y-9539300D01*
G01X8250936Y-9539300D01*
G01X8246936Y-9535300D01*
G01X8246936Y-9489300D01*
G01X8250936Y-9485300D01*
G01X8300999Y-9485300D01*
G01X8305000Y-9489300D01*
G01X8305000Y-9535300D01*
G37*
G36*
G01X9168859Y-11406013D02*
G01X9163858Y-11411012D01*
G01X9083858Y-11411012D01*
G01X9078859Y-11406013D01*
G01X9078859Y-11326013D01*
G01X9083858Y-11321012D01*
G01X9108062Y-11321012D01*
G01X9108062Y-11358012D01*
G01X9141061Y-11358012D01*
G01X9141061Y-11321012D01*
G01X9163858Y-11321012D01*
G01X9168859Y-11326013D01*
G01X9168859Y-11406013D01*
G37*
G36*
G01X9078862Y-11167009D02*
G01X9083863Y-11162011D01*
G01X9163863Y-11162011D01*
G01X9168862Y-11167009D01*
G01X9168862Y-11247009D01*
G01X9163863Y-11252011D01*
G01X9139659Y-11252011D01*
G01X9139659Y-11215010D01*
G01X9106659Y-11215010D01*
G01X9106659Y-11252011D01*
G01X9083863Y-11252011D01*
G01X9078862Y-11247009D01*
G01X9078862Y-11167009D01*
G37*
G36*
G01X9174602Y-11613601D02*
G01X9179601Y-11618603D01*
G01X9179601Y-11698602D01*
G01X9174602Y-11703601D01*
G01X9094602Y-11703601D01*
G01X9089601Y-11698602D01*
G01X9089601Y-11674399D01*
G01X9126601Y-11674399D01*
G01X9126601Y-11641399D01*
G01X9089601Y-11641399D01*
G01X9089601Y-11618603D01*
G01X9094602Y-11613601D01*
G01X9174602Y-11613601D01*
G37*
G36*
G01X8935598Y-11703599D02*
G01X8930599Y-11698597D01*
G01X8930599Y-11618598D01*
G01X8935598Y-11613599D01*
G01X9015598Y-11613599D01*
G01X9020599Y-11618598D01*
G01X9020599Y-11642801D01*
G01X8983599Y-11642801D01*
G01X8983599Y-11675801D01*
G01X9020599Y-11675801D01*
G01X9020599Y-11698597D01*
G01X9015598Y-11703599D01*
G01X8935598Y-11703599D01*
G37*
G36*
G01X7652898Y-13379999D02*
G01X7647899Y-13374997D01*
G01X7647899Y-13294998D01*
G01X7652898Y-13289999D01*
G01X7732898Y-13289999D01*
G01X7737899Y-13294998D01*
G01X7737899Y-13319201D01*
G01X7700899Y-13319201D01*
G01X7700899Y-13352201D01*
G01X7737899Y-13352201D01*
G01X7737899Y-13374997D01*
G01X7732898Y-13379999D01*
G01X7652898Y-13379999D01*
G37*
G36*
G01X7891902Y-13290001D02*
G01X7896901Y-13295003D01*
G01X7896901Y-13375002D01*
G01X7891902Y-13380001D01*
G01X7811902Y-13380001D01*
G01X7806901Y-13375002D01*
G01X7806901Y-13350799D01*
G01X7843901Y-13350799D01*
G01X7843901Y-13317799D01*
G01X7806901Y-13317799D01*
G01X7806901Y-13295003D01*
G01X7811902Y-13290001D01*
G01X7891902Y-13290001D01*
G37*
G36*
G01X7652898Y-12389399D02*
G01X7647899Y-12384397D01*
G01X7647899Y-12304398D01*
G01X7652898Y-12299399D01*
G01X7732898Y-12299399D01*
G01X7737899Y-12304398D01*
G01X7737899Y-12328601D01*
G01X7700899Y-12328601D01*
G01X7700899Y-12361601D01*
G01X7737899Y-12361601D01*
G01X7737899Y-12384397D01*
G01X7732898Y-12389399D01*
G01X7652898Y-12389399D01*
G37*
G36*
G01X7891902Y-12299401D02*
G01X7896901Y-12304403D01*
G01X7896901Y-12384402D01*
G01X7891902Y-12389401D01*
G01X7811902Y-12389401D01*
G01X7806901Y-12384402D01*
G01X7806901Y-12360199D01*
G01X7843901Y-12360199D01*
G01X7843901Y-12327199D01*
G01X7806901Y-12327199D01*
G01X7806901Y-12304403D01*
G01X7811902Y-12299401D01*
G01X7891902Y-12299401D01*
G37*
G36*
G01X7652898Y-13214899D02*
G01X7647899Y-13209897D01*
G01X7647899Y-13129898D01*
G01X7652898Y-13124899D01*
G01X7732898Y-13124899D01*
G01X7737899Y-13129898D01*
G01X7737899Y-13154101D01*
G01X7700899Y-13154101D01*
G01X7700899Y-13187101D01*
G01X7737899Y-13187101D01*
G01X7737899Y-13209897D01*
G01X7732898Y-13214899D01*
G01X7652898Y-13214899D01*
G37*
G36*
G01X7891902Y-13124901D02*
G01X7896901Y-13129903D01*
G01X7896901Y-13209902D01*
G01X7891902Y-13214901D01*
G01X7811902Y-13214901D01*
G01X7806901Y-13209902D01*
G01X7806901Y-13185699D01*
G01X7843901Y-13185699D01*
G01X7843901Y-13152699D01*
G01X7806901Y-13152699D01*
G01X7806901Y-13129903D01*
G01X7811902Y-13124901D01*
G01X7891902Y-13124901D01*
G37*
G36*
G01X7652898Y-12224299D02*
G01X7647899Y-12219297D01*
G01X7647899Y-12139298D01*
G01X7652898Y-12134299D01*
G01X7732898Y-12134299D01*
G01X7737899Y-12139298D01*
G01X7737899Y-12163501D01*
G01X7700899Y-12163501D01*
G01X7700899Y-12196501D01*
G01X7737899Y-12196501D01*
G01X7737899Y-12219297D01*
G01X7732898Y-12224299D01*
G01X7652898Y-12224299D01*
G37*
G36*
G01X7891902Y-12134301D02*
G01X7896901Y-12139303D01*
G01X7896901Y-12219302D01*
G01X7891902Y-12224301D01*
G01X7811902Y-12224301D01*
G01X7806901Y-12219302D01*
G01X7806901Y-12195099D01*
G01X7843901Y-12195099D01*
G01X7843901Y-12162099D01*
G01X7806901Y-12162099D01*
G01X7806901Y-12139303D01*
G01X7811902Y-12134301D01*
G01X7891902Y-12134301D01*
G37*
G36*
G01X7652898Y-13049799D02*
G01X7647899Y-13044797D01*
G01X7647899Y-12964798D01*
G01X7652898Y-12959799D01*
G01X7732898Y-12959799D01*
G01X7737899Y-12964798D01*
G01X7737899Y-12989001D01*
G01X7700899Y-12989001D01*
G01X7700899Y-13022001D01*
G01X7737899Y-13022001D01*
G01X7737899Y-13044797D01*
G01X7732898Y-13049799D01*
G01X7652898Y-13049799D01*
G37*
G36*
G01X7891902Y-12959801D02*
G01X7896901Y-12964803D01*
G01X7896901Y-13044802D01*
G01X7891902Y-13049801D01*
G01X7811902Y-13049801D01*
G01X7806901Y-13044802D01*
G01X7806901Y-13020599D01*
G01X7843901Y-13020599D01*
G01X7843901Y-12987599D01*
G01X7806901Y-12987599D01*
G01X7806901Y-12964803D01*
G01X7811902Y-12959801D01*
G01X7891902Y-12959801D01*
G37*
G36*
G01X7652898Y-12059199D02*
G01X7647899Y-12054197D01*
G01X7647899Y-11974198D01*
G01X7652898Y-11969199D01*
G01X7732898Y-11969199D01*
G01X7737899Y-11974198D01*
G01X7737899Y-11998401D01*
G01X7700899Y-11998401D01*
G01X7700899Y-12031401D01*
G01X7737899Y-12031401D01*
G01X7737899Y-12054197D01*
G01X7732898Y-12059199D01*
G01X7652898Y-12059199D01*
G37*
G36*
G01X7891902Y-11969201D02*
G01X7896901Y-11974203D01*
G01X7896901Y-12054202D01*
G01X7891902Y-12059201D01*
G01X7811902Y-12059201D01*
G01X7806901Y-12054202D01*
G01X7806901Y-12029999D01*
G01X7843901Y-12029999D01*
G01X7843901Y-11996999D01*
G01X7806901Y-11996999D01*
G01X7806901Y-11974203D01*
G01X7811902Y-11969201D01*
G01X7891902Y-11969201D01*
G37*
G36*
G01X7652898Y-12884699D02*
G01X7647899Y-12879697D01*
G01X7647899Y-12799698D01*
G01X7652898Y-12794699D01*
G01X7732898Y-12794699D01*
G01X7737899Y-12799698D01*
G01X7737899Y-12823901D01*
G01X7700899Y-12823901D01*
G01X7700899Y-12856901D01*
G01X7737899Y-12856901D01*
G01X7737899Y-12879697D01*
G01X7732898Y-12884699D01*
G01X7652898Y-12884699D01*
G37*
G36*
G01X7891902Y-12794701D02*
G01X7896901Y-12799703D01*
G01X7896901Y-12879702D01*
G01X7891902Y-12884701D01*
G01X7811902Y-12884701D01*
G01X7806901Y-12879702D01*
G01X7806901Y-12855499D01*
G01X7843901Y-12855499D01*
G01X7843901Y-12822499D01*
G01X7806901Y-12822499D01*
G01X7806901Y-12799703D01*
G01X7811902Y-12794701D01*
G01X7891902Y-12794701D01*
G37*
G36*
G01X7652898Y-11894099D02*
G01X7647899Y-11889097D01*
G01X7647899Y-11809098D01*
G01X7652898Y-11804099D01*
G01X7732898Y-11804099D01*
G01X7737899Y-11809098D01*
G01X7737899Y-11833301D01*
G01X7700899Y-11833301D01*
G01X7700899Y-11866301D01*
G01X7737899Y-11866301D01*
G01X7737899Y-11889097D01*
G01X7732898Y-11894099D01*
G01X7652898Y-11894099D01*
G37*
G36*
G01X7891902Y-11804101D02*
G01X7896901Y-11809103D01*
G01X7896901Y-11889102D01*
G01X7891902Y-11894101D01*
G01X7811902Y-11894101D01*
G01X7806901Y-11889102D01*
G01X7806901Y-11864899D01*
G01X7843901Y-11864899D01*
G01X7843901Y-11831899D01*
G01X7806901Y-11831899D01*
G01X7806901Y-11809103D01*
G01X7811902Y-11804101D01*
G01X7891902Y-11804101D01*
G37*
G36*
G01X7652898Y-11360699D02*
G01X7647899Y-11355697D01*
G01X7647899Y-11275698D01*
G01X7652898Y-11270699D01*
G01X7732898Y-11270699D01*
G01X7737899Y-11275698D01*
G01X7737899Y-11299901D01*
G01X7700899Y-11299901D01*
G01X7700899Y-11332901D01*
G01X7737899Y-11332901D01*
G01X7737899Y-11355697D01*
G01X7732898Y-11360699D01*
G01X7652898Y-11360699D01*
G37*
G36*
G01X7891902Y-11270701D02*
G01X7896901Y-11275703D01*
G01X7896901Y-11355702D01*
G01X7891902Y-11360701D01*
G01X7811902Y-11360701D01*
G01X7806901Y-11355702D01*
G01X7806901Y-11331499D01*
G01X7843901Y-11331499D01*
G01X7843901Y-11298499D01*
G01X7806901Y-11298499D01*
G01X7806901Y-11275703D01*
G01X7811902Y-11270701D01*
G01X7891902Y-11270701D01*
G37*
G36*
G01X7652898Y-10370099D02*
G01X7647899Y-10365097D01*
G01X7647899Y-10285098D01*
G01X7652898Y-10280099D01*
G01X7732898Y-10280099D01*
G01X7737899Y-10285098D01*
G01X7737899Y-10309301D01*
G01X7700899Y-10309301D01*
G01X7700899Y-10342301D01*
G01X7737899Y-10342301D01*
G01X7737899Y-10365097D01*
G01X7732898Y-10370099D01*
G01X7652898Y-10370099D01*
G37*
G36*
G01X7891902Y-10280101D02*
G01X7896901Y-10285103D01*
G01X7896901Y-10365102D01*
G01X7891902Y-10370101D01*
G01X7811902Y-10370101D01*
G01X7806901Y-10365102D01*
G01X7806901Y-10340899D01*
G01X7843901Y-10340899D01*
G01X7843901Y-10307899D01*
G01X7806901Y-10307899D01*
G01X7806901Y-10285103D01*
G01X7811902Y-10280101D01*
G01X7891902Y-10280101D01*
G37*
G36*
G01X7652898Y-11195599D02*
G01X7647899Y-11190597D01*
G01X7647899Y-11110598D01*
G01X7652898Y-11105599D01*
G01X7732898Y-11105599D01*
G01X7737899Y-11110598D01*
G01X7737899Y-11134801D01*
G01X7700899Y-11134801D01*
G01X7700899Y-11167801D01*
G01X7737899Y-11167801D01*
G01X7737899Y-11190597D01*
G01X7732898Y-11195599D01*
G01X7652898Y-11195599D01*
G37*
G36*
G01X7891902Y-11105601D02*
G01X7896901Y-11110603D01*
G01X7896901Y-11190602D01*
G01X7891902Y-11195601D01*
G01X7811902Y-11195601D01*
G01X7806901Y-11190602D01*
G01X7806901Y-11166399D01*
G01X7843901Y-11166399D01*
G01X7843901Y-11133399D01*
G01X7806901Y-11133399D01*
G01X7806901Y-11110603D01*
G01X7811902Y-11105601D01*
G01X7891902Y-11105601D01*
G37*
G36*
G01X7652898Y-10204999D02*
G01X7647899Y-10199997D01*
G01X7647899Y-10119998D01*
G01X7652898Y-10114999D01*
G01X7732898Y-10114999D01*
G01X7737899Y-10119998D01*
G01X7737899Y-10144201D01*
G01X7700899Y-10144201D01*
G01X7700899Y-10177201D01*
G01X7737899Y-10177201D01*
G01X7737899Y-10199997D01*
G01X7732898Y-10204999D01*
G01X7652898Y-10204999D01*
G37*
G36*
G01X7891902Y-10115001D02*
G01X7896901Y-10120003D01*
G01X7896901Y-10200002D01*
G01X7891902Y-10205001D01*
G01X7811902Y-10205001D01*
G01X7806901Y-10200002D01*
G01X7806901Y-10175799D01*
G01X7843901Y-10175799D01*
G01X7843901Y-10142799D01*
G01X7806901Y-10142799D01*
G01X7806901Y-10120003D01*
G01X7811902Y-10115001D01*
G01X7891902Y-10115001D01*
G37*
G36*
G01X7652898Y-11030499D02*
G01X7647899Y-11025497D01*
G01X7647899Y-10945498D01*
G01X7652898Y-10940499D01*
G01X7732898Y-10940499D01*
G01X7737899Y-10945498D01*
G01X7737899Y-10969701D01*
G01X7700899Y-10969701D01*
G01X7700899Y-11002701D01*
G01X7737899Y-11002701D01*
G01X7737899Y-11025497D01*
G01X7732898Y-11030499D01*
G01X7652898Y-11030499D01*
G37*
G36*
G01X7891902Y-10940501D02*
G01X7896901Y-10945503D01*
G01X7896901Y-11025502D01*
G01X7891902Y-11030501D01*
G01X7811902Y-11030501D01*
G01X7806901Y-11025502D01*
G01X7806901Y-11001299D01*
G01X7843901Y-11001299D01*
G01X7843901Y-10968299D01*
G01X7806901Y-10968299D01*
G01X7806901Y-10945503D01*
G01X7811902Y-10940501D01*
G01X7891902Y-10940501D01*
G37*
G36*
G01X7652898Y-10039899D02*
G01X7647899Y-10034897D01*
G01X7647899Y-9954898D01*
G01X7652898Y-9949899D01*
G01X7732898Y-9949899D01*
G01X7737899Y-9954898D01*
G01X7737899Y-9979101D01*
G01X7700899Y-9979101D01*
G01X7700899Y-10012101D01*
G01X7737899Y-10012101D01*
G01X7737899Y-10034897D01*
G01X7732898Y-10039899D01*
G01X7652898Y-10039899D01*
G37*
G36*
G01X7891902Y-9949901D02*
G01X7896901Y-9954903D01*
G01X7896901Y-10034902D01*
G01X7891902Y-10039901D01*
G01X7811902Y-10039901D01*
G01X7806901Y-10034902D01*
G01X7806901Y-10010699D01*
G01X7843901Y-10010699D01*
G01X7843901Y-9977699D01*
G01X7806901Y-9977699D01*
G01X7806901Y-9954903D01*
G01X7811902Y-9949901D01*
G01X7891902Y-9949901D01*
G37*
G36*
G01X7652898Y-10865399D02*
G01X7647899Y-10860397D01*
G01X7647899Y-10780398D01*
G01X7652898Y-10775399D01*
G01X7732898Y-10775399D01*
G01X7737899Y-10780398D01*
G01X7737899Y-10804601D01*
G01X7700899Y-10804601D01*
G01X7700899Y-10837601D01*
G01X7737899Y-10837601D01*
G01X7737899Y-10860397D01*
G01X7732898Y-10865399D01*
G01X7652898Y-10865399D01*
G37*
G36*
G01X7891902Y-10775401D02*
G01X7896901Y-10780403D01*
G01X7896901Y-10860402D01*
G01X7891902Y-10865401D01*
G01X7811902Y-10865401D01*
G01X7806901Y-10860402D01*
G01X7806901Y-10836199D01*
G01X7843901Y-10836199D01*
G01X7843901Y-10803199D01*
G01X7806901Y-10803199D01*
G01X7806901Y-10780403D01*
G01X7811902Y-10775401D01*
G01X7891902Y-10775401D01*
G37*
G36*
G01X7652898Y-9874799D02*
G01X7647899Y-9869797D01*
G01X7647899Y-9789798D01*
G01X7652898Y-9784799D01*
G01X7732898Y-9784799D01*
G01X7737899Y-9789798D01*
G01X7737899Y-9814001D01*
G01X7700899Y-9814001D01*
G01X7700899Y-9847001D01*
G01X7737899Y-9847001D01*
G01X7737899Y-9869797D01*
G01X7732898Y-9874799D01*
G01X7652898Y-9874799D01*
G37*
G36*
G01X7891902Y-9784801D02*
G01X7896901Y-9789803D01*
G01X7896901Y-9869802D01*
G01X7891902Y-9874801D01*
G01X7811902Y-9874801D01*
G01X7806901Y-9869802D01*
G01X7806901Y-9845599D01*
G01X7843901Y-9845599D01*
G01X7843901Y-9812599D01*
G01X7806901Y-9812599D01*
G01X7806901Y-9789803D01*
G01X7811902Y-9784801D01*
G01X7891902Y-9784801D01*
G37*
G36*
G01X7640198Y-9328699D02*
G01X7635199Y-9323697D01*
G01X7635199Y-9243698D01*
G01X7640198Y-9238699D01*
G01X7720198Y-9238699D01*
G01X7725199Y-9243698D01*
G01X7725199Y-9267901D01*
G01X7688199Y-9267901D01*
G01X7688199Y-9300901D01*
G01X7725199Y-9300901D01*
G01X7725199Y-9323697D01*
G01X7720198Y-9328699D01*
G01X7640198Y-9328699D01*
G37*
G36*
G01X7879202Y-9238701D02*
G01X7884201Y-9243703D01*
G01X7884201Y-9323702D01*
G01X7879202Y-9328701D01*
G01X7799202Y-9328701D01*
G01X7794201Y-9323702D01*
G01X7794201Y-9299499D01*
G01X7831201Y-9299499D01*
G01X7831201Y-9266499D01*
G01X7794201Y-9266499D01*
G01X7794201Y-9243703D01*
G01X7799202Y-9238701D01*
G01X7879202Y-9238701D01*
G37*
G36*
G01X7640198Y-8299999D02*
G01X7635199Y-8294997D01*
G01X7635199Y-8214998D01*
G01X7640198Y-8209999D01*
G01X7720198Y-8209999D01*
G01X7725199Y-8214998D01*
G01X7725199Y-8239201D01*
G01X7688199Y-8239201D01*
G01X7688199Y-8272201D01*
G01X7725199Y-8272201D01*
G01X7725199Y-8294997D01*
G01X7720198Y-8299999D01*
G01X7640198Y-8299999D01*
G37*
G36*
G01X7879202Y-8210001D02*
G01X7884201Y-8215003D01*
G01X7884201Y-8295002D01*
G01X7879202Y-8300001D01*
G01X7799202Y-8300001D01*
G01X7794201Y-8295002D01*
G01X7794201Y-8270799D01*
G01X7831201Y-8270799D01*
G01X7831201Y-8237799D01*
G01X7794201Y-8237799D01*
G01X7794201Y-8215003D01*
G01X7799202Y-8210001D01*
G01X7879202Y-8210001D01*
G37*
G36*
G01X7640198Y-9163599D02*
G01X7635199Y-9158597D01*
G01X7635199Y-9078598D01*
G01X7640198Y-9073599D01*
G01X7720198Y-9073599D01*
G01X7725199Y-9078598D01*
G01X7725199Y-9102801D01*
G01X7688199Y-9102801D01*
G01X7688199Y-9135801D01*
G01X7725199Y-9135801D01*
G01X7725199Y-9158597D01*
G01X7720198Y-9163599D01*
G01X7640198Y-9163599D01*
G37*
G36*
G01X7879202Y-9073601D02*
G01X7884201Y-9078603D01*
G01X7884201Y-9158602D01*
G01X7879202Y-9163601D01*
G01X7799202Y-9163601D01*
G01X7794201Y-9158602D01*
G01X7794201Y-9134399D01*
G01X7831201Y-9134399D01*
G01X7831201Y-9101399D01*
G01X7794201Y-9101399D01*
G01X7794201Y-9078603D01*
G01X7799202Y-9073601D01*
G01X7879202Y-9073601D01*
G37*
G36*
G01X7640198Y-8134899D02*
G01X7635199Y-8129897D01*
G01X7635199Y-8049898D01*
G01X7640198Y-8044899D01*
G01X7720198Y-8044899D01*
G01X7725199Y-8049898D01*
G01X7725199Y-8074101D01*
G01X7688199Y-8074101D01*
G01X7688199Y-8107101D01*
G01X7725199Y-8107101D01*
G01X7725199Y-8129897D01*
G01X7720198Y-8134899D01*
G01X7640198Y-8134899D01*
G37*
G36*
G01X7879202Y-8044901D02*
G01X7884201Y-8049903D01*
G01X7884201Y-8129902D01*
G01X7879202Y-8134901D01*
G01X7799202Y-8134901D01*
G01X7794201Y-8129902D01*
G01X7794201Y-8105699D01*
G01X7831201Y-8105699D01*
G01X7831201Y-8072699D01*
G01X7794201Y-8072699D01*
G01X7794201Y-8049903D01*
G01X7799202Y-8044901D01*
G01X7879202Y-8044901D01*
G37*
G36*
G01X7640198Y-8998499D02*
G01X7635199Y-8993497D01*
G01X7635199Y-8913498D01*
G01X7640198Y-8908499D01*
G01X7720198Y-8908499D01*
G01X7725199Y-8913498D01*
G01X7725199Y-8937701D01*
G01X7688199Y-8937701D01*
G01X7688199Y-8970701D01*
G01X7725199Y-8970701D01*
G01X7725199Y-8993497D01*
G01X7720198Y-8998499D01*
G01X7640198Y-8998499D01*
G37*
G36*
G01X7879202Y-8908501D02*
G01X7884201Y-8913503D01*
G01X7884201Y-8993502D01*
G01X7879202Y-8998501D01*
G01X7799202Y-8998501D01*
G01X7794201Y-8993502D01*
G01X7794201Y-8969299D01*
G01X7831201Y-8969299D01*
G01X7831201Y-8936299D01*
G01X7794201Y-8936299D01*
G01X7794201Y-8913503D01*
G01X7799202Y-8908501D01*
G01X7879202Y-8908501D01*
G37*
G36*
G01X7640198Y-7969799D02*
G01X7635199Y-7964797D01*
G01X7635199Y-7884798D01*
G01X7640198Y-7879799D01*
G01X7720198Y-7879799D01*
G01X7725199Y-7884798D01*
G01X7725199Y-7909001D01*
G01X7688199Y-7909001D01*
G01X7688199Y-7942001D01*
G01X7725199Y-7942001D01*
G01X7725199Y-7964797D01*
G01X7720198Y-7969799D01*
G01X7640198Y-7969799D01*
G37*
G36*
G01X7879202Y-7879801D02*
G01X7884201Y-7884803D01*
G01X7884201Y-7964802D01*
G01X7879202Y-7969801D01*
G01X7799202Y-7969801D01*
G01X7794201Y-7964802D01*
G01X7794201Y-7940599D01*
G01X7831201Y-7940599D01*
G01X7831201Y-7907599D01*
G01X7794201Y-7907599D01*
G01X7794201Y-7884803D01*
G01X7799202Y-7879801D01*
G01X7879202Y-7879801D01*
G37*
G36*
G01X7640198Y-8833399D02*
G01X7635199Y-8828397D01*
G01X7635199Y-8748398D01*
G01X7640198Y-8743399D01*
G01X7720198Y-8743399D01*
G01X7725199Y-8748398D01*
G01X7725199Y-8772601D01*
G01X7688199Y-8772601D01*
G01X7688199Y-8805601D01*
G01X7725199Y-8805601D01*
G01X7725199Y-8828397D01*
G01X7720198Y-8833399D01*
G01X7640198Y-8833399D01*
G37*
G36*
G01X7879202Y-8743401D02*
G01X7884201Y-8748403D01*
G01X7884201Y-8828402D01*
G01X7879202Y-8833401D01*
G01X7799202Y-8833401D01*
G01X7794201Y-8828402D01*
G01X7794201Y-8804199D01*
G01X7831201Y-8804199D01*
G01X7831201Y-8771199D01*
G01X7794201Y-8771199D01*
G01X7794201Y-8748403D01*
G01X7799202Y-8743401D01*
G01X7879202Y-8743401D01*
G37*
G36*
G01X7640198Y-7804699D02*
G01X7635199Y-7799697D01*
G01X7635199Y-7719698D01*
G01X7640198Y-7714699D01*
G01X7720198Y-7714699D01*
G01X7725199Y-7719698D01*
G01X7725199Y-7743901D01*
G01X7688199Y-7743901D01*
G01X7688199Y-7776901D01*
G01X7725199Y-7776901D01*
G01X7725199Y-7799697D01*
G01X7720198Y-7804699D01*
G01X7640198Y-7804699D01*
G37*
G36*
G01X7879202Y-7714701D02*
G01X7884201Y-7719703D01*
G01X7884201Y-7799702D01*
G01X7879202Y-7804701D01*
G01X7799202Y-7804701D01*
G01X7794201Y-7799702D01*
G01X7794201Y-7775499D01*
G01X7831201Y-7775499D01*
G01X7831201Y-7742499D01*
G01X7794201Y-7742499D01*
G01X7794201Y-7719703D01*
G01X7799202Y-7714701D01*
G01X7879202Y-7714701D01*
G37*
G36*
G01X9722998Y-12884699D02*
G01X9717999Y-12879697D01*
G01X9717999Y-12799698D01*
G01X9722998Y-12794699D01*
G01X9802998Y-12794699D01*
G01X9807999Y-12799698D01*
G01X9807999Y-12823901D01*
G01X9770999Y-12823901D01*
G01X9770999Y-12856901D01*
G01X9807999Y-12856901D01*
G01X9807999Y-12879697D01*
G01X9802998Y-12884699D01*
G01X9722998Y-12884699D01*
G37*
G36*
G01X9962002Y-12794701D02*
G01X9967001Y-12799703D01*
G01X9967001Y-12879702D01*
G01X9962002Y-12884701D01*
G01X9882002Y-12884701D01*
G01X9877001Y-12879702D01*
G01X9877001Y-12855499D01*
G01X9914001Y-12855499D01*
G01X9914001Y-12822499D01*
G01X9877001Y-12822499D01*
G01X9877001Y-12799703D01*
G01X9882002Y-12794701D01*
G01X9962002Y-12794701D01*
G37*
G36*
G01X10091298Y-12884699D02*
G01X10086299Y-12879697D01*
G01X10086299Y-12799698D01*
G01X10091298Y-12794699D01*
G01X10171298Y-12794699D01*
G01X10176299Y-12799698D01*
G01X10176299Y-12823901D01*
G01X10139299Y-12823901D01*
G01X10139299Y-12856901D01*
G01X10176299Y-12856901D01*
G01X10176299Y-12879697D01*
G01X10171298Y-12884699D01*
G01X10091298Y-12884699D01*
G37*
G36*
G01X10330302Y-12794701D02*
G01X10335301Y-12799703D01*
G01X10335301Y-12879702D01*
G01X10330302Y-12884701D01*
G01X10250302Y-12884701D01*
G01X10245301Y-12879702D01*
G01X10245301Y-12855499D01*
G01X10282301Y-12855499D01*
G01X10282301Y-12822499D01*
G01X10245301Y-12822499D01*
G01X10245301Y-12799703D01*
G01X10250302Y-12794701D01*
G01X10330302Y-12794701D01*
G37*
G36*
G01X10472298Y-12884699D02*
G01X10467299Y-12879697D01*
G01X10467299Y-12799698D01*
G01X10472298Y-12794699D01*
G01X10552298Y-12794699D01*
G01X10557299Y-12799698D01*
G01X10557299Y-12823901D01*
G01X10520299Y-12823901D01*
G01X10520299Y-12856901D01*
G01X10557299Y-12856901D01*
G01X10557299Y-12879697D01*
G01X10552298Y-12884699D01*
G01X10472298Y-12884699D01*
G37*
G36*
G01X10711302Y-12794701D02*
G01X10716301Y-12799703D01*
G01X10716301Y-12879702D01*
G01X10711302Y-12884701D01*
G01X10631302Y-12884701D01*
G01X10626301Y-12879702D01*
G01X10626301Y-12855499D01*
G01X10663301Y-12855499D01*
G01X10663301Y-12822499D01*
G01X10626301Y-12822499D01*
G01X10626301Y-12799703D01*
G01X10631302Y-12794701D01*
G01X10711302Y-12794701D01*
G37*
G36*
G01X10840598Y-12884699D02*
G01X10835599Y-12879697D01*
G01X10835599Y-12799698D01*
G01X10840598Y-12794699D01*
G01X10920598Y-12794699D01*
G01X10925599Y-12799698D01*
G01X10925599Y-12823901D01*
G01X10888599Y-12823901D01*
G01X10888599Y-12856901D01*
G01X10925599Y-12856901D01*
G01X10925599Y-12879697D01*
G01X10920598Y-12884699D01*
G01X10840598Y-12884699D01*
G37*
G36*
G01X11079602Y-12794701D02*
G01X11084601Y-12799703D01*
G01X11084601Y-12879702D01*
G01X11079602Y-12884701D01*
G01X10999602Y-12884701D01*
G01X10994601Y-12879702D01*
G01X10994601Y-12855499D01*
G01X11031601Y-12855499D01*
G01X11031601Y-12822499D01*
G01X10994601Y-12822499D01*
G01X10994601Y-12799703D01*
G01X10999602Y-12794701D01*
G01X11079602Y-12794701D01*
G37*
G36*
G01X11208898Y-12884699D02*
G01X11203899Y-12879697D01*
G01X11203899Y-12799698D01*
G01X11208898Y-12794699D01*
G01X11288898Y-12794699D01*
G01X11293899Y-12799698D01*
G01X11293899Y-12823901D01*
G01X11256899Y-12823901D01*
G01X11256899Y-12856901D01*
G01X11293899Y-12856901D01*
G01X11293899Y-12879697D01*
G01X11288898Y-12884699D01*
G01X11208898Y-12884699D01*
G37*
G36*
G01X11447902Y-12794701D02*
G01X11452901Y-12799703D01*
G01X11452901Y-12879702D01*
G01X11447902Y-12884701D01*
G01X11367902Y-12884701D01*
G01X11362901Y-12879702D01*
G01X11362901Y-12855499D01*
G01X11399901Y-12855499D01*
G01X11399901Y-12822499D01*
G01X11362901Y-12822499D01*
G01X11362901Y-12799703D01*
G01X11367902Y-12794701D01*
G01X11447902Y-12794701D01*
G37*
G36*
G01X11577198Y-12884699D02*
G01X11572199Y-12879697D01*
G01X11572199Y-12799698D01*
G01X11577198Y-12794699D01*
G01X11657198Y-12794699D01*
G01X11662199Y-12799698D01*
G01X11662199Y-12823901D01*
G01X11625199Y-12823901D01*
G01X11625199Y-12856901D01*
G01X11662199Y-12856901D01*
G01X11662199Y-12879697D01*
G01X11657198Y-12884699D01*
G01X11577198Y-12884699D01*
G37*
G36*
G01X11816202Y-12794701D02*
G01X11821201Y-12799703D01*
G01X11821201Y-12879702D01*
G01X11816202Y-12884701D01*
G01X11736202Y-12884701D01*
G01X11731201Y-12879702D01*
G01X11731201Y-12855499D01*
G01X11768201Y-12855499D01*
G01X11768201Y-12822499D01*
G01X11731201Y-12822499D01*
G01X11731201Y-12799703D01*
G01X11736202Y-12794701D01*
G01X11816202Y-12794701D01*
G37*
G36*
G01X9724420Y-13901481D02*
G01X9719421Y-13896480D01*
G01X9719421Y-13816480D01*
G01X9724420Y-13811481D01*
G01X9804420Y-13811481D01*
G01X9809421Y-13816480D01*
G01X9809421Y-13840684D01*
G01X9772421Y-13840684D01*
G01X9772421Y-13873683D01*
G01X9809421Y-13873683D01*
G01X9809421Y-13896480D01*
G01X9804420Y-13901481D01*
G01X9724420Y-13901481D01*
G37*
G36*
G01X9963424Y-13811484D02*
G01X9968423Y-13816485D01*
G01X9968423Y-13896485D01*
G01X9963424Y-13901484D01*
G01X9883424Y-13901484D01*
G01X9878423Y-13896485D01*
G01X9878423Y-13872281D01*
G01X9915423Y-13872281D01*
G01X9915423Y-13839282D01*
G01X9878423Y-13839282D01*
G01X9878423Y-13816485D01*
G01X9883424Y-13811484D01*
G01X9963424Y-13811484D01*
G37*
G36*
G01X10091298Y-13900699D02*
G01X10086299Y-13895697D01*
G01X10086299Y-13815698D01*
G01X10091298Y-13810699D01*
G01X10171298Y-13810699D01*
G01X10176299Y-13815698D01*
G01X10176299Y-13839901D01*
G01X10139299Y-13839901D01*
G01X10139299Y-13872901D01*
G01X10176299Y-13872901D01*
G01X10176299Y-13895697D01*
G01X10171298Y-13900699D01*
G01X10091298Y-13900699D01*
G37*
G36*
G01X10330302Y-13810701D02*
G01X10335301Y-13815703D01*
G01X10335301Y-13895702D01*
G01X10330302Y-13900701D01*
G01X10250302Y-13900701D01*
G01X10245301Y-13895702D01*
G01X10245301Y-13871499D01*
G01X10282301Y-13871499D01*
G01X10282301Y-13838499D01*
G01X10245301Y-13838499D01*
G01X10245301Y-13815703D01*
G01X10250302Y-13810701D01*
G01X10330302Y-13810701D01*
G37*
G36*
G01X10472298Y-13900699D02*
G01X10467299Y-13895697D01*
G01X10467299Y-13815698D01*
G01X10472298Y-13810699D01*
G01X10552298Y-13810699D01*
G01X10557299Y-13815698D01*
G01X10557299Y-13839901D01*
G01X10520299Y-13839901D01*
G01X10520299Y-13872901D01*
G01X10557299Y-13872901D01*
G01X10557299Y-13895697D01*
G01X10552298Y-13900699D01*
G01X10472298Y-13900699D01*
G37*
G36*
G01X10711302Y-13810701D02*
G01X10716301Y-13815703D01*
G01X10716301Y-13895702D01*
G01X10711302Y-13900701D01*
G01X10631302Y-13900701D01*
G01X10626301Y-13895702D01*
G01X10626301Y-13871499D01*
G01X10663301Y-13871499D01*
G01X10663301Y-13838499D01*
G01X10626301Y-13838499D01*
G01X10626301Y-13815703D01*
G01X10631302Y-13810701D01*
G01X10711302Y-13810701D01*
G37*
G36*
G01X10840598Y-13900699D02*
G01X10835599Y-13895697D01*
G01X10835599Y-13815698D01*
G01X10840598Y-13810699D01*
G01X10920598Y-13810699D01*
G01X10925599Y-13815698D01*
G01X10925599Y-13839901D01*
G01X10888599Y-13839901D01*
G01X10888599Y-13872901D01*
G01X10925599Y-13872901D01*
G01X10925599Y-13895697D01*
G01X10920598Y-13900699D01*
G01X10840598Y-13900699D01*
G37*
G36*
G01X11079602Y-13810701D02*
G01X11084601Y-13815703D01*
G01X11084601Y-13895702D01*
G01X11079602Y-13900701D01*
G01X10999602Y-13900701D01*
G01X10994601Y-13895702D01*
G01X10994601Y-13871499D01*
G01X11031601Y-13871499D01*
G01X11031601Y-13838499D01*
G01X10994601Y-13838499D01*
G01X10994601Y-13815703D01*
G01X10999602Y-13810701D01*
G01X11079602Y-13810701D01*
G37*
G36*
G01X11208898Y-13900699D02*
G01X11203899Y-13895697D01*
G01X11203899Y-13815698D01*
G01X11208898Y-13810699D01*
G01X11288898Y-13810699D01*
G01X11293899Y-13815698D01*
G01X11293899Y-13839901D01*
G01X11256899Y-13839901D01*
G01X11256899Y-13872901D01*
G01X11293899Y-13872901D01*
G01X11293899Y-13895697D01*
G01X11288898Y-13900699D01*
G01X11208898Y-13900699D01*
G37*
G36*
G01X11447902Y-13810701D02*
G01X11452901Y-13815703D01*
G01X11452901Y-13895702D01*
G01X11447902Y-13900701D01*
G01X11367902Y-13900701D01*
G01X11362901Y-13895702D01*
G01X11362901Y-13871499D01*
G01X11399901Y-13871499D01*
G01X11399901Y-13838499D01*
G01X11362901Y-13838499D01*
G01X11362901Y-13815703D01*
G01X11367902Y-13810701D01*
G01X11447902Y-13810701D01*
G37*
G36*
G01X11577198Y-13900699D02*
G01X11572199Y-13895697D01*
G01X11572199Y-13815698D01*
G01X11577198Y-13810699D01*
G01X11657198Y-13810699D01*
G01X11662199Y-13815698D01*
G01X11662199Y-13839901D01*
G01X11625199Y-13839901D01*
G01X11625199Y-13872901D01*
G01X11662199Y-13872901D01*
G01X11662199Y-13895697D01*
G01X11657198Y-13900699D01*
G01X11577198Y-13900699D01*
G37*
G36*
G01X11816202Y-13810701D02*
G01X11821201Y-13815703D01*
G01X11821201Y-13895702D01*
G01X11816202Y-13900701D01*
G01X11736202Y-13900701D01*
G01X11731201Y-13895702D01*
G01X11731201Y-13871499D01*
G01X11768201Y-13871499D01*
G01X11768201Y-13838499D01*
G01X11731201Y-13838499D01*
G01X11731201Y-13815703D01*
G01X11736202Y-13810701D01*
G01X11816202Y-13810701D01*
G37*
G36*
G01X9253098Y-7398299D02*
G01X9248099Y-7393297D01*
G01X9248099Y-7313298D01*
G01X9253098Y-7308299D01*
G01X9333098Y-7308299D01*
G01X9338099Y-7313298D01*
G01X9338099Y-7337501D01*
G01X9301099Y-7337501D01*
G01X9301099Y-7370501D01*
G01X9338099Y-7370501D01*
G01X9338099Y-7393297D01*
G01X9333098Y-7398299D01*
G01X9253098Y-7398299D01*
G37*
G36*
G01X9492102Y-7308301D02*
G01X9497101Y-7313303D01*
G01X9497101Y-7393302D01*
G01X9492102Y-7398301D01*
G01X9412102Y-7398301D01*
G01X9407101Y-7393302D01*
G01X9407101Y-7369099D01*
G01X9444101Y-7369099D01*
G01X9444101Y-7336099D01*
G01X9407101Y-7336099D01*
G01X9407101Y-7313303D01*
G01X9412102Y-7308301D01*
G01X9492102Y-7308301D01*
G37*
G36*
G01X11354300Y-7079297D02*
G01X11226302Y-7079297D01*
G01X11221301Y-7074296D01*
G01X11221301Y-6959295D01*
G01X11226302Y-6954296D01*
G01X11267305Y-6953794D01*
G01X11267305Y-6998795D01*
G01X11312304Y-6998795D01*
G01X11312304Y-6954794D01*
G01X11354300Y-6954296D01*
G01X11359302Y-6959295D01*
G01X11359302Y-7074296D01*
G01X11354300Y-7079297D01*
G37*
G36*
G01X11226300Y-6738302D02*
G01X11354298Y-6738302D01*
G01X11359299Y-6743304D01*
G01X11359299Y-6858305D01*
G01X11354298Y-6863304D01*
G01X11313295Y-6863806D01*
G01X11313295Y-6818805D01*
G01X11268296Y-6818805D01*
G01X11268296Y-6862806D01*
G01X11226300Y-6863304D01*
G01X11221298Y-6858305D01*
G01X11221298Y-6743304D01*
G01X11226300Y-6738302D01*
G37*
G36*
G01X9093700Y-7079297D02*
G01X8965702Y-7079297D01*
G01X8960701Y-7074296D01*
G01X8960701Y-6959295D01*
G01X8965702Y-6954296D01*
G01X9006705Y-6953794D01*
G01X9006705Y-6998795D01*
G01X9051704Y-6998795D01*
G01X9051704Y-6954794D01*
G01X9093700Y-6954296D01*
G01X9098702Y-6959295D01*
G01X9098702Y-7074296D01*
G01X9093700Y-7079297D01*
G37*
G36*
G01X8965700Y-6738302D02*
G01X9093698Y-6738302D01*
G01X9098699Y-6743304D01*
G01X9098699Y-6858305D01*
G01X9093698Y-6863304D01*
G01X9052695Y-6863806D01*
G01X9052695Y-6818805D01*
G01X9007696Y-6818805D01*
G01X9007696Y-6862806D01*
G01X8965700Y-6863304D01*
G01X8960698Y-6858305D01*
G01X8960698Y-6743304D01*
G01X8965700Y-6738302D01*
G37*
G36*
G01X11234298Y-8934999D02*
G01X11229299Y-8929997D01*
G01X11229299Y-8849998D01*
G01X11234298Y-8844999D01*
G01X11314298Y-8844999D01*
G01X11319299Y-8849998D01*
G01X11319299Y-8874201D01*
G01X11282299Y-8874201D01*
G01X11282299Y-8907201D01*
G01X11319299Y-8907201D01*
G01X11319299Y-8929997D01*
G01X11314298Y-8934999D01*
G01X11234298Y-8934999D01*
G37*
G36*
G01X11473302Y-8845001D02*
G01X11478301Y-8850003D01*
G01X11478301Y-8930002D01*
G01X11473302Y-8935001D01*
G01X11393302Y-8935001D01*
G01X11388301Y-8930002D01*
G01X11388301Y-8905799D01*
G01X11425301Y-8905799D01*
G01X11425301Y-8872799D01*
G01X11388301Y-8872799D01*
G01X11388301Y-8850003D01*
G01X11393302Y-8845001D01*
G01X11473302Y-8845001D01*
G37*
G36*
G01X11246998Y-10471699D02*
G01X11241999Y-10466697D01*
G01X11241999Y-10386698D01*
G01X11246998Y-10381699D01*
G01X11326998Y-10381699D01*
G01X11331999Y-10386698D01*
G01X11331999Y-10410901D01*
G01X11294999Y-10410901D01*
G01X11294999Y-10443901D01*
G01X11331999Y-10443901D01*
G01X11331999Y-10466697D01*
G01X11326998Y-10471699D01*
G01X11246998Y-10471699D01*
G37*
G36*
G01X11486002Y-10381701D02*
G01X11491001Y-10386703D01*
G01X11491001Y-10466702D01*
G01X11486002Y-10471701D01*
G01X11406002Y-10471701D01*
G01X11401001Y-10466702D01*
G01X11401001Y-10442499D01*
G01X11438001Y-10442499D01*
G01X11438001Y-10409499D01*
G01X11401001Y-10409499D01*
G01X11401001Y-10386703D01*
G01X11406002Y-10381701D01*
G01X11486002Y-10381701D01*
G37*
G36*
G01X11236698Y-9448273D02*
G01X11231700Y-9443271D01*
G01X11231700Y-9363272D01*
G01X11236698Y-9358273D01*
G01X11316698Y-9358273D01*
G01X11321699Y-9363272D01*
G01X11321699Y-9387475D01*
G01X11284699Y-9387475D01*
G01X11284699Y-9420475D01*
G01X11321699Y-9420475D01*
G01X11321699Y-9443271D01*
G01X11316698Y-9448273D01*
G01X11236698Y-9448273D01*
G37*
G36*
G01X11475702Y-9358275D02*
G01X11480701Y-9363277D01*
G01X11480701Y-9443277D01*
G01X11475702Y-9448275D01*
G01X11395702Y-9448275D01*
G01X11390701Y-9443277D01*
G01X11390701Y-9419073D01*
G01X11427701Y-9419073D01*
G01X11427701Y-9386073D01*
G01X11390701Y-9386073D01*
G01X11390701Y-9363277D01*
G01X11395702Y-9358275D01*
G01X11475702Y-9358275D01*
G37*
G36*
G01X11249398Y-12010432D02*
G01X11244400Y-12005430D01*
G01X11244400Y-11925431D01*
G01X11249398Y-11920432D01*
G01X11329398Y-11920432D01*
G01X11334399Y-11925431D01*
G01X11334399Y-11949634D01*
G01X11297399Y-11949634D01*
G01X11297399Y-11982634D01*
G01X11334399Y-11982634D01*
G01X11334399Y-12005430D01*
G01X11329398Y-12010432D01*
G01X11249398Y-12010432D01*
G37*
G36*
G01X11488402Y-11920434D02*
G01X11493401Y-11925436D01*
G01X11493401Y-12005435D01*
G01X11488402Y-12010434D01*
G01X11408402Y-12010434D01*
G01X11403401Y-12005435D01*
G01X11403401Y-11981232D01*
G01X11440401Y-11981232D01*
G01X11440401Y-11948232D01*
G01X11403401Y-11948232D01*
G01X11403401Y-11925436D01*
G01X11408402Y-11920434D01*
G01X11488402Y-11920434D01*
G37*
G36*
G01X11246998Y-9950999D02*
G01X11241999Y-9945997D01*
G01X11241999Y-9865998D01*
G01X11246998Y-9860999D01*
G01X11326998Y-9860999D01*
G01X11331999Y-9865998D01*
G01X11331999Y-9890201D01*
G01X11294999Y-9890201D01*
G01X11294999Y-9923201D01*
G01X11331999Y-9923201D01*
G01X11331999Y-9945997D01*
G01X11326998Y-9950999D01*
G01X11246998Y-9950999D01*
G37*
G36*
G01X11486002Y-9861001D02*
G01X11491001Y-9866003D01*
G01X11491001Y-9946002D01*
G01X11486002Y-9951001D01*
G01X11406002Y-9951001D01*
G01X11401001Y-9946002D01*
G01X11401001Y-9921799D01*
G01X11438001Y-9921799D01*
G01X11438001Y-9888799D01*
G01X11401001Y-9888799D01*
G01X11401001Y-9866003D01*
G01X11406002Y-9861001D01*
G01X11486002Y-9861001D01*
G37*
G36*
G01X11234298Y-8426999D02*
G01X11229299Y-8421997D01*
G01X11229299Y-8341998D01*
G01X11234298Y-8336999D01*
G01X11314298Y-8336999D01*
G01X11319299Y-8341998D01*
G01X11319299Y-8366201D01*
G01X11282299Y-8366201D01*
G01X11282299Y-8399201D01*
G01X11319299Y-8399201D01*
G01X11319299Y-8421997D01*
G01X11314298Y-8426999D01*
G01X11234298Y-8426999D01*
G37*
G36*
G01X11473302Y-8337001D02*
G01X11478301Y-8342003D01*
G01X11478301Y-8422002D01*
G01X11473302Y-8427001D01*
G01X11393302Y-8427001D01*
G01X11388301Y-8422002D01*
G01X11388301Y-8397799D01*
G01X11425301Y-8397799D01*
G01X11425301Y-8364799D01*
G01X11388301Y-8364799D01*
G01X11388301Y-8342003D01*
G01X11393302Y-8337001D01*
G01X11473302Y-8337001D01*
G37*
G36*
G01X11249398Y-11492211D02*
G01X11244400Y-11487209D01*
G01X11244400Y-11407210D01*
G01X11249398Y-11402211D01*
G01X11329398Y-11402211D01*
G01X11334399Y-11407210D01*
G01X11334399Y-11431413D01*
G01X11297399Y-11431413D01*
G01X11297399Y-11464413D01*
G01X11334399Y-11464413D01*
G01X11334399Y-11487209D01*
G01X11329398Y-11492211D01*
G01X11249398Y-11492211D01*
G37*
G36*
G01X11488402Y-11402213D02*
G01X11493401Y-11407215D01*
G01X11493401Y-11487215D01*
G01X11488402Y-11492213D01*
G01X11408402Y-11492213D01*
G01X11403401Y-11487215D01*
G01X11403401Y-11463011D01*
G01X11440401Y-11463011D01*
G01X11440401Y-11430011D01*
G01X11403401Y-11430011D01*
G01X11403401Y-11407215D01*
G01X11408402Y-11402213D01*
G01X11488402Y-11402213D01*
G37*
G36*
G01X11246998Y-10966999D02*
G01X11241999Y-10961997D01*
G01X11241999Y-10881998D01*
G01X11246998Y-10876999D01*
G01X11326998Y-10876999D01*
G01X11331999Y-10881998D01*
G01X11331999Y-10906201D01*
G01X11294999Y-10906201D01*
G01X11294999Y-10939201D01*
G01X11331999Y-10939201D01*
G01X11331999Y-10961997D01*
G01X11326998Y-10966999D01*
G01X11246998Y-10966999D01*
G37*
G36*
G01X11486002Y-10877001D02*
G01X11491001Y-10882003D01*
G01X11491001Y-10962002D01*
G01X11486002Y-10967001D01*
G01X11406002Y-10967001D01*
G01X11401001Y-10962002D01*
G01X11401001Y-10937799D01*
G01X11438001Y-10937799D01*
G01X11438001Y-10904799D01*
G01X11401001Y-10904799D01*
G01X11401001Y-10882003D01*
G01X11406002Y-10877001D01*
G01X11486002Y-10877001D01*
G37*
G36*
G01X11795900Y-8330400D02*
G01X11749900Y-8330400D01*
G01X11745900Y-8326399D01*
G01X11745900Y-8276336D01*
G01X11749900Y-8272335D01*
G01X11795900Y-8272335D01*
G01X11799900Y-8276336D01*
G01X11799900Y-8326399D01*
G01X11795900Y-8330400D01*
G37*
G36*
G01X11795900Y-8357400D02*
G01X11799900Y-8361401D01*
G01X11799900Y-8411464D01*
G01X11795900Y-8415464D01*
G01X11749900Y-8415464D01*
G01X11745900Y-8411464D01*
G01X11745900Y-8361401D01*
G01X11749900Y-8357400D01*
G01X11795900Y-8357400D01*
G37*
G36*
G01X11795900Y-11899100D02*
G01X11749900Y-11899100D01*
G01X11745900Y-11895099D01*
G01X11745900Y-11845036D01*
G01X11749900Y-11841035D01*
G01X11795900Y-11841035D01*
G01X11799900Y-11845036D01*
G01X11799900Y-11895099D01*
G01X11795900Y-11899100D01*
G37*
G36*
G01X11795900Y-11926100D02*
G01X11799900Y-11930101D01*
G01X11799900Y-11980164D01*
G01X11795900Y-11984164D01*
G01X11749900Y-11984164D01*
G01X11745900Y-11980164D01*
G01X11745900Y-11930101D01*
G01X11749900Y-11926100D01*
G01X11795900Y-11926100D01*
G37*
G36*
G01X11791673Y-11392252D02*
G01X11745674Y-11392252D01*
G01X11741673Y-11388251D01*
G01X11741673Y-11338188D01*
G01X11745674Y-11334187D01*
G01X11791673Y-11334187D01*
G01X11795674Y-11338188D01*
G01X11795674Y-11388251D01*
G01X11791673Y-11392252D01*
G37*
G36*
G01X11791673Y-11419252D02*
G01X11795674Y-11423252D01*
G01X11795674Y-11473316D01*
G01X11791673Y-11477316D01*
G01X11745674Y-11477316D01*
G01X11741673Y-11473316D01*
G01X11741673Y-11423252D01*
G01X11745674Y-11419252D01*
G01X11791673Y-11419252D01*
G37*
G36*
G01X11795900Y-9854400D02*
G01X11749900Y-9854400D01*
G01X11745900Y-9850399D01*
G01X11745900Y-9800336D01*
G01X11749900Y-9796335D01*
G01X11795900Y-9796335D01*
G01X11799900Y-9800336D01*
G01X11799900Y-9850399D01*
G01X11795900Y-9854400D01*
G37*
G36*
G01X11795900Y-9881400D02*
G01X11799900Y-9885401D01*
G01X11799900Y-9935464D01*
G01X11795900Y-9939464D01*
G01X11749900Y-9939464D01*
G01X11745900Y-9935464D01*
G01X11745900Y-9885401D01*
G01X11749900Y-9881400D01*
G01X11795900Y-9881400D01*
G37*
G36*
G01X11795900Y-10870400D02*
G01X11749900Y-10870400D01*
G01X11745900Y-10866399D01*
G01X11745900Y-10816336D01*
G01X11749900Y-10812335D01*
G01X11795900Y-10812335D01*
G01X11799900Y-10816336D01*
G01X11799900Y-10866399D01*
G01X11795900Y-10870400D01*
G37*
G36*
G01X11795900Y-10897400D02*
G01X11799900Y-10901401D01*
G01X11799900Y-10951464D01*
G01X11795900Y-10955464D01*
G01X11749900Y-10955464D01*
G01X11745900Y-10951464D01*
G01X11745900Y-10901401D01*
G01X11749900Y-10897400D01*
G01X11795900Y-10897400D01*
G37*
G36*
G01X11795900Y-9346400D02*
G01X11749900Y-9346400D01*
G01X11745900Y-9342399D01*
G01X11745900Y-9292336D01*
G01X11749900Y-9288335D01*
G01X11795900Y-9288335D01*
G01X11799900Y-9292336D01*
G01X11799900Y-9342399D01*
G01X11795900Y-9346400D01*
G37*
G36*
G01X11795900Y-9373400D02*
G01X11799900Y-9377401D01*
G01X11799900Y-9427464D01*
G01X11795900Y-9431464D01*
G01X11749900Y-9431464D01*
G01X11745900Y-9427464D01*
G01X11745900Y-9377401D01*
G01X11749900Y-9373400D01*
G01X11795900Y-9373400D01*
G37*
G36*
G01X11795900Y-8838400D02*
G01X11749900Y-8838400D01*
G01X11745900Y-8834399D01*
G01X11745900Y-8784336D01*
G01X11749900Y-8780335D01*
G01X11795900Y-8780335D01*
G01X11799900Y-8784336D01*
G01X11799900Y-8834399D01*
G01X11795900Y-8838400D01*
G37*
G36*
G01X11795900Y-8865400D02*
G01X11799900Y-8869401D01*
G01X11799900Y-8919464D01*
G01X11795900Y-8923464D01*
G01X11749900Y-8923464D01*
G01X11745900Y-8919464D01*
G01X11745900Y-8869401D01*
G01X11749900Y-8865400D01*
G01X11795900Y-8865400D01*
G37*
G36*
G01X11795900Y-10362400D02*
G01X11749900Y-10362400D01*
G01X11745900Y-10358399D01*
G01X11745900Y-10308336D01*
G01X11749900Y-10304335D01*
G01X11795900Y-10304335D01*
G01X11799900Y-10308336D01*
G01X11799900Y-10358399D01*
G01X11795900Y-10362400D01*
G37*
G36*
G01X11795900Y-10389400D02*
G01X11799900Y-10393401D01*
G01X11799900Y-10443464D01*
G01X11795900Y-10447464D01*
G01X11749900Y-10447464D01*
G01X11745900Y-10443464D01*
G01X11745900Y-10393401D01*
G01X11749900Y-10389400D01*
G01X11795900Y-10389400D01*
G37*
G36*
G01X11778102Y-7600401D02*
G01X11783101Y-7605403D01*
G01X11783101Y-7685402D01*
G01X11778102Y-7690401D01*
G01X11698102Y-7690401D01*
G01X11693101Y-7685402D01*
G01X11693101Y-7661199D01*
G01X11730101Y-7661199D01*
G01X11730101Y-7628199D01*
G01X11693101Y-7628199D01*
G01X11693101Y-7605403D01*
G01X11698102Y-7600401D01*
G01X11778102Y-7600401D01*
G37*
G36*
G01X11539098Y-7690399D02*
G01X11534099Y-7685397D01*
G01X11534099Y-7605398D01*
G01X11539098Y-7600399D01*
G01X11619098Y-7600399D01*
G01X11624099Y-7605398D01*
G01X11624099Y-7629601D01*
G01X11587099Y-7629601D01*
G01X11587099Y-7662601D01*
G01X11624099Y-7662601D01*
G01X11624099Y-7685397D01*
G01X11619098Y-7690399D01*
G01X11539098Y-7690399D01*
G37*
G36*
G01X11297199Y-7688702D02*
G01X11292197Y-7693701D01*
G01X11212198Y-7693701D01*
G01X11207199Y-7688702D01*
G01X11207199Y-7608702D01*
G01X11212198Y-7603701D01*
G01X11236401Y-7603701D01*
G01X11236401Y-7640701D01*
G01X11269401Y-7640701D01*
G01X11269401Y-7603701D01*
G01X11292197Y-7603701D01*
G01X11297199Y-7608702D01*
G01X11297199Y-7688702D01*
G37*
G36*
G01X11207201Y-7449698D02*
G01X11212203Y-7444699D01*
G01X11292202Y-7444699D01*
G01X11297201Y-7449698D01*
G01X11297201Y-7529698D01*
G01X11292202Y-7534699D01*
G01X11267999Y-7534699D01*
G01X11267999Y-7497699D01*
G01X11234999Y-7497699D01*
G01X11234999Y-7534699D01*
G01X11212203Y-7534699D01*
G01X11207201Y-7529698D01*
G01X11207201Y-7449698D01*
G37*

G04 Pad Start*
G54D10*
G01X8330263Y-9181611D03*
G01X8330263Y-9321616D03*
G54D11*
G01X8500590Y-9215799D03*
G01X8500590Y-9299822D03*
G01X8509000Y-9432188D03*
G01X8509000Y-9516212D03*
G54D12*
G01X9117421Y-11509272D03*
G01X9033398Y-11509272D03*
G54D11*
G01X10629900Y-9313012D03*
G01X10629900Y-9228988D03*
G54D10*
G01X7124700Y-8528202D03*
G01X7124700Y-8388198D03*
G01X7137400Y-9582302D03*
G01X7137400Y-9442298D03*
G01X6604000Y-13544398D03*
G01X6604000Y-13684402D03*
G54D13*
G01X6826098Y-12534900D03*
G01X6966102Y-12534900D03*
G01X6826098Y-12712700D03*
G01X6966102Y-12712700D03*
G01X6813398Y-11696700D03*
G01X6953402Y-11696700D03*
G54D10*
G01X7137400Y-10623702D03*
G01X7137400Y-10483698D03*
G01X7137400Y-11588902D03*
G01X7137400Y-11448898D03*
G54D13*
G01X6813398Y-11518900D03*
G01X6953402Y-11518900D03*
G01X6813398Y-10502900D03*
G01X6953402Y-10502900D03*
G01X6813398Y-10680700D03*
G01X6953402Y-10680700D03*
G01X6762598Y-9664700D03*
G01X6902602Y-9664700D03*
G54D10*
G01X7137400Y-12617602D03*
G01X7137400Y-12477598D03*
G01X7137400Y-13608202D03*
G01X7137400Y-13468198D03*
G54D13*
G01X6762598Y-9448800D03*
G01X6902602Y-9448800D03*
G01X6794688Y-8463055D03*
G01X6934693Y-8463055D03*
G01X6794741Y-8643810D03*
G01X6934746Y-8643810D03*
G54D10*
G01X6470990Y-7605957D03*
G01X6470990Y-7465953D03*
G54D14*
G01X9767499Y-13042905D03*
G01X9917511Y-13042905D03*
G01X10135799Y-13042905D03*
G01X10285811Y-13042905D03*
G01X10516799Y-13042905D03*
G01X10666811Y-13042905D03*
G01X10885099Y-13042905D03*
G01X11035111Y-13042905D03*
G01X11253399Y-13042905D03*
G01X11403411Y-13042905D03*
G01X11621699Y-13042905D03*
G01X11771711Y-13042905D03*
G01X9767499Y-13665205D03*
G01X9917511Y-13665205D03*
G01X10135799Y-13665205D03*
G01X10285811Y-13665205D03*
G01X10516799Y-13665205D03*
G01X10666811Y-13665205D03*
G01X10885099Y-13665205D03*
G01X11035111Y-13665205D03*
G01X11253399Y-13665205D03*
G01X11403411Y-13665205D03*
G01X11621699Y-13665205D03*
G01X11771711Y-13665205D03*
G01X9297599Y-7137405D03*
G01X9447611Y-7137405D03*
G54D15*
G01X9745701Y-11674300D03*
G01X10345699Y-11674300D03*
G01X9745701Y-12049300D03*
G01X10345699Y-12049300D03*
G01X10520401Y-11674300D03*
G01X11120399Y-11674300D03*
G01X10520401Y-12049300D03*
G01X11120399Y-12049300D03*
G54D16*
G01X8685822Y-9188336D03*
G01X8685822Y-9315336D03*
G01X8685822Y-9442336D03*
G01X8685822Y-9569336D03*
G01X8685822Y-9696336D03*
G01X8685822Y-9823336D03*
G01X8685822Y-9950336D03*
G01X8685822Y-10077336D03*
G01X8685822Y-10204336D03*
G01X8685822Y-10331336D03*
G01X8685822Y-10458336D03*
G01X8685822Y-10585336D03*
G01X8685822Y-10712336D03*
G01X8685822Y-10839336D03*
G54D17*
G01X8877313Y-10979264D03*
G01X9004313Y-10979264D03*
G01X9131313Y-10979264D03*
G01X9258313Y-10979264D03*
G01X9385313Y-10979264D03*
G01X9512313Y-10979264D03*
G01X9639313Y-10979264D03*
G01X9766313Y-10979264D03*
G01X9893313Y-10979264D03*
G01X10020313Y-10979264D03*
G01X10147313Y-10979264D03*
G01X10274313Y-10979264D03*
G54D16*
G01X10465778Y-10839336D03*
G01X10465778Y-10712336D03*
G01X10465778Y-10585336D03*
G01X10465778Y-10458336D03*
G01X10465778Y-10331336D03*
G01X10465778Y-10204336D03*
G01X10465778Y-10077336D03*
G01X10465778Y-9950336D03*
G01X10465778Y-9823336D03*
G01X10465778Y-9696336D03*
G01X10465778Y-9569336D03*
G01X10465778Y-9442336D03*
G01X10465778Y-9315336D03*
G01X10465778Y-9188336D03*
G54D18*
G01X9425851Y-9960292D03*
G01X9285846Y-9960292D03*
G01X9565856Y-9960292D03*
G01X9565856Y-9820288D03*
G01X9425851Y-9820288D03*
G01X9285846Y-9820288D03*
G01X9285846Y-10100297D03*
G01X9425851Y-10100297D03*
G01X9565856Y-10100297D03*
G54D20*
G01X7412373Y-13289367D03*
G01X7412373Y-13224369D03*
G01X7412373Y-13159370D03*
G01X7412373Y-13094372D03*
G01X7412373Y-13029373D03*
G01X7412373Y-12964374D03*
G01X7412373Y-12899376D03*
G01X6852354Y-12899376D03*
G01X6852354Y-12964374D03*
G01X6852354Y-13029373D03*
G01X6852354Y-13094372D03*
G01X6852354Y-13159370D03*
G01X6852354Y-13224369D03*
G01X6852354Y-13289367D03*
G54D21*
G01X7132363Y-13094372D03*
G54D20*
G01X7421314Y-12286067D03*
G01X7421314Y-12221069D03*
G01X7421314Y-12156070D03*
G01X7421314Y-12091072D03*
G01X7421314Y-12026073D03*
G01X7421314Y-11961074D03*
G01X7421314Y-11896076D03*
G01X6861294Y-11896076D03*
G01X6861294Y-11961074D03*
G01X6861294Y-12026073D03*
G01X6861294Y-12091072D03*
G01X6861294Y-12156070D03*
G01X6861294Y-12221069D03*
G01X6861294Y-12286067D03*
G54D21*
G01X7141304Y-12091072D03*
G54D20*
G01X7425073Y-11259768D03*
G01X7425073Y-11194769D03*
G01X7425073Y-11129770D03*
G01X7425073Y-11064772D03*
G01X7425073Y-10999773D03*
G01X7425073Y-10934775D03*
G01X7425073Y-10869776D03*
G01X6865054Y-10869776D03*
G01X6865054Y-10934775D03*
G01X6865054Y-10999773D03*
G01X6865054Y-11064772D03*
G01X6865054Y-11129770D03*
G01X6865054Y-11194769D03*
G01X6865054Y-11259768D03*
G54D21*
G01X7145063Y-11064772D03*
G54D20*
G01X7421314Y-10269168D03*
G01X7421314Y-10204169D03*
G01X7421314Y-10139170D03*
G01X7421314Y-10074172D03*
G01X7421314Y-10009173D03*
G01X7421314Y-9944175D03*
G01X7421314Y-9879176D03*
G01X6861294Y-9879176D03*
G01X6861294Y-9944175D03*
G01X6861294Y-10009173D03*
G01X6861294Y-10074172D03*
G01X6861294Y-10139170D03*
G01X6861294Y-10204169D03*
G01X6861294Y-10269168D03*
G54D21*
G01X7141304Y-10074172D03*
G54D20*
G01X7417410Y-9224696D03*
G01X7417410Y-9159697D03*
G01X7417410Y-9094699D03*
G01X7417410Y-9029700D03*
G01X7417410Y-8964701D03*
G01X7417410Y-8899703D03*
G01X7417410Y-8834704D03*
G01X6857390Y-8834704D03*
G01X6857390Y-8899703D03*
G01X6857390Y-8964701D03*
G01X6857390Y-9029700D03*
G01X6857390Y-9094699D03*
G01X6857390Y-9159697D03*
G01X6857390Y-9224696D03*
G54D21*
G01X7137400Y-9029700D03*
G54D20*
G01X7408614Y-8205258D03*
G01X7408614Y-8140259D03*
G01X7408614Y-8075260D03*
G01X7408614Y-8010262D03*
G01X7408614Y-7945263D03*
G01X7408614Y-7880265D03*
G01X7408614Y-7815266D03*
G01X6848594Y-7815266D03*
G01X6848594Y-7880265D03*
G01X6848594Y-7945263D03*
G01X6848594Y-8010262D03*
G01X6848594Y-8075260D03*
G01X6848594Y-8140259D03*
G01X6848594Y-8205258D03*
G54D21*
G01X7128604Y-8010262D03*
G54D10*
G01X12059798Y-9266411D03*
G01X12059798Y-9406416D03*
G01X12059798Y-9769263D03*
G01X12059798Y-9909267D03*
G01X12065000Y-10280498D03*
G01X12065000Y-10420502D03*
G01X12052300Y-8248498D03*
G01X12052300Y-8388502D03*
G01X12065000Y-11804498D03*
G01X12065000Y-11944502D03*
G01X12047098Y-8750860D03*
G01X12047098Y-8890865D03*
G01X12065000Y-10788498D03*
G01X12065000Y-10928502D03*
G01X12065000Y-11296498D03*
G01X12065000Y-11436502D03*
G01X9042400Y-7372502D03*
G01X9042400Y-7232498D03*
G54D22*
G01X9808489Y-6667500D03*
G01X9368511Y-6667500D03*
G54D23*
G01X10261592Y-6693604D03*
G01X10261592Y-7352581D03*
G54D24*
G01X10883900Y-7246468D03*
G01X10883900Y-6774332D03*
G04 Pad End*

M02*

