G04 Layer: DrillDrawingLayer*
G04 EasyEDA Pro v3.2.149.88089769, 2026-08-16 16:57:31*
G04 Gerber Generator version 0.3*
G04 Scale: 100 percent, Rotated: No, Reflected: No*
G04 Dimensions in millimeters*
G04 Leading zeros omitted, absolute positions, 4 integers and 5 decimals*
G04 Generated by one-click*
G04 Object Configs: Pad,Via,Track,Text,Image,Dimension,BoardOutline,BoardCutout,CopperFilled,SolidRegion,FPCStiffener,Line,PlaneZone,ComponentProperty,ComponentSilkscreen,TearDrop*
G04 Layer Configs: 1,15,16,2,3,4,5,6,7,8,9,10,11,13,14,56*
G04 Copper Areas: 0*
%FSLAX45Y45*%
%MOMM*%
%AMIconRect*4,1,4,0.28,-0.28,-0.28,-0.28,-0.28,0.28,0.28,0.28,0.28,-0.28,0*4,0,4,0.233333,-0.233333,0.233333,0.233333,-0.233333,0.233333,-0.233333,-0.233333,0.233333,-0.233333,0*%
%AMIconTriangle*4,1,3,-0.339593,0.240473,0.339593,0.240473,0,-0.37884,-0.339593,0.240473,0*4,0,3,-0.265673,0.19404,0,-0.27342,0.266233,0.19404,-0.265673,0.19404,0*%
%AMIconStar6*4,1,12,0.12068,0.20888,0.298527,0.172713,0.241313,0,0.298527,-0.17206,0.12068,-0.208227,0,-0.344073,-0.120073,-0.208227,-0.298573,-0.17206,-0.240707,0,-0.298573,0.17206,-0.120073,0.20888,0,0.344073,0.12068,0.20888,0*4,0,12,-0.000467,0.273467,-0.090067,0.171733,-0.237533,0.136733,-0.193667,-0.007467,-0.237533,-0.1372,-0.090067,-0.171733,-0.000467,-0.273933,0.090067,-0.171733,0.237533,-0.1372,0.194133,0.007,0.237533,0.1372,0.090067,0.171267,-0.000467,0.273467,0*%
%AMIconStar4*4,1,8,-0.311733,0.311733,0,0.202533,0.311733,0.311733,0.202533,0,0.311733,-0.311733,0,-0.202533,-0.304407,-0.311733,-0.202533,0,-0.311733,0.311733,0*4,0,8,0.233333,-0.233333,0.1512,0,0.233333,0.233333,0,0.1512,-0.233333,0.233333,-0.1512,0,-0.233333,-0.233333,0,-0.1512,0.233333,-0.233333,0*%
%ADD10IconRect*%
%ADD11C,0.616X0.522667*%
%ADD12IconTriangle*%
%ADD13IconStar6*%
%ADD14IconStar4*%
%ADD15C,0.2032*%
%ADD16C,0.254*%
G75*


G04 Drill Drawing Start*
G54D10*
G01X8216900Y-7277100D03*
G01X8216900Y-7023100D03*
G01X8216900Y-6769100D03*
G54D11*
G01X10831187Y-8661499D03*
G01X10831187Y-8407499D03*
G01X10831187Y-8153499D03*
G54D12*
G01X5389809Y-6834598D03*
G01X5389880Y-14058900D03*
G01X12839598Y-13529816D03*
G01X12839764Y-7141716D03*
G54D13*
G01X5092469Y-13373105D03*
G01X5092469Y-12865105D03*
G01X5092469Y-12357105D03*
G01X5092469Y-11849105D03*
G01X5092479Y-11341110D03*
G01X5092479Y-10833110D03*
G01X5092974Y-9817110D03*
G01X5092974Y-8801110D03*
G01X5092974Y-8293113D03*
G01X5092974Y-7785105D03*
G01X5092977Y-9309110D03*
G01X5093477Y-10325110D03*
G01X5854944Y-11849110D03*
G01X5854964Y-13373105D03*
G01X5854964Y-12865105D03*
G01X5854964Y-12357105D03*
G01X5854974Y-11341110D03*
G01X5854974Y-10833105D03*
G01X5854974Y-8293108D03*
G01X5854974Y-7785100D03*
G01X5854982Y-10325108D03*
G01X5854987Y-9817108D03*
G01X5854987Y-9309108D03*
G01X5854987Y-8801105D03*
G01X12432833Y-11430008D03*
G01X12433346Y-11938008D03*
G01X12433805Y-9398005D03*
G01X12433805Y-8890005D03*
G01X12433805Y-8382005D03*
G01X12433816Y-10922005D03*
G01X12433816Y-10414010D03*
G01X12435208Y-9906010D03*
G01X13194833Y-11430010D03*
G01X13195346Y-11938010D03*
G01X13195805Y-9906005D03*
G01X13195805Y-9398005D03*
G01X13195805Y-8890005D03*
G01X13195805Y-8382005D03*
G01X13195816Y-10922010D03*
G01X13195816Y-10414010D03*
G54D14*
G01X6032500Y-7924800D03*
G01X6108700Y-8470900D03*
G01X6172200Y-8953500D03*
G01X6235700Y-9436100D03*
G01X6261100Y-7454900D03*
G01X6299200Y-9969500D03*
G01X6362700Y-10502900D03*
G01X6426200Y-10960100D03*
G01X6502400Y-11493500D03*
G01X6565900Y-12014200D03*
G01X6629400Y-12522200D03*
G01X6692900Y-13017500D03*
G01X6743700Y-13690600D03*
G01X7010400Y-10375900D03*
G01X7035800Y-8115300D03*
G01X7035800Y-8013700D03*
G01X7035800Y-7912100D03*
G01X7043463Y-13195972D03*
G01X7043463Y-13094372D03*
G01X7043463Y-12992772D03*
G01X7048500Y-9131300D03*
G01X7048500Y-9029700D03*
G01X7048500Y-8928100D03*
G01X7052404Y-12192672D03*
G01X7052404Y-12091072D03*
G01X7052404Y-11989472D03*
G01X7052404Y-10175772D03*
G01X7052404Y-10074172D03*
G01X7052404Y-9972572D03*
G01X7056163Y-11166372D03*
G01X7056163Y-11064772D03*
G01X7056163Y-10963172D03*
G01X7124700Y-8699500D03*
G01X7124700Y-8115300D03*
G01X7124700Y-8013700D03*
G01X7124700Y-7912100D03*
G01X7132363Y-13195972D03*
G01X7132363Y-13094372D03*
G01X7132363Y-12992772D03*
G01X7137400Y-12776200D03*
G01X7137400Y-11747500D03*
G01X7137400Y-10756900D03*
G01X7137400Y-9740900D03*
G01X7137400Y-9131300D03*
G01X7137400Y-9029700D03*
G01X7137400Y-8928100D03*
G01X7141304Y-12192672D03*
G01X7141304Y-12091072D03*
G01X7141304Y-11989472D03*
G01X7141304Y-10175772D03*
G01X7141304Y-10074172D03*
G01X7141304Y-9972572D03*
G01X7145063Y-11166372D03*
G01X7145063Y-11064772D03*
G01X7145063Y-10963172D03*
G01X7213600Y-8115300D03*
G01X7213600Y-8013700D03*
G01X7213600Y-7912100D03*
G01X7221263Y-13195972D03*
G01X7221263Y-13094372D03*
G01X7221263Y-12992772D03*
G01X7226300Y-9131300D03*
G01X7226300Y-9029700D03*
G01X7226300Y-8928100D03*
G01X7230204Y-12192672D03*
G01X7230204Y-12091072D03*
G01X7230204Y-11989472D03*
G01X7230204Y-10175772D03*
G01X7230204Y-10074172D03*
G01X7230204Y-9972572D03*
G01X7233963Y-11166372D03*
G01X7233963Y-11064772D03*
G01X7233963Y-10963172D03*
G01X7302500Y-13608202D03*
G01X7408614Y-8369300D03*
G01X7411540Y-13456740D03*
G01X7417410Y-9385300D03*
G01X7421314Y-12446000D03*
G01X7421314Y-10439400D03*
G01X7429500Y-11442700D03*
G01X7563939Y-8013700D03*
G01X7569200Y-13094372D03*
G01X7569200Y-12091072D03*
G01X7569200Y-11064772D03*
G01X7569200Y-10074172D03*
G01X7569200Y-9029700D03*
G01X7962900Y-9004300D03*
G01X7962900Y-8089900D03*
G01X7962900Y-7988300D03*
G01X7975600Y-12928600D03*
G01X7988300Y-11315700D03*
G01X7988300Y-9994900D03*
G01X8001000Y-12014200D03*
G01X8001000Y-10985500D03*
G01X8153400Y-9182100D03*
G01X8261350Y-9671050D03*
G01X8331200Y-9042400D03*
G01X8369300Y-9626600D03*
G01X8432800Y-7091641D03*
G01X8432800Y-6972300D03*
G01X8500590Y-9042400D03*
G01X8509000Y-12877800D03*
G01X8509000Y-9601200D03*
G01X8638832Y-13007632D03*
G01X8826500Y-9652000D03*
G01X8849928Y-7023100D03*
G01X8851900Y-7188200D03*
G01X8928100Y-11509272D03*
G01X9004300Y-9855200D03*
G01X9004300Y-9632836D03*
G01X9042400Y-7543800D03*
G01X9131300Y-11760200D03*
G01X9258300Y-11150600D03*
G01X9285821Y-10030295D03*
G01X9285821Y-9890290D03*
G01X9355823Y-10100297D03*
G01X9355823Y-9960292D03*
G01X9355823Y-9820288D03*
G01X9425826Y-10030295D03*
G01X9425826Y-9890290D03*
G01X9495828Y-10100297D03*
G01X9495828Y-9960292D03*
G01X9495828Y-9820288D03*
G01X9565831Y-10030295D03*
G01X9565831Y-9890290D03*
G01X9575800Y-13042905D03*
G01X9588500Y-13665205D03*
G01X9745701Y-12179300D03*
G01X9768585Y-13995400D03*
G01X9994900Y-13347700D03*
G01X10134600Y-12700000D03*
G01X10135464Y-13995400D03*
G01X10147300Y-11137900D03*
G01X10287000Y-7594600D03*
G01X10345699Y-11557000D03*
G01X10388600Y-13347700D03*
G01X10388600Y-7594600D03*
G01X10515600Y-12700000D03*
G01X10516464Y-13995400D03*
G01X10520401Y-12179300D03*
G01X10617200Y-8991600D03*
G01X10627681Y-9412919D03*
G01X10629900Y-9118600D03*
G01X10756900Y-13347700D03*
G01X10871200Y-7454900D03*
G01X10883900Y-12700000D03*
G01X10884764Y-13995400D03*
G01X10960100Y-7454900D03*
G01X11150600Y-13347700D03*
G01X11252200Y-7759700D03*
G01X11253064Y-13995400D03*
G01X11253064Y-12700000D03*
G01X11277600Y-7321550D03*
G01X11277600Y-7232650D03*
G01X11577782Y-13351825D03*
G01X11621364Y-13995400D03*
G01X11621364Y-12700000D03*
G01X12047098Y-8623300D03*
G01X12052300Y-8102600D03*
G01X12059798Y-9639300D03*
G01X12059798Y-9131300D03*
G01X12065000Y-11684000D03*
G01X12065000Y-11150600D03*
G01X12065000Y-10642600D03*
G01X12065000Y-10147300D03*
G01X12125975Y-7537450D03*
G01X12125975Y-7283450D03*
G01X12125975Y-7029450D03*
G01X12125975Y-6775450D03*
G01X12141200Y-13919200D03*
G01X12141200Y-13665200D03*
G01X12141200Y-13411200D03*
G01X12141200Y-13157200D03*
G01X12452350Y-7807610D03*
G01X12458598Y-14254122D03*
G01X12458700Y-12852400D03*
G01X12465050Y-6499510D03*
G01X12706350Y-7807610D03*
G01X12712598Y-14254122D03*
G01X12712700Y-12852400D03*
G01X12719050Y-6499510D03*
G01X12960350Y-7807610D03*
G01X12966598Y-14254122D03*
G01X12966700Y-12852400D03*
G01X12973050Y-6499510D03*
G01X13214350Y-7807610D03*
G01X13220598Y-14254122D03*
G01X13220700Y-12852400D03*
G01X13227050Y-6499510D03*
G04 Drill Drawing End*

G04 Text Start*
G54D15*
G01X16012146Y-6571706D02*
G01X16012146Y-6691848D01*
G01X16012146Y-6571706D02*
G01X16057866Y-6691848D01*
G01X16103586Y-6571706D02*
G01X16057866Y-6691848D01*
G01X16103586Y-6571706D02*
G01X16103586Y-6691848D01*
G01X16219918Y-6611838D02*
G01X16219918Y-6691848D01*
G01X16219918Y-6628856D02*
G01X16208488Y-6617426D01*
G01X16197058Y-6611838D01*
G01X16180040Y-6611838D01*
G01X16168610Y-6617426D01*
G01X16157180Y-6628856D01*
G01X16151338Y-6646128D01*
G01X16151338Y-6657558D01*
G01X16157180Y-6674576D01*
G01X16168610Y-6686006D01*
G01X16180040Y-6691848D01*
G01X16197058Y-6691848D01*
G01X16208488Y-6686006D01*
G01X16219918Y-6674576D01*
G01X16267670Y-6611838D02*
G01X16267670Y-6691848D01*
G01X16267670Y-6646128D02*
G01X16273512Y-6628856D01*
G01X16284942Y-6617426D01*
G01X16296372Y-6611838D01*
G01X16313390Y-6611838D01*
G01X16361142Y-6571706D02*
G01X16361142Y-6691848D01*
G01X16418292Y-6611838D02*
G01X16361142Y-6668988D01*
G01X16384002Y-6646128D02*
G01X16424134Y-6691848D01*
G01X17549426Y-6600408D02*
G01X17543584Y-6588978D01*
G01X17532154Y-6577548D01*
G01X17520724Y-6571706D01*
G01X17497864Y-6571706D01*
G01X17486434Y-6577548D01*
G01X17475004Y-6588978D01*
G01X17469416Y-6600408D01*
G01X17463574Y-6617426D01*
G01X17463574Y-6646128D01*
G01X17469416Y-6663146D01*
G01X17475004Y-6674576D01*
G01X17486434Y-6686006D01*
G01X17497864Y-6691848D01*
G01X17520724Y-6691848D01*
G01X17532154Y-6686006D01*
G01X17543584Y-6674576D01*
G01X17549426Y-6663146D01*
G01X17625880Y-6611838D02*
G01X17614450Y-6617426D01*
G01X17603020Y-6628856D01*
G01X17597178Y-6646128D01*
G01X17597178Y-6657558D01*
G01X17603020Y-6674576D01*
G01X17614450Y-6686006D01*
G01X17625880Y-6691848D01*
G01X17642898Y-6691848D01*
G01X17654328Y-6686006D01*
G01X17665758Y-6674576D01*
G01X17671600Y-6657558D01*
G01X17671600Y-6646128D01*
G01X17665758Y-6628856D01*
G01X17654328Y-6617426D01*
G01X17642898Y-6611838D01*
G01X17625880Y-6611838D01*
G01X17719352Y-6611838D02*
G01X17719352Y-6668988D01*
G01X17725194Y-6686006D01*
G01X17736624Y-6691848D01*
G01X17753642Y-6691848D01*
G01X17765072Y-6686006D01*
G01X17782344Y-6668988D01*
G01X17782344Y-6611838D02*
G01X17782344Y-6691848D01*
G01X17830096Y-6611838D02*
G01X17830096Y-6691848D01*
G01X17830096Y-6634698D02*
G01X17847368Y-6617426D01*
G01X17858798Y-6611838D01*
G01X17875816Y-6611838D01*
G01X17887246Y-6617426D01*
G01X17893088Y-6634698D01*
G01X17893088Y-6691848D01*
G01X17958112Y-6571706D02*
G01X17958112Y-6668988D01*
G01X17963700Y-6686006D01*
G01X17975130Y-6691848D01*
G01X17986560Y-6691848D01*
G01X17940840Y-6611838D02*
G01X17980972Y-6611838D01*
G01X18957747Y-6588978D02*
G01X18946317Y-6577548D01*
G01X18929299Y-6571706D01*
G01X18906439Y-6571706D01*
G01X18889167Y-6577548D01*
G01X18877737Y-6588978D01*
G01X18877737Y-6600408D01*
G01X18883579Y-6611838D01*
G01X18889167Y-6617426D01*
G01X18900597Y-6623268D01*
G01X18934887Y-6634698D01*
G01X18946317Y-6640286D01*
G01X18952159Y-6646128D01*
G01X18957747Y-6657558D01*
G01X18957747Y-6674576D01*
G01X18946317Y-6686006D01*
G01X18929299Y-6691848D01*
G01X18906439Y-6691848D01*
G01X18889167Y-6686006D01*
G01X18877737Y-6674576D01*
G01X19005499Y-6571706D02*
G01X19011341Y-6577548D01*
G01X19016929Y-6571706D01*
G01X19011341Y-6566118D01*
G01X19005499Y-6571706D01*
G01X19011341Y-6611838D02*
G01X19011341Y-6691848D01*
G01X19127673Y-6611838D02*
G01X19064681Y-6691848D01*
G01X19064681Y-6611838D02*
G01X19127673Y-6611838D01*
G01X19064681Y-6691848D02*
G01X19127673Y-6691848D01*
G01X19175425Y-6646128D02*
G01X19244005Y-6646128D01*
G01X19244005Y-6634698D01*
G01X19238417Y-6623268D01*
G01X19232575Y-6617426D01*
G01X19221145Y-6611838D01*
G01X19204127Y-6611838D01*
G01X19192697Y-6617426D01*
G01X19181267Y-6628856D01*
G01X19175425Y-6646128D01*
G01X19175425Y-6657558D01*
G01X19181267Y-6674576D01*
G01X19192697Y-6686006D01*
G01X19204127Y-6691848D01*
G01X19221145Y-6691848D01*
G01X19232575Y-6686006D01*
G01X19244005Y-6674576D01*
G01X22912927Y-6571706D02*
G01X22912927Y-6691848D01*
G01X22912927Y-6571706D02*
G01X22964489Y-6571706D01*
G01X22981507Y-6577548D01*
G01X22987349Y-6583136D01*
G01X22992937Y-6594566D01*
G01X22992937Y-6611838D01*
G01X22987349Y-6623268D01*
G01X22981507Y-6628856D01*
G01X22964489Y-6634698D01*
G01X22912927Y-6634698D01*
G01X23040689Y-6571706D02*
G01X23040689Y-6691848D01*
G01X23157021Y-6611838D02*
G01X23157021Y-6691848D01*
G01X23157021Y-6628856D02*
G01X23145591Y-6617426D01*
G01X23134161Y-6611838D01*
G01X23117143Y-6611838D01*
G01X23105713Y-6617426D01*
G01X23094283Y-6628856D01*
G01X23088441Y-6646128D01*
G01X23088441Y-6657558D01*
G01X23094283Y-6674576D01*
G01X23105713Y-6686006D01*
G01X23117143Y-6691848D01*
G01X23134161Y-6691848D01*
G01X23145591Y-6686006D01*
G01X23157021Y-6674576D01*
G01X23222045Y-6571706D02*
G01X23222045Y-6668988D01*
G01X23227633Y-6686006D01*
G01X23239063Y-6691848D01*
G01X23250493Y-6691848D01*
G01X23204773Y-6611838D02*
G01X23244905Y-6611838D01*
G01X23298245Y-6646128D02*
G01X23366825Y-6646128D01*
G01X23366825Y-6634698D01*
G01X23361237Y-6623268D01*
G01X23355395Y-6617426D01*
G01X23343965Y-6611838D01*
G01X23326947Y-6611838D01*
G01X23315517Y-6617426D01*
G01X23304087Y-6628856D01*
G01X23298245Y-6646128D01*
G01X23298245Y-6657558D01*
G01X23304087Y-6674576D01*
G01X23315517Y-6686006D01*
G01X23326947Y-6691848D01*
G01X23343965Y-6691848D01*
G01X23355395Y-6686006D01*
G01X23366825Y-6674576D01*
G01X23483157Y-6571706D02*
G01X23483157Y-6691848D01*
G01X23483157Y-6628856D02*
G01X23471727Y-6617426D01*
G01X23460297Y-6611838D01*
G01X23443279Y-6611838D01*
G01X23431849Y-6617426D01*
G01X23420419Y-6628856D01*
G01X23414577Y-6646128D01*
G01X23414577Y-6657558D01*
G01X23420419Y-6674576D01*
G01X23431849Y-6686006D01*
G01X23443279Y-6691848D01*
G01X23460297Y-6691848D01*
G01X23471727Y-6686006D01*
G01X23483157Y-6674576D01*
G01X24454344Y-6588978D02*
G01X24442914Y-6577548D01*
G01X24425896Y-6571706D01*
G01X24403036Y-6571706D01*
G01X24385764Y-6577548D01*
G01X24374334Y-6588978D01*
G01X24374334Y-6600408D01*
G01X24380176Y-6611838D01*
G01X24385764Y-6617426D01*
G01X24397194Y-6623268D01*
G01X24431484Y-6634698D01*
G01X24442914Y-6640286D01*
G01X24448756Y-6646128D01*
G01X24454344Y-6657558D01*
G01X24454344Y-6674576D01*
G01X24442914Y-6686006D01*
G01X24425896Y-6691848D01*
G01X24403036Y-6691848D01*
G01X24385764Y-6686006D01*
G01X24374334Y-6674576D01*
G01X24502096Y-6571706D02*
G01X24502096Y-6691848D01*
G01X24502096Y-6634698D02*
G01X24519368Y-6617426D01*
G01X24530798Y-6611838D01*
G01X24547816Y-6611838D01*
G01X24559246Y-6617426D01*
G01X24565088Y-6634698D01*
G01X24565088Y-6691848D01*
G01X24681420Y-6611838D02*
G01X24681420Y-6691848D01*
G01X24681420Y-6628856D02*
G01X24669990Y-6617426D01*
G01X24658560Y-6611838D01*
G01X24641542Y-6611838D01*
G01X24630112Y-6617426D01*
G01X24618682Y-6628856D01*
G01X24612840Y-6646128D01*
G01X24612840Y-6657558D01*
G01X24618682Y-6674576D01*
G01X24630112Y-6686006D01*
G01X24641542Y-6691848D01*
G01X24658560Y-6691848D01*
G01X24669990Y-6686006D01*
G01X24681420Y-6674576D01*
G01X24729172Y-6611838D02*
G01X24729172Y-6731726D01*
G01X24729172Y-6628856D02*
G01X24740602Y-6617426D01*
G01X24752032Y-6611838D01*
G01X24769304Y-6611838D01*
G01X24780734Y-6617426D01*
G01X24792164Y-6628856D01*
G01X24797752Y-6646128D01*
G01X24797752Y-6657558D01*
G01X24792164Y-6674576D01*
G01X24780734Y-6686006D01*
G01X24769304Y-6691848D01*
G01X24752032Y-6691848D01*
G01X24740602Y-6686006D01*
G01X24729172Y-6674576D01*
G01X24845504Y-6646128D02*
G01X24914084Y-6646128D01*
G01X24914084Y-6634698D01*
G01X24908496Y-6623268D01*
G01X24902654Y-6617426D01*
G01X24891224Y-6611838D01*
G01X24874206Y-6611838D01*
G01X24862776Y-6617426D01*
G01X24851346Y-6628856D01*
G01X24845504Y-6646128D01*
G01X24845504Y-6657558D01*
G01X24851346Y-6674576D01*
G01X24862776Y-6686006D01*
G01X24874206Y-6691848D01*
G01X24891224Y-6691848D01*
G01X24902654Y-6686006D01*
G01X24914084Y-6674576D01*
G01X25805515Y-6571706D02*
G01X25851235Y-6691848D01*
G01X25896955Y-6571706D02*
G01X25851235Y-6691848D01*
G01X25944707Y-6571706D02*
G01X25950549Y-6577548D01*
G01X25956137Y-6571706D01*
G01X25950549Y-6566118D01*
G01X25944707Y-6571706D01*
G01X25950549Y-6611838D02*
G01X25950549Y-6691848D01*
G01X26072469Y-6611838D02*
G01X26072469Y-6691848D01*
G01X26072469Y-6628856D02*
G01X26061039Y-6617426D01*
G01X26049609Y-6611838D01*
G01X26032591Y-6611838D01*
G01X26021161Y-6617426D01*
G01X26009731Y-6628856D01*
G01X26003889Y-6646128D01*
G01X26003889Y-6657558D01*
G01X26009731Y-6674576D01*
G01X26021161Y-6686006D01*
G01X26032591Y-6691848D01*
G01X26049609Y-6691848D01*
G01X26061039Y-6686006D01*
G01X26072469Y-6674576D01*
G01X26223091Y-6548846D02*
G01X26120221Y-6731726D01*
G01X26270843Y-6571706D02*
G01X26270843Y-6691848D01*
G01X26270843Y-6571706D02*
G01X26322405Y-6571706D01*
G01X26339423Y-6577548D01*
G01X26345265Y-6583136D01*
G01X26350853Y-6594566D01*
G01X26350853Y-6611838D01*
G01X26345265Y-6623268D01*
G01X26339423Y-6628856D01*
G01X26322405Y-6634698D01*
G01X26270843Y-6634698D01*
G01X26467185Y-6611838D02*
G01X26467185Y-6691848D01*
G01X26467185Y-6628856D02*
G01X26455755Y-6617426D01*
G01X26444325Y-6611838D01*
G01X26427307Y-6611838D01*
G01X26415877Y-6617426D01*
G01X26404447Y-6628856D01*
G01X26398605Y-6646128D01*
G01X26398605Y-6657558D01*
G01X26404447Y-6674576D01*
G01X26415877Y-6686006D01*
G01X26427307Y-6691848D01*
G01X26444325Y-6691848D01*
G01X26455755Y-6686006D01*
G01X26467185Y-6674576D01*
G01X26583517Y-6571706D02*
G01X26583517Y-6691848D01*
G01X26583517Y-6628856D02*
G01X26572087Y-6617426D01*
G01X26560657Y-6611838D01*
G01X26543639Y-6611838D01*
G01X26532209Y-6617426D01*
G01X26520779Y-6628856D01*
G01X26514937Y-6646128D01*
G01X26514937Y-6657558D01*
G01X26520779Y-6674576D01*
G01X26532209Y-6686006D01*
G01X26543639Y-6691848D01*
G01X26560657Y-6691848D01*
G01X26572087Y-6686006D01*
G01X26583517Y-6674576D01*
G01X27474694Y-6571706D02*
G01X27474694Y-6691848D01*
G01X27474694Y-6571706D02*
G01X27526256Y-6571706D01*
G01X27543274Y-6577548D01*
G01X27549116Y-6583136D01*
G01X27554704Y-6594566D01*
G01X27554704Y-6611838D01*
G01X27549116Y-6623268D01*
G01X27543274Y-6628856D01*
G01X27526256Y-6634698D01*
G01X27474694Y-6634698D01*
G01X27671036Y-6611838D02*
G01X27671036Y-6691848D01*
G01X27671036Y-6628856D02*
G01X27659606Y-6617426D01*
G01X27648176Y-6611838D01*
G01X27631158Y-6611838D01*
G01X27619728Y-6617426D01*
G01X27608298Y-6628856D01*
G01X27602456Y-6646128D01*
G01X27602456Y-6657558D01*
G01X27608298Y-6674576D01*
G01X27619728Y-6686006D01*
G01X27631158Y-6691848D01*
G01X27648176Y-6691848D01*
G01X27659606Y-6686006D01*
G01X27671036Y-6674576D01*
G01X27787368Y-6571706D02*
G01X27787368Y-6691848D01*
G01X27787368Y-6628856D02*
G01X27775938Y-6617426D01*
G01X27764508Y-6611838D01*
G01X27747490Y-6611838D01*
G01X27736060Y-6617426D01*
G01X27724630Y-6628856D01*
G01X27718788Y-6646128D01*
G01X27718788Y-6657558D01*
G01X27724630Y-6674576D01*
G01X27736060Y-6686006D01*
G01X27747490Y-6691848D01*
G01X27764508Y-6691848D01*
G01X27775938Y-6686006D01*
G01X27787368Y-6674576D01*
G01X28043146Y-6588978D02*
G01X28031716Y-6577548D01*
G01X28014698Y-6571706D01*
G01X27991838Y-6571706D01*
G01X27974566Y-6577548D01*
G01X27963136Y-6588978D01*
G01X27963136Y-6600408D01*
G01X27968978Y-6611838D01*
G01X27974566Y-6617426D01*
G01X27985996Y-6623268D01*
G01X28020286Y-6634698D01*
G01X28031716Y-6640286D01*
G01X28037558Y-6646128D01*
G01X28043146Y-6657558D01*
G01X28043146Y-6674576D01*
G01X28031716Y-6686006D01*
G01X28014698Y-6691848D01*
G01X27991838Y-6691848D01*
G01X27974566Y-6686006D01*
G01X27963136Y-6674576D01*
G01X28090898Y-6571706D02*
G01X28090898Y-6691848D01*
G01X28090898Y-6634698D02*
G01X28108170Y-6617426D01*
G01X28119600Y-6611838D01*
G01X28136618Y-6611838D01*
G01X28148048Y-6617426D01*
G01X28153890Y-6634698D01*
G01X28153890Y-6691848D01*
G01X28270222Y-6611838D02*
G01X28270222Y-6691848D01*
G01X28270222Y-6628856D02*
G01X28258792Y-6617426D01*
G01X28247362Y-6611838D01*
G01X28230344Y-6611838D01*
G01X28218914Y-6617426D01*
G01X28207484Y-6628856D01*
G01X28201642Y-6646128D01*
G01X28201642Y-6657558D01*
G01X28207484Y-6674576D01*
G01X28218914Y-6686006D01*
G01X28230344Y-6691848D01*
G01X28247362Y-6691848D01*
G01X28258792Y-6686006D01*
G01X28270222Y-6674576D01*
G01X28317974Y-6611838D02*
G01X28317974Y-6731726D01*
G01X28317974Y-6628856D02*
G01X28329404Y-6617426D01*
G01X28340834Y-6611838D01*
G01X28358106Y-6611838D01*
G01X28369536Y-6617426D01*
G01X28380966Y-6628856D01*
G01X28386554Y-6646128D01*
G01X28386554Y-6657558D01*
G01X28380966Y-6674576D01*
G01X28369536Y-6686006D01*
G01X28358106Y-6691848D01*
G01X28340834Y-6691848D01*
G01X28329404Y-6686006D01*
G01X28317974Y-6674576D01*
G01X28434306Y-6646128D02*
G01X28502886Y-6646128D01*
G01X28502886Y-6634698D01*
G01X28497298Y-6623268D01*
G01X28491456Y-6617426D01*
G01X28480026Y-6611838D01*
G01X28463008Y-6611838D01*
G01X28451578Y-6617426D01*
G01X28440148Y-6628856D01*
G01X28434306Y-6646128D01*
G01X28434306Y-6657558D01*
G01X28440148Y-6674576D01*
G01X28451578Y-6686006D01*
G01X28463008Y-6691848D01*
G01X28480026Y-6691848D01*
G01X28491456Y-6686006D01*
G01X28502886Y-6674576D01*
G01X29394063Y-6571706D02*
G01X29394063Y-6691848D01*
G01X29394063Y-6691848D02*
G01X29462643Y-6691848D01*
G01X29578975Y-6611838D02*
G01X29578975Y-6691848D01*
G01X29578975Y-6628856D02*
G01X29567545Y-6617426D01*
G01X29556115Y-6611838D01*
G01X29539097Y-6611838D01*
G01X29527667Y-6617426D01*
G01X29516237Y-6628856D01*
G01X29510395Y-6646128D01*
G01X29510395Y-6657558D01*
G01X29516237Y-6674576D01*
G01X29527667Y-6686006D01*
G01X29539097Y-6691848D01*
G01X29556115Y-6691848D01*
G01X29567545Y-6686006D01*
G01X29578975Y-6674576D01*
G01X29632569Y-6611838D02*
G01X29666859Y-6691848D01*
G01X29701149Y-6611838D02*
G01X29666859Y-6691848D01*
G01X29655429Y-6714708D01*
G01X29643999Y-6726138D01*
G01X29632569Y-6731726D01*
G01X29626727Y-6731726D01*
G01X29748901Y-6646128D02*
G01X29817481Y-6646128D01*
G01X29817481Y-6634698D01*
G01X29811893Y-6623268D01*
G01X29806051Y-6617426D01*
G01X29794621Y-6611838D01*
G01X29777603Y-6611838D01*
G01X29766173Y-6617426D01*
G01X29754743Y-6628856D01*
G01X29748901Y-6646128D01*
G01X29748901Y-6657558D01*
G01X29754743Y-6674576D01*
G01X29766173Y-6686006D01*
G01X29777603Y-6691848D01*
G01X29794621Y-6691848D01*
G01X29806051Y-6686006D01*
G01X29817481Y-6674576D01*
G01X29865233Y-6611838D02*
G01X29865233Y-6691848D01*
G01X29865233Y-6646128D02*
G01X29871075Y-6628856D01*
G01X29882505Y-6617426D01*
G01X29893935Y-6611838D01*
G01X29910953Y-6611838D01*
G01X30086721Y-6571706D02*
G01X30086721Y-6691848D01*
G01X30086721Y-6571706D02*
G01X30138283Y-6571706D01*
G01X30155301Y-6577548D01*
G01X30161143Y-6583136D01*
G01X30166731Y-6594566D01*
G01X30166731Y-6611838D01*
G01X30161143Y-6623268D01*
G01X30155301Y-6628856D01*
G01X30138283Y-6634698D01*
G01X30086721Y-6634698D01*
G01X30283063Y-6611838D02*
G01X30283063Y-6691848D01*
G01X30283063Y-6628856D02*
G01X30271633Y-6617426D01*
G01X30260203Y-6611838D01*
G01X30243185Y-6611838D01*
G01X30231755Y-6617426D01*
G01X30220325Y-6628856D01*
G01X30214483Y-6646128D01*
G01X30214483Y-6657558D01*
G01X30220325Y-6674576D01*
G01X30231755Y-6686006D01*
G01X30243185Y-6691848D01*
G01X30260203Y-6691848D01*
G01X30271633Y-6686006D01*
G01X30283063Y-6674576D01*
G01X30330815Y-6571706D02*
G01X30336657Y-6577548D01*
G01X30342245Y-6571706D01*
G01X30336657Y-6566118D01*
G01X30330815Y-6571706D01*
G01X30336657Y-6611838D02*
G01X30336657Y-6691848D01*
G01X30389997Y-6611838D02*
G01X30389997Y-6691848D01*
G01X30389997Y-6646128D02*
G01X30395839Y-6628856D01*
G01X30407269Y-6617426D01*
G01X30418699Y-6611838D01*
G01X30435717Y-6611838D01*
G01X17475004Y-7152277D02*
G01X17537996Y-7152277D01*
G01X17503706Y-7197997D01*
G01X17520724Y-7197997D01*
G01X17532154Y-7203839D01*
G01X17537996Y-7209427D01*
G01X17543584Y-7226699D01*
G01X17543584Y-7238129D01*
G01X17537996Y-7255147D01*
G01X17526566Y-7266577D01*
G01X17509294Y-7272419D01*
G01X17492276Y-7272419D01*
G01X17475004Y-7266577D01*
G01X17469416Y-7260989D01*
G01X17463574Y-7249559D01*
G01X18934887Y-7152277D02*
G01X18877737Y-7232287D01*
G01X18963589Y-7232287D01*
G01X18934887Y-7152277D02*
G01X18934887Y-7272419D01*
G01X19022771Y-7152277D02*
G01X19085763Y-7152277D01*
G01X19051473Y-7197997D01*
G01X19068491Y-7197997D01*
G01X19079921Y-7203839D01*
G01X19085763Y-7209427D01*
G01X19091351Y-7226699D01*
G01X19091351Y-7238129D01*
G01X19085763Y-7255147D01*
G01X19074333Y-7266577D01*
G01X19057061Y-7272419D01*
G01X19040043Y-7272419D01*
G01X19022771Y-7266577D01*
G01X19017183Y-7260989D01*
G01X19011341Y-7249559D01*
G01X19144945Y-7243717D02*
G01X19139103Y-7249559D01*
G01X19144945Y-7255147D01*
G01X19150533Y-7249559D01*
G01X19144945Y-7243717D01*
G01X19209715Y-7152277D02*
G01X19272707Y-7152277D01*
G01X19238417Y-7197997D01*
G01X19255435Y-7197997D01*
G01X19266865Y-7203839D01*
G01X19272707Y-7209427D01*
G01X19278295Y-7226699D01*
G01X19278295Y-7238129D01*
G01X19272707Y-7255147D01*
G01X19261277Y-7266577D01*
G01X19244005Y-7272419D01*
G01X19226987Y-7272419D01*
G01X19209715Y-7266577D01*
G01X19204127Y-7260989D01*
G01X19198285Y-7249559D01*
G01X19326047Y-7192409D02*
G01X19389039Y-7272419D01*
G01X19389039Y-7192409D02*
G01X19326047Y-7272419D01*
G01X19493941Y-7152277D02*
G01X19436791Y-7232287D01*
G01X19522643Y-7232287D01*
G01X19493941Y-7152277D02*
G01X19493941Y-7272419D01*
G01X19581825Y-7152277D02*
G01X19644817Y-7152277D01*
G01X19610527Y-7197997D01*
G01X19627545Y-7197997D01*
G01X19638975Y-7203839D01*
G01X19644817Y-7209427D01*
G01X19650405Y-7226699D01*
G01X19650405Y-7238129D01*
G01X19644817Y-7255147D01*
G01X19633387Y-7266577D01*
G01X19616115Y-7272419D01*
G01X19599097Y-7272419D01*
G01X19581825Y-7266577D01*
G01X19576237Y-7260989D01*
G01X19570395Y-7249559D01*
G01X19703999Y-7243717D02*
G01X19698157Y-7249559D01*
G01X19703999Y-7255147D01*
G01X19709587Y-7249559D01*
G01X19703999Y-7243717D01*
G01X19768769Y-7152277D02*
G01X19831761Y-7152277D01*
G01X19797471Y-7197997D01*
G01X19814489Y-7197997D01*
G01X19825919Y-7203839D01*
G01X19831761Y-7209427D01*
G01X19837349Y-7226699D01*
G01X19837349Y-7238129D01*
G01X19831761Y-7255147D01*
G01X19820331Y-7266577D01*
G01X19803059Y-7272419D01*
G01X19786041Y-7272419D01*
G01X19768769Y-7266577D01*
G01X19763181Y-7260989D01*
G01X19757339Y-7249559D01*
G01X19885101Y-7192409D02*
G01X19885101Y-7272419D01*
G01X19885101Y-7215269D02*
G01X19902373Y-7197997D01*
G01X19913803Y-7192409D01*
G01X19930821Y-7192409D01*
G01X19942251Y-7197997D01*
G01X19948093Y-7215269D01*
G01X19948093Y-7272419D01*
G01X19948093Y-7215269D02*
G01X19965111Y-7197997D01*
G01X19976541Y-7192409D01*
G01X19993813Y-7192409D01*
G01X20005243Y-7197997D01*
G01X20010831Y-7215269D01*
G01X20010831Y-7272419D01*
G01X20058583Y-7152277D02*
G01X20064425Y-7158119D01*
G01X20070013Y-7152277D01*
G01X20064425Y-7146689D01*
G01X20058583Y-7152277D01*
G01X20064425Y-7192409D02*
G01X20064425Y-7272419D01*
G01X20117765Y-7152277D02*
G01X20117765Y-7272419D01*
G01X20205649Y-7129417D02*
G01X20194219Y-7140847D01*
G01X20182789Y-7158119D01*
G01X20171359Y-7180979D01*
G01X20165517Y-7209427D01*
G01X20165517Y-7232287D01*
G01X20171359Y-7260989D01*
G01X20182789Y-7283849D01*
G01X20194219Y-7300867D01*
G01X20205649Y-7312297D01*
G01X20253401Y-7175137D02*
G01X20264831Y-7169549D01*
G01X20282103Y-7152277D01*
G01X20282103Y-7272419D01*
G01X20335697Y-7243717D02*
G01X20329855Y-7249559D01*
G01X20335697Y-7255147D01*
G01X20341285Y-7249559D01*
G01X20335697Y-7243717D01*
G01X20389037Y-7175137D02*
G01X20400467Y-7169549D01*
G01X20417739Y-7152277D01*
G01X20417739Y-7272419D01*
G01X20499781Y-7152277D02*
G01X20482763Y-7158119D01*
G01X20471333Y-7175137D01*
G01X20465491Y-7203839D01*
G01X20465491Y-7220857D01*
G01X20471333Y-7249559D01*
G01X20482763Y-7266577D01*
G01X20499781Y-7272419D01*
G01X20511211Y-7272419D01*
G01X20528483Y-7266577D01*
G01X20539913Y-7249559D01*
G01X20545501Y-7220857D01*
G01X20545501Y-7203839D01*
G01X20539913Y-7175137D01*
G01X20528483Y-7158119D01*
G01X20511211Y-7152277D01*
G01X20499781Y-7152277D01*
G01X20627543Y-7152277D02*
G01X20610525Y-7158119D01*
G01X20599095Y-7175137D01*
G01X20593253Y-7203839D01*
G01X20593253Y-7220857D01*
G01X20599095Y-7249559D01*
G01X20610525Y-7266577D01*
G01X20627543Y-7272419D01*
G01X20638973Y-7272419D01*
G01X20656245Y-7266577D01*
G01X20667675Y-7249559D01*
G01X20673263Y-7220857D01*
G01X20673263Y-7203839D01*
G01X20667675Y-7175137D01*
G01X20656245Y-7158119D01*
G01X20638973Y-7152277D01*
G01X20627543Y-7152277D01*
G01X20721015Y-7192409D02*
G01X20784007Y-7272419D01*
G01X20784007Y-7192409D02*
G01X20721015Y-7272419D01*
G01X20831759Y-7175137D02*
G01X20843189Y-7169549D01*
G01X20860461Y-7152277D01*
G01X20860461Y-7272419D01*
G01X20914055Y-7243717D02*
G01X20908213Y-7249559D01*
G01X20914055Y-7255147D01*
G01X20919643Y-7249559D01*
G01X20914055Y-7243717D01*
G01X20967395Y-7175137D02*
G01X20978825Y-7169549D01*
G01X20996097Y-7152277D01*
G01X20996097Y-7272419D01*
G01X21078139Y-7152277D02*
G01X21061121Y-7158119D01*
G01X21049691Y-7175137D01*
G01X21043849Y-7203839D01*
G01X21043849Y-7220857D01*
G01X21049691Y-7249559D01*
G01X21061121Y-7266577D01*
G01X21078139Y-7272419D01*
G01X21089569Y-7272419D01*
G01X21106841Y-7266577D01*
G01X21118271Y-7249559D01*
G01X21123859Y-7220857D01*
G01X21123859Y-7203839D01*
G01X21118271Y-7175137D01*
G01X21106841Y-7158119D01*
G01X21089569Y-7152277D01*
G01X21078139Y-7152277D01*
G01X21205901Y-7152277D02*
G01X21188883Y-7158119D01*
G01X21177453Y-7175137D01*
G01X21171611Y-7203839D01*
G01X21171611Y-7220857D01*
G01X21177453Y-7249559D01*
G01X21188883Y-7266577D01*
G01X21205901Y-7272419D01*
G01X21217331Y-7272419D01*
G01X21234603Y-7266577D01*
G01X21246033Y-7249559D01*
G01X21251621Y-7220857D01*
G01X21251621Y-7203839D01*
G01X21246033Y-7175137D01*
G01X21234603Y-7158119D01*
G01X21217331Y-7152277D01*
G01X21205901Y-7152277D01*
G01X21299373Y-7192409D02*
G01X21299373Y-7272419D01*
G01X21299373Y-7215269D02*
G01X21316645Y-7197997D01*
G01X21328075Y-7192409D01*
G01X21345093Y-7192409D01*
G01X21356523Y-7197997D01*
G01X21362365Y-7215269D01*
G01X21362365Y-7272419D01*
G01X21362365Y-7215269D02*
G01X21379383Y-7197997D01*
G01X21390813Y-7192409D01*
G01X21408085Y-7192409D01*
G01X21419515Y-7197997D01*
G01X21425103Y-7215269D01*
G01X21425103Y-7272419D01*
G01X21472855Y-7192409D02*
G01X21472855Y-7272419D01*
G01X21472855Y-7215269D02*
G01X21490127Y-7197997D01*
G01X21501557Y-7192409D01*
G01X21518575Y-7192409D01*
G01X21530005Y-7197997D01*
G01X21535847Y-7215269D01*
G01X21535847Y-7272419D01*
G01X21535847Y-7215269D02*
G01X21552865Y-7197997D01*
G01X21564295Y-7192409D01*
G01X21581567Y-7192409D01*
G01X21592997Y-7197997D01*
G01X21598585Y-7215269D01*
G01X21598585Y-7272419D01*
G01X21646337Y-7129417D02*
G01X21657767Y-7140847D01*
G01X21669197Y-7158119D01*
G01X21680627Y-7180979D01*
G01X21686469Y-7209427D01*
G01X21686469Y-7232287D01*
G01X21680627Y-7260989D01*
G01X21669197Y-7283849D01*
G01X21657767Y-7300867D01*
G01X21646337Y-7312297D01*
G01X22912927Y-7152277D02*
G01X22912927Y-7272419D01*
G01X22912927Y-7152277D02*
G01X22964489Y-7152277D01*
G01X22981507Y-7158119D01*
G01X22987349Y-7163707D01*
G01X22992937Y-7175137D01*
G01X22992937Y-7192409D01*
G01X22987349Y-7203839D01*
G01X22981507Y-7209427D01*
G01X22964489Y-7215269D01*
G01X22912927Y-7215269D01*
G01X23080821Y-7152277D02*
G01X23080821Y-7272419D01*
G01X23040689Y-7152277D02*
G01X23120699Y-7152277D01*
G01X23168451Y-7152277D02*
G01X23168451Y-7272419D01*
G01X23248461Y-7152277D02*
G01X23248461Y-7272419D01*
G01X23168451Y-7209427D02*
G01X23248461Y-7209427D01*
G01X24374334Y-7152277D02*
G01X24374334Y-7272419D01*
G01X24374334Y-7152277D02*
G01X24425896Y-7152277D01*
G01X24442914Y-7158119D01*
G01X24448756Y-7163707D01*
G01X24454344Y-7175137D01*
G01X24454344Y-7186567D01*
G01X24448756Y-7197997D01*
G01X24442914Y-7203839D01*
G01X24425896Y-7209427D01*
G01X24374334Y-7209427D01*
G01X24414466Y-7209427D02*
G01X24454344Y-7272419D01*
G01X24530798Y-7192409D02*
G01X24519368Y-7197997D01*
G01X24507938Y-7209427D01*
G01X24502096Y-7226699D01*
G01X24502096Y-7238129D01*
G01X24507938Y-7255147D01*
G01X24519368Y-7266577D01*
G01X24530798Y-7272419D01*
G01X24547816Y-7272419D01*
G01X24559246Y-7266577D01*
G01X24570676Y-7255147D01*
G01X24576518Y-7238129D01*
G01X24576518Y-7226699D01*
G01X24570676Y-7209427D01*
G01X24559246Y-7197997D01*
G01X24547816Y-7192409D01*
G01X24530798Y-7192409D01*
G01X24624270Y-7192409D02*
G01X24624270Y-7249559D01*
G01X24630112Y-7266577D01*
G01X24641542Y-7272419D01*
G01X24658560Y-7272419D01*
G01X24669990Y-7266577D01*
G01X24687262Y-7249559D01*
G01X24687262Y-7192409D02*
G01X24687262Y-7272419D01*
G01X24735014Y-7192409D02*
G01X24735014Y-7272419D01*
G01X24735014Y-7215269D02*
G01X24752286Y-7197997D01*
G01X24763716Y-7192409D01*
G01X24780734Y-7192409D01*
G01X24792164Y-7197997D01*
G01X24798006Y-7215269D01*
G01X24798006Y-7272419D01*
G01X24914338Y-7152277D02*
G01X24914338Y-7272419D01*
G01X24914338Y-7209427D02*
G01X24902908Y-7197997D01*
G01X24891478Y-7192409D01*
G01X24874460Y-7192409D01*
G01X24863030Y-7197997D01*
G01X24851600Y-7209427D01*
G01X24845758Y-7226699D01*
G01X24845758Y-7238129D01*
G01X24851600Y-7255147D01*
G01X24863030Y-7266577D01*
G01X24874460Y-7272419D01*
G01X24891478Y-7272419D01*
G01X24902908Y-7266577D01*
G01X24914338Y-7255147D01*
G01X25805515Y-7152277D02*
G01X25805515Y-7272419D01*
G01X25805515Y-7152277D02*
G01X25857077Y-7152277D01*
G01X25874095Y-7158119D01*
G01X25879937Y-7163707D01*
G01X25885525Y-7175137D01*
G01X25885525Y-7192409D01*
G01X25879937Y-7203839D01*
G01X25874095Y-7209427D01*
G01X25857077Y-7215269D01*
G01X25805515Y-7215269D01*
G01X26001857Y-7192409D02*
G01X26001857Y-7272419D01*
G01X26001857Y-7209427D02*
G01X25990427Y-7197997D01*
G01X25978997Y-7192409D01*
G01X25961979Y-7192409D01*
G01X25950549Y-7197997D01*
G01X25939119Y-7209427D01*
G01X25933277Y-7226699D01*
G01X25933277Y-7238129D01*
G01X25939119Y-7255147D01*
G01X25950549Y-7266577D01*
G01X25961979Y-7272419D01*
G01X25978997Y-7272419D01*
G01X25990427Y-7266577D01*
G01X26001857Y-7255147D01*
G01X26118189Y-7152277D02*
G01X26118189Y-7272419D01*
G01X26118189Y-7209427D02*
G01X26106759Y-7197997D01*
G01X26095329Y-7192409D01*
G01X26078311Y-7192409D01*
G01X26066881Y-7197997D01*
G01X26055451Y-7209427D01*
G01X26049609Y-7226699D01*
G01X26049609Y-7238129D01*
G01X26055451Y-7255147D01*
G01X26066881Y-7266577D01*
G01X26078311Y-7272419D01*
G01X26095329Y-7272419D01*
G01X26106759Y-7266577D01*
G01X26118189Y-7255147D01*
G01X27514826Y-7129417D02*
G01X27503396Y-7140847D01*
G01X27491966Y-7158119D01*
G01X27480536Y-7180979D01*
G01X27474694Y-7209427D01*
G01X27474694Y-7232287D01*
G01X27480536Y-7260989D01*
G01X27491966Y-7283849D01*
G01X27503396Y-7300867D01*
G01X27514826Y-7312297D01*
G01X27562578Y-7152277D02*
G01X27562578Y-7272419D01*
G01X27562578Y-7152277D02*
G01X27608298Y-7272419D01*
G01X27654018Y-7152277D02*
G01X27608298Y-7272419D01*
G01X27654018Y-7152277D02*
G01X27654018Y-7272419D01*
G01X27701770Y-7152277D02*
G01X27707612Y-7158119D01*
G01X27713200Y-7152277D01*
G01X27707612Y-7146689D01*
G01X27701770Y-7152277D01*
G01X27707612Y-7192409D02*
G01X27707612Y-7272419D01*
G01X27760952Y-7192409D02*
G01X27823944Y-7272419D01*
G01X27823944Y-7192409D02*
G01X27760952Y-7272419D01*
G01X27871696Y-7226699D02*
G01X27940276Y-7226699D01*
G01X27940276Y-7215269D01*
G01X27934688Y-7203839D01*
G01X27928846Y-7197997D01*
G01X27917416Y-7192409D01*
G01X27900398Y-7192409D01*
G01X27888968Y-7197997D01*
G01X27877538Y-7209427D01*
G01X27871696Y-7226699D01*
G01X27871696Y-7238129D01*
G01X27877538Y-7255147D01*
G01X27888968Y-7266577D01*
G01X27900398Y-7272419D01*
G01X27917416Y-7272419D01*
G01X27928846Y-7266577D01*
G01X27940276Y-7255147D01*
G01X28056608Y-7152277D02*
G01X28056608Y-7272419D01*
G01X28056608Y-7209427D02*
G01X28045178Y-7197997D01*
G01X28033748Y-7192409D01*
G01X28016730Y-7192409D01*
G01X28005300Y-7197997D01*
G01X27993870Y-7209427D01*
G01X27988028Y-7226699D01*
G01X27988028Y-7238129D01*
G01X27993870Y-7255147D01*
G01X28005300Y-7266577D01*
G01X28016730Y-7272419D01*
G01X28033748Y-7272419D01*
G01X28045178Y-7266577D01*
G01X28056608Y-7255147D01*
G01X28104360Y-7129417D02*
G01X28115790Y-7140847D01*
G01X28127220Y-7158119D01*
G01X28138650Y-7180979D01*
G01X28144492Y-7209427D01*
G01X28144492Y-7232287D01*
G01X28138650Y-7260989D01*
G01X28127220Y-7283849D01*
G01X28115790Y-7300867D01*
G01X28104360Y-7312297D01*
G01X29434195Y-7152277D02*
G01X29434195Y-7272419D01*
G01X29394063Y-7152277D02*
G01X29474073Y-7152277D01*
G01X29550527Y-7192409D02*
G01X29539097Y-7197997D01*
G01X29527667Y-7209427D01*
G01X29521825Y-7226699D01*
G01X29521825Y-7238129D01*
G01X29527667Y-7255147D01*
G01X29539097Y-7266577D01*
G01X29550527Y-7272419D01*
G01X29567545Y-7272419D01*
G01X29578975Y-7266577D01*
G01X29590405Y-7255147D01*
G01X29596247Y-7238129D01*
G01X29596247Y-7226699D01*
G01X29590405Y-7209427D01*
G01X29578975Y-7197997D01*
G01X29567545Y-7192409D01*
G01X29550527Y-7192409D01*
G01X29643999Y-7192409D02*
G01X29643999Y-7312297D01*
G01X29643999Y-7209427D02*
G01X29655429Y-7197997D01*
G01X29666859Y-7192409D01*
G01X29684131Y-7192409D01*
G01X29695561Y-7197997D01*
G01X29706991Y-7209427D01*
G01X29712579Y-7226699D01*
G01X29712579Y-7238129D01*
G01X29706991Y-7255147D01*
G01X29695561Y-7266577D01*
G01X29684131Y-7272419D01*
G01X29666859Y-7272419D01*
G01X29655429Y-7266577D01*
G01X29643999Y-7255147D01*
G01X29888347Y-7152277D02*
G01X29888347Y-7272419D01*
G01X29888347Y-7272419D02*
G01X29956927Y-7272419D01*
G01X30073259Y-7192409D02*
G01X30073259Y-7272419D01*
G01X30073259Y-7209427D02*
G01X30061829Y-7197997D01*
G01X30050399Y-7192409D01*
G01X30033381Y-7192409D01*
G01X30021951Y-7197997D01*
G01X30010521Y-7209427D01*
G01X30004679Y-7226699D01*
G01X30004679Y-7238129D01*
G01X30010521Y-7255147D01*
G01X30021951Y-7266577D01*
G01X30033381Y-7272419D01*
G01X30050399Y-7272419D01*
G01X30061829Y-7266577D01*
G01X30073259Y-7255147D01*
G01X30126853Y-7192409D02*
G01X30161143Y-7272419D01*
G01X30195433Y-7192409D02*
G01X30161143Y-7272419D01*
G01X30149713Y-7295279D01*
G01X30138283Y-7306709D01*
G01X30126853Y-7312297D01*
G01X30121011Y-7312297D01*
G01X30243185Y-7226699D02*
G01X30311765Y-7226699D01*
G01X30311765Y-7215269D01*
G01X30306177Y-7203839D01*
G01X30300335Y-7197997D01*
G01X30288905Y-7192409D01*
G01X30271887Y-7192409D01*
G01X30260457Y-7197997D01*
G01X30249027Y-7209427D01*
G01X30243185Y-7226699D01*
G01X30243185Y-7238129D01*
G01X30249027Y-7255147D01*
G01X30260457Y-7266577D01*
G01X30271887Y-7272419D01*
G01X30288905Y-7272419D01*
G01X30300335Y-7266577D01*
G01X30311765Y-7255147D01*
G01X30359517Y-7192409D02*
G01X30359517Y-7272419D01*
G01X30359517Y-7226699D02*
G01X30365359Y-7209427D01*
G01X30376789Y-7197997D01*
G01X30388219Y-7192409D01*
G01X30405237Y-7192409D01*
G01X30452989Y-7220857D02*
G01X30555859Y-7220857D01*
G01X30603611Y-7152277D02*
G01X30603611Y-7272419D01*
G01X30603611Y-7152277D02*
G01X30655173Y-7152277D01*
G01X30672191Y-7158119D01*
G01X30678033Y-7163707D01*
G01X30683621Y-7175137D01*
G01X30683621Y-7186567D01*
G01X30678033Y-7197997D01*
G01X30672191Y-7203839D01*
G01X30655173Y-7209427D01*
G01X30603611Y-7209427D02*
G01X30655173Y-7209427D01*
G01X30672191Y-7215269D01*
G01X30678033Y-7220857D01*
G01X30683621Y-7232287D01*
G01X30683621Y-7249559D01*
G01X30678033Y-7260989D01*
G01X30672191Y-7266577D01*
G01X30655173Y-7272419D01*
G01X30603611Y-7272419D01*
G01X30760075Y-7192409D02*
G01X30748645Y-7197997D01*
G01X30737215Y-7209427D01*
G01X30731373Y-7226699D01*
G01X30731373Y-7238129D01*
G01X30737215Y-7255147D01*
G01X30748645Y-7266577D01*
G01X30760075Y-7272419D01*
G01X30777093Y-7272419D01*
G01X30788523Y-7266577D01*
G01X30799953Y-7255147D01*
G01X30805795Y-7238129D01*
G01X30805795Y-7226699D01*
G01X30799953Y-7209427D01*
G01X30788523Y-7197997D01*
G01X30777093Y-7192409D01*
G01X30760075Y-7192409D01*
G01X30870819Y-7152277D02*
G01X30870819Y-7249559D01*
G01X30876407Y-7266577D01*
G01X30887837Y-7272419D01*
G01X30899267Y-7272419D01*
G01X30853547Y-7192409D02*
G01X30893679Y-7192409D01*
G01X30964291Y-7152277D02*
G01X30964291Y-7249559D01*
G01X30969879Y-7266577D01*
G01X30981309Y-7272419D01*
G01X30992739Y-7272419D01*
G01X30947019Y-7192409D02*
G01X30987151Y-7192409D01*
G01X31069193Y-7192409D02*
G01X31057763Y-7197997D01*
G01X31046333Y-7209427D01*
G01X31040491Y-7226699D01*
G01X31040491Y-7238129D01*
G01X31046333Y-7255147D01*
G01X31057763Y-7266577D01*
G01X31069193Y-7272419D01*
G01X31086211Y-7272419D01*
G01X31097641Y-7266577D01*
G01X31109071Y-7255147D01*
G01X31114913Y-7238129D01*
G01X31114913Y-7226699D01*
G01X31109071Y-7209427D01*
G01X31097641Y-7197997D01*
G01X31086211Y-7192409D01*
G01X31069193Y-7192409D01*
G01X31162665Y-7192409D02*
G01X31162665Y-7272419D01*
G01X31162665Y-7215269D02*
G01X31179937Y-7197997D01*
G01X31191367Y-7192409D01*
G01X31208385Y-7192409D01*
G01X31219815Y-7197997D01*
G01X31225657Y-7215269D01*
G01X31225657Y-7272419D01*
G01X31225657Y-7215269D02*
G01X31242675Y-7197997D01*
G01X31254105Y-7192409D01*
G01X31271377Y-7192409D01*
G01X31282807Y-7197997D01*
G01X31288395Y-7215269D01*
G01X31288395Y-7272419D01*
G01X31464163Y-7152277D02*
G01X31464163Y-7272419D01*
G01X31464163Y-7272419D02*
G01X31532743Y-7272419D01*
G01X31649075Y-7192409D02*
G01X31649075Y-7272419D01*
G01X31649075Y-7209427D02*
G01X31637645Y-7197997D01*
G01X31626215Y-7192409D01*
G01X31609197Y-7192409D01*
G01X31597767Y-7197997D01*
G01X31586337Y-7209427D01*
G01X31580495Y-7226699D01*
G01X31580495Y-7238129D01*
G01X31586337Y-7255147D01*
G01X31597767Y-7266577D01*
G01X31609197Y-7272419D01*
G01X31626215Y-7272419D01*
G01X31637645Y-7266577D01*
G01X31649075Y-7255147D01*
G01X31702669Y-7192409D02*
G01X31736959Y-7272419D01*
G01X31771249Y-7192409D02*
G01X31736959Y-7272419D01*
G01X31725529Y-7295279D01*
G01X31714099Y-7306709D01*
G01X31702669Y-7312297D01*
G01X31696827Y-7312297D01*
G01X31819001Y-7226699D02*
G01X31887581Y-7226699D01*
G01X31887581Y-7215269D01*
G01X31881993Y-7203839D01*
G01X31876151Y-7197997D01*
G01X31864721Y-7192409D01*
G01X31847703Y-7192409D01*
G01X31836273Y-7197997D01*
G01X31824843Y-7209427D01*
G01X31819001Y-7226699D01*
G01X31819001Y-7238129D01*
G01X31824843Y-7255147D01*
G01X31836273Y-7266577D01*
G01X31847703Y-7272419D01*
G01X31864721Y-7272419D01*
G01X31876151Y-7266577D01*
G01X31887581Y-7255147D01*
G01X31935333Y-7192409D02*
G01X31935333Y-7272419D01*
G01X31935333Y-7226699D02*
G01X31941175Y-7209427D01*
G01X31952605Y-7197997D01*
G01X31964035Y-7192409D01*
G01X31981053Y-7192409D01*
G01X17475004Y-7732849D02*
G01X17537996Y-7732849D01*
G01X17503706Y-7778569D01*
G01X17520724Y-7778569D01*
G01X17532154Y-7784411D01*
G01X17537996Y-7789999D01*
G01X17543584Y-7807271D01*
G01X17543584Y-7818701D01*
G01X17537996Y-7835719D01*
G01X17526566Y-7847149D01*
G01X17509294Y-7852991D01*
G01X17492276Y-7852991D01*
G01X17475004Y-7847149D01*
G01X17469416Y-7841561D01*
G01X17463574Y-7830131D01*
G01X18934887Y-7732849D02*
G01X18877737Y-7812859D01*
G01X18963589Y-7812859D01*
G01X18934887Y-7732849D02*
G01X18934887Y-7852991D01*
G01X19045631Y-7732849D02*
G01X19028613Y-7738691D01*
G01X19017183Y-7755709D01*
G01X19011341Y-7784411D01*
G01X19011341Y-7801429D01*
G01X19017183Y-7830131D01*
G01X19028613Y-7847149D01*
G01X19045631Y-7852991D01*
G01X19057061Y-7852991D01*
G01X19074333Y-7847149D01*
G01X19085763Y-7830131D01*
G01X19091351Y-7801429D01*
G01X19091351Y-7784411D01*
G01X19085763Y-7755709D01*
G01X19074333Y-7738691D01*
G01X19057061Y-7732849D01*
G01X19045631Y-7732849D01*
G01X19144945Y-7824289D02*
G01X19139103Y-7830131D01*
G01X19144945Y-7835719D01*
G01X19150533Y-7830131D01*
G01X19144945Y-7824289D01*
G01X19204127Y-7761551D02*
G01X19204127Y-7755709D01*
G01X19209715Y-7744279D01*
G01X19215557Y-7738691D01*
G01X19226987Y-7732849D01*
G01X19249847Y-7732849D01*
G01X19261277Y-7738691D01*
G01X19266865Y-7744279D01*
G01X19272707Y-7755709D01*
G01X19272707Y-7767139D01*
G01X19266865Y-7778569D01*
G01X19255435Y-7795841D01*
G01X19198285Y-7852991D01*
G01X19278295Y-7852991D01*
G01X19326047Y-7772981D02*
G01X19389039Y-7852991D01*
G01X19389039Y-7772981D02*
G01X19326047Y-7852991D01*
G01X19493941Y-7732849D02*
G01X19436791Y-7812859D01*
G01X19522643Y-7812859D01*
G01X19493941Y-7732849D02*
G01X19493941Y-7852991D01*
G01X19604685Y-7732849D02*
G01X19587667Y-7738691D01*
G01X19576237Y-7755709D01*
G01X19570395Y-7784411D01*
G01X19570395Y-7801429D01*
G01X19576237Y-7830131D01*
G01X19587667Y-7847149D01*
G01X19604685Y-7852991D01*
G01X19616115Y-7852991D01*
G01X19633387Y-7847149D01*
G01X19644817Y-7830131D01*
G01X19650405Y-7801429D01*
G01X19650405Y-7784411D01*
G01X19644817Y-7755709D01*
G01X19633387Y-7738691D01*
G01X19616115Y-7732849D01*
G01X19604685Y-7732849D01*
G01X19703999Y-7824289D02*
G01X19698157Y-7830131D01*
G01X19703999Y-7835719D01*
G01X19709587Y-7830131D01*
G01X19703999Y-7824289D01*
G01X19763181Y-7761551D02*
G01X19763181Y-7755709D01*
G01X19768769Y-7744279D01*
G01X19774611Y-7738691D01*
G01X19786041Y-7732849D01*
G01X19808901Y-7732849D01*
G01X19820331Y-7738691D01*
G01X19825919Y-7744279D01*
G01X19831761Y-7755709D01*
G01X19831761Y-7767139D01*
G01X19825919Y-7778569D01*
G01X19814489Y-7795841D01*
G01X19757339Y-7852991D01*
G01X19837349Y-7852991D01*
G01X19885101Y-7772981D02*
G01X19885101Y-7852991D01*
G01X19885101Y-7795841D02*
G01X19902373Y-7778569D01*
G01X19913803Y-7772981D01*
G01X19930821Y-7772981D01*
G01X19942251Y-7778569D01*
G01X19948093Y-7795841D01*
G01X19948093Y-7852991D01*
G01X19948093Y-7795841D02*
G01X19965111Y-7778569D01*
G01X19976541Y-7772981D01*
G01X19993813Y-7772981D01*
G01X20005243Y-7778569D01*
G01X20010831Y-7795841D01*
G01X20010831Y-7852991D01*
G01X20058583Y-7732849D02*
G01X20064425Y-7738691D01*
G01X20070013Y-7732849D01*
G01X20064425Y-7727261D01*
G01X20058583Y-7732849D01*
G01X20064425Y-7772981D02*
G01X20064425Y-7852991D01*
G01X20117765Y-7732849D02*
G01X20117765Y-7852991D01*
G01X20205649Y-7709989D02*
G01X20194219Y-7721419D01*
G01X20182789Y-7738691D01*
G01X20171359Y-7761551D01*
G01X20165517Y-7789999D01*
G01X20165517Y-7812859D01*
G01X20171359Y-7841561D01*
G01X20182789Y-7864421D01*
G01X20194219Y-7881439D01*
G01X20205649Y-7892869D01*
G01X20253401Y-7755709D02*
G01X20264831Y-7750121D01*
G01X20282103Y-7732849D01*
G01X20282103Y-7852991D01*
G01X20335697Y-7824289D02*
G01X20329855Y-7830131D01*
G01X20335697Y-7835719D01*
G01X20341285Y-7830131D01*
G01X20335697Y-7824289D01*
G01X20423327Y-7732849D02*
G01X20406309Y-7738691D01*
G01X20394879Y-7755709D01*
G01X20389037Y-7784411D01*
G01X20389037Y-7801429D01*
G01X20394879Y-7830131D01*
G01X20406309Y-7847149D01*
G01X20423327Y-7852991D01*
G01X20434757Y-7852991D01*
G01X20452029Y-7847149D01*
G01X20463459Y-7830131D01*
G01X20469047Y-7801429D01*
G01X20469047Y-7784411D01*
G01X20463459Y-7755709D01*
G01X20452029Y-7738691D01*
G01X20434757Y-7732849D01*
G01X20423327Y-7732849D01*
G01X20522641Y-7761551D02*
G01X20522641Y-7755709D01*
G01X20528229Y-7744279D01*
G01X20534071Y-7738691D01*
G01X20545501Y-7732849D01*
G01X20568361Y-7732849D01*
G01X20579791Y-7738691D01*
G01X20585379Y-7744279D01*
G01X20591221Y-7755709D01*
G01X20591221Y-7767139D01*
G01X20585379Y-7778569D01*
G01X20573949Y-7795841D01*
G01X20516799Y-7852991D01*
G01X20596809Y-7852991D01*
G01X20678851Y-7732849D02*
G01X20661833Y-7738691D01*
G01X20650403Y-7755709D01*
G01X20644561Y-7784411D01*
G01X20644561Y-7801429D01*
G01X20650403Y-7830131D01*
G01X20661833Y-7847149D01*
G01X20678851Y-7852991D01*
G01X20690281Y-7852991D01*
G01X20707553Y-7847149D01*
G01X20718983Y-7830131D01*
G01X20724571Y-7801429D01*
G01X20724571Y-7784411D01*
G01X20718983Y-7755709D01*
G01X20707553Y-7738691D01*
G01X20690281Y-7732849D01*
G01X20678851Y-7732849D01*
G01X20772323Y-7772981D02*
G01X20835315Y-7852991D01*
G01X20835315Y-7772981D02*
G01X20772323Y-7852991D01*
G01X20883067Y-7755709D02*
G01X20894497Y-7750121D01*
G01X20911769Y-7732849D01*
G01X20911769Y-7852991D01*
G01X20965363Y-7824289D02*
G01X20959521Y-7830131D01*
G01X20965363Y-7835719D01*
G01X20970951Y-7830131D01*
G01X20965363Y-7824289D01*
G01X21052993Y-7732849D02*
G01X21035975Y-7738691D01*
G01X21024545Y-7755709D01*
G01X21018703Y-7784411D01*
G01X21018703Y-7801429D01*
G01X21024545Y-7830131D01*
G01X21035975Y-7847149D01*
G01X21052993Y-7852991D01*
G01X21064423Y-7852991D01*
G01X21081695Y-7847149D01*
G01X21093125Y-7830131D01*
G01X21098713Y-7801429D01*
G01X21098713Y-7784411D01*
G01X21093125Y-7755709D01*
G01X21081695Y-7738691D01*
G01X21064423Y-7732849D01*
G01X21052993Y-7732849D01*
G01X21152307Y-7761551D02*
G01X21152307Y-7755709D01*
G01X21157895Y-7744279D01*
G01X21163737Y-7738691D01*
G01X21175167Y-7732849D01*
G01X21198027Y-7732849D01*
G01X21209457Y-7738691D01*
G01X21215045Y-7744279D01*
G01X21220887Y-7755709D01*
G01X21220887Y-7767139D01*
G01X21215045Y-7778569D01*
G01X21203615Y-7795841D01*
G01X21146465Y-7852991D01*
G01X21226475Y-7852991D01*
G01X21308517Y-7732849D02*
G01X21291499Y-7738691D01*
G01X21280069Y-7755709D01*
G01X21274227Y-7784411D01*
G01X21274227Y-7801429D01*
G01X21280069Y-7830131D01*
G01X21291499Y-7847149D01*
G01X21308517Y-7852991D01*
G01X21319947Y-7852991D01*
G01X21337219Y-7847149D01*
G01X21348649Y-7830131D01*
G01X21354237Y-7801429D01*
G01X21354237Y-7784411D01*
G01X21348649Y-7755709D01*
G01X21337219Y-7738691D01*
G01X21319947Y-7732849D01*
G01X21308517Y-7732849D01*
G01X21401989Y-7772981D02*
G01X21401989Y-7852991D01*
G01X21401989Y-7795841D02*
G01X21419261Y-7778569D01*
G01X21430691Y-7772981D01*
G01X21447709Y-7772981D01*
G01X21459139Y-7778569D01*
G01X21464981Y-7795841D01*
G01X21464981Y-7852991D01*
G01X21464981Y-7795841D02*
G01X21481999Y-7778569D01*
G01X21493429Y-7772981D01*
G01X21510701Y-7772981D01*
G01X21522131Y-7778569D01*
G01X21527719Y-7795841D01*
G01X21527719Y-7852991D01*
G01X21575471Y-7772981D02*
G01X21575471Y-7852991D01*
G01X21575471Y-7795841D02*
G01X21592743Y-7778569D01*
G01X21604173Y-7772981D01*
G01X21621191Y-7772981D01*
G01X21632621Y-7778569D01*
G01X21638463Y-7795841D01*
G01X21638463Y-7852991D01*
G01X21638463Y-7795841D02*
G01X21655481Y-7778569D01*
G01X21666911Y-7772981D01*
G01X21684183Y-7772981D01*
G01X21695613Y-7778569D01*
G01X21701201Y-7795841D01*
G01X21701201Y-7852991D01*
G01X21748953Y-7709989D02*
G01X21760383Y-7721419D01*
G01X21771813Y-7738691D01*
G01X21783243Y-7761551D01*
G01X21789085Y-7789999D01*
G01X21789085Y-7812859D01*
G01X21783243Y-7841561D01*
G01X21771813Y-7864421D01*
G01X21760383Y-7881439D01*
G01X21748953Y-7892869D01*
G01X22912927Y-7732849D02*
G01X22912927Y-7852991D01*
G01X22912927Y-7732849D02*
G01X22964489Y-7732849D01*
G01X22981507Y-7738691D01*
G01X22987349Y-7744279D01*
G01X22992937Y-7755709D01*
G01X22992937Y-7772981D01*
G01X22987349Y-7784411D01*
G01X22981507Y-7789999D01*
G01X22964489Y-7795841D01*
G01X22912927Y-7795841D01*
G01X23080821Y-7732849D02*
G01X23080821Y-7852991D01*
G01X23040689Y-7732849D02*
G01X23120699Y-7732849D01*
G01X23168451Y-7732849D02*
G01X23168451Y-7852991D01*
G01X23248461Y-7732849D02*
G01X23248461Y-7852991D01*
G01X23168451Y-7789999D02*
G01X23248461Y-7789999D01*
G01X24374334Y-7732849D02*
G01X24374334Y-7852991D01*
G01X24374334Y-7732849D02*
G01X24425896Y-7732849D01*
G01X24442914Y-7738691D01*
G01X24448756Y-7744279D01*
G01X24454344Y-7755709D01*
G01X24454344Y-7767139D01*
G01X24448756Y-7778569D01*
G01X24442914Y-7784411D01*
G01X24425896Y-7789999D01*
G01X24374334Y-7789999D01*
G01X24414466Y-7789999D02*
G01X24454344Y-7852991D01*
G01X24530798Y-7772981D02*
G01X24519368Y-7778569D01*
G01X24507938Y-7789999D01*
G01X24502096Y-7807271D01*
G01X24502096Y-7818701D01*
G01X24507938Y-7835719D01*
G01X24519368Y-7847149D01*
G01X24530798Y-7852991D01*
G01X24547816Y-7852991D01*
G01X24559246Y-7847149D01*
G01X24570676Y-7835719D01*
G01X24576518Y-7818701D01*
G01X24576518Y-7807271D01*
G01X24570676Y-7789999D01*
G01X24559246Y-7778569D01*
G01X24547816Y-7772981D01*
G01X24530798Y-7772981D01*
G01X24624270Y-7772981D02*
G01X24624270Y-7830131D01*
G01X24630112Y-7847149D01*
G01X24641542Y-7852991D01*
G01X24658560Y-7852991D01*
G01X24669990Y-7847149D01*
G01X24687262Y-7830131D01*
G01X24687262Y-7772981D02*
G01X24687262Y-7852991D01*
G01X24735014Y-7772981D02*
G01X24735014Y-7852991D01*
G01X24735014Y-7795841D02*
G01X24752286Y-7778569D01*
G01X24763716Y-7772981D01*
G01X24780734Y-7772981D01*
G01X24792164Y-7778569D01*
G01X24798006Y-7795841D01*
G01X24798006Y-7852991D01*
G01X24914338Y-7732849D02*
G01X24914338Y-7852991D01*
G01X24914338Y-7789999D02*
G01X24902908Y-7778569D01*
G01X24891478Y-7772981D01*
G01X24874460Y-7772981D01*
G01X24863030Y-7778569D01*
G01X24851600Y-7789999D01*
G01X24845758Y-7807271D01*
G01X24845758Y-7818701D01*
G01X24851600Y-7835719D01*
G01X24863030Y-7847149D01*
G01X24874460Y-7852991D01*
G01X24891478Y-7852991D01*
G01X24902908Y-7847149D01*
G01X24914338Y-7835719D01*
G01X25805515Y-7732849D02*
G01X25805515Y-7852991D01*
G01X25805515Y-7732849D02*
G01X25857077Y-7732849D01*
G01X25874095Y-7738691D01*
G01X25879937Y-7744279D01*
G01X25885525Y-7755709D01*
G01X25885525Y-7772981D01*
G01X25879937Y-7784411D01*
G01X25874095Y-7789999D01*
G01X25857077Y-7795841D01*
G01X25805515Y-7795841D01*
G01X26001857Y-7772981D02*
G01X26001857Y-7852991D01*
G01X26001857Y-7789999D02*
G01X25990427Y-7778569D01*
G01X25978997Y-7772981D01*
G01X25961979Y-7772981D01*
G01X25950549Y-7778569D01*
G01X25939119Y-7789999D01*
G01X25933277Y-7807271D01*
G01X25933277Y-7818701D01*
G01X25939119Y-7835719D01*
G01X25950549Y-7847149D01*
G01X25961979Y-7852991D01*
G01X25978997Y-7852991D01*
G01X25990427Y-7847149D01*
G01X26001857Y-7835719D01*
G01X26118189Y-7732849D02*
G01X26118189Y-7852991D01*
G01X26118189Y-7789999D02*
G01X26106759Y-7778569D01*
G01X26095329Y-7772981D01*
G01X26078311Y-7772981D01*
G01X26066881Y-7778569D01*
G01X26055451Y-7789999D01*
G01X26049609Y-7807271D01*
G01X26049609Y-7818701D01*
G01X26055451Y-7835719D01*
G01X26066881Y-7847149D01*
G01X26078311Y-7852991D01*
G01X26095329Y-7852991D01*
G01X26106759Y-7847149D01*
G01X26118189Y-7835719D01*
G01X27514826Y-7709989D02*
G01X27503396Y-7721419D01*
G01X27491966Y-7738691D01*
G01X27480536Y-7761551D01*
G01X27474694Y-7789999D01*
G01X27474694Y-7812859D01*
G01X27480536Y-7841561D01*
G01X27491966Y-7864421D01*
G01X27503396Y-7881439D01*
G01X27514826Y-7892869D01*
G01X27562578Y-7732849D02*
G01X27562578Y-7852991D01*
G01X27562578Y-7732849D02*
G01X27608298Y-7852991D01*
G01X27654018Y-7732849D02*
G01X27608298Y-7852991D01*
G01X27654018Y-7732849D02*
G01X27654018Y-7852991D01*
G01X27701770Y-7732849D02*
G01X27707612Y-7738691D01*
G01X27713200Y-7732849D01*
G01X27707612Y-7727261D01*
G01X27701770Y-7732849D01*
G01X27707612Y-7772981D02*
G01X27707612Y-7852991D01*
G01X27760952Y-7772981D02*
G01X27823944Y-7852991D01*
G01X27823944Y-7772981D02*
G01X27760952Y-7852991D01*
G01X27871696Y-7807271D02*
G01X27940276Y-7807271D01*
G01X27940276Y-7795841D01*
G01X27934688Y-7784411D01*
G01X27928846Y-7778569D01*
G01X27917416Y-7772981D01*
G01X27900398Y-7772981D01*
G01X27888968Y-7778569D01*
G01X27877538Y-7789999D01*
G01X27871696Y-7807271D01*
G01X27871696Y-7818701D01*
G01X27877538Y-7835719D01*
G01X27888968Y-7847149D01*
G01X27900398Y-7852991D01*
G01X27917416Y-7852991D01*
G01X27928846Y-7847149D01*
G01X27940276Y-7835719D01*
G01X28056608Y-7732849D02*
G01X28056608Y-7852991D01*
G01X28056608Y-7789999D02*
G01X28045178Y-7778569D01*
G01X28033748Y-7772981D01*
G01X28016730Y-7772981D01*
G01X28005300Y-7778569D01*
G01X27993870Y-7789999D01*
G01X27988028Y-7807271D01*
G01X27988028Y-7818701D01*
G01X27993870Y-7835719D01*
G01X28005300Y-7847149D01*
G01X28016730Y-7852991D01*
G01X28033748Y-7852991D01*
G01X28045178Y-7847149D01*
G01X28056608Y-7835719D01*
G01X28104360Y-7709989D02*
G01X28115790Y-7721419D01*
G01X28127220Y-7738691D01*
G01X28138650Y-7761551D01*
G01X28144492Y-7789999D01*
G01X28144492Y-7812859D01*
G01X28138650Y-7841561D01*
G01X28127220Y-7864421D01*
G01X28115790Y-7881439D01*
G01X28104360Y-7892869D01*
G01X29434195Y-7732849D02*
G01X29434195Y-7852991D01*
G01X29394063Y-7732849D02*
G01X29474073Y-7732849D01*
G01X29550527Y-7772981D02*
G01X29539097Y-7778569D01*
G01X29527667Y-7789999D01*
G01X29521825Y-7807271D01*
G01X29521825Y-7818701D01*
G01X29527667Y-7835719D01*
G01X29539097Y-7847149D01*
G01X29550527Y-7852991D01*
G01X29567545Y-7852991D01*
G01X29578975Y-7847149D01*
G01X29590405Y-7835719D01*
G01X29596247Y-7818701D01*
G01X29596247Y-7807271D01*
G01X29590405Y-7789999D01*
G01X29578975Y-7778569D01*
G01X29567545Y-7772981D01*
G01X29550527Y-7772981D01*
G01X29643999Y-7772981D02*
G01X29643999Y-7892869D01*
G01X29643999Y-7789999D02*
G01X29655429Y-7778569D01*
G01X29666859Y-7772981D01*
G01X29684131Y-7772981D01*
G01X29695561Y-7778569D01*
G01X29706991Y-7789999D01*
G01X29712579Y-7807271D01*
G01X29712579Y-7818701D01*
G01X29706991Y-7835719D01*
G01X29695561Y-7847149D01*
G01X29684131Y-7852991D01*
G01X29666859Y-7852991D01*
G01X29655429Y-7847149D01*
G01X29643999Y-7835719D01*
G01X29888347Y-7732849D02*
G01X29888347Y-7852991D01*
G01X29888347Y-7852991D02*
G01X29956927Y-7852991D01*
G01X30073259Y-7772981D02*
G01X30073259Y-7852991D01*
G01X30073259Y-7789999D02*
G01X30061829Y-7778569D01*
G01X30050399Y-7772981D01*
G01X30033381Y-7772981D01*
G01X30021951Y-7778569D01*
G01X30010521Y-7789999D01*
G01X30004679Y-7807271D01*
G01X30004679Y-7818701D01*
G01X30010521Y-7835719D01*
G01X30021951Y-7847149D01*
G01X30033381Y-7852991D01*
G01X30050399Y-7852991D01*
G01X30061829Y-7847149D01*
G01X30073259Y-7835719D01*
G01X30126853Y-7772981D02*
G01X30161143Y-7852991D01*
G01X30195433Y-7772981D02*
G01X30161143Y-7852991D01*
G01X30149713Y-7875851D01*
G01X30138283Y-7887281D01*
G01X30126853Y-7892869D01*
G01X30121011Y-7892869D01*
G01X30243185Y-7807271D02*
G01X30311765Y-7807271D01*
G01X30311765Y-7795841D01*
G01X30306177Y-7784411D01*
G01X30300335Y-7778569D01*
G01X30288905Y-7772981D01*
G01X30271887Y-7772981D01*
G01X30260457Y-7778569D01*
G01X30249027Y-7789999D01*
G01X30243185Y-7807271D01*
G01X30243185Y-7818701D01*
G01X30249027Y-7835719D01*
G01X30260457Y-7847149D01*
G01X30271887Y-7852991D01*
G01X30288905Y-7852991D01*
G01X30300335Y-7847149D01*
G01X30311765Y-7835719D01*
G01X30359517Y-7772981D02*
G01X30359517Y-7852991D01*
G01X30359517Y-7807271D02*
G01X30365359Y-7789999D01*
G01X30376789Y-7778569D01*
G01X30388219Y-7772981D01*
G01X30405237Y-7772981D01*
G01X30452989Y-7801429D02*
G01X30555859Y-7801429D01*
G01X30603611Y-7732849D02*
G01X30603611Y-7852991D01*
G01X30603611Y-7732849D02*
G01X30655173Y-7732849D01*
G01X30672191Y-7738691D01*
G01X30678033Y-7744279D01*
G01X30683621Y-7755709D01*
G01X30683621Y-7767139D01*
G01X30678033Y-7778569D01*
G01X30672191Y-7784411D01*
G01X30655173Y-7789999D01*
G01X30603611Y-7789999D02*
G01X30655173Y-7789999D01*
G01X30672191Y-7795841D01*
G01X30678033Y-7801429D01*
G01X30683621Y-7812859D01*
G01X30683621Y-7830131D01*
G01X30678033Y-7841561D01*
G01X30672191Y-7847149D01*
G01X30655173Y-7852991D01*
G01X30603611Y-7852991D01*
G01X30760075Y-7772981D02*
G01X30748645Y-7778569D01*
G01X30737215Y-7789999D01*
G01X30731373Y-7807271D01*
G01X30731373Y-7818701D01*
G01X30737215Y-7835719D01*
G01X30748645Y-7847149D01*
G01X30760075Y-7852991D01*
G01X30777093Y-7852991D01*
G01X30788523Y-7847149D01*
G01X30799953Y-7835719D01*
G01X30805795Y-7818701D01*
G01X30805795Y-7807271D01*
G01X30799953Y-7789999D01*
G01X30788523Y-7778569D01*
G01X30777093Y-7772981D01*
G01X30760075Y-7772981D01*
G01X30870819Y-7732849D02*
G01X30870819Y-7830131D01*
G01X30876407Y-7847149D01*
G01X30887837Y-7852991D01*
G01X30899267Y-7852991D01*
G01X30853547Y-7772981D02*
G01X30893679Y-7772981D01*
G01X30964291Y-7732849D02*
G01X30964291Y-7830131D01*
G01X30969879Y-7847149D01*
G01X30981309Y-7852991D01*
G01X30992739Y-7852991D01*
G01X30947019Y-7772981D02*
G01X30987151Y-7772981D01*
G01X31069193Y-7772981D02*
G01X31057763Y-7778569D01*
G01X31046333Y-7789999D01*
G01X31040491Y-7807271D01*
G01X31040491Y-7818701D01*
G01X31046333Y-7835719D01*
G01X31057763Y-7847149D01*
G01X31069193Y-7852991D01*
G01X31086211Y-7852991D01*
G01X31097641Y-7847149D01*
G01X31109071Y-7835719D01*
G01X31114913Y-7818701D01*
G01X31114913Y-7807271D01*
G01X31109071Y-7789999D01*
G01X31097641Y-7778569D01*
G01X31086211Y-7772981D01*
G01X31069193Y-7772981D01*
G01X31162665Y-7772981D02*
G01X31162665Y-7852991D01*
G01X31162665Y-7795841D02*
G01X31179937Y-7778569D01*
G01X31191367Y-7772981D01*
G01X31208385Y-7772981D01*
G01X31219815Y-7778569D01*
G01X31225657Y-7795841D01*
G01X31225657Y-7852991D01*
G01X31225657Y-7795841D02*
G01X31242675Y-7778569D01*
G01X31254105Y-7772981D01*
G01X31271377Y-7772981D01*
G01X31282807Y-7778569D01*
G01X31288395Y-7795841D01*
G01X31288395Y-7852991D01*
G01X31464163Y-7732849D02*
G01X31464163Y-7852991D01*
G01X31464163Y-7852991D02*
G01X31532743Y-7852991D01*
G01X31649075Y-7772981D02*
G01X31649075Y-7852991D01*
G01X31649075Y-7789999D02*
G01X31637645Y-7778569D01*
G01X31626215Y-7772981D01*
G01X31609197Y-7772981D01*
G01X31597767Y-7778569D01*
G01X31586337Y-7789999D01*
G01X31580495Y-7807271D01*
G01X31580495Y-7818701D01*
G01X31586337Y-7835719D01*
G01X31597767Y-7847149D01*
G01X31609197Y-7852991D01*
G01X31626215Y-7852991D01*
G01X31637645Y-7847149D01*
G01X31649075Y-7835719D01*
G01X31702669Y-7772981D02*
G01X31736959Y-7852991D01*
G01X31771249Y-7772981D02*
G01X31736959Y-7852991D01*
G01X31725529Y-7875851D01*
G01X31714099Y-7887281D01*
G01X31702669Y-7892869D01*
G01X31696827Y-7892869D01*
G01X31819001Y-7807271D02*
G01X31887581Y-7807271D01*
G01X31887581Y-7795841D01*
G01X31881993Y-7784411D01*
G01X31876151Y-7778569D01*
G01X31864721Y-7772981D01*
G01X31847703Y-7772981D01*
G01X31836273Y-7778569D01*
G01X31824843Y-7789999D01*
G01X31819001Y-7807271D01*
G01X31819001Y-7818701D01*
G01X31824843Y-7835719D01*
G01X31836273Y-7847149D01*
G01X31847703Y-7852991D01*
G01X31864721Y-7852991D01*
G01X31876151Y-7847149D01*
G01X31887581Y-7835719D01*
G01X31935333Y-7772981D02*
G01X31935333Y-7852991D01*
G01X31935333Y-7807271D02*
G01X31941175Y-7789999D01*
G01X31952605Y-7778569D01*
G01X31964035Y-7772981D01*
G01X31981053Y-7772981D01*
G01X17520724Y-8313420D02*
G01X17463574Y-8393430D01*
G01X17549426Y-8393430D01*
G01X17520724Y-8313420D02*
G01X17520724Y-8433562D01*
G01X18877737Y-8336280D02*
G01X18889167Y-8330692D01*
G01X18906439Y-8313420D01*
G01X18906439Y-8433562D01*
G01X18960033Y-8342122D02*
G01X18960033Y-8336280D01*
G01X18965621Y-8324850D01*
G01X18971463Y-8319262D01*
G01X18982893Y-8313420D01*
G01X19005753Y-8313420D01*
G01X19017183Y-8319262D01*
G01X19022771Y-8324850D01*
G01X19028613Y-8336280D01*
G01X19028613Y-8347710D01*
G01X19022771Y-8359140D01*
G01X19011341Y-8376412D01*
G01X18954191Y-8433562D01*
G01X19034201Y-8433562D01*
G01X19150533Y-8330692D02*
G01X19144945Y-8319262D01*
G01X19127673Y-8313420D01*
G01X19116243Y-8313420D01*
G01X19099225Y-8319262D01*
G01X19087795Y-8336280D01*
G01X19081953Y-8364982D01*
G01X19081953Y-8393430D01*
G01X19087795Y-8416290D01*
G01X19099225Y-8427720D01*
G01X19116243Y-8433562D01*
G01X19122085Y-8433562D01*
G01X19139103Y-8427720D01*
G01X19150533Y-8416290D01*
G01X19156375Y-8399272D01*
G01X19156375Y-8393430D01*
G01X19150533Y-8376412D01*
G01X19139103Y-8364982D01*
G01X19122085Y-8359140D01*
G01X19116243Y-8359140D01*
G01X19099225Y-8364982D01*
G01X19087795Y-8376412D01*
G01X19081953Y-8393430D01*
G01X19209969Y-8404860D02*
G01X19204127Y-8410702D01*
G01X19209969Y-8416290D01*
G01X19215557Y-8410702D01*
G01X19209969Y-8404860D01*
G01X19297599Y-8313420D02*
G01X19280581Y-8319262D01*
G01X19269151Y-8336280D01*
G01X19263309Y-8364982D01*
G01X19263309Y-8382000D01*
G01X19269151Y-8410702D01*
G01X19280581Y-8427720D01*
G01X19297599Y-8433562D01*
G01X19309029Y-8433562D01*
G01X19326301Y-8427720D01*
G01X19337731Y-8410702D01*
G01X19343319Y-8382000D01*
G01X19343319Y-8364982D01*
G01X19337731Y-8336280D01*
G01X19326301Y-8319262D01*
G01X19309029Y-8313420D01*
G01X19297599Y-8313420D01*
G01X19391071Y-8353552D02*
G01X19454063Y-8433562D01*
G01X19454063Y-8353552D02*
G01X19391071Y-8433562D01*
G01X19501815Y-8336280D02*
G01X19513245Y-8330692D01*
G01X19530517Y-8313420D01*
G01X19530517Y-8433562D01*
G01X19584111Y-8342122D02*
G01X19584111Y-8336280D01*
G01X19589699Y-8324850D01*
G01X19595541Y-8319262D01*
G01X19606971Y-8313420D01*
G01X19629831Y-8313420D01*
G01X19641261Y-8319262D01*
G01X19646849Y-8324850D01*
G01X19652691Y-8336280D01*
G01X19652691Y-8347710D01*
G01X19646849Y-8359140D01*
G01X19635419Y-8376412D01*
G01X19578269Y-8433562D01*
G01X19658279Y-8433562D01*
G01X19774611Y-8330692D02*
G01X19769023Y-8319262D01*
G01X19751751Y-8313420D01*
G01X19740321Y-8313420D01*
G01X19723303Y-8319262D01*
G01X19711873Y-8336280D01*
G01X19706031Y-8364982D01*
G01X19706031Y-8393430D01*
G01X19711873Y-8416290D01*
G01X19723303Y-8427720D01*
G01X19740321Y-8433562D01*
G01X19746163Y-8433562D01*
G01X19763181Y-8427720D01*
G01X19774611Y-8416290D01*
G01X19780453Y-8399272D01*
G01X19780453Y-8393430D01*
G01X19774611Y-8376412D01*
G01X19763181Y-8364982D01*
G01X19746163Y-8359140D01*
G01X19740321Y-8359140D01*
G01X19723303Y-8364982D01*
G01X19711873Y-8376412D01*
G01X19706031Y-8393430D01*
G01X19834047Y-8404860D02*
G01X19828205Y-8410702D01*
G01X19834047Y-8416290D01*
G01X19839635Y-8410702D01*
G01X19834047Y-8404860D01*
G01X19921677Y-8313420D02*
G01X19904659Y-8319262D01*
G01X19893229Y-8336280D01*
G01X19887387Y-8364982D01*
G01X19887387Y-8382000D01*
G01X19893229Y-8410702D01*
G01X19904659Y-8427720D01*
G01X19921677Y-8433562D01*
G01X19933107Y-8433562D01*
G01X19950379Y-8427720D01*
G01X19961809Y-8410702D01*
G01X19967397Y-8382000D01*
G01X19967397Y-8364982D01*
G01X19961809Y-8336280D01*
G01X19950379Y-8319262D01*
G01X19933107Y-8313420D01*
G01X19921677Y-8313420D01*
G01X20015149Y-8353552D02*
G01X20015149Y-8433562D01*
G01X20015149Y-8376412D02*
G01X20032421Y-8359140D01*
G01X20043851Y-8353552D01*
G01X20060869Y-8353552D01*
G01X20072299Y-8359140D01*
G01X20078141Y-8376412D01*
G01X20078141Y-8433562D01*
G01X20078141Y-8376412D02*
G01X20095159Y-8359140D01*
G01X20106589Y-8353552D01*
G01X20123861Y-8353552D01*
G01X20135291Y-8359140D01*
G01X20140879Y-8376412D01*
G01X20140879Y-8433562D01*
G01X20188631Y-8313420D02*
G01X20194473Y-8319262D01*
G01X20200061Y-8313420D01*
G01X20194473Y-8307832D01*
G01X20188631Y-8313420D01*
G01X20194473Y-8353552D02*
G01X20194473Y-8433562D01*
G01X20247813Y-8313420D02*
G01X20247813Y-8433562D01*
G01X20335697Y-8290560D02*
G01X20324267Y-8301990D01*
G01X20312837Y-8319262D01*
G01X20301407Y-8342122D01*
G01X20295565Y-8370570D01*
G01X20295565Y-8393430D01*
G01X20301407Y-8422132D01*
G01X20312837Y-8444992D01*
G01X20324267Y-8462010D01*
G01X20335697Y-8473440D01*
G01X20394879Y-8313420D02*
G01X20457871Y-8313420D01*
G01X20423581Y-8359140D01*
G01X20440599Y-8359140D01*
G01X20452029Y-8364982D01*
G01X20457871Y-8370570D01*
G01X20463459Y-8387842D01*
G01X20463459Y-8399272D01*
G01X20457871Y-8416290D01*
G01X20446441Y-8427720D01*
G01X20429169Y-8433562D01*
G01X20412151Y-8433562D01*
G01X20394879Y-8427720D01*
G01X20389291Y-8422132D01*
G01X20383449Y-8410702D01*
G01X20517053Y-8404860D02*
G01X20511211Y-8410702D01*
G01X20517053Y-8416290D01*
G01X20522641Y-8410702D01*
G01X20517053Y-8404860D01*
G01X20576235Y-8342122D02*
G01X20576235Y-8336280D01*
G01X20581823Y-8324850D01*
G01X20587665Y-8319262D01*
G01X20599095Y-8313420D01*
G01X20621955Y-8313420D01*
G01X20633385Y-8319262D01*
G01X20638973Y-8324850D01*
G01X20644815Y-8336280D01*
G01X20644815Y-8347710D01*
G01X20638973Y-8359140D01*
G01X20627543Y-8376412D01*
G01X20570393Y-8433562D01*
G01X20650403Y-8433562D01*
G01X20732445Y-8313420D02*
G01X20715427Y-8319262D01*
G01X20703997Y-8336280D01*
G01X20698155Y-8364982D01*
G01X20698155Y-8382000D01*
G01X20703997Y-8410702D01*
G01X20715427Y-8427720D01*
G01X20732445Y-8433562D01*
G01X20743875Y-8433562D01*
G01X20761147Y-8427720D01*
G01X20772577Y-8410702D01*
G01X20778165Y-8382000D01*
G01X20778165Y-8364982D01*
G01X20772577Y-8336280D01*
G01X20761147Y-8319262D01*
G01X20743875Y-8313420D01*
G01X20732445Y-8313420D01*
G01X20860207Y-8313420D02*
G01X20843189Y-8319262D01*
G01X20831759Y-8336280D01*
G01X20825917Y-8364982D01*
G01X20825917Y-8382000D01*
G01X20831759Y-8410702D01*
G01X20843189Y-8427720D01*
G01X20860207Y-8433562D01*
G01X20871637Y-8433562D01*
G01X20888909Y-8427720D01*
G01X20900339Y-8410702D01*
G01X20905927Y-8382000D01*
G01X20905927Y-8364982D01*
G01X20900339Y-8336280D01*
G01X20888909Y-8319262D01*
G01X20871637Y-8313420D01*
G01X20860207Y-8313420D01*
G01X20953679Y-8353552D02*
G01X21016671Y-8433562D01*
G01X21016671Y-8353552D02*
G01X20953679Y-8433562D01*
G01X21075853Y-8313420D02*
G01X21138845Y-8313420D01*
G01X21104555Y-8359140D01*
G01X21121573Y-8359140D01*
G01X21133003Y-8364982D01*
G01X21138845Y-8370570D01*
G01X21144433Y-8387842D01*
G01X21144433Y-8399272D01*
G01X21138845Y-8416290D01*
G01X21127415Y-8427720D01*
G01X21110143Y-8433562D01*
G01X21093125Y-8433562D01*
G01X21075853Y-8427720D01*
G01X21070265Y-8422132D01*
G01X21064423Y-8410702D01*
G01X21198027Y-8404860D02*
G01X21192185Y-8410702D01*
G01X21198027Y-8416290D01*
G01X21203615Y-8410702D01*
G01X21198027Y-8404860D01*
G01X21257209Y-8342122D02*
G01X21257209Y-8336280D01*
G01X21262797Y-8324850D01*
G01X21268639Y-8319262D01*
G01X21280069Y-8313420D01*
G01X21302929Y-8313420D01*
G01X21314359Y-8319262D01*
G01X21319947Y-8324850D01*
G01X21325789Y-8336280D01*
G01X21325789Y-8347710D01*
G01X21319947Y-8359140D01*
G01X21308517Y-8376412D01*
G01X21251367Y-8433562D01*
G01X21331377Y-8433562D01*
G01X21413419Y-8313420D02*
G01X21396401Y-8319262D01*
G01X21384971Y-8336280D01*
G01X21379129Y-8364982D01*
G01X21379129Y-8382000D01*
G01X21384971Y-8410702D01*
G01X21396401Y-8427720D01*
G01X21413419Y-8433562D01*
G01X21424849Y-8433562D01*
G01X21442121Y-8427720D01*
G01X21453551Y-8410702D01*
G01X21459139Y-8382000D01*
G01X21459139Y-8364982D01*
G01X21453551Y-8336280D01*
G01X21442121Y-8319262D01*
G01X21424849Y-8313420D01*
G01X21413419Y-8313420D01*
G01X21541181Y-8313420D02*
G01X21524163Y-8319262D01*
G01X21512733Y-8336280D01*
G01X21506891Y-8364982D01*
G01X21506891Y-8382000D01*
G01X21512733Y-8410702D01*
G01X21524163Y-8427720D01*
G01X21541181Y-8433562D01*
G01X21552611Y-8433562D01*
G01X21569883Y-8427720D01*
G01X21581313Y-8410702D01*
G01X21586901Y-8382000D01*
G01X21586901Y-8364982D01*
G01X21581313Y-8336280D01*
G01X21569883Y-8319262D01*
G01X21552611Y-8313420D01*
G01X21541181Y-8313420D01*
G01X21634653Y-8353552D02*
G01X21634653Y-8433562D01*
G01X21634653Y-8376412D02*
G01X21651925Y-8359140D01*
G01X21663355Y-8353552D01*
G01X21680373Y-8353552D01*
G01X21691803Y-8359140D01*
G01X21697645Y-8376412D01*
G01X21697645Y-8433562D01*
G01X21697645Y-8376412D02*
G01X21714663Y-8359140D01*
G01X21726093Y-8353552D01*
G01X21743365Y-8353552D01*
G01X21754795Y-8359140D01*
G01X21760383Y-8376412D01*
G01X21760383Y-8433562D01*
G01X21808135Y-8353552D02*
G01X21808135Y-8433562D01*
G01X21808135Y-8376412D02*
G01X21825407Y-8359140D01*
G01X21836837Y-8353552D01*
G01X21853855Y-8353552D01*
G01X21865285Y-8359140D01*
G01X21871127Y-8376412D01*
G01X21871127Y-8433562D01*
G01X21871127Y-8376412D02*
G01X21888145Y-8359140D01*
G01X21899575Y-8353552D01*
G01X21916847Y-8353552D01*
G01X21928277Y-8359140D01*
G01X21933865Y-8376412D01*
G01X21933865Y-8433562D01*
G01X21981617Y-8290560D02*
G01X21993047Y-8301990D01*
G01X22004477Y-8319262D01*
G01X22015907Y-8342122D01*
G01X22021749Y-8370570D01*
G01X22021749Y-8393430D01*
G01X22015907Y-8422132D01*
G01X22004477Y-8444992D01*
G01X21993047Y-8462010D01*
G01X21981617Y-8473440D01*
G01X22912927Y-8313420D02*
G01X22912927Y-8433562D01*
G01X22912927Y-8313420D02*
G01X22964489Y-8313420D01*
G01X22981507Y-8319262D01*
G01X22987349Y-8324850D01*
G01X22992937Y-8336280D01*
G01X22992937Y-8353552D01*
G01X22987349Y-8364982D01*
G01X22981507Y-8370570D01*
G01X22964489Y-8376412D01*
G01X22912927Y-8376412D01*
G01X23080821Y-8313420D02*
G01X23080821Y-8433562D01*
G01X23040689Y-8313420D02*
G01X23120699Y-8313420D01*
G01X23168451Y-8313420D02*
G01X23168451Y-8433562D01*
G01X23248461Y-8313420D02*
G01X23248461Y-8433562D01*
G01X23168451Y-8370570D02*
G01X23248461Y-8370570D01*
G01X24374334Y-8313420D02*
G01X24374334Y-8433562D01*
G01X24374334Y-8313420D02*
G01X24425896Y-8313420D01*
G01X24442914Y-8319262D01*
G01X24448756Y-8324850D01*
G01X24454344Y-8336280D01*
G01X24454344Y-8347710D01*
G01X24448756Y-8359140D01*
G01X24442914Y-8364982D01*
G01X24425896Y-8370570D01*
G01X24374334Y-8370570D01*
G01X24414466Y-8370570D02*
G01X24454344Y-8433562D01*
G01X24530798Y-8353552D02*
G01X24519368Y-8359140D01*
G01X24507938Y-8370570D01*
G01X24502096Y-8387842D01*
G01X24502096Y-8399272D01*
G01X24507938Y-8416290D01*
G01X24519368Y-8427720D01*
G01X24530798Y-8433562D01*
G01X24547816Y-8433562D01*
G01X24559246Y-8427720D01*
G01X24570676Y-8416290D01*
G01X24576518Y-8399272D01*
G01X24576518Y-8387842D01*
G01X24570676Y-8370570D01*
G01X24559246Y-8359140D01*
G01X24547816Y-8353552D01*
G01X24530798Y-8353552D01*
G01X24624270Y-8353552D02*
G01X24624270Y-8410702D01*
G01X24630112Y-8427720D01*
G01X24641542Y-8433562D01*
G01X24658560Y-8433562D01*
G01X24669990Y-8427720D01*
G01X24687262Y-8410702D01*
G01X24687262Y-8353552D02*
G01X24687262Y-8433562D01*
G01X24735014Y-8353552D02*
G01X24735014Y-8433562D01*
G01X24735014Y-8376412D02*
G01X24752286Y-8359140D01*
G01X24763716Y-8353552D01*
G01X24780734Y-8353552D01*
G01X24792164Y-8359140D01*
G01X24798006Y-8376412D01*
G01X24798006Y-8433562D01*
G01X24914338Y-8313420D02*
G01X24914338Y-8433562D01*
G01X24914338Y-8370570D02*
G01X24902908Y-8359140D01*
G01X24891478Y-8353552D01*
G01X24874460Y-8353552D01*
G01X24863030Y-8359140D01*
G01X24851600Y-8370570D01*
G01X24845758Y-8387842D01*
G01X24845758Y-8399272D01*
G01X24851600Y-8416290D01*
G01X24863030Y-8427720D01*
G01X24874460Y-8433562D01*
G01X24891478Y-8433562D01*
G01X24902908Y-8427720D01*
G01X24914338Y-8416290D01*
G01X25805515Y-8313420D02*
G01X25805515Y-8433562D01*
G01X25805515Y-8313420D02*
G01X25857077Y-8313420D01*
G01X25874095Y-8319262D01*
G01X25879937Y-8324850D01*
G01X25885525Y-8336280D01*
G01X25885525Y-8353552D01*
G01X25879937Y-8364982D01*
G01X25874095Y-8370570D01*
G01X25857077Y-8376412D01*
G01X25805515Y-8376412D01*
G01X26001857Y-8353552D02*
G01X26001857Y-8433562D01*
G01X26001857Y-8370570D02*
G01X25990427Y-8359140D01*
G01X25978997Y-8353552D01*
G01X25961979Y-8353552D01*
G01X25950549Y-8359140D01*
G01X25939119Y-8370570D01*
G01X25933277Y-8387842D01*
G01X25933277Y-8399272D01*
G01X25939119Y-8416290D01*
G01X25950549Y-8427720D01*
G01X25961979Y-8433562D01*
G01X25978997Y-8433562D01*
G01X25990427Y-8427720D01*
G01X26001857Y-8416290D01*
G01X26118189Y-8313420D02*
G01X26118189Y-8433562D01*
G01X26118189Y-8370570D02*
G01X26106759Y-8359140D01*
G01X26095329Y-8353552D01*
G01X26078311Y-8353552D01*
G01X26066881Y-8359140D01*
G01X26055451Y-8370570D01*
G01X26049609Y-8387842D01*
G01X26049609Y-8399272D01*
G01X26055451Y-8416290D01*
G01X26066881Y-8427720D01*
G01X26078311Y-8433562D01*
G01X26095329Y-8433562D01*
G01X26106759Y-8427720D01*
G01X26118189Y-8416290D01*
G01X27474694Y-8313420D02*
G01X27474694Y-8433562D01*
G01X27474694Y-8313420D02*
G01X27526256Y-8313420D01*
G01X27543274Y-8319262D01*
G01X27549116Y-8324850D01*
G01X27554704Y-8336280D01*
G01X27554704Y-8347710D01*
G01X27549116Y-8359140D01*
G01X27543274Y-8364982D01*
G01X27526256Y-8370570D01*
G01X27474694Y-8370570D01*
G01X27514826Y-8370570D02*
G01X27554704Y-8433562D01*
G01X27631158Y-8353552D02*
G01X27619728Y-8359140D01*
G01X27608298Y-8370570D01*
G01X27602456Y-8387842D01*
G01X27602456Y-8399272D01*
G01X27608298Y-8416290D01*
G01X27619728Y-8427720D01*
G01X27631158Y-8433562D01*
G01X27648176Y-8433562D01*
G01X27659606Y-8427720D01*
G01X27671036Y-8416290D01*
G01X27676878Y-8399272D01*
G01X27676878Y-8387842D01*
G01X27671036Y-8370570D01*
G01X27659606Y-8359140D01*
G01X27648176Y-8353552D01*
G01X27631158Y-8353552D01*
G01X27724630Y-8353552D02*
G01X27724630Y-8410702D01*
G01X27730472Y-8427720D01*
G01X27741902Y-8433562D01*
G01X27758920Y-8433562D01*
G01X27770350Y-8427720D01*
G01X27787622Y-8410702D01*
G01X27787622Y-8353552D02*
G01X27787622Y-8433562D01*
G01X27835374Y-8353552D02*
G01X27835374Y-8433562D01*
G01X27835374Y-8376412D02*
G01X27852646Y-8359140D01*
G01X27864076Y-8353552D01*
G01X27881094Y-8353552D01*
G01X27892524Y-8359140D01*
G01X27898366Y-8376412D01*
G01X27898366Y-8433562D01*
G01X28014698Y-8313420D02*
G01X28014698Y-8433562D01*
G01X28014698Y-8370570D02*
G01X28003268Y-8359140D01*
G01X27991838Y-8353552D01*
G01X27974820Y-8353552D01*
G01X27963390Y-8359140D01*
G01X27951960Y-8370570D01*
G01X27946118Y-8387842D01*
G01X27946118Y-8399272D01*
G01X27951960Y-8416290D01*
G01X27963390Y-8427720D01*
G01X27974820Y-8433562D01*
G01X27991838Y-8433562D01*
G01X28003268Y-8427720D01*
G01X28014698Y-8416290D01*
G01X29434195Y-8313420D02*
G01X29434195Y-8433562D01*
G01X29394063Y-8313420D02*
G01X29474073Y-8313420D01*
G01X29550527Y-8353552D02*
G01X29539097Y-8359140D01*
G01X29527667Y-8370570D01*
G01X29521825Y-8387842D01*
G01X29521825Y-8399272D01*
G01X29527667Y-8416290D01*
G01X29539097Y-8427720D01*
G01X29550527Y-8433562D01*
G01X29567545Y-8433562D01*
G01X29578975Y-8427720D01*
G01X29590405Y-8416290D01*
G01X29596247Y-8399272D01*
G01X29596247Y-8387842D01*
G01X29590405Y-8370570D01*
G01X29578975Y-8359140D01*
G01X29567545Y-8353552D01*
G01X29550527Y-8353552D01*
G01X29643999Y-8353552D02*
G01X29643999Y-8473440D01*
G01X29643999Y-8370570D02*
G01X29655429Y-8359140D01*
G01X29666859Y-8353552D01*
G01X29684131Y-8353552D01*
G01X29695561Y-8359140D01*
G01X29706991Y-8370570D01*
G01X29712579Y-8387842D01*
G01X29712579Y-8399272D01*
G01X29706991Y-8416290D01*
G01X29695561Y-8427720D01*
G01X29684131Y-8433562D01*
G01X29666859Y-8433562D01*
G01X29655429Y-8427720D01*
G01X29643999Y-8416290D01*
G01X29888347Y-8313420D02*
G01X29888347Y-8433562D01*
G01X29888347Y-8433562D02*
G01X29956927Y-8433562D01*
G01X30073259Y-8353552D02*
G01X30073259Y-8433562D01*
G01X30073259Y-8370570D02*
G01X30061829Y-8359140D01*
G01X30050399Y-8353552D01*
G01X30033381Y-8353552D01*
G01X30021951Y-8359140D01*
G01X30010521Y-8370570D01*
G01X30004679Y-8387842D01*
G01X30004679Y-8399272D01*
G01X30010521Y-8416290D01*
G01X30021951Y-8427720D01*
G01X30033381Y-8433562D01*
G01X30050399Y-8433562D01*
G01X30061829Y-8427720D01*
G01X30073259Y-8416290D01*
G01X30126853Y-8353552D02*
G01X30161143Y-8433562D01*
G01X30195433Y-8353552D02*
G01X30161143Y-8433562D01*
G01X30149713Y-8456422D01*
G01X30138283Y-8467852D01*
G01X30126853Y-8473440D01*
G01X30121011Y-8473440D01*
G01X30243185Y-8387842D02*
G01X30311765Y-8387842D01*
G01X30311765Y-8376412D01*
G01X30306177Y-8364982D01*
G01X30300335Y-8359140D01*
G01X30288905Y-8353552D01*
G01X30271887Y-8353552D01*
G01X30260457Y-8359140D01*
G01X30249027Y-8370570D01*
G01X30243185Y-8387842D01*
G01X30243185Y-8399272D01*
G01X30249027Y-8416290D01*
G01X30260457Y-8427720D01*
G01X30271887Y-8433562D01*
G01X30288905Y-8433562D01*
G01X30300335Y-8427720D01*
G01X30311765Y-8416290D01*
G01X30359517Y-8353552D02*
G01X30359517Y-8433562D01*
G01X30359517Y-8387842D02*
G01X30365359Y-8370570D01*
G01X30376789Y-8359140D01*
G01X30388219Y-8353552D01*
G01X30405237Y-8353552D01*
G01X30452989Y-8382000D02*
G01X30555859Y-8382000D01*
G01X30603611Y-8313420D02*
G01X30603611Y-8433562D01*
G01X30603611Y-8313420D02*
G01X30655173Y-8313420D01*
G01X30672191Y-8319262D01*
G01X30678033Y-8324850D01*
G01X30683621Y-8336280D01*
G01X30683621Y-8347710D01*
G01X30678033Y-8359140D01*
G01X30672191Y-8364982D01*
G01X30655173Y-8370570D01*
G01X30603611Y-8370570D02*
G01X30655173Y-8370570D01*
G01X30672191Y-8376412D01*
G01X30678033Y-8382000D01*
G01X30683621Y-8393430D01*
G01X30683621Y-8410702D01*
G01X30678033Y-8422132D01*
G01X30672191Y-8427720D01*
G01X30655173Y-8433562D01*
G01X30603611Y-8433562D01*
G01X30760075Y-8353552D02*
G01X30748645Y-8359140D01*
G01X30737215Y-8370570D01*
G01X30731373Y-8387842D01*
G01X30731373Y-8399272D01*
G01X30737215Y-8416290D01*
G01X30748645Y-8427720D01*
G01X30760075Y-8433562D01*
G01X30777093Y-8433562D01*
G01X30788523Y-8427720D01*
G01X30799953Y-8416290D01*
G01X30805795Y-8399272D01*
G01X30805795Y-8387842D01*
G01X30799953Y-8370570D01*
G01X30788523Y-8359140D01*
G01X30777093Y-8353552D01*
G01X30760075Y-8353552D01*
G01X30870819Y-8313420D02*
G01X30870819Y-8410702D01*
G01X30876407Y-8427720D01*
G01X30887837Y-8433562D01*
G01X30899267Y-8433562D01*
G01X30853547Y-8353552D02*
G01X30893679Y-8353552D01*
G01X30964291Y-8313420D02*
G01X30964291Y-8410702D01*
G01X30969879Y-8427720D01*
G01X30981309Y-8433562D01*
G01X30992739Y-8433562D01*
G01X30947019Y-8353552D02*
G01X30987151Y-8353552D01*
G01X31069193Y-8353552D02*
G01X31057763Y-8359140D01*
G01X31046333Y-8370570D01*
G01X31040491Y-8387842D01*
G01X31040491Y-8399272D01*
G01X31046333Y-8416290D01*
G01X31057763Y-8427720D01*
G01X31069193Y-8433562D01*
G01X31086211Y-8433562D01*
G01X31097641Y-8427720D01*
G01X31109071Y-8416290D01*
G01X31114913Y-8399272D01*
G01X31114913Y-8387842D01*
G01X31109071Y-8370570D01*
G01X31097641Y-8359140D01*
G01X31086211Y-8353552D01*
G01X31069193Y-8353552D01*
G01X31162665Y-8353552D02*
G01X31162665Y-8433562D01*
G01X31162665Y-8376412D02*
G01X31179937Y-8359140D01*
G01X31191367Y-8353552D01*
G01X31208385Y-8353552D01*
G01X31219815Y-8359140D01*
G01X31225657Y-8376412D01*
G01X31225657Y-8433562D01*
G01X31225657Y-8376412D02*
G01X31242675Y-8359140D01*
G01X31254105Y-8353552D01*
G01X31271377Y-8353552D01*
G01X31282807Y-8359140D01*
G01X31288395Y-8376412D01*
G01X31288395Y-8433562D01*
G01X31464163Y-8313420D02*
G01X31464163Y-8433562D01*
G01X31464163Y-8433562D02*
G01X31532743Y-8433562D01*
G01X31649075Y-8353552D02*
G01X31649075Y-8433562D01*
G01X31649075Y-8370570D02*
G01X31637645Y-8359140D01*
G01X31626215Y-8353552D01*
G01X31609197Y-8353552D01*
G01X31597767Y-8359140D01*
G01X31586337Y-8370570D01*
G01X31580495Y-8387842D01*
G01X31580495Y-8399272D01*
G01X31586337Y-8416290D01*
G01X31597767Y-8427720D01*
G01X31609197Y-8433562D01*
G01X31626215Y-8433562D01*
G01X31637645Y-8427720D01*
G01X31649075Y-8416290D01*
G01X31702669Y-8353552D02*
G01X31736959Y-8433562D01*
G01X31771249Y-8353552D02*
G01X31736959Y-8433562D01*
G01X31725529Y-8456422D01*
G01X31714099Y-8467852D01*
G01X31702669Y-8473440D01*
G01X31696827Y-8473440D01*
G01X31819001Y-8387842D02*
G01X31887581Y-8387842D01*
G01X31887581Y-8376412D01*
G01X31881993Y-8364982D01*
G01X31876151Y-8359140D01*
G01X31864721Y-8353552D01*
G01X31847703Y-8353552D01*
G01X31836273Y-8359140D01*
G01X31824843Y-8370570D01*
G01X31819001Y-8387842D01*
G01X31819001Y-8399272D01*
G01X31824843Y-8416290D01*
G01X31836273Y-8427720D01*
G01X31847703Y-8433562D01*
G01X31864721Y-8433562D01*
G01X31876151Y-8427720D01*
G01X31887581Y-8416290D01*
G01X31935333Y-8353552D02*
G01X31935333Y-8433562D01*
G01X31935333Y-8387842D02*
G01X31941175Y-8370570D01*
G01X31952605Y-8359140D01*
G01X31964035Y-8353552D01*
G01X31981053Y-8353552D01*
G01X17520724Y-8893991D02*
G01X17463574Y-8974001D01*
G01X17549426Y-8974001D01*
G01X17520724Y-8893991D02*
G01X17520724Y-9014133D01*
G01X17631468Y-8893991D02*
G01X17614450Y-8899833D01*
G01X17603020Y-8916851D01*
G01X17597178Y-8945553D01*
G01X17597178Y-8962571D01*
G01X17603020Y-8991273D01*
G01X17614450Y-9008291D01*
G01X17631468Y-9014133D01*
G01X17642898Y-9014133D01*
G01X17660170Y-9008291D01*
G01X17671600Y-8991273D01*
G01X17677188Y-8962571D01*
G01X17677188Y-8945553D01*
G01X17671600Y-8916851D01*
G01X17660170Y-8899833D01*
G01X17642898Y-8893991D01*
G01X17631468Y-8893991D01*
G01X18946317Y-8893991D02*
G01X18889167Y-8893991D01*
G01X18883579Y-8945553D01*
G01X18889167Y-8939711D01*
G01X18906439Y-8934123D01*
G01X18923457Y-8934123D01*
G01X18940729Y-8939711D01*
G01X18952159Y-8951141D01*
G01X18957747Y-8968413D01*
G01X18957747Y-8979843D01*
G01X18952159Y-8996861D01*
G01X18940729Y-9008291D01*
G01X18923457Y-9014133D01*
G01X18906439Y-9014133D01*
G01X18889167Y-9008291D01*
G01X18883579Y-9002703D01*
G01X18877737Y-8991273D01*
G01X19079921Y-8934123D02*
G01X19074079Y-8951141D01*
G01X19062649Y-8962571D01*
G01X19045631Y-8968413D01*
G01X19039789Y-8968413D01*
G01X19022771Y-8962571D01*
G01X19011341Y-8951141D01*
G01X19005499Y-8934123D01*
G01X19005499Y-8928281D01*
G01X19011341Y-8911263D01*
G01X19022771Y-8899833D01*
G01X19039789Y-8893991D01*
G01X19045631Y-8893991D01*
G01X19062649Y-8899833D01*
G01X19074079Y-8911263D01*
G01X19079921Y-8934123D01*
G01X19079921Y-8962571D01*
G01X19074079Y-8991273D01*
G01X19062649Y-9008291D01*
G01X19045631Y-9014133D01*
G01X19034201Y-9014133D01*
G01X19016929Y-9008291D01*
G01X19011341Y-8996861D01*
G01X19133515Y-8985431D02*
G01X19127673Y-8991273D01*
G01X19133515Y-8996861D01*
G01X19139103Y-8991273D01*
G01X19133515Y-8985431D01*
G01X19186855Y-8916851D02*
G01X19198285Y-8911263D01*
G01X19215557Y-8893991D01*
G01X19215557Y-9014133D01*
G01X19263309Y-8934123D02*
G01X19326301Y-9014133D01*
G01X19326301Y-8934123D02*
G01X19263309Y-9014133D01*
G01X19442633Y-8893991D02*
G01X19385483Y-8893991D01*
G01X19379895Y-8945553D01*
G01X19385483Y-8939711D01*
G01X19402755Y-8934123D01*
G01X19419773Y-8934123D01*
G01X19437045Y-8939711D01*
G01X19448475Y-8951141D01*
G01X19454063Y-8968413D01*
G01X19454063Y-8979843D01*
G01X19448475Y-8996861D01*
G01X19437045Y-9008291D01*
G01X19419773Y-9014133D01*
G01X19402755Y-9014133D01*
G01X19385483Y-9008291D01*
G01X19379895Y-9002703D01*
G01X19374053Y-8991273D01*
G01X19576237Y-8934123D02*
G01X19570395Y-8951141D01*
G01X19558965Y-8962571D01*
G01X19541947Y-8968413D01*
G01X19536105Y-8968413D01*
G01X19519087Y-8962571D01*
G01X19507657Y-8951141D01*
G01X19501815Y-8934123D01*
G01X19501815Y-8928281D01*
G01X19507657Y-8911263D01*
G01X19519087Y-8899833D01*
G01X19536105Y-8893991D01*
G01X19541947Y-8893991D01*
G01X19558965Y-8899833D01*
G01X19570395Y-8911263D01*
G01X19576237Y-8934123D01*
G01X19576237Y-8962571D01*
G01X19570395Y-8991273D01*
G01X19558965Y-9008291D01*
G01X19541947Y-9014133D01*
G01X19530517Y-9014133D01*
G01X19513245Y-9008291D01*
G01X19507657Y-8996861D01*
G01X19629831Y-8985431D02*
G01X19623989Y-8991273D01*
G01X19629831Y-8996861D01*
G01X19635419Y-8991273D01*
G01X19629831Y-8985431D01*
G01X19683171Y-8916851D02*
G01X19694601Y-8911263D01*
G01X19711873Y-8893991D01*
G01X19711873Y-9014133D01*
G01X19759625Y-8934123D02*
G01X19759625Y-9014133D01*
G01X19759625Y-8956983D02*
G01X19776897Y-8939711D01*
G01X19788327Y-8934123D01*
G01X19805345Y-8934123D01*
G01X19816775Y-8939711D01*
G01X19822617Y-8956983D01*
G01X19822617Y-9014133D01*
G01X19822617Y-8956983D02*
G01X19839635Y-8939711D01*
G01X19851065Y-8934123D01*
G01X19868337Y-8934123D01*
G01X19879767Y-8939711D01*
G01X19885355Y-8956983D01*
G01X19885355Y-9014133D01*
G01X19933107Y-8893991D02*
G01X19938949Y-8899833D01*
G01X19944537Y-8893991D01*
G01X19938949Y-8888403D01*
G01X19933107Y-8893991D01*
G01X19938949Y-8934123D02*
G01X19938949Y-9014133D01*
G01X19992289Y-8893991D02*
G01X19992289Y-9014133D01*
G01X20080173Y-8871131D02*
G01X20068743Y-8882561D01*
G01X20057313Y-8899833D01*
G01X20045883Y-8922693D01*
G01X20040041Y-8951141D01*
G01X20040041Y-8974001D01*
G01X20045883Y-9002703D01*
G01X20057313Y-9025563D01*
G01X20068743Y-9042581D01*
G01X20080173Y-9054011D01*
G01X20127925Y-8916851D02*
G01X20139355Y-8911263D01*
G01X20156627Y-8893991D01*
G01X20156627Y-9014133D01*
G01X20210221Y-8985431D02*
G01X20204379Y-8991273D01*
G01X20210221Y-8996861D01*
G01X20215809Y-8991273D01*
G01X20210221Y-8985431D01*
G01X20332141Y-8893991D02*
G01X20274991Y-8893991D01*
G01X20269403Y-8945553D01*
G01X20274991Y-8939711D01*
G01X20292263Y-8934123D01*
G01X20309281Y-8934123D01*
G01X20326553Y-8939711D01*
G01X20337983Y-8951141D01*
G01X20343571Y-8968413D01*
G01X20343571Y-8979843D01*
G01X20337983Y-8996861D01*
G01X20326553Y-9008291D01*
G01X20309281Y-9014133D01*
G01X20292263Y-9014133D01*
G01X20274991Y-9008291D01*
G01X20269403Y-9002703D01*
G01X20263561Y-8991273D01*
G01X20425613Y-8893991D02*
G01X20408595Y-8899833D01*
G01X20397165Y-8916851D01*
G01X20391323Y-8945553D01*
G01X20391323Y-8962571D01*
G01X20397165Y-8991273D01*
G01X20408595Y-9008291D01*
G01X20425613Y-9014133D01*
G01X20437043Y-9014133D01*
G01X20454315Y-9008291D01*
G01X20465745Y-8991273D01*
G01X20471333Y-8962571D01*
G01X20471333Y-8945553D01*
G01X20465745Y-8916851D01*
G01X20454315Y-8899833D01*
G01X20437043Y-8893991D01*
G01X20425613Y-8893991D01*
G01X20553375Y-8893991D02*
G01X20536357Y-8899833D01*
G01X20524927Y-8916851D01*
G01X20519085Y-8945553D01*
G01X20519085Y-8962571D01*
G01X20524927Y-8991273D01*
G01X20536357Y-9008291D01*
G01X20553375Y-9014133D01*
G01X20564805Y-9014133D01*
G01X20582077Y-9008291D01*
G01X20593507Y-8991273D01*
G01X20599095Y-8962571D01*
G01X20599095Y-8945553D01*
G01X20593507Y-8916851D01*
G01X20582077Y-8899833D01*
G01X20564805Y-8893991D01*
G01X20553375Y-8893991D01*
G01X20646847Y-8934123D02*
G01X20709839Y-9014133D01*
G01X20709839Y-8934123D02*
G01X20646847Y-9014133D01*
G01X20757591Y-8916851D02*
G01X20769021Y-8911263D01*
G01X20786293Y-8893991D01*
G01X20786293Y-9014133D01*
G01X20839887Y-8985431D02*
G01X20834045Y-8991273D01*
G01X20839887Y-8996861D01*
G01X20845475Y-8991273D01*
G01X20839887Y-8985431D01*
G01X20961807Y-8893991D02*
G01X20904657Y-8893991D01*
G01X20899069Y-8945553D01*
G01X20904657Y-8939711D01*
G01X20921929Y-8934123D01*
G01X20938947Y-8934123D01*
G01X20956219Y-8939711D01*
G01X20967649Y-8951141D01*
G01X20973237Y-8968413D01*
G01X20973237Y-8979843D01*
G01X20967649Y-8996861D01*
G01X20956219Y-9008291D01*
G01X20938947Y-9014133D01*
G01X20921929Y-9014133D01*
G01X20904657Y-9008291D01*
G01X20899069Y-9002703D01*
G01X20893227Y-8991273D01*
G01X21055279Y-8893991D02*
G01X21038261Y-8899833D01*
G01X21026831Y-8916851D01*
G01X21020989Y-8945553D01*
G01X21020989Y-8962571D01*
G01X21026831Y-8991273D01*
G01X21038261Y-9008291D01*
G01X21055279Y-9014133D01*
G01X21066709Y-9014133D01*
G01X21083981Y-9008291D01*
G01X21095411Y-8991273D01*
G01X21100999Y-8962571D01*
G01X21100999Y-8945553D01*
G01X21095411Y-8916851D01*
G01X21083981Y-8899833D01*
G01X21066709Y-8893991D01*
G01X21055279Y-8893991D01*
G01X21183041Y-8893991D02*
G01X21166023Y-8899833D01*
G01X21154593Y-8916851D01*
G01X21148751Y-8945553D01*
G01X21148751Y-8962571D01*
G01X21154593Y-8991273D01*
G01X21166023Y-9008291D01*
G01X21183041Y-9014133D01*
G01X21194471Y-9014133D01*
G01X21211743Y-9008291D01*
G01X21223173Y-8991273D01*
G01X21228761Y-8962571D01*
G01X21228761Y-8945553D01*
G01X21223173Y-8916851D01*
G01X21211743Y-8899833D01*
G01X21194471Y-8893991D01*
G01X21183041Y-8893991D01*
G01X21276513Y-8934123D02*
G01X21276513Y-9014133D01*
G01X21276513Y-8956983D02*
G01X21293785Y-8939711D01*
G01X21305215Y-8934123D01*
G01X21322233Y-8934123D01*
G01X21333663Y-8939711D01*
G01X21339505Y-8956983D01*
G01X21339505Y-9014133D01*
G01X21339505Y-8956983D02*
G01X21356523Y-8939711D01*
G01X21367953Y-8934123D01*
G01X21385225Y-8934123D01*
G01X21396655Y-8939711D01*
G01X21402243Y-8956983D01*
G01X21402243Y-9014133D01*
G01X21449995Y-8934123D02*
G01X21449995Y-9014133D01*
G01X21449995Y-8956983D02*
G01X21467267Y-8939711D01*
G01X21478697Y-8934123D01*
G01X21495715Y-8934123D01*
G01X21507145Y-8939711D01*
G01X21512987Y-8956983D01*
G01X21512987Y-9014133D01*
G01X21512987Y-8956983D02*
G01X21530005Y-8939711D01*
G01X21541435Y-8934123D01*
G01X21558707Y-8934123D01*
G01X21570137Y-8939711D01*
G01X21575725Y-8956983D01*
G01X21575725Y-9014133D01*
G01X21623477Y-8871131D02*
G01X21634907Y-8882561D01*
G01X21646337Y-8899833D01*
G01X21657767Y-8922693D01*
G01X21663609Y-8951141D01*
G01X21663609Y-8974001D01*
G01X21657767Y-9002703D01*
G01X21646337Y-9025563D01*
G01X21634907Y-9042581D01*
G01X21623477Y-9054011D01*
G01X22912927Y-8893991D02*
G01X22912927Y-9014133D01*
G01X22912927Y-8893991D02*
G01X22964489Y-8893991D01*
G01X22981507Y-8899833D01*
G01X22987349Y-8905421D01*
G01X22992937Y-8916851D01*
G01X22992937Y-8934123D01*
G01X22987349Y-8945553D01*
G01X22981507Y-8951141D01*
G01X22964489Y-8956983D01*
G01X22912927Y-8956983D01*
G01X23080821Y-8893991D02*
G01X23080821Y-9014133D01*
G01X23040689Y-8893991D02*
G01X23120699Y-8893991D01*
G01X23168451Y-8893991D02*
G01X23168451Y-9014133D01*
G01X23248461Y-8893991D02*
G01X23248461Y-9014133D01*
G01X23168451Y-8951141D02*
G01X23248461Y-8951141D01*
G01X24374334Y-8893991D02*
G01X24374334Y-9014133D01*
G01X24374334Y-8893991D02*
G01X24425896Y-8893991D01*
G01X24442914Y-8899833D01*
G01X24448756Y-8905421D01*
G01X24454344Y-8916851D01*
G01X24454344Y-8928281D01*
G01X24448756Y-8939711D01*
G01X24442914Y-8945553D01*
G01X24425896Y-8951141D01*
G01X24374334Y-8951141D01*
G01X24414466Y-8951141D02*
G01X24454344Y-9014133D01*
G01X24530798Y-8934123D02*
G01X24519368Y-8939711D01*
G01X24507938Y-8951141D01*
G01X24502096Y-8968413D01*
G01X24502096Y-8979843D01*
G01X24507938Y-8996861D01*
G01X24519368Y-9008291D01*
G01X24530798Y-9014133D01*
G01X24547816Y-9014133D01*
G01X24559246Y-9008291D01*
G01X24570676Y-8996861D01*
G01X24576518Y-8979843D01*
G01X24576518Y-8968413D01*
G01X24570676Y-8951141D01*
G01X24559246Y-8939711D01*
G01X24547816Y-8934123D01*
G01X24530798Y-8934123D01*
G01X24624270Y-8934123D02*
G01X24624270Y-8991273D01*
G01X24630112Y-9008291D01*
G01X24641542Y-9014133D01*
G01X24658560Y-9014133D01*
G01X24669990Y-9008291D01*
G01X24687262Y-8991273D01*
G01X24687262Y-8934123D02*
G01X24687262Y-9014133D01*
G01X24735014Y-8934123D02*
G01X24735014Y-9014133D01*
G01X24735014Y-8956983D02*
G01X24752286Y-8939711D01*
G01X24763716Y-8934123D01*
G01X24780734Y-8934123D01*
G01X24792164Y-8939711D01*
G01X24798006Y-8956983D01*
G01X24798006Y-9014133D01*
G01X24914338Y-8893991D02*
G01X24914338Y-9014133D01*
G01X24914338Y-8951141D02*
G01X24902908Y-8939711D01*
G01X24891478Y-8934123D01*
G01X24874460Y-8934123D01*
G01X24863030Y-8939711D01*
G01X24851600Y-8951141D01*
G01X24845758Y-8968413D01*
G01X24845758Y-8979843D01*
G01X24851600Y-8996861D01*
G01X24863030Y-9008291D01*
G01X24874460Y-9014133D01*
G01X24891478Y-9014133D01*
G01X24902908Y-9008291D01*
G01X24914338Y-8996861D01*
G01X25805515Y-8893991D02*
G01X25805515Y-9014133D01*
G01X25805515Y-8893991D02*
G01X25857077Y-8893991D01*
G01X25874095Y-8899833D01*
G01X25879937Y-8905421D01*
G01X25885525Y-8916851D01*
G01X25885525Y-8934123D01*
G01X25879937Y-8945553D01*
G01X25874095Y-8951141D01*
G01X25857077Y-8956983D01*
G01X25805515Y-8956983D01*
G01X26001857Y-8934123D02*
G01X26001857Y-9014133D01*
G01X26001857Y-8951141D02*
G01X25990427Y-8939711D01*
G01X25978997Y-8934123D01*
G01X25961979Y-8934123D01*
G01X25950549Y-8939711D01*
G01X25939119Y-8951141D01*
G01X25933277Y-8968413D01*
G01X25933277Y-8979843D01*
G01X25939119Y-8996861D01*
G01X25950549Y-9008291D01*
G01X25961979Y-9014133D01*
G01X25978997Y-9014133D01*
G01X25990427Y-9008291D01*
G01X26001857Y-8996861D01*
G01X26118189Y-8893991D02*
G01X26118189Y-9014133D01*
G01X26118189Y-8951141D02*
G01X26106759Y-8939711D01*
G01X26095329Y-8934123D01*
G01X26078311Y-8934123D01*
G01X26066881Y-8939711D01*
G01X26055451Y-8951141D01*
G01X26049609Y-8968413D01*
G01X26049609Y-8979843D01*
G01X26055451Y-8996861D01*
G01X26066881Y-9008291D01*
G01X26078311Y-9014133D01*
G01X26095329Y-9014133D01*
G01X26106759Y-9008291D01*
G01X26118189Y-8996861D01*
G01X27514826Y-8871131D02*
G01X27503396Y-8882561D01*
G01X27491966Y-8899833D01*
G01X27480536Y-8922693D01*
G01X27474694Y-8951141D01*
G01X27474694Y-8974001D01*
G01X27480536Y-9002703D01*
G01X27491966Y-9025563D01*
G01X27503396Y-9042581D01*
G01X27514826Y-9054011D01*
G01X27562578Y-8893991D02*
G01X27562578Y-9014133D01*
G01X27562578Y-8893991D02*
G01X27608298Y-9014133D01*
G01X27654018Y-8893991D02*
G01X27608298Y-9014133D01*
G01X27654018Y-8893991D02*
G01X27654018Y-9014133D01*
G01X27701770Y-8893991D02*
G01X27707612Y-8899833D01*
G01X27713200Y-8893991D01*
G01X27707612Y-8888403D01*
G01X27701770Y-8893991D01*
G01X27707612Y-8934123D02*
G01X27707612Y-9014133D01*
G01X27760952Y-8934123D02*
G01X27823944Y-9014133D01*
G01X27823944Y-8934123D02*
G01X27760952Y-9014133D01*
G01X27871696Y-8968413D02*
G01X27940276Y-8968413D01*
G01X27940276Y-8956983D01*
G01X27934688Y-8945553D01*
G01X27928846Y-8939711D01*
G01X27917416Y-8934123D01*
G01X27900398Y-8934123D01*
G01X27888968Y-8939711D01*
G01X27877538Y-8951141D01*
G01X27871696Y-8968413D01*
G01X27871696Y-8979843D01*
G01X27877538Y-8996861D01*
G01X27888968Y-9008291D01*
G01X27900398Y-9014133D01*
G01X27917416Y-9014133D01*
G01X27928846Y-9008291D01*
G01X27940276Y-8996861D01*
G01X28056608Y-8893991D02*
G01X28056608Y-9014133D01*
G01X28056608Y-8951141D02*
G01X28045178Y-8939711D01*
G01X28033748Y-8934123D01*
G01X28016730Y-8934123D01*
G01X28005300Y-8939711D01*
G01X27993870Y-8951141D01*
G01X27988028Y-8968413D01*
G01X27988028Y-8979843D01*
G01X27993870Y-8996861D01*
G01X28005300Y-9008291D01*
G01X28016730Y-9014133D01*
G01X28033748Y-9014133D01*
G01X28045178Y-9008291D01*
G01X28056608Y-8996861D01*
G01X28104360Y-8871131D02*
G01X28115790Y-8882561D01*
G01X28127220Y-8899833D01*
G01X28138650Y-8922693D01*
G01X28144492Y-8951141D01*
G01X28144492Y-8974001D01*
G01X28138650Y-9002703D01*
G01X28127220Y-9025563D01*
G01X28115790Y-9042581D01*
G01X28104360Y-9054011D01*
G01X29434195Y-8893991D02*
G01X29434195Y-9014133D01*
G01X29394063Y-8893991D02*
G01X29474073Y-8893991D01*
G01X29550527Y-8934123D02*
G01X29539097Y-8939711D01*
G01X29527667Y-8951141D01*
G01X29521825Y-8968413D01*
G01X29521825Y-8979843D01*
G01X29527667Y-8996861D01*
G01X29539097Y-9008291D01*
G01X29550527Y-9014133D01*
G01X29567545Y-9014133D01*
G01X29578975Y-9008291D01*
G01X29590405Y-8996861D01*
G01X29596247Y-8979843D01*
G01X29596247Y-8968413D01*
G01X29590405Y-8951141D01*
G01X29578975Y-8939711D01*
G01X29567545Y-8934123D01*
G01X29550527Y-8934123D01*
G01X29643999Y-8934123D02*
G01X29643999Y-9054011D01*
G01X29643999Y-8951141D02*
G01X29655429Y-8939711D01*
G01X29666859Y-8934123D01*
G01X29684131Y-8934123D01*
G01X29695561Y-8939711D01*
G01X29706991Y-8951141D01*
G01X29712579Y-8968413D01*
G01X29712579Y-8979843D01*
G01X29706991Y-8996861D01*
G01X29695561Y-9008291D01*
G01X29684131Y-9014133D01*
G01X29666859Y-9014133D01*
G01X29655429Y-9008291D01*
G01X29643999Y-8996861D01*
G01X29888347Y-8893991D02*
G01X29888347Y-9014133D01*
G01X29888347Y-9014133D02*
G01X29956927Y-9014133D01*
G01X30073259Y-8934123D02*
G01X30073259Y-9014133D01*
G01X30073259Y-8951141D02*
G01X30061829Y-8939711D01*
G01X30050399Y-8934123D01*
G01X30033381Y-8934123D01*
G01X30021951Y-8939711D01*
G01X30010521Y-8951141D01*
G01X30004679Y-8968413D01*
G01X30004679Y-8979843D01*
G01X30010521Y-8996861D01*
G01X30021951Y-9008291D01*
G01X30033381Y-9014133D01*
G01X30050399Y-9014133D01*
G01X30061829Y-9008291D01*
G01X30073259Y-8996861D01*
G01X30126853Y-8934123D02*
G01X30161143Y-9014133D01*
G01X30195433Y-8934123D02*
G01X30161143Y-9014133D01*
G01X30149713Y-9036993D01*
G01X30138283Y-9048423D01*
G01X30126853Y-9054011D01*
G01X30121011Y-9054011D01*
G01X30243185Y-8968413D02*
G01X30311765Y-8968413D01*
G01X30311765Y-8956983D01*
G01X30306177Y-8945553D01*
G01X30300335Y-8939711D01*
G01X30288905Y-8934123D01*
G01X30271887Y-8934123D01*
G01X30260457Y-8939711D01*
G01X30249027Y-8951141D01*
G01X30243185Y-8968413D01*
G01X30243185Y-8979843D01*
G01X30249027Y-8996861D01*
G01X30260457Y-9008291D01*
G01X30271887Y-9014133D01*
G01X30288905Y-9014133D01*
G01X30300335Y-9008291D01*
G01X30311765Y-8996861D01*
G01X30359517Y-8934123D02*
G01X30359517Y-9014133D01*
G01X30359517Y-8968413D02*
G01X30365359Y-8951141D01*
G01X30376789Y-8939711D01*
G01X30388219Y-8934123D01*
G01X30405237Y-8934123D01*
G01X30452989Y-8962571D02*
G01X30555859Y-8962571D01*
G01X30603611Y-8893991D02*
G01X30603611Y-9014133D01*
G01X30603611Y-8893991D02*
G01X30655173Y-8893991D01*
G01X30672191Y-8899833D01*
G01X30678033Y-8905421D01*
G01X30683621Y-8916851D01*
G01X30683621Y-8928281D01*
G01X30678033Y-8939711D01*
G01X30672191Y-8945553D01*
G01X30655173Y-8951141D01*
G01X30603611Y-8951141D02*
G01X30655173Y-8951141D01*
G01X30672191Y-8956983D01*
G01X30678033Y-8962571D01*
G01X30683621Y-8974001D01*
G01X30683621Y-8991273D01*
G01X30678033Y-9002703D01*
G01X30672191Y-9008291D01*
G01X30655173Y-9014133D01*
G01X30603611Y-9014133D01*
G01X30760075Y-8934123D02*
G01X30748645Y-8939711D01*
G01X30737215Y-8951141D01*
G01X30731373Y-8968413D01*
G01X30731373Y-8979843D01*
G01X30737215Y-8996861D01*
G01X30748645Y-9008291D01*
G01X30760075Y-9014133D01*
G01X30777093Y-9014133D01*
G01X30788523Y-9008291D01*
G01X30799953Y-8996861D01*
G01X30805795Y-8979843D01*
G01X30805795Y-8968413D01*
G01X30799953Y-8951141D01*
G01X30788523Y-8939711D01*
G01X30777093Y-8934123D01*
G01X30760075Y-8934123D01*
G01X30870819Y-8893991D02*
G01X30870819Y-8991273D01*
G01X30876407Y-9008291D01*
G01X30887837Y-9014133D01*
G01X30899267Y-9014133D01*
G01X30853547Y-8934123D02*
G01X30893679Y-8934123D01*
G01X30964291Y-8893991D02*
G01X30964291Y-8991273D01*
G01X30969879Y-9008291D01*
G01X30981309Y-9014133D01*
G01X30992739Y-9014133D01*
G01X30947019Y-8934123D02*
G01X30987151Y-8934123D01*
G01X31069193Y-8934123D02*
G01X31057763Y-8939711D01*
G01X31046333Y-8951141D01*
G01X31040491Y-8968413D01*
G01X31040491Y-8979843D01*
G01X31046333Y-8996861D01*
G01X31057763Y-9008291D01*
G01X31069193Y-9014133D01*
G01X31086211Y-9014133D01*
G01X31097641Y-9008291D01*
G01X31109071Y-8996861D01*
G01X31114913Y-8979843D01*
G01X31114913Y-8968413D01*
G01X31109071Y-8951141D01*
G01X31097641Y-8939711D01*
G01X31086211Y-8934123D01*
G01X31069193Y-8934123D01*
G01X31162665Y-8934123D02*
G01X31162665Y-9014133D01*
G01X31162665Y-8956983D02*
G01X31179937Y-8939711D01*
G01X31191367Y-8934123D01*
G01X31208385Y-8934123D01*
G01X31219815Y-8939711D01*
G01X31225657Y-8956983D01*
G01X31225657Y-9014133D01*
G01X31225657Y-8956983D02*
G01X31242675Y-8939711D01*
G01X31254105Y-8934123D01*
G01X31271377Y-8934123D01*
G01X31282807Y-8939711D01*
G01X31288395Y-8956983D01*
G01X31288395Y-9014133D01*
G01X31464163Y-8893991D02*
G01X31464163Y-9014133D01*
G01X31464163Y-9014133D02*
G01X31532743Y-9014133D01*
G01X31649075Y-8934123D02*
G01X31649075Y-9014133D01*
G01X31649075Y-8951141D02*
G01X31637645Y-8939711D01*
G01X31626215Y-8934123D01*
G01X31609197Y-8934123D01*
G01X31597767Y-8939711D01*
G01X31586337Y-8951141D01*
G01X31580495Y-8968413D01*
G01X31580495Y-8979843D01*
G01X31586337Y-8996861D01*
G01X31597767Y-9008291D01*
G01X31609197Y-9014133D01*
G01X31626215Y-9014133D01*
G01X31637645Y-9008291D01*
G01X31649075Y-8996861D01*
G01X31702669Y-8934123D02*
G01X31736959Y-9014133D01*
G01X31771249Y-8934123D02*
G01X31736959Y-9014133D01*
G01X31725529Y-9036993D01*
G01X31714099Y-9048423D01*
G01X31702669Y-9054011D01*
G01X31696827Y-9054011D01*
G01X31819001Y-8968413D02*
G01X31887581Y-8968413D01*
G01X31887581Y-8956983D01*
G01X31881993Y-8945553D01*
G01X31876151Y-8939711D01*
G01X31864721Y-8934123D01*
G01X31847703Y-8934123D01*
G01X31836273Y-8939711D01*
G01X31824843Y-8951141D01*
G01X31819001Y-8968413D01*
G01X31819001Y-8979843D01*
G01X31824843Y-8996861D01*
G01X31836273Y-9008291D01*
G01X31847703Y-9014133D01*
G01X31864721Y-9014133D01*
G01X31876151Y-9008291D01*
G01X31887581Y-8996861D01*
G01X31935333Y-8934123D02*
G01X31935333Y-9014133D01*
G01X31935333Y-8968413D02*
G01X31941175Y-8951141D01*
G01X31952605Y-8939711D01*
G01X31964035Y-8934123D01*
G01X31981053Y-8934123D01*
G01X17463574Y-9497423D02*
G01X17475004Y-9491835D01*
G01X17492276Y-9474563D01*
G01X17492276Y-9594705D01*
G01X17568730Y-9474563D02*
G01X17551458Y-9480405D01*
G01X17545870Y-9491835D01*
G01X17545870Y-9503265D01*
G01X17551458Y-9514695D01*
G01X17562888Y-9520283D01*
G01X17585748Y-9526125D01*
G01X17603020Y-9531713D01*
G01X17614450Y-9543143D01*
G01X17620038Y-9554573D01*
G01X17620038Y-9571845D01*
G01X17614450Y-9583275D01*
G01X17608608Y-9588863D01*
G01X17591590Y-9594705D01*
G01X17568730Y-9594705D01*
G01X17551458Y-9588863D01*
G01X17545870Y-9583275D01*
G01X17540028Y-9571845D01*
G01X17540028Y-9554573D01*
G01X17545870Y-9543143D01*
G01X17557300Y-9531713D01*
G01X17574318Y-9526125D01*
G01X17597178Y-9520283D01*
G01X17608608Y-9514695D01*
G01X17614450Y-9503265D01*
G01X17614450Y-9491835D01*
G01X17608608Y-9480405D01*
G01X17591590Y-9474563D01*
G01X17568730Y-9474563D01*
G01X17742212Y-9514695D02*
G01X17736370Y-9531713D01*
G01X17724940Y-9543143D01*
G01X17707922Y-9548985D01*
G01X17702080Y-9548985D01*
G01X17685062Y-9543143D01*
G01X17673632Y-9531713D01*
G01X17667790Y-9514695D01*
G01X17667790Y-9508853D01*
G01X17673632Y-9491835D01*
G01X17685062Y-9480405D01*
G01X17702080Y-9474563D01*
G01X17707922Y-9474563D01*
G01X17724940Y-9480405D01*
G01X17736370Y-9491835D01*
G01X17742212Y-9514695D01*
G01X17742212Y-9543143D01*
G01X17736370Y-9571845D01*
G01X17724940Y-9588863D01*
G01X17707922Y-9594705D01*
G01X17696492Y-9594705D01*
G01X17679220Y-9588863D01*
G01X17673632Y-9577433D01*
G01X18877737Y-9497423D02*
G01X18889167Y-9491835D01*
G01X18906439Y-9474563D01*
G01X18906439Y-9594705D01*
G01X18960033Y-9503265D02*
G01X18960033Y-9497423D01*
G01X18965621Y-9485993D01*
G01X18971463Y-9480405D01*
G01X18982893Y-9474563D01*
G01X19005753Y-9474563D01*
G01X19017183Y-9480405D01*
G01X19022771Y-9485993D01*
G01X19028613Y-9497423D01*
G01X19028613Y-9508853D01*
G01X19022771Y-9520283D01*
G01X19011341Y-9537555D01*
G01X18954191Y-9594705D01*
G01X19034201Y-9594705D01*
G01X19087795Y-9566003D02*
G01X19081953Y-9571845D01*
G01X19087795Y-9577433D01*
G01X19093383Y-9571845D01*
G01X19087795Y-9566003D01*
G01X19175425Y-9474563D02*
G01X19158407Y-9480405D01*
G01X19146977Y-9497423D01*
G01X19141135Y-9526125D01*
G01X19141135Y-9543143D01*
G01X19146977Y-9571845D01*
G01X19158407Y-9588863D01*
G01X19175425Y-9594705D01*
G01X19186855Y-9594705D01*
G01X19204127Y-9588863D01*
G01X19215557Y-9571845D01*
G01X19221145Y-9543143D01*
G01X19221145Y-9526125D01*
G01X19215557Y-9497423D01*
G01X19204127Y-9480405D01*
G01X19186855Y-9474563D01*
G01X19175425Y-9474563D01*
G01X19268897Y-9514695D02*
G01X19268897Y-9594705D01*
G01X19268897Y-9537555D02*
G01X19286169Y-9520283D01*
G01X19297599Y-9514695D01*
G01X19314617Y-9514695D01*
G01X19326047Y-9520283D01*
G01X19331889Y-9537555D01*
G01X19331889Y-9594705D01*
G01X19331889Y-9537555D02*
G01X19348907Y-9520283D01*
G01X19360337Y-9514695D01*
G01X19377609Y-9514695D01*
G01X19389039Y-9520283D01*
G01X19394627Y-9537555D01*
G01X19394627Y-9594705D01*
G01X19442379Y-9474563D02*
G01X19448221Y-9480405D01*
G01X19453809Y-9474563D01*
G01X19448221Y-9468975D01*
G01X19442379Y-9474563D01*
G01X19448221Y-9514695D02*
G01X19448221Y-9594705D01*
G01X19501561Y-9474563D02*
G01X19501561Y-9594705D01*
G01X19589445Y-9451703D02*
G01X19578015Y-9463133D01*
G01X19566585Y-9480405D01*
G01X19555155Y-9503265D01*
G01X19549313Y-9531713D01*
G01X19549313Y-9554573D01*
G01X19555155Y-9583275D01*
G01X19566585Y-9606135D01*
G01X19578015Y-9623153D01*
G01X19589445Y-9634583D01*
G01X19671487Y-9474563D02*
G01X19654469Y-9480405D01*
G01X19643039Y-9497423D01*
G01X19637197Y-9526125D01*
G01X19637197Y-9543143D01*
G01X19643039Y-9571845D01*
G01X19654469Y-9588863D01*
G01X19671487Y-9594705D01*
G01X19682917Y-9594705D01*
G01X19700189Y-9588863D01*
G01X19711619Y-9571845D01*
G01X19717207Y-9543143D01*
G01X19717207Y-9526125D01*
G01X19711619Y-9497423D01*
G01X19700189Y-9480405D01*
G01X19682917Y-9474563D01*
G01X19671487Y-9474563D01*
G01X19770801Y-9566003D02*
G01X19764959Y-9571845D01*
G01X19770801Y-9577433D01*
G01X19776389Y-9571845D01*
G01X19770801Y-9566003D01*
G01X19835571Y-9474563D02*
G01X19898563Y-9474563D01*
G01X19864273Y-9520283D01*
G01X19881291Y-9520283D01*
G01X19892721Y-9526125D01*
G01X19898563Y-9531713D01*
G01X19904151Y-9548985D01*
G01X19904151Y-9560415D01*
G01X19898563Y-9577433D01*
G01X19887133Y-9588863D01*
G01X19869861Y-9594705D01*
G01X19852843Y-9594705D01*
G01X19835571Y-9588863D01*
G01X19829983Y-9583275D01*
G01X19824141Y-9571845D01*
G01X19986193Y-9474563D02*
G01X19969175Y-9480405D01*
G01X19957745Y-9497423D01*
G01X19951903Y-9526125D01*
G01X19951903Y-9543143D01*
G01X19957745Y-9571845D01*
G01X19969175Y-9588863D01*
G01X19986193Y-9594705D01*
G01X19997623Y-9594705D01*
G01X20014895Y-9588863D01*
G01X20026325Y-9571845D01*
G01X20031913Y-9543143D01*
G01X20031913Y-9526125D01*
G01X20026325Y-9497423D01*
G01X20014895Y-9480405D01*
G01X19997623Y-9474563D01*
G01X19986193Y-9474563D01*
G01X20148245Y-9474563D02*
G01X20091095Y-9474563D01*
G01X20085507Y-9526125D01*
G01X20091095Y-9520283D01*
G01X20108367Y-9514695D01*
G01X20125385Y-9514695D01*
G01X20142657Y-9520283D01*
G01X20154087Y-9531713D01*
G01X20159675Y-9548985D01*
G01X20159675Y-9560415D01*
G01X20154087Y-9577433D01*
G01X20142657Y-9588863D01*
G01X20125385Y-9594705D01*
G01X20108367Y-9594705D01*
G01X20091095Y-9588863D01*
G01X20085507Y-9583275D01*
G01X20079665Y-9571845D01*
G01X20207427Y-9514695D02*
G01X20207427Y-9594705D01*
G01X20207427Y-9537555D02*
G01X20224699Y-9520283D01*
G01X20236129Y-9514695D01*
G01X20253147Y-9514695D01*
G01X20264577Y-9520283D01*
G01X20270419Y-9537555D01*
G01X20270419Y-9594705D01*
G01X20270419Y-9537555D02*
G01X20287437Y-9520283D01*
G01X20298867Y-9514695D01*
G01X20316139Y-9514695D01*
G01X20327569Y-9520283D01*
G01X20333157Y-9537555D01*
G01X20333157Y-9594705D01*
G01X20380909Y-9514695D02*
G01X20380909Y-9594705D01*
G01X20380909Y-9537555D02*
G01X20398181Y-9520283D01*
G01X20409611Y-9514695D01*
G01X20426629Y-9514695D01*
G01X20438059Y-9520283D01*
G01X20443901Y-9537555D01*
G01X20443901Y-9594705D01*
G01X20443901Y-9537555D02*
G01X20460919Y-9520283D01*
G01X20472349Y-9514695D01*
G01X20489621Y-9514695D01*
G01X20501051Y-9520283D01*
G01X20506639Y-9537555D01*
G01X20506639Y-9594705D01*
G01X20554391Y-9451703D02*
G01X20565821Y-9463133D01*
G01X20577251Y-9480405D01*
G01X20588681Y-9503265D01*
G01X20594523Y-9531713D01*
G01X20594523Y-9554573D01*
G01X20588681Y-9583275D01*
G01X20577251Y-9606135D01*
G01X20565821Y-9623153D01*
G01X20554391Y-9634583D01*
G01X22912927Y-9474563D02*
G01X22912927Y-9594705D01*
G01X22912927Y-9474563D02*
G01X22964489Y-9474563D01*
G01X22981507Y-9480405D01*
G01X22987349Y-9485993D01*
G01X22992937Y-9497423D01*
G01X22992937Y-9514695D01*
G01X22987349Y-9526125D01*
G01X22981507Y-9531713D01*
G01X22964489Y-9537555D01*
G01X22912927Y-9537555D01*
G01X23080821Y-9474563D02*
G01X23080821Y-9594705D01*
G01X23040689Y-9474563D02*
G01X23120699Y-9474563D01*
G01X23168451Y-9474563D02*
G01X23168451Y-9594705D01*
G01X23248461Y-9474563D02*
G01X23248461Y-9594705D01*
G01X23168451Y-9531713D02*
G01X23248461Y-9531713D01*
G01X24374334Y-9474563D02*
G01X24374334Y-9594705D01*
G01X24374334Y-9474563D02*
G01X24425896Y-9474563D01*
G01X24442914Y-9480405D01*
G01X24448756Y-9485993D01*
G01X24454344Y-9497423D01*
G01X24454344Y-9508853D01*
G01X24448756Y-9520283D01*
G01X24442914Y-9526125D01*
G01X24425896Y-9531713D01*
G01X24374334Y-9531713D01*
G01X24414466Y-9531713D02*
G01X24454344Y-9594705D01*
G01X24530798Y-9514695D02*
G01X24519368Y-9520283D01*
G01X24507938Y-9531713D01*
G01X24502096Y-9548985D01*
G01X24502096Y-9560415D01*
G01X24507938Y-9577433D01*
G01X24519368Y-9588863D01*
G01X24530798Y-9594705D01*
G01X24547816Y-9594705D01*
G01X24559246Y-9588863D01*
G01X24570676Y-9577433D01*
G01X24576518Y-9560415D01*
G01X24576518Y-9548985D01*
G01X24570676Y-9531713D01*
G01X24559246Y-9520283D01*
G01X24547816Y-9514695D01*
G01X24530798Y-9514695D01*
G01X24624270Y-9514695D02*
G01X24624270Y-9571845D01*
G01X24630112Y-9588863D01*
G01X24641542Y-9594705D01*
G01X24658560Y-9594705D01*
G01X24669990Y-9588863D01*
G01X24687262Y-9571845D01*
G01X24687262Y-9514695D02*
G01X24687262Y-9594705D01*
G01X24735014Y-9514695D02*
G01X24735014Y-9594705D01*
G01X24735014Y-9537555D02*
G01X24752286Y-9520283D01*
G01X24763716Y-9514695D01*
G01X24780734Y-9514695D01*
G01X24792164Y-9520283D01*
G01X24798006Y-9537555D01*
G01X24798006Y-9594705D01*
G01X24914338Y-9474563D02*
G01X24914338Y-9594705D01*
G01X24914338Y-9531713D02*
G01X24902908Y-9520283D01*
G01X24891478Y-9514695D01*
G01X24874460Y-9514695D01*
G01X24863030Y-9520283D01*
G01X24851600Y-9531713D01*
G01X24845758Y-9548985D01*
G01X24845758Y-9560415D01*
G01X24851600Y-9577433D01*
G01X24863030Y-9588863D01*
G01X24874460Y-9594705D01*
G01X24891478Y-9594705D01*
G01X24902908Y-9588863D01*
G01X24914338Y-9577433D01*
G01X25805515Y-9474563D02*
G01X25851235Y-9594705D01*
G01X25896955Y-9474563D02*
G01X25851235Y-9594705D01*
G01X25944707Y-9474563D02*
G01X25950549Y-9480405D01*
G01X25956137Y-9474563D01*
G01X25950549Y-9468975D01*
G01X25944707Y-9474563D01*
G01X25950549Y-9514695D02*
G01X25950549Y-9594705D01*
G01X26072469Y-9514695D02*
G01X26072469Y-9594705D01*
G01X26072469Y-9531713D02*
G01X26061039Y-9520283D01*
G01X26049609Y-9514695D01*
G01X26032591Y-9514695D01*
G01X26021161Y-9520283D01*
G01X26009731Y-9531713D01*
G01X26003889Y-9548985D01*
G01X26003889Y-9560415D01*
G01X26009731Y-9577433D01*
G01X26021161Y-9588863D01*
G01X26032591Y-9594705D01*
G01X26049609Y-9594705D01*
G01X26061039Y-9588863D01*
G01X26072469Y-9577433D01*
G01X29434195Y-9474563D02*
G01X29434195Y-9594705D01*
G01X29394063Y-9474563D02*
G01X29474073Y-9474563D01*
G01X29550527Y-9514695D02*
G01X29539097Y-9520283D01*
G01X29527667Y-9531713D01*
G01X29521825Y-9548985D01*
G01X29521825Y-9560415D01*
G01X29527667Y-9577433D01*
G01X29539097Y-9588863D01*
G01X29550527Y-9594705D01*
G01X29567545Y-9594705D01*
G01X29578975Y-9588863D01*
G01X29590405Y-9577433D01*
G01X29596247Y-9560415D01*
G01X29596247Y-9548985D01*
G01X29590405Y-9531713D01*
G01X29578975Y-9520283D01*
G01X29567545Y-9514695D01*
G01X29550527Y-9514695D01*
G01X29643999Y-9514695D02*
G01X29643999Y-9634583D01*
G01X29643999Y-9531713D02*
G01X29655429Y-9520283D01*
G01X29666859Y-9514695D01*
G01X29684131Y-9514695D01*
G01X29695561Y-9520283D01*
G01X29706991Y-9531713D01*
G01X29712579Y-9548985D01*
G01X29712579Y-9560415D01*
G01X29706991Y-9577433D01*
G01X29695561Y-9588863D01*
G01X29684131Y-9594705D01*
G01X29666859Y-9594705D01*
G01X29655429Y-9588863D01*
G01X29643999Y-9577433D01*
G01X29888347Y-9474563D02*
G01X29888347Y-9594705D01*
G01X29888347Y-9594705D02*
G01X29956927Y-9594705D01*
G01X30073259Y-9514695D02*
G01X30073259Y-9594705D01*
G01X30073259Y-9531713D02*
G01X30061829Y-9520283D01*
G01X30050399Y-9514695D01*
G01X30033381Y-9514695D01*
G01X30021951Y-9520283D01*
G01X30010521Y-9531713D01*
G01X30004679Y-9548985D01*
G01X30004679Y-9560415D01*
G01X30010521Y-9577433D01*
G01X30021951Y-9588863D01*
G01X30033381Y-9594705D01*
G01X30050399Y-9594705D01*
G01X30061829Y-9588863D01*
G01X30073259Y-9577433D01*
G01X30126853Y-9514695D02*
G01X30161143Y-9594705D01*
G01X30195433Y-9514695D02*
G01X30161143Y-9594705D01*
G01X30149713Y-9617565D01*
G01X30138283Y-9628995D01*
G01X30126853Y-9634583D01*
G01X30121011Y-9634583D01*
G01X30243185Y-9548985D02*
G01X30311765Y-9548985D01*
G01X30311765Y-9537555D01*
G01X30306177Y-9526125D01*
G01X30300335Y-9520283D01*
G01X30288905Y-9514695D01*
G01X30271887Y-9514695D01*
G01X30260457Y-9520283D01*
G01X30249027Y-9531713D01*
G01X30243185Y-9548985D01*
G01X30243185Y-9560415D01*
G01X30249027Y-9577433D01*
G01X30260457Y-9588863D01*
G01X30271887Y-9594705D01*
G01X30288905Y-9594705D01*
G01X30300335Y-9588863D01*
G01X30311765Y-9577433D01*
G01X30359517Y-9514695D02*
G01X30359517Y-9594705D01*
G01X30359517Y-9548985D02*
G01X30365359Y-9531713D01*
G01X30376789Y-9520283D01*
G01X30388219Y-9514695D01*
G01X30405237Y-9514695D01*
G01X30452989Y-9543143D02*
G01X30555859Y-9543143D01*
G01X30603611Y-9474563D02*
G01X30603611Y-9594705D01*
G01X30603611Y-9474563D02*
G01X30655173Y-9474563D01*
G01X30672191Y-9480405D01*
G01X30678033Y-9485993D01*
G01X30683621Y-9497423D01*
G01X30683621Y-9508853D01*
G01X30678033Y-9520283D01*
G01X30672191Y-9526125D01*
G01X30655173Y-9531713D01*
G01X30603611Y-9531713D02*
G01X30655173Y-9531713D01*
G01X30672191Y-9537555D01*
G01X30678033Y-9543143D01*
G01X30683621Y-9554573D01*
G01X30683621Y-9571845D01*
G01X30678033Y-9583275D01*
G01X30672191Y-9588863D01*
G01X30655173Y-9594705D01*
G01X30603611Y-9594705D01*
G01X30760075Y-9514695D02*
G01X30748645Y-9520283D01*
G01X30737215Y-9531713D01*
G01X30731373Y-9548985D01*
G01X30731373Y-9560415D01*
G01X30737215Y-9577433D01*
G01X30748645Y-9588863D01*
G01X30760075Y-9594705D01*
G01X30777093Y-9594705D01*
G01X30788523Y-9588863D01*
G01X30799953Y-9577433D01*
G01X30805795Y-9560415D01*
G01X30805795Y-9548985D01*
G01X30799953Y-9531713D01*
G01X30788523Y-9520283D01*
G01X30777093Y-9514695D01*
G01X30760075Y-9514695D01*
G01X30870819Y-9474563D02*
G01X30870819Y-9571845D01*
G01X30876407Y-9588863D01*
G01X30887837Y-9594705D01*
G01X30899267Y-9594705D01*
G01X30853547Y-9514695D02*
G01X30893679Y-9514695D01*
G01X30964291Y-9474563D02*
G01X30964291Y-9571845D01*
G01X30969879Y-9588863D01*
G01X30981309Y-9594705D01*
G01X30992739Y-9594705D01*
G01X30947019Y-9514695D02*
G01X30987151Y-9514695D01*
G01X31069193Y-9514695D02*
G01X31057763Y-9520283D01*
G01X31046333Y-9531713D01*
G01X31040491Y-9548985D01*
G01X31040491Y-9560415D01*
G01X31046333Y-9577433D01*
G01X31057763Y-9588863D01*
G01X31069193Y-9594705D01*
G01X31086211Y-9594705D01*
G01X31097641Y-9588863D01*
G01X31109071Y-9577433D01*
G01X31114913Y-9560415D01*
G01X31114913Y-9548985D01*
G01X31109071Y-9531713D01*
G01X31097641Y-9520283D01*
G01X31086211Y-9514695D01*
G01X31069193Y-9514695D01*
G01X31162665Y-9514695D02*
G01X31162665Y-9594705D01*
G01X31162665Y-9537555D02*
G01X31179937Y-9520283D01*
G01X31191367Y-9514695D01*
G01X31208385Y-9514695D01*
G01X31219815Y-9520283D01*
G01X31225657Y-9537555D01*
G01X31225657Y-9594705D01*
G01X31225657Y-9537555D02*
G01X31242675Y-9520283D01*
G01X31254105Y-9514695D01*
G01X31271377Y-9514695D01*
G01X31282807Y-9520283D01*
G01X31288395Y-9537555D01*
G01X31288395Y-9594705D01*
G01X31464163Y-9474563D02*
G01X31464163Y-9594705D01*
G01X31464163Y-9594705D02*
G01X31532743Y-9594705D01*
G01X31649075Y-9514695D02*
G01X31649075Y-9594705D01*
G01X31649075Y-9531713D02*
G01X31637645Y-9520283D01*
G01X31626215Y-9514695D01*
G01X31609197Y-9514695D01*
G01X31597767Y-9520283D01*
G01X31586337Y-9531713D01*
G01X31580495Y-9548985D01*
G01X31580495Y-9560415D01*
G01X31586337Y-9577433D01*
G01X31597767Y-9588863D01*
G01X31609197Y-9594705D01*
G01X31626215Y-9594705D01*
G01X31637645Y-9588863D01*
G01X31649075Y-9577433D01*
G01X31702669Y-9514695D02*
G01X31736959Y-9594705D01*
G01X31771249Y-9514695D02*
G01X31736959Y-9594705D01*
G01X31725529Y-9617565D01*
G01X31714099Y-9628995D01*
G01X31702669Y-9634583D01*
G01X31696827Y-9634583D01*
G01X31819001Y-9548985D02*
G01X31887581Y-9548985D01*
G01X31887581Y-9537555D01*
G01X31881993Y-9526125D01*
G01X31876151Y-9520283D01*
G01X31864721Y-9514695D01*
G01X31847703Y-9514695D01*
G01X31836273Y-9520283D01*
G01X31824843Y-9531713D01*
G01X31819001Y-9548985D01*
G01X31819001Y-9560415D01*
G01X31824843Y-9577433D01*
G01X31836273Y-9588863D01*
G01X31847703Y-9594705D01*
G01X31864721Y-9594705D01*
G01X31876151Y-9588863D01*
G01X31887581Y-9577433D01*
G01X31935333Y-9514695D02*
G01X31935333Y-9594705D01*
G01X31935333Y-9548985D02*
G01X31941175Y-9531713D01*
G01X31952605Y-9520283D01*
G01X31964035Y-9514695D01*
G01X31981053Y-9514695D01*

G04 Image Start*
G36*
G01X16298963Y-9074604D02*
G01X16193349Y-9063123D01*
G01X16150474Y-9160329D01*
G01X16107599Y-9063123D01*
G01X16001986Y-9074604D01*
G01X16064749Y-8988879D01*
G01X16025027Y-8934624D01*
G01X16056520Y-8934624D01*
G01X16096220Y-8988879D01*
G01X16056520Y-9043133D01*
G01X16123347Y-9035869D01*
G01X16123347Y-9035869D01*
G01X16150474Y-9097362D01*
G01X16177601Y-9035869D01*
G01X16244429Y-9043133D01*
G01X16204729Y-8988879D01*
G01X16244403Y-8934650D01*
G01X16177576Y-8941914D01*
G01X16150474Y-8880395D01*
G01X16123347Y-8941889D01*
G01X16056520Y-8934624D01*
G01X16025027Y-8934624D01*
G01X16001986Y-8903154D01*
G01X16107624Y-8914634D01*
G01X16150474Y-8817429D01*
G01X16193349Y-8914634D01*
G01X16298963Y-8903154D01*
G01X16236199Y-8988879D01*
G01X16298963Y-9074604D01*
G37*
G36*
G01X16169969Y-7960299D02*
G01X16162229Y-7960887D01*
G01X16154386Y-7961086D01*
G01X16146543Y-7960887D01*
G01X16138803Y-7960299D01*
G01X16131175Y-7959330D01*
G01X16123670Y-7957990D01*
G01X16109064Y-7954235D01*
G01X16095062Y-7949110D01*
G01X16081740Y-7942693D01*
G01X16069174Y-7935060D01*
G01X16057442Y-7926287D01*
G01X16046620Y-7916452D01*
G01X16036784Y-7905629D01*
G01X16028011Y-7893897D01*
G01X16020378Y-7881332D01*
G01X16013961Y-7868010D01*
G01X16008837Y-7854008D01*
G01X16005082Y-7839402D01*
G01X16003742Y-7831896D01*
G01X16002772Y-7824269D01*
G01X16002184Y-7816529D01*
G01X16001986Y-7808686D01*
G01X16027386Y-7808686D01*
G01X16028043Y-7821652D01*
G01X16029971Y-7834248D01*
G01X16033105Y-7846410D01*
G01X16037382Y-7858072D01*
G01X16042737Y-7869172D01*
G01X16049105Y-7879643D01*
G01X16056423Y-7889423D01*
G01X16064625Y-7898446D01*
G01X16073649Y-7906649D01*
G01X16083428Y-7913966D01*
G01X16093900Y-7920335D01*
G01X16104999Y-7925690D01*
G01X16116662Y-7929966D01*
G01X16128823Y-7933101D01*
G01X16128823Y-7933101D01*
G01X16141419Y-7935029D01*
G01X16154386Y-7935686D01*
G01X16167352Y-7935029D01*
G01X16179948Y-7933101D01*
G01X16192110Y-7929966D01*
G01X16203772Y-7925690D01*
G01X16214872Y-7920335D01*
G01X16225343Y-7913966D01*
G01X16235123Y-7906649D01*
G01X16244146Y-7898446D01*
G01X16252349Y-7889423D01*
G01X16259667Y-7879643D01*
G01X16266035Y-7869172D01*
G01X16271390Y-7858072D01*
G01X16275666Y-7846410D01*
G01X16278801Y-7834248D01*
G01X16280729Y-7821652D01*
G01X16281386Y-7808686D01*
G01X16280729Y-7795719D01*
G01X16278801Y-7783123D01*
G01X16275666Y-7770962D01*
G01X16271390Y-7759299D01*
G01X16266035Y-7748200D01*
G01X16259667Y-7737728D01*
G01X16252349Y-7727949D01*
G01X16244146Y-7718925D01*
G01X16235123Y-7710723D01*
G01X16225343Y-7703405D01*
G01X16214872Y-7697037D01*
G01X16203772Y-7691682D01*
G01X16192110Y-7687405D01*
G01X16179948Y-7684271D01*
G01X16167352Y-7682343D01*
G01X16154386Y-7681686D01*
G01X16141419Y-7682343D01*
G01X16128823Y-7684271D01*
G01X16116662Y-7687405D01*
G01X16104999Y-7691682D01*
G01X16093900Y-7697037D01*
G01X16083428Y-7703405D01*
G01X16073649Y-7710723D01*
G01X16064625Y-7718925D01*
G01X16056423Y-7727949D01*
G01X16049105Y-7737728D01*
G01X16042737Y-7748200D01*
G01X16037382Y-7759299D01*
G01X16033105Y-7770962D01*
G01X16029971Y-7783123D01*
G01X16028043Y-7795719D01*
G01X16027386Y-7808686D01*
G01X16001986Y-7808686D01*
G01X16002184Y-7800843D01*
G01X16002772Y-7793102D01*
G01X16003742Y-7785475D01*
G01X16005082Y-7777970D01*
G01X16008837Y-7763364D01*
G01X16013961Y-7749362D01*
G01X16020378Y-7736040D01*
G01X16028011Y-7723474D01*
G01X16036784Y-7711742D01*
G01X16046620Y-7700920D01*
G01X16057442Y-7691084D01*
G01X16069174Y-7682311D01*
G01X16081740Y-7674678D01*
G01X16095062Y-7668261D01*
G01X16109064Y-7663137D01*
G01X16123670Y-7659382D01*
G01X16131175Y-7658042D01*
G01X16138803Y-7657072D01*
G01X16146543Y-7656484D01*
G01X16154386Y-7656286D01*
G01X16162229Y-7656484D01*
G01X16169969Y-7657072D01*
G01X16177596Y-7658042D01*
G01X16185102Y-7659382D01*
G01X16199708Y-7663137D01*
G01X16213710Y-7668261D01*
G01X16227032Y-7674678D01*
G01X16239597Y-7682311D01*
G01X16251329Y-7691084D01*
G01X16262152Y-7700920D01*
G01X16271987Y-7711742D01*
G01X16280760Y-7723474D01*
G01X16288393Y-7736040D01*
G01X16294810Y-7749362D01*
G01X16299935Y-7763364D01*
G01X16303690Y-7777970D01*
G01X16305030Y-7785475D01*
G01X16305999Y-7793102D01*
G01X16306587Y-7800843D01*
G01X16306786Y-7808686D01*
G01X16306587Y-7816529D01*
G01X16305999Y-7824269D01*
G01X16305030Y-7831896D01*
G01X16303690Y-7839402D01*
G01X16299935Y-7854008D01*
G01X16294810Y-7868010D01*
G01X16288393Y-7881332D01*
G01X16280760Y-7893897D01*
G01X16271987Y-7905629D01*
G01X16262152Y-7916452D01*
G01X16251329Y-7926287D01*
G01X16239597Y-7935060D01*
G01X16227032Y-7942693D01*
G01X16213710Y-7949110D01*
G01X16199708Y-7954235D01*
G01X16185102Y-7957990D01*
G01X16177596Y-7959330D01*
G01X16169969Y-7960299D01*
G37*
G36*
G01X16306786Y-9398000D02*
G01X16236758Y-9550400D01*
G01X16306786Y-9702800D01*
G01X16154386Y-9632772D01*
G01X16001986Y-9702800D01*
G01X16025749Y-9651086D01*
G01X16053700Y-9651086D01*
G01X16143769Y-9609684D01*
G01X16154386Y-9604807D01*
G01X16165003Y-9609684D01*
G01X16255071Y-9651086D01*
G01X16213669Y-9561017D01*
G01X16208793Y-9550400D01*
G01X16213669Y-9539783D01*
G01X16255071Y-9449714D01*
G01X16165003Y-9491116D01*
G01X16154386Y-9495993D01*
G01X16143769Y-9491116D01*
G01X16053700Y-9449714D01*
G01X16095102Y-9539783D01*
G01X16099979Y-9550400D01*
G01X16099979Y-9550400D01*
G01X16095102Y-9561017D01*
G01X16053700Y-9651086D01*
G01X16025749Y-9651086D01*
G01X16072014Y-9550400D01*
G01X16001986Y-9398000D01*
G01X16154386Y-9468028D01*
G01X16306786Y-9398000D01*
G37*
G36*
G01X16001986Y-8236857D02*
G01X16306786Y-8236857D01*
G01X16154386Y-8500814D01*
G01X16016651Y-8262257D01*
G01X16045979Y-8262257D01*
G01X16154386Y-8450014D01*
G01X16262793Y-8262257D01*
G01X16262793Y-8262257D01*
G01X16045979Y-8262257D01*
G01X16016651Y-8262257D01*
G01X16001986Y-8236857D01*
G37*
G36*
G01X16001986Y-7075714D02*
G01X16281386Y-7075714D01*
G01X16281386Y-7355114D01*
G01X16001986Y-7355114D01*
G01X16001986Y-7101114D01*
G01X16027386Y-7101114D01*
G01X16027386Y-7329714D01*
G01X16255986Y-7329714D01*
G01X16255986Y-7101114D01*
G01X16255986Y-7101114D01*
G01X16027386Y-7101114D01*
G01X16001986Y-7101114D01*
G01X16001986Y-7075714D01*
G37*

G04 PolygonModel Start*
G54D16*
G01X15711700Y-9833429D02*
G01X32571785Y-9833429D01*
G01X15711700Y-9252857D02*
G01X32571785Y-9252857D01*
G01X15711700Y-8672286D02*
G01X32571785Y-8672286D01*
G01X15711700Y-8091714D02*
G01X32571785Y-8091714D01*
G01X15711700Y-7511143D02*
G01X32571785Y-7511143D01*
G01X15711700Y-6930571D02*
G01X32571785Y-6930571D01*
G01X15711700Y-6350000D02*
G01X32571785Y-6350000D01*
G01X15711700Y-6350000D02*
G01X15711700Y-9808029D01*
G01X17163129Y-6350000D02*
G01X17163129Y-9808029D01*
G01X18577292Y-6350000D02*
G01X18577292Y-9808029D01*
G01X22612481Y-6350000D02*
G01X22612481Y-9808029D01*
G01X24073888Y-6350000D02*
G01X24073888Y-9808029D01*
G01X25505069Y-6350000D02*
G01X25505069Y-9808029D01*
G01X27174248Y-6350000D02*
G01X27174248Y-9808029D01*
G01X29093617Y-6350000D02*
G01X29093617Y-9808029D01*
G01X32571785Y-6350000D02*
G01X32571785Y-9808029D01*

M02*

