G04 Layer: InnerLayer1*
G04 EasyEDA Pro v3.2.149.88089769, 2026-08-16 16:57:31*
G04 Gerber Generator version 0.3*
G04 Scale: 100 percent, Rotated: No, Reflected: No*
G04 Dimensions in millimeters*
G04 Leading zeros omitted, absolute positions, 4 integers and 5 decimals*
G04 Generated by one-click*
G04 Object Configs: Pad,Via,Track,Text,Image,Dimension,BoardOutline,BoardCutout,CopperFilled,SolidRegion,FPCStiffener,Line,PlaneZone,ComponentProperty,ComponentSilkscreen,TearDrop*
G04 Layer Configs: 1,15,16,2,3,4,5,6,7,8,9,10,11,13,14,56*
G04 Copper Areas: 0*
%FSLAX45Y45*%
%MOMM*%
%ADD10R,2.2X2.2*%
%ADD11C,2.2*%
%ADD12R,1.6X1.6*%
%ADD13C,1.6*%
%ADD14C,9.0*%
%ADD15C,4.99999*%
%ADD16R,1.7050X1.7*%
%ADD17R,1.7X1.7*%
%ADD18C,1.7*%
%ADD19C,0.61*%
%ADD20C,0.6096*%
G75*


G04 PlaneZone Start*
G36*
G01X13686046Y-6375654D02*
G01X13686046Y-14424346D01*
G01X4737354Y-14424346D01*
G01X4737354Y-6375654D01*
G01X13686046Y-6375654D01*
G37*
%LPC*%
G36*
G01X5092459Y-11984754D02*
G03X5092459Y-11713446I0J135654D01*
G03X5092459Y-11984754I0J-135654D01*
G37*
G36*
G01X5092459Y-11476754D02*
G03X5092459Y-11205446I0J135654D01*
G03X5092459Y-11476754I0J-135654D01*
G37*
G36*
G01X5092459Y-10968754D02*
G03X5092459Y-10697446I0J135654D01*
G03X5092459Y-10968754I0J-135654D01*
G37*
G36*
G01X5228112Y-13263100D02*
G03X5202458Y-13237446I-25654J0D01*
G01X4982459Y-13237446D01*
G03X4956805Y-13263100I0J-25654D01*
G01X4956805Y-13483100D01*
G03X4982459Y-13508754I25654J0D01*
G01X5202458Y-13508754D01*
G03X5228112Y-13483100I0J25654D01*
G01X5228112Y-13263100D01*
G37*
G36*
G01X5092459Y-13000754D02*
G03X5092459Y-12729446I0J135654D01*
G03X5092459Y-13000754I0J-135654D01*
G37*
G36*
G01X5092459Y-12492754D02*
G03X5092459Y-12221446I0J135654D01*
G03X5092459Y-12492754I0J-135654D01*
G37*
G36*
G01X5092941Y-9952754D02*
G03X5092941Y-9681446I0J135654D01*
G03X5092941Y-9952754I0J-135654D01*
G37*
G36*
G01X5092941Y-9444754D02*
G03X5092941Y-9173446I0J135654D01*
G03X5092941Y-9444754I0J-135654D01*
G37*
G36*
G01X5092941Y-8936754D02*
G03X5092941Y-8665446I0J135654D01*
G03X5092941Y-8936754I0J-135654D01*
G37*
G36*
G01X5092941Y-7920754D02*
G03X5092941Y-7649446I0J135654D01*
G03X5092941Y-7920754I0J-135654D01*
G37*
G36*
G01X5092941Y-8428754D02*
G03X5092941Y-8157446I0J135654D01*
G03X5092941Y-8428754I0J-135654D01*
G37*
G36*
G01X5093449Y-10460754D02*
G03X5093449Y-10189446I0J135654D01*
G03X5093449Y-10460754I0J-135654D01*
G37*
G36*
G01X5114155Y-6834598D02*
G03X5665462Y-6834598I275654J0D01*
G03X5114155Y-6834598I-275653J0D01*
G37*
G36*
G01X5114227Y-14058900D02*
G03X5665534Y-14058900I275654J0D01*
G03X5114227Y-14058900I-275653J0D01*
G37*
G36*
G01X5854941Y-9952754D02*
G03X5854941Y-9681446I0J135654D01*
G03X5854941Y-9952754I0J-135654D01*
G37*
G36*
G01X5854941Y-9444754D02*
G03X5854941Y-9173446I0J135654D01*
G03X5854941Y-9444754I0J-135654D01*
G37*
G36*
G01X5854941Y-11984754D02*
G03X5854941Y-11713446I0J135654D01*
G03X5854941Y-11984754I0J-135654D01*
G37*
G36*
G01X5854941Y-10968754D02*
G03X5854941Y-10697446I0J135654D01*
G03X5854941Y-10968754I0J-135654D01*
G37*
G36*
G01X5854941Y-11476754D02*
G03X5854941Y-11205446I0J135654D01*
G03X5854941Y-11476754I0J-135654D01*
G37*
G36*
G01X5854941Y-13508754D02*
G03X5854941Y-13237446I0J135654D01*
G03X5854941Y-13508754I0J-135654D01*
G37*
G36*
G01X5854941Y-13000754D02*
G03X5854941Y-12729446I0J135654D01*
G03X5854941Y-13000754I0J-135654D01*
G37*
G36*
G01X5854941Y-12492754D02*
G03X5854941Y-12221446I0J135654D01*
G03X5854941Y-12492754I0J-135654D01*
G37*
G36*
G01X5854941Y-10460754D02*
G03X5854941Y-10189446I0J135654D01*
G03X5854941Y-10460754I0J-135654D01*
G37*
G36*
G01X5854941Y-7920754D02*
G03X5854941Y-7649446I0J135654D01*
G03X5854941Y-7920754I0J-135654D01*
G37*
G36*
G01X5854941Y-8936754D02*
G03X5854941Y-8665446I0J135654D01*
G03X5854941Y-8936754I0J-135654D01*
G37*
G36*
G01X5854941Y-8428754D02*
G03X5854941Y-8157446I0J135654D01*
G03X5854941Y-8428754I0J-135654D01*
G37*
G36*
G01X5976346Y-7924800D02*
G03X6088654Y-7924800I56154J0D01*
G03X5976346Y-7924800I-56154J0D01*
G37*
G36*
G01X6052546Y-8470900D02*
G03X6164854Y-8470900I56154J0D01*
G03X6052546Y-8470900I-56154J0D01*
G37*
G36*
G01X6116046Y-8953500D02*
G03X6228354Y-8953500I56154J0D01*
G03X6116046Y-8953500I-56154J0D01*
G37*
G36*
G01X6179546Y-9436100D02*
G03X6291854Y-9436100I56154J0D01*
G03X6179546Y-9436100I-56154J0D01*
G37*
G36*
G01X6243046Y-9969500D02*
G03X6355354Y-9969500I56154J0D01*
G03X6243046Y-9969500I-56154J0D01*
G37*
G36*
G01X6306546Y-10502900D02*
G03X6418854Y-10502900I56154J0D01*
G03X6306546Y-10502900I-56154J0D01*
G37*
G36*
G01X6370046Y-10960100D02*
G03X6482354Y-10960100I56154J0D01*
G03X6370046Y-10960100I-56154J0D01*
G37*
G36*
G01X6446246Y-11493500D02*
G03X6558554Y-11493500I56154J0D01*
G03X6446246Y-11493500I-56154J0D01*
G37*
G36*
G01X6509746Y-12014200D02*
G03X6622054Y-12014200I56154J0D01*
G03X6509746Y-12014200I-56154J0D01*
G37*
G36*
G01X6573246Y-12522200D02*
G03X6685554Y-12522200I56154J0D01*
G03X6573246Y-12522200I-56154J0D01*
G37*
G36*
G01X6636746Y-13017500D02*
G03X6749054Y-13017500I56154J0D01*
G03X6636746Y-13017500I-56154J0D01*
G37*
G36*
G01X6954246Y-10375900D02*
G03X7066554Y-10375900I56154J0D01*
G03X6954246Y-10375900I-56154J0D01*
G37*
G36*
G01X6992024Y-7876930D02*
G03X7011870Y-7962900I43776J-35170D01*
G03X7011870Y-8064500I23930J-50800D01*
G03X6992024Y-8150470I23930J-50800D01*
G03X7080250Y-8149614I43776J35170D01*
G03X7124700Y-8171454I44450J34314D01*
G03X7169150Y-8149614I0J56154D01*
G03X7257376Y-8150470I44450J34314D01*
G03X7237530Y-8064500I-43776J35170D01*
G03X7269754Y-8013700I-23930J50800D01*
G03X7237530Y-7962900I-56154J0D01*
G03X7257376Y-7876930I-23930J50800D01*
G03X7169150Y-7877786I-43776J-35170D01*
G03X7124700Y-7855946I-44450J-34314D01*
G03X7080250Y-7877786I0J-56154D01*
G03X6992024Y-7876930I-44450J-34314D01*
G37*
G36*
G01X6999687Y-12957602D02*
G03X7019533Y-13043572I43776J-35170D01*
G03X7019533Y-13145172I23930J-50800D01*
G03X6999687Y-13231141I23930J-50800D01*
G03X7087913Y-13230286I43776J35170D01*
G03X7132363Y-13252126I44450J34314D01*
G03X7176813Y-13230286I0J56154D01*
G03X7265040Y-13231141I44450J34314D01*
G03X7245193Y-13145172I-43776J35170D01*
G03X7245193Y-13043572I-23930J50800D01*
G03X7265040Y-12957602I-23930J50800D01*
G03X7176813Y-12958457I-43776J-35170D01*
G03X7132363Y-12936618I-44450J-34314D01*
G03X7087913Y-12958457I0J-56154D01*
G03X6999687Y-12957602I-44450J-34314D01*
G37*
G36*
G01X7004724Y-8892930D02*
G03X7024570Y-8978900I43776J-35170D01*
G03X7024570Y-9080500I23930J-50800D01*
G03X7004724Y-9166470I23930J-50800D01*
G03X7092950Y-9165614I43776J35170D01*
G03X7137400Y-9187454I44450J34314D01*
G03X7181850Y-9165614I0J56154D01*
G03X7270076Y-9166470I44450J34314D01*
G03X7250230Y-9080500I-43776J35170D01*
G03X7250230Y-8978900I-23930J50800D01*
G03X7270076Y-8892930I-23930J50800D01*
G03X7181850Y-8893786I-43776J-35170D01*
G03X7137400Y-8871946I-44450J-34314D01*
G03X7092950Y-8893786I0J-56154D01*
G03X7004724Y-8892930I-44450J-34314D01*
G37*
G36*
G01X7008628Y-10210941D02*
G03X7096854Y-10210086I43776J35170D01*
G03X7185754Y-10210086I44450J34314D01*
G03X7273980Y-10210941I44450J34314D01*
G03X7254134Y-10124972I-43776J35170D01*
G03X7254134Y-10023372I-23930J50800D01*
G03X7273980Y-9937402I-23930J50800D01*
G03X7185754Y-9938257I-43776J-35170D01*
G03X7096854Y-9938257I-44450J-34314D01*
G03X7008628Y-9937402I-44450J-34314D01*
G03X7028474Y-10023372I43776J-35170D01*
G03X6996250Y-10074172I23930J-50800D01*
G03X7028474Y-10124972I56154J0D01*
G03X7008628Y-10210941I23930J-50800D01*
G37*
G36*
G01X7008628Y-12227841D02*
G03X7096854Y-12226986I43776J35170D01*
G03X7185754Y-12226986I44450J34314D01*
G03X7273980Y-12227841I44450J34314D01*
G03X7254134Y-12141872I-43776J35170D01*
G03X7254134Y-12040272I-23930J50800D01*
G03X7273980Y-11954302I-23930J50800D01*
G03X7185754Y-11955157I-43776J-35170D01*
G03X7096854Y-11955157I-44450J-34314D01*
G03X7008628Y-11954302I-44450J-34314D01*
G03X7028474Y-12040272I43776J-35170D01*
G03X6996250Y-12091072I23930J-50800D01*
G03X7028474Y-12141872I56154J0D01*
G03X7008628Y-12227841I23930J-50800D01*
G37*
G36*
G01X7012387Y-11201541D02*
G03X7100613Y-11200686I43776J35170D01*
G03X7189513Y-11200686I44450J34314D01*
G03X7277740Y-11201541I44450J34314D01*
G03X7257893Y-11115572I-43776J35170D01*
G03X7257893Y-11013972I-23930J50800D01*
G03X7277740Y-10928002I-23930J50800D01*
G03X7189513Y-10928857I-43776J-35170D01*
G03X7100613Y-10928857I-44450J-34314D01*
G03X7012387Y-10928002I-44450J-34314D01*
G03X7032233Y-11013972I43776J-35170D01*
G03X7000009Y-11064772I23930J-50800D01*
G03X7032233Y-11115572I56154J0D01*
G03X7012387Y-11201541I23930J-50800D01*
G37*
G36*
G01X7507785Y-8013700D02*
G03X7620093Y-8013700I56154J0D01*
G03X7507785Y-8013700I-56154J0D01*
G37*
G36*
G01X7513046Y-9029700D02*
G03X7625354Y-9029700I56154J0D01*
G03X7513046Y-9029700I-56154J0D01*
G37*
G36*
G01X7513046Y-10074172D02*
G03X7625354Y-10074172I56154J0D01*
G03X7513046Y-10074172I-56154J0D01*
G37*
G36*
G01X7513046Y-12091072D02*
G03X7625354Y-12091072I56154J0D01*
G03X7513046Y-12091072I-56154J0D01*
G37*
G36*
G01X7513046Y-11064772D02*
G03X7625354Y-11064772I56154J0D01*
G03X7513046Y-11064772I-56154J0D01*
G37*
G36*
G01X7513046Y-13094372D02*
G03X7625354Y-13094372I56154J0D01*
G03X7513046Y-13094372I-56154J0D01*
G37*
G36*
G01X7962900Y-8146054D02*
G03X7986830Y-8039100I0J56154D01*
G03X7962900Y-7932146I-23930J50800D01*
G03X7938970Y-8039100I0J-56154D01*
G03X7962900Y-8146054I23930J-50800D01*
G37*
G36*
G01X7906746Y-9004300D02*
G03X8019054Y-9004300I56154J0D01*
G03X7906746Y-9004300I-56154J0D01*
G37*
G36*
G01X7919446Y-12928600D02*
G03X8031754Y-12928600I56154J0D01*
G03X7919446Y-12928600I-56154J0D01*
G37*
G36*
G01X7932146Y-9994900D02*
G03X8044454Y-9994900I56154J0D01*
G03X7932146Y-9994900I-56154J0D01*
G37*
G36*
G01X7932146Y-11315700D02*
G03X8044454Y-11315700I56154J0D01*
G03X7932146Y-11315700I-56154J0D01*
G37*
G36*
G01X7944846Y-10985500D02*
G03X8057154Y-10985500I56154J0D01*
G03X7944846Y-10985500I-56154J0D01*
G37*
G36*
G01X7944846Y-12014200D02*
G03X8057154Y-12014200I56154J0D01*
G03X7944846Y-12014200I-56154J0D01*
G37*
G36*
G01X8097246Y-9182100D02*
G03X8209554Y-9182100I56154J0D01*
G03X8097246Y-9182100I-56154J0D01*
G37*
G36*
G01X8111246Y-6849100D02*
G03X8136900Y-6874754I25654J0D01*
G01X8296900Y-6874754D01*
G03X8322554Y-6849100I0J25654D01*
G01X8322554Y-6689100D01*
G03X8296900Y-6663446I-25654J0D01*
G01X8136900Y-6663446D01*
G03X8111246Y-6689100I0J-25654D01*
G01X8111246Y-6849100D01*
G37*
G36*
G01X8216900Y-7171446D02*
G03X8216900Y-7382754I0J-105654D01*
G03X8216900Y-7171446I0J105654D01*
G37*
G36*
G01X8216900Y-6917446D02*
G03X8216900Y-7128754I0J-105654D01*
G03X8216900Y-6917446I0J105654D01*
G37*
G36*
G01X8205196Y-9671050D02*
G03X8317504Y-9671050I56154J0D01*
G03X8205196Y-9671050I-56154J0D01*
G37*
G36*
G01X8313146Y-9626600D02*
G03X8425454Y-9626600I56154J0D01*
G03X8313146Y-9626600I-56154J0D01*
G37*
G36*
G01X8452846Y-12877800D02*
G03X8565154Y-12877800I56154J0D01*
G03X8452846Y-12877800I-56154J0D01*
G37*
G36*
G01X8582678Y-13007632D02*
G03X8694986Y-13007632I56154J0D01*
G03X8582678Y-13007632I-56154J0D01*
G37*
G36*
G01X8648700Y-8343646D02*
G01X8648446Y-8343900D01*
G01X8648446Y-8978900D01*
G01X8648700Y-8979154D01*
G01X10490200Y-8979154D01*
G01X10490454Y-8978900D01*
G01X10490454Y-8343900D01*
G01X10490200Y-8343646D01*
G01X8648700Y-8343646D01*
G37*
G36*
G01X8770346Y-9652000D02*
G03X8882654Y-9652000I56154J0D01*
G03X8770346Y-9652000I-56154J0D01*
G37*
G36*
G01X8948146Y-9855200D02*
G03X9060454Y-9855200I56154J0D01*
G03X8948146Y-9855200I-56154J0D01*
G37*
G36*
G01X8948146Y-9632836D02*
G03X9060454Y-9632836I56154J0D01*
G03X8948146Y-9632836I-56154J0D01*
G37*
G36*
G01X8986246Y-7543800D02*
G03X9098554Y-7543800I56154J0D01*
G03X8986246Y-7543800I-56154J0D01*
G37*
G36*
G01X9075146Y-11760200D02*
G03X9187454Y-11760200I56154J0D01*
G03X9075146Y-11760200I-56154J0D01*
G37*
G36*
G01X9202146Y-11150600D02*
G03X9314454Y-11150600I56154J0D01*
G03X9202146Y-11150600I-56154J0D01*
G37*
G36*
G01X9712431Y-13995400D02*
G03X9824740Y-13995400I56154J0D01*
G03X9712431Y-13995400I-56154J0D01*
G37*
G36*
G01X10078446Y-12700000D02*
G03X10190754Y-12700000I56154J0D01*
G03X10078446Y-12700000I-56154J0D01*
G37*
G36*
G01X10079310Y-13995400D02*
G03X10191618Y-13995400I56154J0D01*
G03X10079310Y-13995400I-56154J0D01*
G37*
G36*
G01X10091146Y-11137900D02*
G03X10203454Y-11137900I56154J0D01*
G03X10091146Y-11137900I-56154J0D01*
G37*
G36*
G01X10289545Y-11557000D02*
G03X10401853Y-11557000I56154J0D01*
G03X10289545Y-11557000I-56154J0D01*
G37*
G36*
G01X10459446Y-12700000D02*
G03X10571754Y-12700000I56154J0D01*
G03X10459446Y-12700000I-56154J0D01*
G37*
G36*
G01X10460310Y-13995400D02*
G03X10572618Y-13995400I56154J0D01*
G03X10460310Y-13995400I-56154J0D01*
G37*
G36*
G01X10561046Y-8991600D02*
G03X10673354Y-8991600I56154J0D01*
G03X10561046Y-8991600I-56154J0D01*
G37*
G36*
G01X10571526Y-9412919D02*
G03X10683835Y-9412919I56154J0D01*
G03X10571526Y-9412919I-56154J0D01*
G37*
G36*
G01X10720534Y-8238498D02*
G03X10746188Y-8264152I25654J0D01*
G01X10916187Y-8264152D01*
G03X10941841Y-8238498I0J25654D01*
G01X10941841Y-8068499D01*
G03X10916187Y-8042845I-25654J0D01*
G01X10746188Y-8042845D01*
G03X10720534Y-8068499I0J-25654D01*
G01X10720534Y-8238498D01*
G37*
G36*
G01X10831187Y-8550845D02*
G03X10831187Y-8772152I0J-110654D01*
G03X10831187Y-8550845I0J110654D01*
G37*
G36*
G01X10831187Y-8296845D02*
G03X10831187Y-8518152I0J-110654D01*
G03X10831187Y-8296845I0J110654D01*
G37*
G36*
G01X10827746Y-12700000D02*
G03X10940054Y-12700000I56154J0D01*
G03X10827746Y-12700000I-56154J0D01*
G37*
G36*
G01X10828610Y-13995400D02*
G03X10940918Y-13995400I56154J0D01*
G03X10828610Y-13995400I-56154J0D01*
G37*
G36*
G01X11196046Y-7759700D02*
G03X11308354Y-7759700I56154J0D01*
G03X11196046Y-7759700I-56154J0D01*
G37*
G36*
G01X11196910Y-12700000D02*
G03X11309218Y-12700000I56154J0D01*
G03X11196910Y-12700000I-56154J0D01*
G37*
G36*
G01X11196910Y-13995400D02*
G03X11309218Y-13995400I56154J0D01*
G03X11196910Y-13995400I-56154J0D01*
G37*
G36*
G01X11565210Y-13995400D02*
G03X11677518Y-13995400I56154J0D01*
G03X11565210Y-13995400I-56154J0D01*
G37*
G36*
G01X11565210Y-12700000D02*
G03X11677518Y-12700000I56154J0D01*
G03X11565210Y-12700000I-56154J0D01*
G37*
G36*
G01X12069821Y-7537450D02*
G03X12182129Y-7537450I56154J0D01*
G03X12069821Y-7537450I-56154J0D01*
G37*
G36*
G01X12069821Y-7029450D02*
G03X12182129Y-7029450I56154J0D01*
G03X12069821Y-7029450I-56154J0D01*
G37*
G36*
G01X12069821Y-7283450D02*
G03X12182129Y-7283450I56154J0D01*
G03X12069821Y-7283450I-56154J0D01*
G37*
G36*
G01X12069821Y-6775450D02*
G03X12182129Y-6775450I56154J0D01*
G03X12069821Y-6775450I-56154J0D01*
G37*
G36*
G01X12432805Y-11565654D02*
G03X12432805Y-11294346I0J135654D01*
G03X12432805Y-11565654I0J-135654D01*
G37*
G36*
G01X12433313Y-12073654D02*
G03X12433313Y-11802346I0J135654D01*
G03X12433313Y-12073654I0J-135654D01*
G37*
G36*
G01X12433795Y-9533654D02*
G03X12433795Y-9262346I0J135654D01*
G03X12433795Y-9533654I0J-135654D01*
G37*
G36*
G01X12433795Y-11057654D02*
G03X12433795Y-10786346I0J135654D01*
G03X12433795Y-11057654I0J-135654D01*
G37*
G36*
G01X12433795Y-10549654D02*
G03X12433795Y-10278346I0J135654D01*
G03X12433795Y-10549654I0J-135654D01*
G37*
G36*
G01X12433795Y-9025654D02*
G03X12433795Y-8754346I0J135654D01*
G03X12433795Y-9025654I0J-135654D01*
G37*
G36*
G01X12433795Y-8517654D02*
G03X12433795Y-8246346I0J135654D01*
G03X12433795Y-8517654I0J-135654D01*
G37*
G36*
G01X12435218Y-10041654D02*
G03X12435218Y-9770346I0J135654D01*
G03X12435218Y-10041654I0J-135654D01*
G37*
G36*
G01X12363944Y-13529816D02*
G03X13315252Y-13529816I475654J0D01*
G03X12363944Y-13529816I-475654J0D01*
G37*
G36*
G01X12364109Y-7141716D02*
G03X13315417Y-7141716I475654J0D01*
G03X12364109Y-7141716I-475654J0D01*
G37*
G36*
G01X12396196Y-7807610D02*
G03X12508504Y-7807610I56154J0D01*
G03X12396196Y-7807610I-56154J0D01*
G37*
G36*
G01X12408896Y-6499510D02*
G03X12521204Y-6499510I56154J0D01*
G03X12408896Y-6499510I-56154J0D01*
G37*
G36*
G01X12650196Y-7807610D02*
G03X12762504Y-7807610I56154J0D01*
G03X12650196Y-7807610I-56154J0D01*
G37*
G36*
G01X12662896Y-6499510D02*
G03X12775204Y-6499510I56154J0D01*
G03X12662896Y-6499510I-56154J0D01*
G37*
G36*
G01X12904196Y-7807610D02*
G03X13016504Y-7807610I56154J0D01*
G03X12904196Y-7807610I-56154J0D01*
G37*
G36*
G01X12916896Y-6499510D02*
G03X13029204Y-6499510I56154J0D01*
G03X12916896Y-6499510I-56154J0D01*
G37*
G36*
G01X13194805Y-11565654D02*
G03X13194805Y-11294346I0J135654D01*
G03X13194805Y-11565654I0J-135654D01*
G37*
G36*
G01X13195313Y-12073654D02*
G03X13195313Y-11802346I0J135654D01*
G03X13195313Y-12073654I0J-135654D01*
G37*
G36*
G01X13195795Y-9533654D02*
G03X13195795Y-9262346I0J135654D01*
G03X13195795Y-9533654I0J-135654D01*
G37*
G36*
G01X13195795Y-10041654D02*
G03X13195795Y-9770346I0J135654D01*
G03X13195795Y-10041654I0J-135654D01*
G37*
G36*
G01X13195795Y-11057654D02*
G03X13195795Y-10786346I0J135654D01*
G03X13195795Y-11057654I0J-135654D01*
G37*
G36*
G01X13195795Y-10549654D02*
G03X13195795Y-10278346I0J135654D01*
G03X13195795Y-10549654I0J-135654D01*
G37*
G36*
G01X13195795Y-9025654D02*
G03X13195795Y-8754346I0J135654D01*
G03X13195795Y-9025654I0J-135654D01*
G37*
G36*
G01X13331449Y-8272000D02*
G03X13305795Y-8246346I-25654J0D01*
G01X13085796Y-8246346D01*
G03X13060142Y-8272000I0J-25654D01*
G01X13060142Y-8492000D01*
G03X13085796Y-8517654I25654J0D01*
G01X13305795Y-8517654D01*
G03X13331449Y-8492000I0J25654D01*
G01X13331449Y-8272000D01*
G37*
G36*
G01X13158196Y-7807610D02*
G03X13270504Y-7807610I56154J0D01*
G03X13158196Y-7807610I-56154J0D01*
G37*
G36*
G01X13170896Y-6499510D02*
G03X13283204Y-6499510I56154J0D01*
G03X13170896Y-6499510I-56154J0D01*
G37*
%LPD*%
G36*
G01X12363944Y-13542516D02*
G02X12363944Y-13517116I0J12700D01*
G01X12839598Y-13517116D01*
G02X12839598Y-13542516I0J-12700D01*
G01X12363944Y-13542516D01*
G37*
G36*
G01X12839598Y-13542516D02*
G02X12839598Y-13517116I0J12700D01*
G01X13315252Y-13517116D01*
G02X13315252Y-13542516I0J-12700D01*
G01X12839598Y-13542516D01*
G37*
G36*
G01X10720534Y-8674199D02*
G02X10720534Y-8648799I0J12700D01*
G01X10831187Y-8648799D01*
G02X10831187Y-8674199I0J-12700D01*
G01X10720534Y-8674199D01*
G37*
G36*
G01X10831187Y-8674199D02*
G02X10831187Y-8648799I0J12700D01*
G01X10941841Y-8648799D01*
G02X10941841Y-8674199I0J-12700D01*
G01X10831187Y-8674199D01*
G37*
G36*
G01X8216900Y-7035800D02*
G02X8216900Y-7010400I0J12700D01*
G01X8322554Y-7010400D01*
G02X8322554Y-7035800I0J-12700D01*
G01X8216900Y-7035800D01*
G37*
G36*
G01X8111246Y-7035800D02*
G02X8111246Y-7010400I0J12700D01*
G01X8216900Y-7010400D01*
G02X8216900Y-7035800I0J-12700D01*
G01X8111246Y-7035800D01*
G37*
G36*
G01X12852298Y-13529816D02*
G02X12826898Y-13529816I-12700J0D01*
G01X12826898Y-13054162D01*
G02X12852298Y-13054162I12700J0D01*
G01X12852298Y-13529816D01*
G37*
G36*
G01X12826898Y-13529816D02*
G02X12852298Y-13529816I12700J0D01*
G01X12852298Y-14005470D01*
G02X12826898Y-14005470I-12700J0D01*
G01X12826898Y-13529816D01*
G37*
G36*
G01X10818487Y-8661499D02*
G02X10843887Y-8661499I12700J0D01*
G01X10843887Y-8772152D01*
G02X10818487Y-8772152I-12700J0D01*
G01X10818487Y-8661499D01*
G37*
G36*
G01X10843887Y-8661499D02*
G02X10818487Y-8661499I-12700J0D01*
G01X10818487Y-8550845D01*
G02X10843887Y-8550845I12700J0D01*
G01X10843887Y-8661499D01*
G37*
G36*
G01X8229600Y-7023100D02*
G02X8204200Y-7023100I-12700J0D01*
G01X8204200Y-6917446D01*
G02X8229600Y-6917446I12700J0D01*
G01X8229600Y-7023100D01*
G37*
G36*
G01X8204200Y-7023100D02*
G02X8229600Y-7023100I12700J0D01*
G01X8229600Y-7128754D01*
G02X8204200Y-7128754I-12700J0D01*
G01X8204200Y-7023100D01*
G37*
G04 PlaneZone End*

G04 Pad Start*
G54D10*
G01X5092459Y-13373100D03*
G54D11*
G01X5092459Y-12865100D03*
G01X5092459Y-12357100D03*
G01X5854941Y-13373100D03*
G01X5854941Y-12865100D03*
G01X5854941Y-12357100D03*
G01X5854941Y-11849100D03*
G01X5092459Y-11849100D03*
G01X5092459Y-11341100D03*
G01X5854941Y-11341100D03*
G01X5092459Y-10833100D03*
G01X5854941Y-10833100D03*
G01X5093449Y-10325100D03*
G01X5854941Y-10325100D03*
G01X5092941Y-9817100D03*
G01X5854941Y-9817100D03*
G01X5092941Y-9309100D03*
G01X5854941Y-9309100D03*
G01X5092941Y-8801100D03*
G01X5854941Y-8801100D03*
G01X5092941Y-8293100D03*
G01X5854941Y-8293100D03*
G01X5092941Y-7785100D03*
G01X5854941Y-7785100D03*
G54D10*
G01X13195795Y-8382000D03*
G54D11*
G01X13195795Y-8890000D03*
G01X13195795Y-9398000D03*
G01X12433795Y-8382000D03*
G01X12433795Y-8890000D03*
G01X12433795Y-9398000D03*
G01X12435218Y-9906000D03*
G01X13195795Y-9906000D03*
G01X13195795Y-10414000D03*
G01X12433795Y-10414000D03*
G01X13195795Y-10922000D03*
G01X12433795Y-10922000D03*
G01X13194805Y-11430000D03*
G01X12432805Y-11430000D03*
G01X13195313Y-11938000D03*
G01X12433313Y-11938000D03*
G54D12*
G01X8216900Y-6769100D03*
G54D13*
G01X8216900Y-7023100D03*
G01X8216900Y-7277100D03*
G54D14*
G01X12839598Y-13529816D03*
G01X12839764Y-7141716D03*
G54D15*
G01X5389880Y-14058900D03*
G01X5389809Y-6834598D03*
G54D17*
G01X10831187Y-8153499D03*
G54D18*
G01X10831187Y-8407499D03*
G01X10831187Y-8661499D03*
G04 Pad End*

G04 Via Start*
G54D19*
G01X12052300Y-8102600D03*
G01X12065000Y-11684000D03*
G01X12065000Y-11150600D03*
G01X12065000Y-10642600D03*
G01X12065000Y-10147300D03*
G01X12059798Y-9639300D03*
G01X12059798Y-9131300D03*
G01X12047098Y-8623300D03*
G01X8928100Y-11509272D03*
G01X9131300Y-11760200D03*
G01X7563939Y-8013700D03*
G01X7569200Y-9029700D03*
G01X7569200Y-10074172D03*
G01X7569200Y-11064772D03*
G01X7569200Y-12091072D03*
G01X7569200Y-13094372D03*
G01X10520401Y-12179300D03*
G01X10627681Y-9412919D03*
G01X10629900Y-9118600D03*
G01X8500590Y-9042400D03*
G01X8331200Y-9042400D03*
G01X8509000Y-9601200D03*
G01X9004300Y-9632836D03*
G01X10617200Y-8991600D03*
G01X9745701Y-12179300D03*
G01X10345699Y-11557000D03*
G01X8369300Y-9626600D03*
G01X7962900Y-8089900D03*
G01X8826500Y-9652000D03*
G01X7988300Y-11315700D03*
G01X9258300Y-11150600D03*
G01X7962900Y-7988300D03*
G01X8509000Y-12877800D03*
G01X8638832Y-13007632D03*
G01X10147300Y-11137900D03*
G01X8001000Y-12014200D03*
G01X8001000Y-10985500D03*
G01X7988300Y-9994900D03*
G01X7962900Y-9004300D03*
G01X7035800Y-7912100D03*
G01X7124700Y-7912100D03*
G01X7213600Y-7912100D03*
G01X7124700Y-8013700D03*
G01X7035800Y-8013700D03*
G01X7213600Y-8013700D03*
G01X7213600Y-8115300D03*
G01X7124700Y-8115300D03*
G01X7035800Y-8115300D03*
G01X7048500Y-8928100D03*
G01X7048500Y-9029700D03*
G01X7048500Y-9131300D03*
G01X7137400Y-9131300D03*
G01X7137400Y-9029700D03*
G01X7137400Y-8928100D03*
G01X7226300Y-8928100D03*
G01X7226300Y-9029700D03*
G01X7226300Y-9131300D03*
G01X7052404Y-9972572D03*
G01X7052404Y-10074172D03*
G01X7052404Y-10175772D03*
G01X7141304Y-10175772D03*
G01X7141304Y-10074172D03*
G01X7141304Y-9972572D03*
G01X7230204Y-9972572D03*
G01X7230204Y-10074172D03*
G01X7230204Y-10175772D03*
G01X7056163Y-10963172D03*
G01X7056163Y-11064772D03*
G01X7056163Y-11166372D03*
G01X7145063Y-11166372D03*
G01X7145063Y-11064772D03*
G01X7145063Y-10963172D03*
G01X7233963Y-10963172D03*
G01X7233963Y-11064772D03*
G01X7233963Y-11166372D03*
G01X7052404Y-11989472D03*
G01X7052404Y-12091072D03*
G01X7052404Y-12192672D03*
G01X7141304Y-12192672D03*
G01X7141304Y-12091072D03*
G01X7141304Y-11989472D03*
G01X7230204Y-11989472D03*
G01X7230204Y-12091072D03*
G01X7230204Y-12192672D03*
G01X7043463Y-12992772D03*
G01X7043463Y-13094372D03*
G01X7043463Y-13195972D03*
G01X7132363Y-13195972D03*
G01X7132363Y-13094372D03*
G01X7132363Y-12992772D03*
G01X7221263Y-12992772D03*
G01X7221263Y-13094372D03*
G01X7221263Y-13195972D03*
G01X7302500Y-13608202D03*
G01X7411540Y-13456740D03*
G01X7421314Y-12446000D03*
G01X7975600Y-12928600D03*
G01X9004300Y-9855200D03*
G01X8261350Y-9671050D03*
G01X7137400Y-12776200D03*
G01X6743700Y-13690600D03*
G01X7137400Y-11747500D03*
G01X7137400Y-10756900D03*
G01X7137400Y-9740900D03*
G01X7124700Y-8699500D03*
G01X6261100Y-7454900D03*
G01X10134600Y-12700000D03*
G01X10515600Y-12700000D03*
G01X10883900Y-12700000D03*
G01X7010400Y-10375900D03*
G01X6692900Y-13017500D03*
G01X11253064Y-12700000D03*
G01X11621364Y-12700000D03*
G01X9768585Y-13995400D03*
G01X10135464Y-13995400D03*
G01X10516464Y-13995400D03*
G01X10884764Y-13995400D03*
G01X11253064Y-13995400D03*
G01X11621364Y-13995400D03*
G01X6629400Y-12522200D03*
G01X6565900Y-12014200D03*
G01X6502400Y-11493500D03*
G01X6426200Y-10960100D03*
G01X6362700Y-10502900D03*
G01X6299200Y-9969500D03*
G01X6235700Y-9436100D03*
G01X6172200Y-8953500D03*
G01X6108700Y-8470900D03*
G01X6032500Y-7924800D03*
G01X11577782Y-13351825D03*
G01X11150600Y-13347700D03*
G01X10756900Y-13347700D03*
G01X10388600Y-13347700D03*
G01X9994900Y-13347700D03*
G01X9575800Y-13042905D03*
G01X9588500Y-13665205D03*
G01X12458700Y-12852400D03*
G01X12712700Y-12852400D03*
G01X12966700Y-12852400D03*
G01X13220700Y-12852400D03*
G01X12966598Y-14254122D03*
G01X13220598Y-14254122D03*
G01X12712598Y-14254122D03*
G01X12458598Y-14254122D03*
G01X12141200Y-13411200D03*
G01X12141200Y-13157200D03*
G01X12141200Y-13665200D03*
G01X12141200Y-13919200D03*
G01X13214350Y-7807610D03*
G01X12960350Y-7807610D03*
G01X12706350Y-7807610D03*
G01X12452350Y-7807610D03*
G01X13227050Y-6499510D03*
G01X12973050Y-6499510D03*
G01X12719050Y-6499510D03*
G01X12465050Y-6499510D03*
G01X12125975Y-6775450D03*
G01X12125975Y-7029450D03*
G01X12125975Y-7283450D03*
G01X12125975Y-7537450D03*
G01X10960100Y-7454900D03*
G01X10871200Y-7454900D03*
G01X10388600Y-7594600D03*
G01X10287000Y-7594600D03*
G01X11277600Y-7232650D03*
G01X11277600Y-7321550D03*
G01X8432800Y-6972300D03*
G01X8432800Y-7091641D03*
G01X8849928Y-7023100D03*
G01X8851900Y-7188200D03*
G01X9042400Y-7543800D03*
G01X8153400Y-9182100D03*
G01X11252200Y-7759700D03*
G01X7408614Y-8369300D03*
G01X7417410Y-9385300D03*
G01X7421314Y-10439400D03*
G01X7429500Y-11442700D03*
G54D20*
G01X9425826Y-9890290D03*
G01X9425826Y-10030295D03*
G01X9565831Y-10030295D03*
G01X9565831Y-9890290D03*
G01X9495828Y-9820288D03*
G01X9495828Y-9960292D03*
G01X9495828Y-10100297D03*
G01X9285821Y-10030295D03*
G01X9285821Y-9890290D03*
G01X9355823Y-9820288D03*
G01X9355823Y-9960292D03*
G01X9355823Y-10100297D03*
G04 Via End*

M02*

