G04 Layer: BottomLayer*
G04 EasyEDA Pro v3.2.149.88089769, 2026-08-16 16:57:31*
G04 Gerber Generator version 0.3*
G04 Scale: 100 percent, Rotated: No, Reflected: No*
G04 Dimensions in millimeters*
G04 Leading zeros omitted, absolute positions, 4 integers and 5 decimals*
G04 Generated by one-click*
G04 Object Configs: Pad,Via,Track,Text,Image,Dimension,BoardOutline,BoardCutout,CopperFilled,SolidRegion,FPCStiffener,Line,PlaneZone,ComponentProperty,ComponentSilkscreen,TearDrop*
G04 Layer Configs: 1,15,16,2,3,4,5,6,7,8,9,10,11,13,14,56*
G04 Copper Areas: 0*
%FSLAX45Y45*%
%MOMM*%
%ADD10R,2.2X2.2*%
%ADD11C,2.2*%
%ADD12R,1.6X1.6*%
%ADD13C,1.6*%
%ADD14C,9.0*%
%ADD15C,4.99999*%
%ADD16R,1.7X1.7*%
%ADD17C,1.7*%
%ADD18C,0.61*%
%ADD19C,0.6130*%
%ADD20C,0.6096*%
%ADD21C,0.254*%
%ADD22C,0.762*%
G75*


G04 Pad Start*
G54D10*
G01X5092459Y-13373100D03*
G54D11*
G01X5092459Y-12865100D03*
G01X5092459Y-12357100D03*
G01X5854941Y-13373100D03*
G01X5854941Y-12865100D03*
G01X5854941Y-12357100D03*
G01X5854941Y-11849100D03*
G01X5092459Y-11849100D03*
G01X5092459Y-11341100D03*
G01X5854941Y-11341100D03*
G01X5092459Y-10833100D03*
G01X5854941Y-10833100D03*
G01X5093449Y-10325100D03*
G01X5854941Y-10325100D03*
G01X5092941Y-9817100D03*
G01X5854941Y-9817100D03*
G01X5092941Y-9309100D03*
G01X5854941Y-9309100D03*
G01X5092941Y-8801100D03*
G01X5854941Y-8801100D03*
G01X5092941Y-8293100D03*
G01X5854941Y-8293100D03*
G01X5092941Y-7785100D03*
G01X5854941Y-7785100D03*
G54D10*
G01X13195795Y-8382000D03*
G54D11*
G01X13195795Y-8890000D03*
G01X13195795Y-9398000D03*
G01X12433795Y-8382000D03*
G01X12433795Y-8890000D03*
G01X12433795Y-9398000D03*
G01X12435218Y-9906000D03*
G01X13195795Y-9906000D03*
G01X13195795Y-10414000D03*
G01X12433795Y-10414000D03*
G01X13195795Y-10922000D03*
G01X12433795Y-10922000D03*
G01X13194805Y-11430000D03*
G01X12432805Y-11430000D03*
G01X13195313Y-11938000D03*
G01X12433313Y-11938000D03*
G54D12*
G01X8216900Y-6769100D03*
G54D13*
G01X8216900Y-7023100D03*
G01X8216900Y-7277100D03*
G54D14*
G01X12839598Y-13529816D03*
G01X12839764Y-7141716D03*
G54D15*
G01X5389880Y-14058900D03*
G01X5389809Y-6834598D03*
G54D16*
G01X10831187Y-8153499D03*
G54D17*
G01X10831187Y-8407499D03*
G01X10831187Y-8661499D03*
G04 Pad End*

G04 Via Start*
G54D18*
G01X12052300Y-8102600D03*
G01X12065000Y-11684000D03*
G01X12065000Y-11150600D03*
G01X12065000Y-10642600D03*
G01X12065000Y-10147300D03*
G01X12059798Y-9639300D03*
G01X12059798Y-9131300D03*
G01X12047098Y-8623300D03*
G01X8928100Y-11509272D03*
G01X9131300Y-11760200D03*
G01X7563939Y-8013700D03*
G01X7569200Y-9029700D03*
G01X7569200Y-10074172D03*
G01X7569200Y-11064772D03*
G01X7569200Y-12091072D03*
G01X7569200Y-13094372D03*
G01X10520401Y-12179300D03*
G01X10627681Y-9412919D03*
G01X10629900Y-9118600D03*
G01X8500590Y-9042400D03*
G01X8331200Y-9042400D03*
G01X8509000Y-9601200D03*
G01X9004300Y-9632836D03*
G01X10617200Y-8991600D03*
G01X9745701Y-12179300D03*
G01X10345699Y-11557000D03*
G01X8369300Y-9626600D03*
G01X7962900Y-8089900D03*
G01X8826500Y-9652000D03*
G01X7988300Y-11315700D03*
G01X9258300Y-11150600D03*
G01X7962900Y-7988300D03*
G01X8509000Y-12877800D03*
G01X8638832Y-13007632D03*
G01X10147300Y-11137900D03*
G01X8001000Y-12014200D03*
G01X8001000Y-10985500D03*
G01X7988300Y-9994900D03*
G01X7962900Y-9004300D03*
G01X7035800Y-7912100D03*
G01X7124700Y-7912100D03*
G01X7213600Y-7912100D03*
G01X7124700Y-8013700D03*
G01X7035800Y-8013700D03*
G01X7213600Y-8013700D03*
G01X7213600Y-8115300D03*
G01X7124700Y-8115300D03*
G01X7035800Y-8115300D03*
G01X7048500Y-8928100D03*
G01X7048500Y-9029700D03*
G01X7048500Y-9131300D03*
G01X7137400Y-9131300D03*
G01X7137400Y-9029700D03*
G01X7137400Y-8928100D03*
G01X7226300Y-8928100D03*
G01X7226300Y-9029700D03*
G01X7226300Y-9131300D03*
G01X7052404Y-9972572D03*
G01X7052404Y-10074172D03*
G01X7052404Y-10175772D03*
G01X7141304Y-10175772D03*
G01X7141304Y-10074172D03*
G01X7141304Y-9972572D03*
G01X7230204Y-9972572D03*
G01X7230204Y-10074172D03*
G01X7230204Y-10175772D03*
G01X7056163Y-10963172D03*
G01X7056163Y-11064772D03*
G01X7056163Y-11166372D03*
G01X7145063Y-11166372D03*
G01X7145063Y-11064772D03*
G01X7145063Y-10963172D03*
G01X7233963Y-10963172D03*
G01X7233963Y-11064772D03*
G01X7233963Y-11166372D03*
G01X7052404Y-11989472D03*
G01X7052404Y-12091072D03*
G01X7052404Y-12192672D03*
G01X7141304Y-12192672D03*
G01X7141304Y-12091072D03*
G01X7141304Y-11989472D03*
G01X7230204Y-11989472D03*
G01X7230204Y-12091072D03*
G01X7230204Y-12192672D03*
G01X7043463Y-12992772D03*
G01X7043463Y-13094372D03*
G01X7043463Y-13195972D03*
G01X7132363Y-13195972D03*
G01X7132363Y-13094372D03*
G01X7132363Y-12992772D03*
G01X7221263Y-12992772D03*
G01X7221263Y-13094372D03*
G01X7221263Y-13195972D03*
G01X7302500Y-13608202D03*
G01X7411540Y-13456740D03*
G01X7421314Y-12446000D03*
G01X7975600Y-12928600D03*
G01X9004300Y-9855200D03*
G01X8261350Y-9671050D03*
G01X7137400Y-12776200D03*
G01X6743700Y-13690600D03*
G01X7137400Y-11747500D03*
G01X7137400Y-10756900D03*
G01X7137400Y-9740900D03*
G01X7124700Y-8699500D03*
G01X6261100Y-7454900D03*
G01X10134600Y-12700000D03*
G01X10515600Y-12700000D03*
G01X10883900Y-12700000D03*
G01X7010400Y-10375900D03*
G01X6692900Y-13017500D03*
G01X11253064Y-12700000D03*
G01X11621364Y-12700000D03*
G01X9768585Y-13995400D03*
G01X10135464Y-13995400D03*
G01X10516464Y-13995400D03*
G01X10884764Y-13995400D03*
G01X11253064Y-13995400D03*
G01X11621364Y-13995400D03*
G01X6629400Y-12522200D03*
G01X6565900Y-12014200D03*
G01X6502400Y-11493500D03*
G01X6426200Y-10960100D03*
G01X6362700Y-10502900D03*
G01X6299200Y-9969500D03*
G01X6235700Y-9436100D03*
G01X6172200Y-8953500D03*
G01X6108700Y-8470900D03*
G01X6032500Y-7924800D03*
G01X11577782Y-13351825D03*
G01X11150600Y-13347700D03*
G01X10756900Y-13347700D03*
G01X10388600Y-13347700D03*
G01X9994900Y-13347700D03*
G01X9575800Y-13042905D03*
G01X9588500Y-13665205D03*
G01X12458700Y-12852400D03*
G01X12712700Y-12852400D03*
G01X12966700Y-12852400D03*
G01X13220700Y-12852400D03*
G01X12966598Y-14254122D03*
G01X13220598Y-14254122D03*
G01X12712598Y-14254122D03*
G01X12458598Y-14254122D03*
G01X12141200Y-13411200D03*
G01X12141200Y-13157200D03*
G01X12141200Y-13665200D03*
G01X12141200Y-13919200D03*
G01X13214350Y-7807610D03*
G01X12960350Y-7807610D03*
G01X12706350Y-7807610D03*
G01X12452350Y-7807610D03*
G01X13227050Y-6499510D03*
G01X12973050Y-6499510D03*
G01X12719050Y-6499510D03*
G01X12465050Y-6499510D03*
G01X12125975Y-6775450D03*
G01X12125975Y-7029450D03*
G01X12125975Y-7283450D03*
G01X12125975Y-7537450D03*
G01X10960100Y-7454900D03*
G01X10871200Y-7454900D03*
G01X10388600Y-7594600D03*
G01X10287000Y-7594600D03*
G01X11277600Y-7232650D03*
G01X11277600Y-7321550D03*
G01X8432800Y-6972300D03*
G01X8432800Y-7091641D03*
G01X8849928Y-7023100D03*
G01X8851900Y-7188200D03*
G01X9042400Y-7543800D03*
G01X8153400Y-9182100D03*
G01X11252200Y-7759700D03*
G01X7408614Y-8369300D03*
G01X7417410Y-9385300D03*
G01X7421314Y-10439400D03*
G01X7429500Y-11442700D03*
G54D20*
G01X9425826Y-9890290D03*
G01X9425826Y-10030295D03*
G01X9565831Y-10030295D03*
G01X9565831Y-9890290D03*
G01X9495828Y-9820288D03*
G01X9495828Y-9960292D03*
G01X9495828Y-10100297D03*
G01X9285821Y-10030295D03*
G01X9285821Y-9890290D03*
G01X9355823Y-9820288D03*
G01X9355823Y-9960292D03*
G01X9355823Y-10100297D03*
G04 Via End*

G04 Track Start*
G54D21*
G01X7569200Y-9029700D02*
G01X7569200Y-8018961D01*
G01X7563939Y-8013700D01*
G01X7569200Y-10074172D02*
G01X7569200Y-9029700D01*
G01X7569200Y-11064772D02*
G01X7569200Y-10074172D01*
G01X7569200Y-12091072D02*
G01X7569200Y-11064772D01*
G01X7569200Y-13094372D02*
G01X7569200Y-12091072D01*
G01X10345699Y-11557000D02*
G01X10350500Y-11552199D01*
G01X10350500Y-10223500D01*
G01X9855200Y-9728200D01*
G01X8470900Y-9728200D01*
G01X8369300Y-9626600D01*
G01X7988300Y-11315700D02*
G01X9093200Y-11315700D01*
G01X9258300Y-11150600D01*
G01X9131300Y-12369128D02*
G01X9131300Y-11760200D01*
G01X7962900Y-7988300D02*
G01X7772400Y-8178800D01*
G01X7772400Y-12636500D02*
G01X7790361Y-12654461D01*
G01X8285661Y-12654461D02*
G01X8509000Y-12877800D01*
G01X8638832Y-13007632D02*
G01X10147300Y-11499164D01*
G01X10147300Y-11137900D01*
G01X8001000Y-10985500D02*
G01X7932337Y-10916837D01*
G01X7772400Y-10916837D01*
G01X8001000Y-12014200D02*
G01X7924800Y-11938000D01*
G01X7772400Y-11938000D01*
G01X7772400Y-10916837D02*
G01X7772400Y-11938000D01*
G01X7772400Y-12636500D02*
G01X7772400Y-11938000D01*
G01X7988300Y-9994900D02*
G01X7906342Y-9912942D01*
G01X7772400Y-9912942D01*
G01X7772400Y-10916837D01*
G01X7962900Y-9004300D02*
G01X7922281Y-9044919D01*
G01X7772400Y-9044919D01*
G01X7772400Y-8178800D02*
G01X7772400Y-9044919D01*
G01X7772400Y-9912942D01*
G01X7975600Y-12928600D02*
G01X7975600Y-12654646D01*
G01X7975786Y-12654461D01*
G01X8285661Y-12654461D02*
G01X7975786Y-12654461D01*
G01X7790361Y-12654461D01*
G54D22*
G01X9004300Y-9855200D02*
G01X8953500Y-9804400D01*
G01X8394700Y-9804400D01*
G01X8261350Y-9671050D01*
G54D21*
G01X6692900Y-13017500D02*
G01X6936144Y-13017500D01*
G01X7019273Y-12934371D01*
G01X7569200Y-13094372D02*
G01X7847928Y-13373100D01*
G01X8127328Y-13373100D01*
G01X9131300Y-12369128D01*
G01X8233500Y-13545900D02*
G01X7138709Y-13545900D01*
G01X7019273Y-12934371D02*
G01X7245453Y-12934371D01*
G01X7785782Y-13474700D01*
G01X8254354Y-13474700D01*
G01X7209066Y-13666603D02*
G01X7326690Y-13666603D01*
G01X7411793Y-13581500D01*
G01X8248246Y-13581500D01*
G01X7194320Y-13702202D02*
G01X7341436Y-13702202D01*
G01X7426539Y-13617100D01*
G01X8262992Y-13617100D01*
G01X7179574Y-13737802D02*
G01X7356182Y-13737802D01*
G01X7441285Y-13652699D01*
G01X8277738Y-13652699D01*
G01X8254354Y-13474700D02*
G01X9029054Y-12700000D01*
G01X10134600Y-12700000D01*
G01X8233500Y-13545900D02*
G01X9021000Y-12758400D01*
G01X10215900Y-12758400D01*
G01X10274300Y-12700000D01*
G01X10515600Y-12700000D01*
G01X8262992Y-13617100D02*
G01X9050492Y-12829600D01*
G01X11123464Y-12829600D01*
G01X11253064Y-12700000D01*
G01X8248246Y-13581500D02*
G01X9035746Y-12794000D01*
G01X10789900Y-12794000D01*
G01X10883900Y-12700000D01*
G01X8277738Y-13652699D02*
G01X9065238Y-12865200D01*
G01X11456164Y-12865200D01*
G01X11621364Y-12700000D01*
G01X6629400Y-12522200D02*
G01X6629400Y-13036590D01*
G01X7138709Y-13545900D01*
G01X6565900Y-13023436D02*
G01X7209066Y-13666603D01*
G01X6565900Y-13023436D02*
G01X6565900Y-12014200D01*
G01X6502400Y-11493500D02*
G01X6502400Y-13010282D01*
G01X7194320Y-13702202D01*
G01X6426200Y-12984428D02*
G01X7179574Y-13737802D01*
G01X6426200Y-10960100D02*
G01X6426200Y-12984428D01*
G01X6362700Y-10502900D02*
G01X6362700Y-12971274D01*
G01X11456264Y-14160500D02*
G01X11621364Y-13995400D01*
G01X11138309Y-14160500D02*
G01X11456264Y-14160500D01*
G01X6362700Y-12971274D02*
G01X7386826Y-13995400D01*
G01X9768585Y-13995400D01*
G01X11102610Y-14196200D02*
G01X11138309Y-14160500D01*
G01X11087964Y-14160500D02*
G01X11253064Y-13995400D01*
G01X10755164Y-14125000D02*
G01X10884764Y-13995400D01*
G01X10422464Y-14089400D02*
G01X10516464Y-13995400D01*
G01X10077063Y-14053800D02*
G01X10135464Y-13995400D01*
G01X6299200Y-9969500D02*
G01X6299200Y-12958119D01*
G01X7394881Y-14053800D01*
G01X10077063Y-14053800D01*
G01X6235700Y-9436100D02*
G01X6235700Y-12944965D01*
G01X7380135Y-14089400D01*
G01X10422464Y-14089400D01*
G01X6172200Y-8953500D02*
G01X6172200Y-12931811D01*
G01X7365389Y-14125000D01*
G01X10755164Y-14125000D01*
G01X6108700Y-8470900D02*
G01X6108700Y-12918657D01*
G01X7350642Y-14160599D01*
G01X11087964Y-14160500D01*
G01X6032500Y-7924800D02*
G01X6032500Y-12892803D01*
G01X7335897Y-14196200D01*
G01X11102610Y-14196200D01*
G54D22*
G01X9004300Y-9632836D02*
G01X9975964Y-9632836D01*
G01X10619155Y-8989645D01*
G54D21*
G01X8775700Y-9652000D02*
G01X8826500Y-9652000D01*
G01X8661400Y-9537700D02*
G01X8775700Y-9652000D01*
G01X8153400Y-9537700D02*
G01X8661400Y-9537700D01*
G01X8021300Y-9405600D02*
G01X8153400Y-9537700D01*
G01X7962900Y-8089900D02*
G01X7962900Y-8839200D01*
G01X8021300Y-8897600D01*
G01X8021300Y-9405600D01*
G54D22*
G01X9042400Y-7543800D02*
G01X8153400Y-8432800D01*
G01X8153400Y-9182100D01*
G54D21*
G01X10627681Y-9412919D02*
G01X11252200Y-8788400D01*
G01X11252200Y-7759700D01*
G04 Track End*

M02*

