ISO-10303-21;
HEADER;
/* Generated by software containing ST-Developer
 * from STEP Tools, Inc. (www.steptools.com) 
 */
/* OPTION: using custom renumber hook */

FILE_DESCRIPTION(
/* description */ ('STEP AP242 Edition 2',
'CAx-IF Rec.Pracs.---Representation and Presentation of Product Manufa
cturing Information (PMI)---4.0---2014-10-13',
'CAx-IF Rec.Pracs.---3D Tessellated Geometry---0.4---2014-09-14','2;1',
'CAx-IF Rec.Pracs.---User Defined Attributes---1.5---2016-08-15'),
/* implementation_level */ '2;1');

FILE_NAME(
/* name */ 'Enclosure - Part 1',
/* time_stamp */ '2026-08-17T00:02:42Z',
/* author */ (''),
/* organization */ (''),
/* preprocessor_version */ 'ST-DEVELOPER v20',
/* originating_system */ 'ONSHAPE BY PTC INC, 1.219',
/* authorisation */ '  ');

FILE_SCHEMA (('AP242_MANAGED_MODEL_BASED_3D_ENGINEERING_MIM_LF { 1 0 10303 442 3 1 4 }'));
ENDSEC;

DATA;
#10=SHAPE_REPRESENTATION_RELATIONSHIP('','',#1371,#11);
#11=ADVANCED_BREP_SHAPE_REPRESENTATION('',(#1369),#2255);
#12=TOROIDAL_SURFACE('',#1438,0.00309,0.001);
#13=TOROIDAL_SURFACE('',#1439,0.00309,0.001);
#14=TOROIDAL_SURFACE('',#1440,0.00309,0.001);
#15=TOROIDAL_SURFACE('',#1441,0.00309,0.001);
#16=CYLINDRICAL_SURFACE('',#1407,0.00209);
#17=CYLINDRICAL_SURFACE('',#1414,0.00209);
#18=CYLINDRICAL_SURFACE('',#1421,0.00209);
#19=CYLINDRICAL_SURFACE('',#1429,0.00209);
#20=CYLINDRICAL_SURFACE('',#1434,0.005);
#21=CYLINDRICAL_SURFACE('',#1435,0.005);
#22=CYLINDRICAL_SURFACE('',#1436,0.005);
#23=CYLINDRICAL_SURFACE('',#1437,0.005);
#24=CYLINDRICAL_SURFACE('',#1454,0.00209);
#25=CYLINDRICAL_SURFACE('',#1460,0.00209);
#26=CYLINDRICAL_SURFACE('',#1469,0.004);
#27=CYLINDRICAL_SURFACE('',#1470,0.004);
#28=CYLINDRICAL_SURFACE('',#1471,0.004);
#29=CYLINDRICAL_SURFACE('',#1472,0.004);
#30=CYLINDRICAL_SURFACE('',#1473,0.001625);
#31=CYLINDRICAL_SURFACE('',#1474,0.001625);
#32=CYLINDRICAL_SURFACE('',#1483,0.001625);
#33=CYLINDRICAL_SURFACE('',#1484,0.001625);
#34=CYLINDRICAL_SURFACE('',#1485,0.004);
#35=CYLINDRICAL_SURFACE('',#1486,0.004);
#36=CYLINDRICAL_SURFACE('',#1487,0.005);
#37=CYLINDRICAL_SURFACE('',#1490,0.005);
#38=LINE('',#1875,#172);
#39=LINE('',#1878,#173);
#40=LINE('',#1880,#174);
#41=LINE('',#1882,#175);
#42=LINE('',#1884,#176);
#43=LINE('',#1886,#177);
#44=LINE('',#1888,#178);
#45=LINE('',#1890,#179);
#46=LINE('',#1892,#180);
#47=LINE('',#1894,#181);
#48=LINE('',#1896,#182);
#49=LINE('',#1900,#183);
#50=LINE('',#1902,#184);
#51=LINE('',#1904,#185);
#52=LINE('',#1906,#186);
#53=LINE('',#1908,#187);
#54=LINE('',#1912,#188);
#55=LINE('',#1914,#189);
#56=LINE('',#1916,#190);
#57=LINE('',#1919,#191);
#58=LINE('',#1921,#192);
#59=LINE('',#1923,#193);
#60=LINE('',#1925,#194);
#61=LINE('',#1929,#195);
#62=LINE('',#1931,#196);
#63=LINE('',#1935,#197);
#64=LINE('',#1936,#198);
#65=LINE('',#1940,#199);
#66=LINE('',#1942,#200);
#67=LINE('',#1944,#201);
#68=LINE('',#1946,#202);
#69=LINE('',#1948,#203);
#70=LINE('',#1952,#204);
#71=LINE('',#1953,#205);
#72=LINE('',#1955,#206);
#73=LINE('',#1957,#207);
#74=LINE('',#1959,#208);
#75=LINE('',#1961,#209);
#76=LINE('',#1963,#210);
#77=LINE('',#1965,#211);
#78=LINE('',#1967,#212);
#79=LINE('',#1969,#213);
#80=LINE('',#1970,#214);
#81=LINE('',#1972,#215);
#82=LINE('',#1974,#216);
#83=LINE('',#1976,#217);
#84=LINE('',#1978,#218);
#85=LINE('',#1980,#219);
#86=LINE('',#1982,#220);
#87=LINE('',#1984,#221);
#88=LINE('',#1986,#222);
#89=LINE('',#1988,#223);
#90=LINE('',#1989,#224);
#91=LINE('',#1991,#225);
#92=LINE('',#1993,#226);
#93=LINE('',#1995,#227);
#94=LINE('',#1999,#228);
#95=LINE('',#2001,#229);
#96=LINE('',#2003,#230);
#97=LINE('',#2007,#231);
#98=LINE('',#2009,#232);
#99=LINE('',#2011,#233);
#100=LINE('',#2015,#234);
#101=LINE('',#2017,#235);
#102=LINE('',#2019,#236);
#103=LINE('',#2023,#237);
#104=LINE('',#2041,#238);
#105=LINE('',#2046,#239);
#106=LINE('',#2047,#240);
#107=LINE('',#2051,#241);
#108=LINE('',#2055,#242);
#109=LINE('',#2056,#243);
#110=LINE('',#2060,#244);
#111=LINE('',#2062,#245);
#112=LINE('',#2064,#246);
#113=LINE('',#2069,#247);
#114=LINE('',#2072,#248);
#115=LINE('',#2073,#249);
#116=LINE('',#2078,#250);
#117=LINE('',#2080,#251);
#118=LINE('',#2082,#252);
#119=LINE('',#2085,#253);
#120=LINE('',#2086,#254);
#121=LINE('',#2091,#255);
#122=LINE('',#2093,#256);
#123=LINE('',#2098,#257);
#124=LINE('',#2100,#258);
#125=LINE('',#2103,#259);
#126=LINE('',#2104,#260);
#127=LINE('',#2109,#261);
#128=LINE('',#2111,#262);
#129=LINE('',#2113,#263);
#130=LINE('',#2118,#264);
#131=LINE('',#2120,#265);
#132=LINE('',#2122,#266);
#133=LINE('',#2124,#267);
#134=LINE('',#2126,#268);
#135=LINE('',#2128,#269);
#136=LINE('',#2130,#270);
#137=LINE('',#2138,#271);
#138=LINE('',#2148,#272);
#139=LINE('',#2149,#273);
#140=LINE('',#2153,#274);
#141=LINE('',#2155,#275);
#142=LINE('',#2156,#276);
#143=LINE('',#2158,#277);
#144=LINE('',#2160,#278);
#145=LINE('',#2164,#279);
#146=LINE('',#2165,#280);
#147=LINE('',#2167,#281);
#148=LINE('',#2168,#282);
#149=LINE('',#2170,#283);
#150=LINE('',#2171,#284);
#151=LINE('',#2175,#285);
#152=LINE('',#2177,#286);
#153=LINE('',#2179,#287);
#154=LINE('',#2185,#288);
#155=LINE('',#2187,#289);
#156=LINE('',#2190,#290);
#157=LINE('',#2192,#291);
#158=LINE('',#2196,#292);
#159=LINE('',#2200,#293);
#160=LINE('',#2207,#294);
#161=LINE('',#2209,#295);
#162=LINE('',#2215,#296);
#163=LINE('',#2217,#297);
#164=LINE('',#2229,#298);
#165=LINE('',#2231,#299);
#166=LINE('',#2237,#300);
#167=LINE('',#2239,#301);
#168=LINE('',#2245,#302);
#169=LINE('',#2246,#303);
#170=LINE('',#2250,#304);
#171=LINE('',#2251,#305);
#172=VECTOR('',#1501,1.);
#173=VECTOR('',#1502,1.);
#174=VECTOR('',#1503,1.);
#175=VECTOR('',#1504,1.);
#176=VECTOR('',#1505,1.);
#177=VECTOR('',#1506,1.);
#178=VECTOR('',#1507,1.);
#179=VECTOR('',#1508,1.);
#180=VECTOR('',#1509,1.);
#181=VECTOR('',#1510,1.);
#182=VECTOR('',#1511,1.);
#183=VECTOR('',#1514,1.);
#184=VECTOR('',#1515,1.);
#185=VECTOR('',#1516,1.);
#186=VECTOR('',#1517,1.);
#187=VECTOR('',#1518,1.);
#188=VECTOR('',#1521,1.);
#189=VECTOR('',#1522,1.);
#190=VECTOR('',#1525,1.);
#191=VECTOR('',#1526,1.);
#192=VECTOR('',#1527,1.);
#193=VECTOR('',#1528,1.);
#194=VECTOR('',#1531,1.);
#195=VECTOR('',#1534,1.);
#196=VECTOR('',#1535,1.);
#197=VECTOR('',#1540,1.);
#198=VECTOR('',#1541,1.);
#199=VECTOR('',#1544,1.);
#200=VECTOR('',#1545,1.);
#201=VECTOR('',#1546,1.);
#202=VECTOR('',#1547,1.);
#203=VECTOR('',#1548,1.);
#204=VECTOR('',#1553,1.);
#205=VECTOR('',#1554,1.);
#206=VECTOR('',#1555,1.);
#207=VECTOR('',#1558,1.);
#208=VECTOR('',#1559,1.);
#209=VECTOR('',#1560,1.);
#210=VECTOR('',#1561,1.);
#211=VECTOR('',#1562,1.);
#212=VECTOR('',#1563,1.);
#213=VECTOR('',#1564,1.);
#214=VECTOR('',#1565,1.);
#215=VECTOR('',#1566,1.);
#216=VECTOR('',#1567,1.);
#217=VECTOR('',#1570,1.);
#218=VECTOR('',#1571,1.);
#219=VECTOR('',#1572,1.);
#220=VECTOR('',#1573,1.);
#221=VECTOR('',#1574,1.);
#222=VECTOR('',#1575,1.);
#223=VECTOR('',#1576,1.);
#224=VECTOR('',#1577,1.);
#225=VECTOR('',#1578,1.);
#226=VECTOR('',#1579,1.);
#227=VECTOR('',#1582,1.);
#228=VECTOR('',#1585,1.);
#229=VECTOR('',#1586,1.);
#230=VECTOR('',#1587,1.);
#231=VECTOR('',#1590,1.);
#232=VECTOR('',#1591,1.);
#233=VECTOR('',#1592,1.);
#234=VECTOR('',#1595,1.);
#235=VECTOR('',#1596,1.);
#236=VECTOR('',#1597,1.);
#237=VECTOR('',#1600,1.);
#238=VECTOR('',#1619,1.);
#239=VECTOR('',#1622,1.);
#240=VECTOR('',#1623,1.);
#241=VECTOR('',#1626,1.);
#242=VECTOR('',#1629,1.);
#243=VECTOR('',#1630,1.);
#244=VECTOR('',#1635,1.);
#245=VECTOR('',#1636,1.);
#246=VECTOR('',#1637,1.);
#247=VECTOR('',#1644,1.);
#248=VECTOR('',#1645,1.);
#249=VECTOR('',#1646,1.);
#250=VECTOR('',#1653,1.);
#251=VECTOR('',#1654,1.);
#252=VECTOR('',#1657,1.);
#253=VECTOR('',#1658,1.);
#254=VECTOR('',#1659,1.);
#255=VECTOR('',#1666,1.);
#256=VECTOR('',#1667,1.);
#257=VECTOR('',#1674,1.);
#258=VECTOR('',#1677,1.);
#259=VECTOR('',#1678,1.);
#260=VECTOR('',#1679,1.);
#261=VECTOR('',#1686,1.);
#262=VECTOR('',#1687,1.);
#263=VECTOR('',#1688,1.);
#264=VECTOR('',#1695,1.);
#265=VECTOR('',#1696,1.);
#266=VECTOR('',#1699,1.);
#267=VECTOR('',#1700,1.);
#268=VECTOR('',#1701,1.);
#269=VECTOR('',#1704,1.);
#270=VECTOR('',#1705,1.);
#271=VECTOR('',#1716,1.);
#272=VECTOR('',#1735,1.);
#273=VECTOR('',#1736,1.);
#274=VECTOR('',#1743,1.);
#275=VECTOR('',#1744,1.);
#276=VECTOR('',#1745,1.);
#277=VECTOR('',#1746,1.);
#278=VECTOR('',#1749,1.);
#279=VECTOR('',#1752,1.);
#280=VECTOR('',#1753,1.);
#281=VECTOR('',#1754,1.);
#282=VECTOR('',#1755,1.);
#283=VECTOR('',#1756,1.);
#284=VECTOR('',#1757,1.);
#285=VECTOR('',#1760,1.);
#286=VECTOR('',#1763,1.);
#287=VECTOR('',#1764,1.);
#288=VECTOR('',#1771,1.);
#289=VECTOR('',#1774,1.);
#290=VECTOR('',#1779,1.);
#291=VECTOR('',#1780,1.);
#292=VECTOR('',#1785,1.);
#293=VECTOR('',#1790,1.);
#294=VECTOR('',#1799,1.);
#295=VECTOR('',#1802,1.);
#296=VECTOR('',#1809,1.);
#297=VECTOR('',#1812,1.);
#298=VECTOR('',#1831,1.);
#299=VECTOR('',#1834,1.);
#300=VECTOR('',#1841,1.);
#301=VECTOR('',#1844,1.);
#302=VECTOR('',#1855,1.);
#303=VECTOR('',#1856,1.);
#304=VECTOR('',#1863,1.);
#305=VECTOR('',#1864,1.);
#306=ORIENTED_EDGE('',*,*,#674,.F.);
#307=ORIENTED_EDGE('',*,*,#675,.F.);
#308=ORIENTED_EDGE('',*,*,#676,.F.);
#309=ORIENTED_EDGE('',*,*,#677,.T.);
#310=ORIENTED_EDGE('',*,*,#678,.T.);
#311=ORIENTED_EDGE('',*,*,#679,.F.);
#312=ORIENTED_EDGE('',*,*,#680,.F.);
#313=ORIENTED_EDGE('',*,*,#681,.T.);
#314=ORIENTED_EDGE('',*,*,#682,.T.);
#315=ORIENTED_EDGE('',*,*,#683,.F.);
#316=ORIENTED_EDGE('',*,*,#684,.F.);
#317=ORIENTED_EDGE('',*,*,#685,.F.);
#318=ORIENTED_EDGE('',*,*,#686,.F.);
#319=ORIENTED_EDGE('',*,*,#687,.T.);
#320=ORIENTED_EDGE('',*,*,#688,.T.);
#321=ORIENTED_EDGE('',*,*,#689,.F.);
#322=ORIENTED_EDGE('',*,*,#690,.T.);
#323=ORIENTED_EDGE('',*,*,#691,.T.);
#324=ORIENTED_EDGE('',*,*,#692,.F.);
#325=ORIENTED_EDGE('',*,*,#693,.T.);
#326=ORIENTED_EDGE('',*,*,#694,.T.);
#327=ORIENTED_EDGE('',*,*,#695,.T.);
#328=ORIENTED_EDGE('',*,*,#696,.F.);
#329=ORIENTED_EDGE('',*,*,#697,.F.);
#330=ORIENTED_EDGE('',*,*,#698,.T.);
#331=ORIENTED_EDGE('',*,*,#699,.T.);
#332=ORIENTED_EDGE('',*,*,#700,.F.);
#333=ORIENTED_EDGE('',*,*,#701,.F.);
#334=ORIENTED_EDGE('',*,*,#702,.T.);
#335=ORIENTED_EDGE('',*,*,#703,.F.);
#336=ORIENTED_EDGE('',*,*,#678,.F.);
#337=ORIENTED_EDGE('',*,*,#704,.F.);
#338=ORIENTED_EDGE('',*,*,#705,.T.);
#339=ORIENTED_EDGE('',*,*,#699,.F.);
#340=ORIENTED_EDGE('',*,*,#706,.F.);
#341=ORIENTED_EDGE('',*,*,#707,.F.);
#342=ORIENTED_EDGE('',*,*,#708,.T.);
#343=ORIENTED_EDGE('',*,*,#709,.T.);
#344=ORIENTED_EDGE('',*,*,#710,.T.);
#345=ORIENTED_EDGE('',*,*,#711,.F.);
#346=ORIENTED_EDGE('',*,*,#712,.T.);
#347=ORIENTED_EDGE('',*,*,#713,.F.);
#348=ORIENTED_EDGE('',*,*,#714,.T.);
#349=ORIENTED_EDGE('',*,*,#682,.F.);
#350=ORIENTED_EDGE('',*,*,#715,.T.);
#351=ORIENTED_EDGE('',*,*,#716,.T.);
#352=ORIENTED_EDGE('',*,*,#717,.T.);
#353=ORIENTED_EDGE('',*,*,#718,.T.);
#354=ORIENTED_EDGE('',*,*,#719,.F.);
#355=ORIENTED_EDGE('',*,*,#720,.F.);
#356=ORIENTED_EDGE('',*,*,#721,.T.);
#357=ORIENTED_EDGE('',*,*,#722,.F.);
#358=ORIENTED_EDGE('',*,*,#723,.F.);
#359=ORIENTED_EDGE('',*,*,#689,.T.);
#360=ORIENTED_EDGE('',*,*,#724,.F.);
#361=ORIENTED_EDGE('',*,*,#725,.F.);
#362=ORIENTED_EDGE('',*,*,#726,.F.);
#363=ORIENTED_EDGE('',*,*,#685,.T.);
#364=ORIENTED_EDGE('',*,*,#727,.T.);
#365=ORIENTED_EDGE('',*,*,#728,.T.);
#366=ORIENTED_EDGE('',*,*,#729,.F.);
#367=ORIENTED_EDGE('',*,*,#730,.T.);
#368=ORIENTED_EDGE('',*,*,#731,.T.);
#369=ORIENTED_EDGE('',*,*,#732,.F.);
#370=ORIENTED_EDGE('',*,*,#733,.F.);
#371=ORIENTED_EDGE('',*,*,#695,.F.);
#372=ORIENTED_EDGE('',*,*,#734,.F.);
#373=ORIENTED_EDGE('',*,*,#735,.F.);
#374=ORIENTED_EDGE('',*,*,#736,.F.);
#375=ORIENTED_EDGE('',*,*,#691,.F.);
#376=ORIENTED_EDGE('',*,*,#710,.F.);
#377=ORIENTED_EDGE('',*,*,#737,.F.);
#378=ORIENTED_EDGE('',*,*,#738,.T.);
#379=ORIENTED_EDGE('',*,*,#739,.T.);
#380=ORIENTED_EDGE('',*,*,#740,.F.);
#381=ORIENTED_EDGE('',*,*,#741,.F.);
#382=ORIENTED_EDGE('',*,*,#742,.T.);
#383=ORIENTED_EDGE('',*,*,#743,.F.);
#384=ORIENTED_EDGE('',*,*,#744,.T.);
#385=ORIENTED_EDGE('',*,*,#745,.F.);
#386=ORIENTED_EDGE('',*,*,#746,.T.);
#387=ORIENTED_EDGE('',*,*,#747,.T.);
#388=ORIENTED_EDGE('',*,*,#748,.T.);
#389=ORIENTED_EDGE('',*,*,#749,.F.);
#390=ORIENTED_EDGE('',*,*,#750,.T.);
#391=ORIENTED_EDGE('',*,*,#751,.F.);
#392=ORIENTED_EDGE('',*,*,#752,.T.);
#393=ORIENTED_EDGE('',*,*,#753,.T.);
#394=ORIENTED_EDGE('',*,*,#754,.T.);
#395=ORIENTED_EDGE('',*,*,#755,.T.);
#396=ORIENTED_EDGE('',*,*,#756,.T.);
#397=ORIENTED_EDGE('',*,*,#757,.T.);
#398=ORIENTED_EDGE('',*,*,#758,.T.);
#399=ORIENTED_EDGE('',*,*,#759,.T.);
#400=ORIENTED_EDGE('',*,*,#760,.T.);
#401=ORIENTED_EDGE('',*,*,#761,.T.);
#402=ORIENTED_EDGE('',*,*,#762,.T.);
#403=ORIENTED_EDGE('',*,*,#730,.F.);
#404=ORIENTED_EDGE('',*,*,#763,.F.);
#405=ORIENTED_EDGE('',*,*,#764,.T.);
#406=ORIENTED_EDGE('',*,*,#765,.F.);
#407=ORIENTED_EDGE('',*,*,#766,.T.);
#408=ORIENTED_EDGE('',*,*,#767,.T.);
#409=ORIENTED_EDGE('',*,*,#720,.T.);
#410=ORIENTED_EDGE('',*,*,#768,.F.);
#411=ORIENTED_EDGE('',*,*,#769,.T.);
#412=ORIENTED_EDGE('',*,*,#743,.T.);
#413=ORIENTED_EDGE('',*,*,#770,.T.);
#414=ORIENTED_EDGE('',*,*,#771,.T.);
#415=ORIENTED_EDGE('',*,*,#772,.T.);
#416=ORIENTED_EDGE('',*,*,#773,.T.);
#417=ORIENTED_EDGE('',*,*,#758,.F.);
#418=ORIENTED_EDGE('',*,*,#774,.F.);
#419=ORIENTED_EDGE('',*,*,#775,.T.);
#420=ORIENTED_EDGE('',*,*,#741,.T.);
#421=ORIENTED_EDGE('',*,*,#776,.F.);
#422=ORIENTED_EDGE('',*,*,#777,.T.);
#423=ORIENTED_EDGE('',*,*,#771,.F.);
#424=ORIENTED_EDGE('',*,*,#778,.T.);
#425=ORIENTED_EDGE('',*,*,#774,.T.);
#426=ORIENTED_EDGE('',*,*,#779,.F.);
#427=ORIENTED_EDGE('',*,*,#780,.T.);
#428=ORIENTED_EDGE('',*,*,#781,.F.);
#429=ORIENTED_EDGE('',*,*,#782,.T.);
#430=ORIENTED_EDGE('',*,*,#749,.T.);
#431=ORIENTED_EDGE('',*,*,#783,.F.);
#432=ORIENTED_EDGE('',*,*,#784,.T.);
#433=ORIENTED_EDGE('',*,*,#756,.F.);
#434=ORIENTED_EDGE('',*,*,#751,.T.);
#435=ORIENTED_EDGE('',*,*,#785,.T.);
#436=ORIENTED_EDGE('',*,*,#786,.T.);
#437=ORIENTED_EDGE('',*,*,#711,.T.);
#438=ORIENTED_EDGE('',*,*,#787,.T.);
#439=ORIENTED_EDGE('',*,*,#786,.F.);
#440=ORIENTED_EDGE('',*,*,#788,.T.);
#441=ORIENTED_EDGE('',*,*,#781,.T.);
#442=ORIENTED_EDGE('',*,*,#789,.T.);
#443=ORIENTED_EDGE('',*,*,#702,.F.);
#444=ORIENTED_EDGE('',*,*,#712,.F.);
#445=ORIENTED_EDGE('',*,*,#790,.T.);
#446=ORIENTED_EDGE('',*,*,#791,.T.);
#447=ORIENTED_EDGE('',*,*,#745,.T.);
#448=ORIENTED_EDGE('',*,*,#792,.F.);
#449=ORIENTED_EDGE('',*,*,#793,.T.);
#450=ORIENTED_EDGE('',*,*,#757,.F.);
#451=ORIENTED_EDGE('',*,*,#747,.F.);
#452=ORIENTED_EDGE('',*,*,#794,.T.);
#453=ORIENTED_EDGE('',*,*,#795,.T.);
#454=ORIENTED_EDGE('',*,*,#796,.T.);
#455=ORIENTED_EDGE('',*,*,#797,.T.);
#456=ORIENTED_EDGE('',*,*,#795,.F.);
#457=ORIENTED_EDGE('',*,*,#798,.T.);
#458=ORIENTED_EDGE('',*,*,#790,.F.);
#459=ORIENTED_EDGE('',*,*,#799,.T.);
#460=ORIENTED_EDGE('',*,*,#800,.T.);
#461=ORIENTED_EDGE('',*,*,#739,.F.);
#462=ORIENTED_EDGE('',*,*,#801,.T.);
#463=ORIENTED_EDGE('',*,*,#802,.T.);
#464=ORIENTED_EDGE('',*,*,#803,.T.);
#465=ORIENTED_EDGE('',*,*,#804,.T.);
#466=ORIENTED_EDGE('',*,*,#805,.T.);
#467=ORIENTED_EDGE('',*,*,#737,.T.);
#468=ORIENTED_EDGE('',*,*,#709,.F.);
#469=ORIENTED_EDGE('',*,*,#806,.T.);
#470=ORIENTED_EDGE('',*,*,#759,.F.);
#471=ORIENTED_EDGE('',*,*,#807,.T.);
#472=ORIENTED_EDGE('',*,*,#802,.F.);
#473=ORIENTED_EDGE('',*,*,#808,.T.);
#474=ORIENTED_EDGE('',*,*,#804,.F.);
#475=ORIENTED_EDGE('',*,*,#708,.F.);
#476=ORIENTED_EDGE('',*,*,#716,.F.);
#477=ORIENTED_EDGE('',*,*,#809,.F.);
#478=ORIENTED_EDGE('',*,*,#788,.F.);
#479=ORIENTED_EDGE('',*,*,#785,.F.);
#480=ORIENTED_EDGE('',*,*,#750,.F.);
#481=ORIENTED_EDGE('',*,*,#782,.F.);
#482=ORIENTED_EDGE('',*,*,#798,.F.);
#483=ORIENTED_EDGE('',*,*,#794,.F.);
#484=ORIENTED_EDGE('',*,*,#746,.F.);
#485=ORIENTED_EDGE('',*,*,#791,.F.);
#486=ORIENTED_EDGE('',*,*,#808,.F.);
#487=ORIENTED_EDGE('',*,*,#801,.F.);
#488=ORIENTED_EDGE('',*,*,#738,.F.);
#489=ORIENTED_EDGE('',*,*,#805,.F.);
#490=ORIENTED_EDGE('',*,*,#778,.F.);
#491=ORIENTED_EDGE('',*,*,#770,.F.);
#492=ORIENTED_EDGE('',*,*,#742,.F.);
#493=ORIENTED_EDGE('',*,*,#775,.F.);
#494=ORIENTED_EDGE('',*,*,#797,.F.);
#495=ORIENTED_EDGE('',*,*,#793,.F.);
#496=ORIENTED_EDGE('',*,*,#787,.F.);
#497=ORIENTED_EDGE('',*,*,#784,.F.);
#498=ORIENTED_EDGE('',*,*,#807,.F.);
#499=ORIENTED_EDGE('',*,*,#806,.F.);
#500=ORIENTED_EDGE('',*,*,#777,.F.);
#501=ORIENTED_EDGE('',*,*,#773,.F.);
#502=ORIENTED_EDGE('',*,*,#799,.F.);
#503=ORIENTED_EDGE('',*,*,#792,.T.);
#504=ORIENTED_EDGE('',*,*,#744,.F.);
#505=ORIENTED_EDGE('',*,*,#772,.F.);
#506=ORIENTED_EDGE('',*,*,#780,.F.);
#507=ORIENTED_EDGE('',*,*,#810,.F.);
#508=ORIENTED_EDGE('',*,*,#680,.T.);
#509=ORIENTED_EDGE('',*,*,#811,.T.);
#510=ORIENTED_EDGE('',*,*,#789,.F.);
#511=ORIENTED_EDGE('',*,*,#783,.T.);
#512=ORIENTED_EDGE('',*,*,#748,.F.);
#513=ORIENTED_EDGE('',*,*,#796,.F.);
#514=ORIENTED_EDGE('',*,*,#800,.F.);
#515=ORIENTED_EDGE('',*,*,#811,.F.);
#516=ORIENTED_EDGE('',*,*,#679,.T.);
#517=ORIENTED_EDGE('',*,*,#703,.T.);
#518=ORIENTED_EDGE('',*,*,#810,.T.);
#519=ORIENTED_EDGE('',*,*,#779,.T.);
#520=ORIENTED_EDGE('',*,*,#776,.T.);
#521=ORIENTED_EDGE('',*,*,#740,.T.);
#522=ORIENTED_EDGE('',*,*,#803,.F.);
#523=ORIENTED_EDGE('',*,*,#809,.T.);
#524=ORIENTED_EDGE('',*,*,#715,.F.);
#525=ORIENTED_EDGE('',*,*,#681,.F.);
#526=ORIENTED_EDGE('',*,*,#765,.T.);
#527=ORIENTED_EDGE('',*,*,#812,.T.);
#528=ORIENTED_EDGE('',*,*,#813,.T.);
#529=ORIENTED_EDGE('',*,*,#727,.F.);
#530=ORIENTED_EDGE('',*,*,#690,.F.);
#531=ORIENTED_EDGE('',*,*,#723,.T.);
#532=ORIENTED_EDGE('',*,*,#814,.F.);
#533=ORIENTED_EDGE('',*,*,#815,.T.);
#534=ORIENTED_EDGE('',*,*,#816,.F.);
#535=ORIENTED_EDGE('',*,*,#817,.T.);
#536=ORIENTED_EDGE('',*,*,#818,.T.);
#537=ORIENTED_EDGE('',*,*,#676,.T.);
#538=ORIENTED_EDGE('',*,*,#733,.T.);
#539=ORIENTED_EDGE('',*,*,#819,.F.);
#540=ORIENTED_EDGE('',*,*,#820,.T.);
#541=ORIENTED_EDGE('',*,*,#760,.F.);
#542=ORIENTED_EDGE('',*,*,#821,.T.);
#543=ORIENTED_EDGE('',*,*,#822,.T.);
#544=ORIENTED_EDGE('',*,*,#717,.F.);
#545=ORIENTED_EDGE('',*,*,#684,.T.);
#546=ORIENTED_EDGE('',*,*,#823,.F.);
#547=ORIENTED_EDGE('',*,*,#824,.T.);
#548=ORIENTED_EDGE('',*,*,#825,.T.);
#549=ORIENTED_EDGE('',*,*,#697,.T.);
#550=ORIENTED_EDGE('',*,*,#826,.F.);
#551=ORIENTED_EDGE('',*,*,#827,.T.);
#552=ORIENTED_EDGE('',*,*,#692,.T.);
#553=ORIENTED_EDGE('',*,*,#736,.T.);
#554=ORIENTED_EDGE('',*,*,#828,.T.);
#555=ORIENTED_EDGE('',*,*,#829,.T.);
#556=ORIENTED_EDGE('',*,*,#826,.T.);
#557=ORIENTED_EDGE('',*,*,#735,.T.);
#558=ORIENTED_EDGE('',*,*,#830,.F.);
#559=ORIENTED_EDGE('',*,*,#694,.F.);
#560=ORIENTED_EDGE('',*,*,#831,.T.);
#561=ORIENTED_EDGE('',*,*,#830,.T.);
#562=ORIENTED_EDGE('',*,*,#734,.T.);
#563=ORIENTED_EDGE('',*,*,#828,.F.);
#564=ORIENTED_EDGE('',*,*,#675,.T.);
#565=ORIENTED_EDGE('',*,*,#832,.F.);
#566=ORIENTED_EDGE('',*,*,#833,.T.);
#567=ORIENTED_EDGE('',*,*,#686,.T.);
#568=ORIENTED_EDGE('',*,*,#726,.T.);
#569=ORIENTED_EDGE('',*,*,#834,.T.);
#570=ORIENTED_EDGE('',*,*,#835,.F.);
#571=ORIENTED_EDGE('',*,*,#836,.T.);
#572=ORIENTED_EDGE('',*,*,#832,.T.);
#573=ORIENTED_EDGE('',*,*,#725,.T.);
#574=ORIENTED_EDGE('',*,*,#688,.F.);
#575=ORIENTED_EDGE('',*,*,#837,.T.);
#576=ORIENTED_EDGE('',*,*,#835,.T.);
#577=ORIENTED_EDGE('',*,*,#724,.T.);
#578=ORIENTED_EDGE('',*,*,#834,.F.);
#579=ORIENTED_EDGE('',*,*,#674,.T.);
#580=ORIENTED_EDGE('',*,*,#838,.F.);
#581=ORIENTED_EDGE('',*,*,#839,.T.);
#582=ORIENTED_EDGE('',*,*,#814,.T.);
#583=ORIENTED_EDGE('',*,*,#722,.T.);
#584=ORIENTED_EDGE('',*,*,#840,.F.);
#585=ORIENTED_EDGE('',*,*,#767,.F.);
#586=ORIENTED_EDGE('',*,*,#841,.T.);
#587=ORIENTED_EDGE('',*,*,#840,.T.);
#588=ORIENTED_EDGE('',*,*,#721,.F.);
#589=ORIENTED_EDGE('',*,*,#842,.F.);
#590=ORIENTED_EDGE('',*,*,#843,.T.);
#591=ORIENTED_EDGE('',*,*,#844,.T.);
#592=ORIENTED_EDGE('',*,*,#718,.F.);
#593=ORIENTED_EDGE('',*,*,#822,.F.);
#594=ORIENTED_EDGE('',*,*,#844,.F.);
#595=ORIENTED_EDGE('',*,*,#845,.T.);
#596=ORIENTED_EDGE('',*,*,#768,.T.);
#597=ORIENTED_EDGE('',*,*,#719,.T.);
#598=ORIENTED_EDGE('',*,*,#766,.F.);
#599=ORIENTED_EDGE('',*,*,#815,.F.);
#600=ORIENTED_EDGE('',*,*,#839,.F.);
#601=ORIENTED_EDGE('',*,*,#841,.F.);
#602=ORIENTED_EDGE('',*,*,#821,.F.);
#603=ORIENTED_EDGE('',*,*,#769,.F.);
#604=ORIENTED_EDGE('',*,*,#845,.F.);
#605=ORIENTED_EDGE('',*,*,#843,.F.);
#606=ORIENTED_EDGE('',*,*,#831,.F.);
#607=ORIENTED_EDGE('',*,*,#693,.F.);
#608=ORIENTED_EDGE('',*,*,#827,.F.);
#609=ORIENTED_EDGE('',*,*,#829,.F.);
#610=ORIENTED_EDGE('',*,*,#833,.F.);
#611=ORIENTED_EDGE('',*,*,#836,.F.);
#612=ORIENTED_EDGE('',*,*,#837,.F.);
#613=ORIENTED_EDGE('',*,*,#687,.F.);
#614=ORIENTED_EDGE('',*,*,#842,.T.);
#615=ORIENTED_EDGE('',*,*,#755,.F.);
#616=ORIENTED_EDGE('',*,*,#838,.T.);
#617=ORIENTED_EDGE('',*,*,#754,.F.);
#618=ORIENTED_EDGE('',*,*,#846,.F.);
#619=ORIENTED_EDGE('',*,*,#847,.T.);
#620=ORIENTED_EDGE('',*,*,#819,.T.);
#621=ORIENTED_EDGE('',*,*,#732,.T.);
#622=ORIENTED_EDGE('',*,*,#848,.F.);
#623=ORIENTED_EDGE('',*,*,#762,.F.);
#624=ORIENTED_EDGE('',*,*,#849,.T.);
#625=ORIENTED_EDGE('',*,*,#848,.T.);
#626=ORIENTED_EDGE('',*,*,#731,.F.);
#627=ORIENTED_EDGE('',*,*,#850,.F.);
#628=ORIENTED_EDGE('',*,*,#851,.T.);
#629=ORIENTED_EDGE('',*,*,#852,.T.);
#630=ORIENTED_EDGE('',*,*,#728,.F.);
#631=ORIENTED_EDGE('',*,*,#813,.F.);
#632=ORIENTED_EDGE('',*,*,#852,.F.);
#633=ORIENTED_EDGE('',*,*,#853,.T.);
#634=ORIENTED_EDGE('',*,*,#763,.T.);
#635=ORIENTED_EDGE('',*,*,#729,.T.);
#636=ORIENTED_EDGE('',*,*,#850,.T.);
#637=ORIENTED_EDGE('',*,*,#753,.F.);
#638=ORIENTED_EDGE('',*,*,#846,.T.);
#639=ORIENTED_EDGE('',*,*,#752,.F.);
#640=ORIENTED_EDGE('',*,*,#761,.F.);
#641=ORIENTED_EDGE('',*,*,#820,.F.);
#642=ORIENTED_EDGE('',*,*,#847,.F.);
#643=ORIENTED_EDGE('',*,*,#849,.F.);
#644=ORIENTED_EDGE('',*,*,#812,.F.);
#645=ORIENTED_EDGE('',*,*,#764,.F.);
#646=ORIENTED_EDGE('',*,*,#853,.F.);
#647=ORIENTED_EDGE('',*,*,#851,.F.);
#648=ORIENTED_EDGE('',*,*,#713,.T.);
#649=ORIENTED_EDGE('',*,*,#707,.T.);
#650=ORIENTED_EDGE('',*,*,#854,.F.);
#651=ORIENTED_EDGE('',*,*,#824,.F.);
#652=ORIENTED_EDGE('',*,*,#855,.T.);
#653=ORIENTED_EDGE('',*,*,#706,.T.);
#654=ORIENTED_EDGE('',*,*,#698,.F.);
#655=ORIENTED_EDGE('',*,*,#825,.F.);
#656=ORIENTED_EDGE('',*,*,#854,.T.);
#657=ORIENTED_EDGE('',*,*,#714,.F.);
#658=ORIENTED_EDGE('',*,*,#855,.F.);
#659=ORIENTED_EDGE('',*,*,#823,.T.);
#660=ORIENTED_EDGE('',*,*,#683,.T.);
#661=ORIENTED_EDGE('',*,*,#704,.T.);
#662=ORIENTED_EDGE('',*,*,#701,.T.);
#663=ORIENTED_EDGE('',*,*,#856,.F.);
#664=ORIENTED_EDGE('',*,*,#817,.F.);
#665=ORIENTED_EDGE('',*,*,#857,.T.);
#666=ORIENTED_EDGE('',*,*,#700,.T.);
#667=ORIENTED_EDGE('',*,*,#677,.F.);
#668=ORIENTED_EDGE('',*,*,#818,.F.);
#669=ORIENTED_EDGE('',*,*,#856,.T.);
#670=ORIENTED_EDGE('',*,*,#705,.F.);
#671=ORIENTED_EDGE('',*,*,#857,.F.);
#672=ORIENTED_EDGE('',*,*,#816,.T.);
#673=ORIENTED_EDGE('',*,*,#696,.T.);
#674=EDGE_CURVE('',#858,#858,#988,.T.);
#675=EDGE_CURVE('',#859,#859,#989,.T.);
#676=EDGE_CURVE('',#860,#861,#38,.T.);
#677=EDGE_CURVE('',#860,#862,#39,.T.);
#678=EDGE_CURVE('',#862,#863,#40,.T.);
#679=EDGE_CURVE('',#864,#863,#41,.T.);
#680=EDGE_CURVE('',#865,#864,#42,.T.);
#681=EDGE_CURVE('',#865,#866,#43,.T.);
#682=EDGE_CURVE('',#866,#867,#44,.T.);
#683=EDGE_CURVE('',#868,#867,#45,.T.);
#684=EDGE_CURVE('',#869,#868,#46,.T.);
#685=EDGE_CURVE('',#870,#869,#47,.T.);
#686=EDGE_CURVE('',#871,#870,#48,.T.);
#687=EDGE_CURVE('',#871,#872,#990,.T.);
#688=EDGE_CURVE('',#872,#873,#49,.T.);
#689=EDGE_CURVE('',#874,#873,#50,.T.);
#690=EDGE_CURVE('',#874,#875,#51,.T.);
#691=EDGE_CURVE('',#875,#876,#52,.T.);
#692=EDGE_CURVE('',#877,#876,#53,.T.);
#693=EDGE_CURVE('',#877,#878,#991,.T.);
#694=EDGE_CURVE('',#878,#879,#54,.T.);
#695=EDGE_CURVE('',#879,#861,#55,.T.);
#696=EDGE_CURVE('',#880,#881,#56,.T.);
#697=EDGE_CURVE('',#882,#880,#57,.T.);
#698=EDGE_CURVE('',#882,#883,#58,.T.);
#699=EDGE_CURVE('',#883,#881,#59,.T.);
#700=EDGE_CURVE('',#884,#862,#60,.T.);
#701=EDGE_CURVE('',#885,#884,#992,.T.);
#702=EDGE_CURVE('',#885,#886,#61,.T.);
#703=EDGE_CURVE('',#863,#886,#62,.T.);
#704=EDGE_CURVE('',#887,#885,#993,.T.);
#705=EDGE_CURVE('',#887,#881,#63,.T.);
#706=EDGE_CURVE('',#888,#883,#64,.T.);
#707=EDGE_CURVE('',#889,#888,#994,.T.);
#708=EDGE_CURVE('',#889,#890,#65,.T.);
#709=EDGE_CURVE('',#890,#891,#66,.T.);
#710=EDGE_CURVE('',#891,#892,#67,.T.);
#711=EDGE_CURVE('',#893,#892,#68,.T.);
#712=EDGE_CURVE('',#893,#885,#69,.T.);
#713=EDGE_CURVE('',#894,#889,#995,.T.);
#714=EDGE_CURVE('',#894,#867,#70,.T.);
#715=EDGE_CURVE('',#866,#895,#71,.T.);
#716=EDGE_CURVE('',#895,#889,#72,.T.);
#717=EDGE_CURVE('',#869,#896,#73,.T.);
#718=EDGE_CURVE('',#896,#897,#74,.T.);
#719=EDGE_CURVE('',#898,#897,#75,.T.);
#720=EDGE_CURVE('',#899,#898,#76,.T.);
#721=EDGE_CURVE('',#899,#900,#77,.T.);
#722=EDGE_CURVE('',#901,#900,#78,.T.);
#723=EDGE_CURVE('',#874,#901,#79,.T.);
#724=EDGE_CURVE('',#902,#873,#80,.T.);
#725=EDGE_CURVE('',#903,#902,#81,.T.);
#726=EDGE_CURVE('',#870,#903,#82,.T.);
#727=EDGE_CURVE('',#875,#904,#83,.T.);
#728=EDGE_CURVE('',#904,#905,#84,.T.);
#729=EDGE_CURVE('',#906,#905,#85,.T.);
#730=EDGE_CURVE('',#906,#907,#86,.T.);
#731=EDGE_CURVE('',#907,#908,#87,.T.);
#732=EDGE_CURVE('',#909,#908,#88,.T.);
#733=EDGE_CURVE('',#861,#909,#89,.T.);
#734=EDGE_CURVE('',#910,#879,#90,.T.);
#735=EDGE_CURVE('',#911,#910,#91,.T.);
#736=EDGE_CURVE('',#876,#911,#92,.T.);
#737=EDGE_CURVE('',#912,#891,#93,.T.);
#738=EDGE_CURVE('',#912,#913,#996,.F.);
#739=EDGE_CURVE('',#913,#914,#94,.T.);
#740=EDGE_CURVE('',#915,#914,#95,.T.);
#741=EDGE_CURVE('',#916,#915,#96,.T.);
#742=EDGE_CURVE('',#916,#917,#997,.F.);
#743=EDGE_CURVE('',#918,#917,#97,.T.);
#744=EDGE_CURVE('',#918,#919,#98,.T.);
#745=EDGE_CURVE('',#920,#919,#99,.T.);
#746=EDGE_CURVE('',#920,#921,#998,.F.);
#747=EDGE_CURVE('',#921,#922,#100,.T.);
#748=EDGE_CURVE('',#922,#923,#101,.T.);
#749=EDGE_CURVE('',#924,#923,#102,.T.);
#750=EDGE_CURVE('',#924,#925,#999,.F.);
#751=EDGE_CURVE('',#892,#925,#103,.T.);
#752=EDGE_CURVE('',#926,#926,#1000,.T.);
#753=EDGE_CURVE('',#927,#927,#1001,.T.);
#754=EDGE_CURVE('',#928,#928,#1002,.T.);
#755=EDGE_CURVE('',#929,#929,#1003,.T.);
#756=EDGE_CURVE('',#930,#930,#1004,.T.);
#757=EDGE_CURVE('',#931,#931,#1005,.T.);
#758=EDGE_CURVE('',#932,#932,#1006,.T.);
#759=EDGE_CURVE('',#933,#933,#1007,.T.);
#760=EDGE_CURVE('',#934,#935,#104,.T.);
#761=EDGE_CURVE('',#935,#936,#1008,.F.);
#762=EDGE_CURVE('',#936,#907,#105,.T.);
#763=EDGE_CURVE('',#937,#906,#106,.T.);
#764=EDGE_CURVE('',#937,#938,#1009,.F.);
#765=EDGE_CURVE('',#939,#938,#107,.T.);
#766=EDGE_CURVE('',#939,#940,#1010,.F.);
#767=EDGE_CURVE('',#940,#899,#108,.T.);
#768=EDGE_CURVE('',#941,#898,#109,.T.);
#769=EDGE_CURVE('',#941,#934,#1011,.F.);
#770=EDGE_CURVE('',#917,#942,#110,.F.);
#771=EDGE_CURVE('',#942,#943,#111,.T.);
#772=EDGE_CURVE('',#943,#918,#112,.T.);
#773=EDGE_CURVE('',#944,#944,#1012,.T.);
#774=EDGE_CURVE('',#945,#946,#113,.T.);
#775=EDGE_CURVE('',#945,#916,#114,.T.);
#776=EDGE_CURVE('',#946,#915,#115,.T.);
#777=EDGE_CURVE('',#947,#947,#1013,.F.);
#778=EDGE_CURVE('',#942,#945,#1014,.T.);
#779=EDGE_CURVE('',#948,#946,#116,.T.);
#780=EDGE_CURVE('',#948,#943,#117,.T.);
#781=EDGE_CURVE('',#949,#950,#118,.T.);
#782=EDGE_CURVE('',#949,#924,#119,.T.);
#783=EDGE_CURVE('',#950,#923,#120,.T.);
#784=EDGE_CURVE('',#951,#951,#1015,.T.);
#785=EDGE_CURVE('',#925,#952,#121,.F.);
#786=EDGE_CURVE('',#952,#893,#122,.T.);
#787=EDGE_CURVE('',#953,#953,#1016,.F.);
#788=EDGE_CURVE('',#952,#949,#1017,.T.);
#789=EDGE_CURVE('',#950,#886,#123,.T.);
#790=EDGE_CURVE('',#954,#955,#124,.T.);
#791=EDGE_CURVE('',#955,#920,#125,.T.);
#792=EDGE_CURVE('',#954,#919,#126,.T.);
#793=EDGE_CURVE('',#956,#956,#1018,.T.);
#794=EDGE_CURVE('',#921,#957,#127,.F.);
#795=EDGE_CURVE('',#957,#958,#128,.T.);
#796=EDGE_CURVE('',#958,#922,#129,.T.);
#797=EDGE_CURVE('',#959,#959,#1019,.F.);
#798=EDGE_CURVE('',#957,#955,#1020,.T.);
#799=EDGE_CURVE('',#954,#960,#130,.T.);
#800=EDGE_CURVE('',#960,#958,#131,.T.);
#801=EDGE_CURVE('',#913,#961,#132,.F.);
#802=EDGE_CURVE('',#961,#962,#133,.T.);
#803=EDGE_CURVE('',#962,#914,#134,.T.);
#804=EDGE_CURVE('',#890,#963,#135,.T.);
#805=EDGE_CURVE('',#963,#912,#136,.T.);
#806=EDGE_CURVE('',#964,#964,#1021,.T.);
#807=EDGE_CURVE('',#965,#965,#1022,.F.);
#808=EDGE_CURVE('',#961,#963,#1023,.T.);
#809=EDGE_CURVE('',#962,#895,#137,.T.);
#810=EDGE_CURVE('',#865,#948,#138,.T.);
#811=EDGE_CURVE('',#864,#960,#139,.T.);
#812=EDGE_CURVE('',#938,#966,#140,.F.);
#813=EDGE_CURVE('',#966,#904,#141,.T.);
#814=EDGE_CURVE('',#967,#901,#142,.T.);
#815=EDGE_CURVE('',#967,#939,#143,.T.);
#816=EDGE_CURVE('',#968,#880,#144,.T.);
#817=EDGE_CURVE('',#968,#969,#1024,.T.);
#818=EDGE_CURVE('',#969,#860,#145,.T.);
#819=EDGE_CURVE('',#970,#909,#146,.T.);
#820=EDGE_CURVE('',#970,#935,#147,.T.);
#821=EDGE_CURVE('',#934,#971,#148,.F.);
#822=EDGE_CURVE('',#971,#896,#149,.T.);
#823=EDGE_CURVE('',#972,#868,#150,.T.);
#824=EDGE_CURVE('',#972,#973,#1025,.T.);
#825=EDGE_CURVE('',#973,#882,#151,.T.);
#826=EDGE_CURVE('',#974,#911,#152,.T.);
#827=EDGE_CURVE('',#974,#877,#153,.F.);
#828=EDGE_CURVE('',#975,#975,#1026,.T.);
#829=EDGE_CURVE('',#976,#974,#1027,.F.);
#830=EDGE_CURVE('',#976,#910,#154,.T.);
#831=EDGE_CURVE('',#878,#976,#155,.F.);
#832=EDGE_CURVE('',#977,#903,#156,.T.);
#833=EDGE_CURVE('',#977,#871,#157,.F.);
#834=EDGE_CURVE('',#978,#978,#1028,.T.);
#835=EDGE_CURVE('',#979,#902,#158,.T.);
#836=EDGE_CURVE('',#979,#977,#1029,.F.);
#837=EDGE_CURVE('',#872,#979,#159,.F.);
#838=EDGE_CURVE('',#980,#980,#1030,.T.);
#839=EDGE_CURVE('',#981,#967,#1031,.F.);
#840=EDGE_CURVE('',#981,#900,#160,.T.);
#841=EDGE_CURVE('',#940,#981,#161,.T.);
#842=EDGE_CURVE('',#982,#982,#1032,.T.);
#843=EDGE_CURVE('',#971,#983,#1033,.T.);
#844=EDGE_CURVE('',#983,#897,#162,.T.);
#845=EDGE_CURVE('',#983,#941,#163,.F.);
#846=EDGE_CURVE('',#984,#984,#1034,.T.);
#847=EDGE_CURVE('',#985,#970,#1035,.F.);
#848=EDGE_CURVE('',#985,#908,#164,.T.);
#849=EDGE_CURVE('',#936,#985,#165,.T.);
#850=EDGE_CURVE('',#986,#986,#1036,.T.);
#851=EDGE_CURVE('',#966,#987,#1037,.T.);
#852=EDGE_CURVE('',#987,#905,#166,.T.);
#853=EDGE_CURVE('',#987,#937,#167,.F.);
#854=EDGE_CURVE('',#973,#888,#168,.T.);
#855=EDGE_CURVE('',#972,#894,#169,.T.);
#856=EDGE_CURVE('',#969,#884,#170,.T.);
#857=EDGE_CURVE('',#968,#887,#171,.T.);
#858=VERTEX_POINT('',#1872);
#859=VERTEX_POINT('',#1874);
#860=VERTEX_POINT('',#1876);
#861=VERTEX_POINT('',#1877);
#862=VERTEX_POINT('',#1879);
#863=VERTEX_POINT('',#1881);
#864=VERTEX_POINT('',#1883);
#865=VERTEX_POINT('',#1885);
#866=VERTEX_POINT('',#1887);
#867=VERTEX_POINT('',#1889);
#868=VERTEX_POINT('',#1891);
#869=VERTEX_POINT('',#1893);
#870=VERTEX_POINT('',#1895);
#871=VERTEX_POINT('',#1897);
#872=VERTEX_POINT('',#1899);
#873=VERTEX_POINT('',#1901);
#874=VERTEX_POINT('',#1903);
#875=VERTEX_POINT('',#1905);
#876=VERTEX_POINT('',#1907);
#877=VERTEX_POINT('',#1909);
#878=VERTEX_POINT('',#1911);
#879=VERTEX_POINT('',#1913);
#880=VERTEX_POINT('',#1917);
#881=VERTEX_POINT('',#1918);
#882=VERTEX_POINT('',#1920);
#883=VERTEX_POINT('',#1922);
#884=VERTEX_POINT('',#1926);
#885=VERTEX_POINT('',#1928);
#886=VERTEX_POINT('',#1930);
#887=VERTEX_POINT('',#1934);
#888=VERTEX_POINT('',#1937);
#889=VERTEX_POINT('',#1939);
#890=VERTEX_POINT('',#1941);
#891=VERTEX_POINT('',#1943);
#892=VERTEX_POINT('',#1945);
#893=VERTEX_POINT('',#1947);
#894=VERTEX_POINT('',#1951);
#895=VERTEX_POINT('',#1954);
#896=VERTEX_POINT('',#1958);
#897=VERTEX_POINT('',#1960);
#898=VERTEX_POINT('',#1962);
#899=VERTEX_POINT('',#1964);
#900=VERTEX_POINT('',#1966);
#901=VERTEX_POINT('',#1968);
#902=VERTEX_POINT('',#1971);
#903=VERTEX_POINT('',#1973);
#904=VERTEX_POINT('',#1977);
#905=VERTEX_POINT('',#1979);
#906=VERTEX_POINT('',#1981);
#907=VERTEX_POINT('',#1983);
#908=VERTEX_POINT('',#1985);
#909=VERTEX_POINT('',#1987);
#910=VERTEX_POINT('',#1990);
#911=VERTEX_POINT('',#1992);
#912=VERTEX_POINT('',#1996);
#913=VERTEX_POINT('',#1998);
#914=VERTEX_POINT('',#2000);
#915=VERTEX_POINT('',#2002);
#916=VERTEX_POINT('',#2004);
#917=VERTEX_POINT('',#2006);
#918=VERTEX_POINT('',#2008);
#919=VERTEX_POINT('',#2010);
#920=VERTEX_POINT('',#2012);
#921=VERTEX_POINT('',#2014);
#922=VERTEX_POINT('',#2016);
#923=VERTEX_POINT('',#2018);
#924=VERTEX_POINT('',#2020);
#925=VERTEX_POINT('',#2022);
#926=VERTEX_POINT('',#2026);
#927=VERTEX_POINT('',#2028);
#928=VERTEX_POINT('',#2030);
#929=VERTEX_POINT('',#2032);
#930=VERTEX_POINT('',#2034);
#931=VERTEX_POINT('',#2036);
#932=VERTEX_POINT('',#2038);
#933=VERTEX_POINT('',#2040);
#934=VERTEX_POINT('',#2042);
#935=VERTEX_POINT('',#2043);
#936=VERTEX_POINT('',#2045);
#937=VERTEX_POINT('',#2048);
#938=VERTEX_POINT('',#2050);
#939=VERTEX_POINT('',#2052);
#940=VERTEX_POINT('',#2054);
#941=VERTEX_POINT('',#2057);
#942=VERTEX_POINT('',#2061);
#943=VERTEX_POINT('',#2063);
#944=VERTEX_POINT('',#2067);
#945=VERTEX_POINT('',#2070);
#946=VERTEX_POINT('',#2071);
#947=VERTEX_POINT('',#2076);
#948=VERTEX_POINT('',#2079);
#949=VERTEX_POINT('',#2083);
#950=VERTEX_POINT('',#2084);
#951=VERTEX_POINT('',#2089);
#952=VERTEX_POINT('',#2092);
#953=VERTEX_POINT('',#2096);
#954=VERTEX_POINT('',#2101);
#955=VERTEX_POINT('',#2102);
#956=VERTEX_POINT('',#2107);
#957=VERTEX_POINT('',#2110);
#958=VERTEX_POINT('',#2112);
#959=VERTEX_POINT('',#2116);
#960=VERTEX_POINT('',#2119);
#961=VERTEX_POINT('',#2123);
#962=VERTEX_POINT('',#2125);
#963=VERTEX_POINT('',#2129);
#964=VERTEX_POINT('',#2133);
#965=VERTEX_POINT('',#2136);
#966=VERTEX_POINT('',#2154);
#967=VERTEX_POINT('',#2157);
#968=VERTEX_POINT('',#2161);
#969=VERTEX_POINT('',#2163);
#970=VERTEX_POINT('',#2166);
#971=VERTEX_POINT('',#2169);
#972=VERTEX_POINT('',#2172);
#973=VERTEX_POINT('',#2174);
#974=VERTEX_POINT('',#2178);
#975=VERTEX_POINT('',#2182);
#976=VERTEX_POINT('',#2184);
#977=VERTEX_POINT('',#2191);
#978=VERTEX_POINT('',#2195);
#979=VERTEX_POINT('',#2197);
#980=VERTEX_POINT('',#2204);
#981=VERTEX_POINT('',#2206);
#982=VERTEX_POINT('',#2212);
#983=VERTEX_POINT('',#2214);
#984=VERTEX_POINT('',#2226);
#985=VERTEX_POINT('',#2228);
#986=VERTEX_POINT('',#2234);
#987=VERTEX_POINT('',#2236);
#988=CIRCLE('',#1374,0.00209);
#989=CIRCLE('',#1375,0.00209);
#990=CIRCLE('',#1376,0.004);
#991=CIRCLE('',#1377,0.004);
#992=CIRCLE('',#1380,0.005);
#993=CIRCLE('',#1382,0.005);
#994=CIRCLE('',#1383,0.005);
#995=CIRCLE('',#1385,0.005);
#996=CIRCLE('',#1389,0.005);
#997=CIRCLE('',#1390,0.005);
#998=CIRCLE('',#1391,0.005);
#999=CIRCLE('',#1392,0.005);
#1000=CIRCLE('',#1394,0.001625);
#1001=CIRCLE('',#1395,0.001625);
#1002=CIRCLE('',#1396,0.001625);
#1003=CIRCLE('',#1397,0.001625);
#1004=CIRCLE('',#1398,0.00209);
#1005=CIRCLE('',#1399,0.00209);
#1006=CIRCLE('',#1400,0.00209);
#1007=CIRCLE('',#1401,0.00209);
#1008=CIRCLE('',#1402,0.004);
#1009=CIRCLE('',#1403,0.004);
#1010=CIRCLE('',#1404,0.004);
#1011=CIRCLE('',#1405,0.004);
#1012=CIRCLE('',#1408,0.00209);
#1013=CIRCLE('',#1411,0.00309);
#1014=CIRCLE('',#1412,0.005);
#1015=CIRCLE('',#1415,0.00209);
#1016=CIRCLE('',#1418,0.00309);
#1017=CIRCLE('',#1419,0.005);
#1018=CIRCLE('',#1422,0.00209);
#1019=CIRCLE('',#1425,0.00309);
#1020=CIRCLE('',#1426,0.005);
#1021=CIRCLE('',#1430,0.00209);
#1022=CIRCLE('',#1432,0.00309);
#1023=CIRCLE('',#1433,0.005);
#1024=CIRCLE('',#1447,0.005);
#1025=CIRCLE('',#1448,0.005);
#1026=CIRCLE('',#1451,0.00209);
#1027=CIRCLE('',#1452,0.004);
#1028=CIRCLE('',#1457,0.00209);
#1029=CIRCLE('',#1458,0.004);
#1030=CIRCLE('',#1462,0.001625);
#1031=CIRCLE('',#1463,0.004);
#1032=CIRCLE('',#1466,0.001625);
#1033=CIRCLE('',#1467,0.004);
#1034=CIRCLE('',#1476,0.001625);
#1035=CIRCLE('',#1477,0.004);
#1036=CIRCLE('',#1480,0.001625);
#1037=CIRCLE('',#1481,0.004);
#1038=EDGE_LOOP('',(#306));
#1039=EDGE_LOOP('',(#307));
#1040=EDGE_LOOP('',(#308,#309,#310,#311,#312,#313,#314,#315,#316,#317,#318,
#319,#320,#321,#322,#323,#324,#325,#326,#327));
#1041=EDGE_LOOP('',(#328,#329,#330,#331));
#1042=EDGE_LOOP('',(#332,#333,#334,#335,#336));
#1043=EDGE_LOOP('',(#337,#338,#339,#340,#341,#342,#343,#344,#345,#346));
#1044=EDGE_LOOP('',(#347,#348,#349,#350,#351));
#1045=EDGE_LOOP('',(#352,#353,#354,#355,#356,#357,#358,#359,#360,#361,#362,
#363));
#1046=EDGE_LOOP('',(#364,#365,#366,#367,#368,#369,#370,#371,#372,#373,#374,
#375));
#1047=EDGE_LOOP('',(#376,#377,#378,#379,#380,#381,#382,#383,#384,#385,#386,
#387,#388,#389,#390,#391));
#1048=EDGE_LOOP('',(#392));
#1049=EDGE_LOOP('',(#393));
#1050=EDGE_LOOP('',(#394));
#1051=EDGE_LOOP('',(#395));
#1052=EDGE_LOOP('',(#396));
#1053=EDGE_LOOP('',(#397));
#1054=EDGE_LOOP('',(#398));
#1055=EDGE_LOOP('',(#399));
#1056=EDGE_LOOP('',(#400,#401,#402,#403,#404,#405,#406,#407,#408,#409,#410,
#411));
#1057=EDGE_LOOP('',(#412,#413,#414,#415));
#1058=EDGE_LOOP('',(#416));
#1059=EDGE_LOOP('',(#417));
#1060=EDGE_LOOP('',(#418,#419,#420,#421));
#1061=EDGE_LOOP('',(#422));
#1062=EDGE_LOOP('',(#423,#424,#425,#426,#427));
#1063=EDGE_LOOP('',(#428,#429,#430,#431));
#1064=EDGE_LOOP('',(#432));
#1065=EDGE_LOOP('',(#433));
#1066=EDGE_LOOP('',(#434,#435,#436,#437));
#1067=EDGE_LOOP('',(#438));
#1068=EDGE_LOOP('',(#439,#440,#441,#442,#443,#444));
#1069=EDGE_LOOP('',(#445,#446,#447,#448));
#1070=EDGE_LOOP('',(#449));
#1071=EDGE_LOOP('',(#450));
#1072=EDGE_LOOP('',(#451,#452,#453,#454));
#1073=EDGE_LOOP('',(#455));
#1074=EDGE_LOOP('',(#456,#457,#458,#459,#460));
#1075=EDGE_LOOP('',(#461,#462,#463,#464));
#1076=EDGE_LOOP('',(#465,#466,#467,#468));
#1077=EDGE_LOOP('',(#469));
#1078=EDGE_LOOP('',(#470));
#1079=EDGE_LOOP('',(#471));
#1080=EDGE_LOOP('',(#472,#473,#474,#475,#476,#477));
#1081=EDGE_LOOP('',(#478,#479,#480,#481));
#1082=EDGE_LOOP('',(#482,#483,#484,#485));
#1083=EDGE_LOOP('',(#486,#487,#488,#489));
#1084=EDGE_LOOP('',(#490,#491,#492,#493));
#1085=EDGE_LOOP('',(#494));
#1086=EDGE_LOOP('',(#495));
#1087=EDGE_LOOP('',(#496));
#1088=EDGE_LOOP('',(#497));
#1089=EDGE_LOOP('',(#498));
#1090=EDGE_LOOP('',(#499));
#1091=EDGE_LOOP('',(#500));
#1092=EDGE_LOOP('',(#501));
#1093=EDGE_LOOP('',(#502,#503,#504,#505,#506,#507,#508,#509));
#1094=EDGE_LOOP('',(#510,#511,#512,#513,#514,#515,#516,#517));
#1095=EDGE_LOOP('',(#518,#519,#520,#521,#522,#523,#524,#525));
#1096=EDGE_LOOP('',(#526,#527,#528,#529,#530,#531,#532,#533));
#1097=EDGE_LOOP('',(#534,#535,#536,#537,#538,#539,#540,#541,#542,#543,#544,
#545,#546,#547,#548,#549));
#1098=EDGE_LOOP('',(#550,#551,#552,#553));
#1099=EDGE_LOOP('',(#554));
#1100=EDGE_LOOP('',(#555,#556,#557,#558));
#1101=EDGE_LOOP('',(#559,#560,#561,#562));
#1102=EDGE_LOOP('',(#563));
#1103=EDGE_LOOP('',(#564));
#1104=EDGE_LOOP('',(#565,#566,#567,#568));
#1105=EDGE_LOOP('',(#569));
#1106=EDGE_LOOP('',(#570,#571,#572,#573));
#1107=EDGE_LOOP('',(#574,#575,#576,#577));
#1108=EDGE_LOOP('',(#578));
#1109=EDGE_LOOP('',(#579));
#1110=EDGE_LOOP('',(#580));
#1111=EDGE_LOOP('',(#581,#582,#583,#584));
#1112=EDGE_LOOP('',(#585,#586,#587,#588));
#1113=EDGE_LOOP('',(#589));
#1114=EDGE_LOOP('',(#590,#591,#592,#593));
#1115=EDGE_LOOP('',(#594,#595,#596,#597));
#1116=EDGE_LOOP('',(#598,#599,#600,#601));
#1117=EDGE_LOOP('',(#602,#603,#604,#605));
#1118=EDGE_LOOP('',(#606,#607,#608,#609));
#1119=EDGE_LOOP('',(#610,#611,#612,#613));
#1120=EDGE_LOOP('',(#614));
#1121=EDGE_LOOP('',(#615));
#1122=EDGE_LOOP('',(#616));
#1123=EDGE_LOOP('',(#617));
#1124=EDGE_LOOP('',(#618));
#1125=EDGE_LOOP('',(#619,#620,#621,#622));
#1126=EDGE_LOOP('',(#623,#624,#625,#626));
#1127=EDGE_LOOP('',(#627));
#1128=EDGE_LOOP('',(#628,#629,#630,#631));
#1129=EDGE_LOOP('',(#632,#633,#634,#635));
#1130=EDGE_LOOP('',(#636));
#1131=EDGE_LOOP('',(#637));
#1132=EDGE_LOOP('',(#638));
#1133=EDGE_LOOP('',(#639));
#1134=EDGE_LOOP('',(#640,#641,#642,#643));
#1135=EDGE_LOOP('',(#644,#645,#646,#647));
#1136=EDGE_LOOP('',(#648,#649,#650,#651,#652));
#1137=EDGE_LOOP('',(#653,#654,#655,#656));
#1138=EDGE_LOOP('',(#657,#658,#659,#660));
#1139=EDGE_LOOP('',(#661,#662,#663,#664,#665));
#1140=EDGE_LOOP('',(#666,#667,#668,#669));
#1141=EDGE_LOOP('',(#670,#671,#672,#673));
#1142=FACE_BOUND('',#1038,.T.);
#1143=FACE_BOUND('',#1039,.T.);
#1144=FACE_BOUND('',#1040,.T.);
#1145=FACE_BOUND('',#1041,.T.);
#1146=FACE_BOUND('',#1042,.T.);
#1147=FACE_BOUND('',#1043,.T.);
#1148=FACE_BOUND('',#1044,.T.);
#1149=FACE_BOUND('',#1045,.T.);
#1150=FACE_BOUND('',#1046,.T.);
#1151=FACE_BOUND('',#1047,.T.);
#1152=FACE_BOUND('',#1048,.T.);
#1153=FACE_BOUND('',#1049,.T.);
#1154=FACE_BOUND('',#1050,.T.);
#1155=FACE_BOUND('',#1051,.T.);
#1156=FACE_BOUND('',#1052,.T.);
#1157=FACE_BOUND('',#1053,.T.);
#1158=FACE_BOUND('',#1054,.T.);
#1159=FACE_BOUND('',#1055,.T.);
#1160=FACE_BOUND('',#1056,.T.);
#1161=FACE_BOUND('',#1057,.T.);
#1162=FACE_BOUND('',#1058,.T.);
#1163=FACE_BOUND('',#1059,.T.);
#1164=FACE_BOUND('',#1060,.T.);
#1165=FACE_BOUND('',#1061,.T.);
#1166=FACE_BOUND('',#1062,.T.);
#1167=FACE_BOUND('',#1063,.T.);
#1168=FACE_BOUND('',#1064,.T.);
#1169=FACE_BOUND('',#1065,.T.);
#1170=FACE_BOUND('',#1066,.T.);
#1171=FACE_BOUND('',#1067,.T.);
#1172=FACE_BOUND('',#1068,.T.);
#1173=FACE_BOUND('',#1069,.T.);
#1174=FACE_BOUND('',#1070,.T.);
#1175=FACE_BOUND('',#1071,.T.);
#1176=FACE_BOUND('',#1072,.T.);
#1177=FACE_BOUND('',#1073,.T.);
#1178=FACE_BOUND('',#1074,.T.);
#1179=FACE_BOUND('',#1075,.T.);
#1180=FACE_BOUND('',#1076,.T.);
#1181=FACE_BOUND('',#1077,.T.);
#1182=FACE_BOUND('',#1078,.T.);
#1183=FACE_BOUND('',#1079,.T.);
#1184=FACE_BOUND('',#1080,.T.);
#1185=FACE_BOUND('',#1081,.T.);
#1186=FACE_BOUND('',#1082,.T.);
#1187=FACE_BOUND('',#1083,.T.);
#1188=FACE_BOUND('',#1084,.T.);
#1189=FACE_BOUND('',#1085,.T.);
#1190=FACE_BOUND('',#1086,.T.);
#1191=FACE_BOUND('',#1087,.T.);
#1192=FACE_BOUND('',#1088,.T.);
#1193=FACE_BOUND('',#1089,.T.);
#1194=FACE_BOUND('',#1090,.T.);
#1195=FACE_BOUND('',#1091,.T.);
#1196=FACE_BOUND('',#1092,.T.);
#1197=FACE_BOUND('',#1093,.T.);
#1198=FACE_BOUND('',#1094,.T.);
#1199=FACE_BOUND('',#1095,.T.);
#1200=FACE_BOUND('',#1096,.T.);
#1201=FACE_BOUND('',#1097,.T.);
#1202=FACE_BOUND('',#1098,.T.);
#1203=FACE_BOUND('',#1099,.T.);
#1204=FACE_BOUND('',#1100,.T.);
#1205=FACE_BOUND('',#1101,.T.);
#1206=FACE_BOUND('',#1102,.T.);
#1207=FACE_BOUND('',#1103,.T.);
#1208=FACE_BOUND('',#1104,.T.);
#1209=FACE_BOUND('',#1105,.T.);
#1210=FACE_BOUND('',#1106,.T.);
#1211=FACE_BOUND('',#1107,.T.);
#1212=FACE_BOUND('',#1108,.T.);
#1213=FACE_BOUND('',#1109,.T.);
#1214=FACE_BOUND('',#1110,.T.);
#1215=FACE_BOUND('',#1111,.T.);
#1216=FACE_BOUND('',#1112,.T.);
#1217=FACE_BOUND('',#1113,.T.);
#1218=FACE_BOUND('',#1114,.T.);
#1219=FACE_BOUND('',#1115,.T.);
#1220=FACE_BOUND('',#1116,.T.);
#1221=FACE_BOUND('',#1117,.T.);
#1222=FACE_BOUND('',#1118,.T.);
#1223=FACE_BOUND('',#1119,.T.);
#1224=FACE_BOUND('',#1120,.T.);
#1225=FACE_BOUND('',#1121,.T.);
#1226=FACE_BOUND('',#1122,.T.);
#1227=FACE_BOUND('',#1123,.T.);
#1228=FACE_BOUND('',#1124,.T.);
#1229=FACE_BOUND('',#1125,.T.);
#1230=FACE_BOUND('',#1126,.T.);
#1231=FACE_BOUND('',#1127,.T.);
#1232=FACE_BOUND('',#1128,.T.);
#1233=FACE_BOUND('',#1129,.T.);
#1234=FACE_BOUND('',#1130,.T.);
#1235=FACE_BOUND('',#1131,.T.);
#1236=FACE_BOUND('',#1132,.T.);
#1237=FACE_BOUND('',#1133,.T.);
#1238=FACE_BOUND('',#1134,.T.);
#1239=FACE_BOUND('',#1135,.T.);
#1240=FACE_BOUND('',#1136,.T.);
#1241=FACE_BOUND('',#1137,.T.);
#1242=FACE_BOUND('',#1138,.T.);
#1243=FACE_BOUND('',#1139,.T.);
#1244=FACE_BOUND('',#1140,.T.);
#1245=FACE_BOUND('',#1141,.T.);
#1246=PLANE('',#1373);
#1247=PLANE('',#1378);
#1248=PLANE('',#1379);
#1249=PLANE('',#1381);
#1250=PLANE('',#1384);
#1251=PLANE('',#1386);
#1252=PLANE('',#1387);
#1253=PLANE('',#1388);
#1254=PLANE('',#1393);
#1255=PLANE('',#1406);
#1256=PLANE('',#1409);
#1257=PLANE('',#1410);
#1258=PLANE('',#1413);
#1259=PLANE('',#1416);
#1260=PLANE('',#1417);
#1261=PLANE('',#1420);
#1262=PLANE('',#1423);
#1263=PLANE('',#1424);
#1264=PLANE('',#1427);
#1265=PLANE('',#1428);
#1266=PLANE('',#1431);
#1267=PLANE('',#1442);
#1268=PLANE('',#1443);
#1269=PLANE('',#1444);
#1270=PLANE('',#1445);
#1271=PLANE('',#1446);
#1272=PLANE('',#1449);
#1273=PLANE('',#1450);
#1274=PLANE('',#1453);
#1275=PLANE('',#1455);
#1276=PLANE('',#1456);
#1277=PLANE('',#1459);
#1278=PLANE('',#1461);
#1279=PLANE('',#1464);
#1280=PLANE('',#1465);
#1281=PLANE('',#1468);
#1282=PLANE('',#1475);
#1283=PLANE('',#1478);
#1284=PLANE('',#1479);
#1285=PLANE('',#1482);
#1286=PLANE('',#1488);
#1287=PLANE('',#1489);
#1288=PLANE('',#1491);
#1289=PLANE('',#1492);
#1290=ADVANCED_FACE('',(#1142,#1143,#1144),#1246,.T.);
#1291=ADVANCED_FACE('',(#1145),#1247,.T.);
#1292=ADVANCED_FACE('',(#1146),#1248,.F.);
#1293=ADVANCED_FACE('',(#1147),#1249,.F.);
#1294=ADVANCED_FACE('',(#1148),#1250,.F.);
#1295=ADVANCED_FACE('',(#1149),#1251,.T.);
#1296=ADVANCED_FACE('',(#1150),#1252,.F.);
#1297=ADVANCED_FACE('',(#1151),#1253,.T.);
#1298=ADVANCED_FACE('',(#1152,#1153,#1154,#1155,#1156,#1157,#1158,#1159,
#1160),#1254,.F.);
#1299=ADVANCED_FACE('',(#1161),#1255,.T.);
#1300=ADVANCED_FACE('',(#1162,#1163),#16,.F.);
#1301=ADVANCED_FACE('',(#1164),#1256,.F.);
#1302=ADVANCED_FACE('',(#1165,#1166),#1257,.T.);
#1303=ADVANCED_FACE('',(#1167),#1258,.F.);
#1304=ADVANCED_FACE('',(#1168,#1169),#17,.F.);
#1305=ADVANCED_FACE('',(#1170),#1259,.T.);
#1306=ADVANCED_FACE('',(#1171,#1172),#1260,.T.);
#1307=ADVANCED_FACE('',(#1173),#1261,.T.);
#1308=ADVANCED_FACE('',(#1174,#1175),#18,.F.);
#1309=ADVANCED_FACE('',(#1176),#1262,.T.);
#1310=ADVANCED_FACE('',(#1177,#1178),#1263,.T.);
#1311=ADVANCED_FACE('',(#1179),#1264,.T.);
#1312=ADVANCED_FACE('',(#1180),#1265,.T.);
#1313=ADVANCED_FACE('',(#1181,#1182),#19,.F.);
#1314=ADVANCED_FACE('',(#1183,#1184),#1266,.T.);
#1315=ADVANCED_FACE('',(#1185),#20,.T.);
#1316=ADVANCED_FACE('',(#1186),#21,.T.);
#1317=ADVANCED_FACE('',(#1187),#22,.T.);
#1318=ADVANCED_FACE('',(#1188),#23,.T.);
#1319=ADVANCED_FACE('',(#1189,#1190),#12,.T.);
#1320=ADVANCED_FACE('',(#1191,#1192),#13,.T.);
#1321=ADVANCED_FACE('',(#1193,#1194),#14,.T.);
#1322=ADVANCED_FACE('',(#1195,#1196),#15,.T.);
#1323=ADVANCED_FACE('',(#1197),#1267,.T.);
#1324=ADVANCED_FACE('',(#1198),#1268,.T.);
#1325=ADVANCED_FACE('',(#1199),#1269,.F.);
#1326=ADVANCED_FACE('',(#1200),#1270,.F.);
#1327=ADVANCED_FACE('',(#1201),#1271,.T.);
#1328=ADVANCED_FACE('',(#1202),#1272,.F.);
#1329=ADVANCED_FACE('',(#1203,#1204),#1273,.F.);
#1330=ADVANCED_FACE('',(#1205),#1274,.F.);
#1331=ADVANCED_FACE('',(#1206,#1207),#24,.F.);
#1332=ADVANCED_FACE('',(#1208),#1275,.F.);
#1333=ADVANCED_FACE('',(#1209,#1210),#1276,.F.);
#1334=ADVANCED_FACE('',(#1211),#1277,.F.);
#1335=ADVANCED_FACE('',(#1212,#1213),#25,.F.);
#1336=ADVANCED_FACE('',(#1214,#1215),#1278,.F.);
#1337=ADVANCED_FACE('',(#1216),#1279,.T.);
#1338=ADVANCED_FACE('',(#1217,#1218),#1280,.T.);
#1339=ADVANCED_FACE('',(#1219),#1281,.F.);
#1340=ADVANCED_FACE('',(#1220),#26,.T.);
#1341=ADVANCED_FACE('',(#1221),#27,.T.);
#1342=ADVANCED_FACE('',(#1222),#28,.T.);
#1343=ADVANCED_FACE('',(#1223),#29,.T.);
#1344=ADVANCED_FACE('',(#1224,#1225),#30,.F.);
#1345=ADVANCED_FACE('',(#1226,#1227),#31,.F.);
#1346=ADVANCED_FACE('',(#1228,#1229),#1282,.F.);
#1347=ADVANCED_FACE('',(#1230),#1283,.T.);
#1348=ADVANCED_FACE('',(#1231,#1232),#1284,.T.);
#1349=ADVANCED_FACE('',(#1233),#1285,.F.);
#1350=ADVANCED_FACE('',(#1234,#1235),#32,.F.);
#1351=ADVANCED_FACE('',(#1236,#1237),#33,.F.);
#1352=ADVANCED_FACE('',(#1238),#34,.T.);
#1353=ADVANCED_FACE('',(#1239),#35,.T.);
#1354=ADVANCED_FACE('',(#1240),#36,.F.);
#1355=ADVANCED_FACE('',(#1241),#1286,.F.);
#1356=ADVANCED_FACE('',(#1242),#1287,.T.);
#1357=ADVANCED_FACE('',(#1243),#37,.F.);
#1358=ADVANCED_FACE('',(#1244),#1288,.F.);
#1359=ADVANCED_FACE('',(#1245),#1289,.T.);
#1360=CLOSED_SHELL('',(#1290,#1291,#1292,#1293,#1294,#1295,#1296,#1297,
#1298,#1299,#1300,#1301,#1302,#1303,#1304,#1305,#1306,#1307,#1308,#1309,
#1310,#1311,#1312,#1313,#1314,#1315,#1316,#1317,#1318,#1319,#1320,#1321,
#1322,#1323,#1324,#1325,#1326,#1327,#1328,#1329,#1330,#1331,#1332,#1333,
#1334,#1335,#1336,#1337,#1338,#1339,#1340,#1341,#1342,#1343,#1344,#1345,
#1346,#1347,#1348,#1349,#1350,#1351,#1352,#1353,#1354,#1355,#1356,#1357,
#1358,#1359));
#1361=STYLED_ITEM('',(#1362),#1369);
#1362=PRESENTATION_STYLE_ASSIGNMENT((#1363));
#1363=SURFACE_STYLE_USAGE(.BOTH.,#1364);
#1364=SURFACE_SIDE_STYLE('',(#1365));
#1365=SURFACE_STYLE_FILL_AREA(#1366);
#1366=FILL_AREA_STYLE('',(#1367));
#1367=FILL_AREA_STYLE_COLOUR('',#1368);
#1368=COLOUR_RGB('',0.615686274509804,0.811764705882353,0.929411764705882);
#1369=MANIFOLD_SOLID_BREP('Part 1',#1360);
#1370=SHAPE_DEFINITION_REPRESENTATION(#2260,#1371);
#1371=SHAPE_REPRESENTATION('Part 1',(#1372),#2255);
#1372=AXIS2_PLACEMENT_3D('',#1869,#1493,#1494);
#1373=AXIS2_PLACEMENT_3D('',#1870,#1495,#1496);
#1374=AXIS2_PLACEMENT_3D('',#1871,#1497,#1498);
#1375=AXIS2_PLACEMENT_3D('',#1873,#1499,#1500);
#1376=AXIS2_PLACEMENT_3D('',#1898,#1512,#1513);
#1377=AXIS2_PLACEMENT_3D('',#1910,#1519,#1520);
#1378=AXIS2_PLACEMENT_3D('',#1915,#1523,#1524);
#1379=AXIS2_PLACEMENT_3D('',#1924,#1529,#1530);
#1380=AXIS2_PLACEMENT_3D('',#1927,#1532,#1533);
#1381=AXIS2_PLACEMENT_3D('',#1932,#1536,#1537);
#1382=AXIS2_PLACEMENT_3D('',#1933,#1538,#1539);
#1383=AXIS2_PLACEMENT_3D('',#1938,#1542,#1543);
#1384=AXIS2_PLACEMENT_3D('',#1949,#1549,#1550);
#1385=AXIS2_PLACEMENT_3D('',#1950,#1551,#1552);
#1386=AXIS2_PLACEMENT_3D('',#1956,#1556,#1557);
#1387=AXIS2_PLACEMENT_3D('',#1975,#1568,#1569);
#1388=AXIS2_PLACEMENT_3D('',#1994,#1580,#1581);
#1389=AXIS2_PLACEMENT_3D('',#1997,#1583,#1584);
#1390=AXIS2_PLACEMENT_3D('',#2005,#1588,#1589);
#1391=AXIS2_PLACEMENT_3D('',#2013,#1593,#1594);
#1392=AXIS2_PLACEMENT_3D('',#2021,#1598,#1599);
#1393=AXIS2_PLACEMENT_3D('',#2024,#1601,#1602);
#1394=AXIS2_PLACEMENT_3D('',#2025,#1603,#1604);
#1395=AXIS2_PLACEMENT_3D('',#2027,#1605,#1606);
#1396=AXIS2_PLACEMENT_3D('',#2029,#1607,#1608);
#1397=AXIS2_PLACEMENT_3D('',#2031,#1609,#1610);
#1398=AXIS2_PLACEMENT_3D('',#2033,#1611,#1612);
#1399=AXIS2_PLACEMENT_3D('',#2035,#1613,#1614);
#1400=AXIS2_PLACEMENT_3D('',#2037,#1615,#1616);
#1401=AXIS2_PLACEMENT_3D('',#2039,#1617,#1618);
#1402=AXIS2_PLACEMENT_3D('',#2044,#1620,#1621);
#1403=AXIS2_PLACEMENT_3D('',#2049,#1624,#1625);
#1404=AXIS2_PLACEMENT_3D('',#2053,#1627,#1628);
#1405=AXIS2_PLACEMENT_3D('',#2058,#1631,#1632);
#1406=AXIS2_PLACEMENT_3D('',#2059,#1633,#1634);
#1407=AXIS2_PLACEMENT_3D('',#2065,#1638,#1639);
#1408=AXIS2_PLACEMENT_3D('',#2066,#1640,#1641);
#1409=AXIS2_PLACEMENT_3D('',#2068,#1642,#1643);
#1410=AXIS2_PLACEMENT_3D('',#2074,#1647,#1648);
#1411=AXIS2_PLACEMENT_3D('',#2075,#1649,#1650);
#1412=AXIS2_PLACEMENT_3D('',#2077,#1651,#1652);
#1413=AXIS2_PLACEMENT_3D('',#2081,#1655,#1656);
#1414=AXIS2_PLACEMENT_3D('',#2087,#1660,#1661);
#1415=AXIS2_PLACEMENT_3D('',#2088,#1662,#1663);
#1416=AXIS2_PLACEMENT_3D('',#2090,#1664,#1665);
#1417=AXIS2_PLACEMENT_3D('',#2094,#1668,#1669);
#1418=AXIS2_PLACEMENT_3D('',#2095,#1670,#1671);
#1419=AXIS2_PLACEMENT_3D('',#2097,#1672,#1673);
#1420=AXIS2_PLACEMENT_3D('',#2099,#1675,#1676);
#1421=AXIS2_PLACEMENT_3D('',#2105,#1680,#1681);
#1422=AXIS2_PLACEMENT_3D('',#2106,#1682,#1683);
#1423=AXIS2_PLACEMENT_3D('',#2108,#1684,#1685);
#1424=AXIS2_PLACEMENT_3D('',#2114,#1689,#1690);
#1425=AXIS2_PLACEMENT_3D('',#2115,#1691,#1692);
#1426=AXIS2_PLACEMENT_3D('',#2117,#1693,#1694);
#1427=AXIS2_PLACEMENT_3D('',#2121,#1697,#1698);
#1428=AXIS2_PLACEMENT_3D('',#2127,#1702,#1703);
#1429=AXIS2_PLACEMENT_3D('',#2131,#1706,#1707);
#1430=AXIS2_PLACEMENT_3D('',#2132,#1708,#1709);
#1431=AXIS2_PLACEMENT_3D('',#2134,#1710,#1711);
#1432=AXIS2_PLACEMENT_3D('',#2135,#1712,#1713);
#1433=AXIS2_PLACEMENT_3D('',#2137,#1714,#1715);
#1434=AXIS2_PLACEMENT_3D('',#2139,#1717,#1718);
#1435=AXIS2_PLACEMENT_3D('',#2140,#1719,#1720);
#1436=AXIS2_PLACEMENT_3D('',#2141,#1721,#1722);
#1437=AXIS2_PLACEMENT_3D('',#2142,#1723,#1724);
#1438=AXIS2_PLACEMENT_3D('',#2143,#1725,#1726);
#1439=AXIS2_PLACEMENT_3D('',#2144,#1727,#1728);
#1440=AXIS2_PLACEMENT_3D('',#2145,#1729,#1730);
#1441=AXIS2_PLACEMENT_3D('',#2146,#1731,#1732);
#1442=AXIS2_PLACEMENT_3D('',#2147,#1733,#1734);
#1443=AXIS2_PLACEMENT_3D('',#2150,#1737,#1738);
#1444=AXIS2_PLACEMENT_3D('',#2151,#1739,#1740);
#1445=AXIS2_PLACEMENT_3D('',#2152,#1741,#1742);
#1446=AXIS2_PLACEMENT_3D('',#2159,#1747,#1748);
#1447=AXIS2_PLACEMENT_3D('',#2162,#1750,#1751);
#1448=AXIS2_PLACEMENT_3D('',#2173,#1758,#1759);
#1449=AXIS2_PLACEMENT_3D('',#2176,#1761,#1762);
#1450=AXIS2_PLACEMENT_3D('',#2180,#1765,#1766);
#1451=AXIS2_PLACEMENT_3D('',#2181,#1767,#1768);
#1452=AXIS2_PLACEMENT_3D('',#2183,#1769,#1770);
#1453=AXIS2_PLACEMENT_3D('',#2186,#1772,#1773);
#1454=AXIS2_PLACEMENT_3D('',#2188,#1775,#1776);
#1455=AXIS2_PLACEMENT_3D('',#2189,#1777,#1778);
#1456=AXIS2_PLACEMENT_3D('',#2193,#1781,#1782);
#1457=AXIS2_PLACEMENT_3D('',#2194,#1783,#1784);
#1458=AXIS2_PLACEMENT_3D('',#2198,#1786,#1787);
#1459=AXIS2_PLACEMENT_3D('',#2199,#1788,#1789);
#1460=AXIS2_PLACEMENT_3D('',#2201,#1791,#1792);
#1461=AXIS2_PLACEMENT_3D('',#2202,#1793,#1794);
#1462=AXIS2_PLACEMENT_3D('',#2203,#1795,#1796);
#1463=AXIS2_PLACEMENT_3D('',#2205,#1797,#1798);
#1464=AXIS2_PLACEMENT_3D('',#2208,#1800,#1801);
#1465=AXIS2_PLACEMENT_3D('',#2210,#1803,#1804);
#1466=AXIS2_PLACEMENT_3D('',#2211,#1805,#1806);
#1467=AXIS2_PLACEMENT_3D('',#2213,#1807,#1808);
#1468=AXIS2_PLACEMENT_3D('',#2216,#1810,#1811);
#1469=AXIS2_PLACEMENT_3D('',#2218,#1813,#1814);
#1470=AXIS2_PLACEMENT_3D('',#2219,#1815,#1816);
#1471=AXIS2_PLACEMENT_3D('',#2220,#1817,#1818);
#1472=AXIS2_PLACEMENT_3D('',#2221,#1819,#1820);
#1473=AXIS2_PLACEMENT_3D('',#2222,#1821,#1822);
#1474=AXIS2_PLACEMENT_3D('',#2223,#1823,#1824);
#1475=AXIS2_PLACEMENT_3D('',#2224,#1825,#1826);
#1476=AXIS2_PLACEMENT_3D('',#2225,#1827,#1828);
#1477=AXIS2_PLACEMENT_3D('',#2227,#1829,#1830);
#1478=AXIS2_PLACEMENT_3D('',#2230,#1832,#1833);
#1479=AXIS2_PLACEMENT_3D('',#2232,#1835,#1836);
#1480=AXIS2_PLACEMENT_3D('',#2233,#1837,#1838);
#1481=AXIS2_PLACEMENT_3D('',#2235,#1839,#1840);
#1482=AXIS2_PLACEMENT_3D('',#2238,#1842,#1843);
#1483=AXIS2_PLACEMENT_3D('',#2240,#1845,#1846);
#1484=AXIS2_PLACEMENT_3D('',#2241,#1847,#1848);
#1485=AXIS2_PLACEMENT_3D('',#2242,#1849,#1850);
#1486=AXIS2_PLACEMENT_3D('',#2243,#1851,#1852);
#1487=AXIS2_PLACEMENT_3D('',#2244,#1853,#1854);
#1488=AXIS2_PLACEMENT_3D('',#2247,#1857,#1858);
#1489=AXIS2_PLACEMENT_3D('',#2248,#1859,#1860);
#1490=AXIS2_PLACEMENT_3D('',#2249,#1861,#1862);
#1491=AXIS2_PLACEMENT_3D('',#2252,#1865,#1866);
#1492=AXIS2_PLACEMENT_3D('',#2253,#1867,#1868);
#1493=DIRECTION('',(0.,0.,1.));
#1494=DIRECTION('',(1.,0.,0.));
#1495=DIRECTION('',(0.,0.,1.));
#1496=DIRECTION('',(1.,0.,0.));
#1497=DIRECTION('',(0.,0.,1.));
#1498=DIRECTION('',(1.,0.,0.));
#1499=DIRECTION('',(0.,0.,1.));
#1500=DIRECTION('',(1.,0.,0.));
#1501=DIRECTION('',(-1.60808665212218E-16,-1.,0.));
#1502=DIRECTION('',(-1.,0.,0.));
#1503=DIRECTION('',(0.,-1.,0.));
#1504=DIRECTION('',(1.,0.,0.));
#1505=DIRECTION('',(-7.93016446160826E-16,-1.,0.));
#1506=DIRECTION('',(1.,0.,0.));
#1507=DIRECTION('',(0.,-1.,0.));
#1508=DIRECTION('',(-1.,0.,0.));
#1509=DIRECTION('',(-1.60808665212218E-16,-1.,0.));
#1510=DIRECTION('',(1.,0.,0.));
#1511=DIRECTION('',(0.,-1.,0.));
#1512=DIRECTION('',(0.,0.,1.));
#1513=DIRECTION('',(1.,0.,0.));
#1514=DIRECTION('',(0.,-1.,0.));
#1515=DIRECTION('',(1.,0.,0.));
#1516=DIRECTION('',(-1.60808665212218E-16,-1.,0.));
#1517=DIRECTION('',(1.,0.,0.));
#1518=DIRECTION('',(0.,1.,0.));
#1519=DIRECTION('',(0.,0.,1.));
#1520=DIRECTION('',(1.,0.,0.));
#1521=DIRECTION('',(0.,1.,0.));
#1522=DIRECTION('',(1.,0.,0.));
#1523=DIRECTION('',(0.,0.,1.));
#1524=DIRECTION('',(1.,0.,0.));
#1525=DIRECTION('',(-1.,0.,0.));
#1526=DIRECTION('',(-1.60808665212218E-16,-1.,0.));
#1527=DIRECTION('',(-1.,0.,0.));
#1528=DIRECTION('',(0.,-1.,0.));
#1529=DIRECTION('',(1.,0.,0.));
#1530=DIRECTION('',(0.,0.,-1.));
#1531=DIRECTION('',(0.,1.67202262744752E-15,1.));
#1532=DIRECTION('',(-1.,0.,0.));
#1533=DIRECTION('',(0.,0.,1.));
#1534=DIRECTION('',(-3.62344329185756E-16,-1.,0.));
#1535=DIRECTION('',(0.,0.,-1.));
#1536=DIRECTION('',(1.,0.,0.));
#1537=DIRECTION('',(0.,0.,-1.));
#1538=DIRECTION('',(-1.,0.,0.));
#1539=DIRECTION('',(0.,0.,1.));
#1540=DIRECTION('',(0.,4.18005656861882E-16,1.));
#1541=DIRECTION('',(0.,0.,1.));
#1542=DIRECTION('',(-1.,0.,0.));
#1543=DIRECTION('',(0.,0.,1.));
#1544=DIRECTION('',(0.,-1.,0.));
#1545=DIRECTION('',(0.,0.,-1.));
#1546=DIRECTION('',(-1.52503162723235E-16,-1.,0.));
#1547=DIRECTION('',(0.,0.,-1.));
#1548=DIRECTION('',(-3.62344329185756E-16,-1.,0.));
#1549=DIRECTION('',(1.,0.,0.));
#1550=DIRECTION('',(0.,0.,-1.));
#1551=DIRECTION('',(-1.,0.,0.));
#1552=DIRECTION('',(0.,0.,1.));
#1553=DIRECTION('',(0.,0.,1.));
#1554=DIRECTION('',(0.,0.,-1.));
#1555=DIRECTION('',(0.,-1.,0.));
#1556=DIRECTION('',(0.,1.,0.));
#1557=DIRECTION('',(0.,0.,1.));
#1558=DIRECTION('',(0.,0.,-1.));
#1559=DIRECTION('',(-1.,0.,0.));
#1560=DIRECTION('',(0.,0.,1.));
#1561=DIRECTION('',(1.,0.,0.));
#1562=DIRECTION('',(0.,0.,1.));
#1563=DIRECTION('',(1.,0.,-1.0842021724855E-16));
#1564=DIRECTION('',(0.,0.,-1.));
#1565=DIRECTION('',(-2.66880534765663E-15,0.,1.));
#1566=DIRECTION('',(-1.,0.,0.));
#1567=DIRECTION('',(0.,0.,-1.));
#1568=DIRECTION('',(0.,1.,0.));
#1569=DIRECTION('',(0.,0.,1.));
#1570=DIRECTION('',(0.,0.,-1.));
#1571=DIRECTION('',(1.,0.,0.));
#1572=DIRECTION('',(0.,0.,1.));
#1573=DIRECTION('',(1.,0.,0.));
#1574=DIRECTION('',(0.,0.,1.));
#1575=DIRECTION('',(-1.,0.,-1.0842021724855E-16));
#1576=DIRECTION('',(0.,0.,-1.));
#1577=DIRECTION('',(2.66880534765663E-15,0.,1.));
#1578=DIRECTION('',(1.,0.,0.));
#1579=DIRECTION('',(0.,0.,-1.));
#1580=DIRECTION('',(0.,0.,1.));
#1581=DIRECTION('',(1.,0.,0.));
#1582=DIRECTION('',(1.,0.,0.));
#1583=DIRECTION('',(0.,0.,1.));
#1584=DIRECTION('',(1.,0.,0.));
#1585=DIRECTION('',(0.,1.,0.));
#1586=DIRECTION('',(1.,0.,0.));
#1587=DIRECTION('',(0.,1.,0.));
#1588=DIRECTION('',(0.,0.,1.));
#1589=DIRECTION('',(1.,0.,0.));
#1590=DIRECTION('',(1.,0.,0.));
#1591=DIRECTION('',(-1.14882349402438E-16,-1.,0.));
#1592=DIRECTION('',(-1.,0.,0.));
#1593=DIRECTION('',(0.,0.,1.));
#1594=DIRECTION('',(1.,0.,0.));
#1595=DIRECTION('',(0.,-1.,0.));
#1596=DIRECTION('',(1.,0.,0.));
#1597=DIRECTION('',(0.,-1.,0.));
#1598=DIRECTION('',(0.,0.,1.));
#1599=DIRECTION('',(1.,0.,0.));
#1600=DIRECTION('',(-1.,3.65204942310907E-16,0.));
#1601=DIRECTION('',(0.,0.,1.));
#1602=DIRECTION('',(1.,0.,0.));
#1603=DIRECTION('',(0.,0.,1.));
#1604=DIRECTION('',(1.,0.,0.));
#1605=DIRECTION('',(0.,0.,1.));
#1606=DIRECTION('',(1.,0.,0.));
#1607=DIRECTION('',(0.,0.,1.));
#1608=DIRECTION('',(1.,0.,0.));
#1609=DIRECTION('',(0.,0.,1.));
#1610=DIRECTION('',(1.,0.,0.));
#1611=DIRECTION('',(0.,0.,1.));
#1612=DIRECTION('',(1.,0.,0.));
#1613=DIRECTION('',(0.,0.,1.));
#1614=DIRECTION('',(1.,0.,0.));
#1615=DIRECTION('',(0.,0.,1.));
#1616=DIRECTION('',(1.,0.,0.));
#1617=DIRECTION('',(0.,0.,1.));
#1618=DIRECTION('',(1.,0.,0.));
#1619=DIRECTION('',(-1.60808665212218E-16,-1.,0.));
#1620=DIRECTION('',(0.,0.,1.));
#1621=DIRECTION('',(1.,0.,0.));
#1622=DIRECTION('',(0.,1.,0.));
#1623=DIRECTION('',(0.,1.,0.));
#1624=DIRECTION('',(0.,0.,1.));
#1625=DIRECTION('',(1.,0.,0.));
#1626=DIRECTION('',(-1.60808665212218E-16,-1.,0.));
#1627=DIRECTION('',(0.,0.,1.));
#1628=DIRECTION('',(1.,0.,0.));
#1629=DIRECTION('',(0.,-1.,0.));
#1630=DIRECTION('',(0.,-1.,0.));
#1631=DIRECTION('',(0.,0.,1.));
#1632=DIRECTION('',(1.,0.,0.));
#1633=DIRECTION('',(0.,-1.,0.));
#1634=DIRECTION('',(0.,0.,-1.));
#1635=DIRECTION('',(0.,0.,-1.));
#1636=DIRECTION('',(-1.,0.,0.));
#1637=DIRECTION('',(0.,0.,-1.));
#1638=DIRECTION('',(0.,0.,-1.));
#1639=DIRECTION('',(-1.,0.,0.));
#1640=DIRECTION('',(0.,0.,1.));
#1641=DIRECTION('',(1.,0.,0.));
#1642=DIRECTION('',(-1.,0.,0.));
#1643=DIRECTION('',(0.,0.,1.));
#1644=DIRECTION('',(0.,1.,0.));
#1645=DIRECTION('',(0.,0.,-1.));
#1646=DIRECTION('',(0.,0.,-1.));
#1647=DIRECTION('',(0.,0.,1.));
#1648=DIRECTION('',(1.,0.,0.));
#1649=DIRECTION('',(0.,0.,1.));
#1650=DIRECTION('',(1.,0.,0.));
#1651=DIRECTION('',(0.,0.,1.));
#1652=DIRECTION('',(1.,0.,0.));
#1653=DIRECTION('',(1.,0.,0.));
#1654=DIRECTION('',(0.,-1.,0.));
#1655=DIRECTION('',(1.,0.,0.));
#1656=DIRECTION('',(0.,0.,-1.));
#1657=DIRECTION('',(0.,-1.,0.));
#1658=DIRECTION('',(0.,0.,-1.));
#1659=DIRECTION('',(0.,0.,-1.));
#1660=DIRECTION('',(0.,0.,-1.));
#1661=DIRECTION('',(-1.,0.,0.));
#1662=DIRECTION('',(0.,0.,1.));
#1663=DIRECTION('',(1.,0.,0.));
#1664=DIRECTION('',(0.,1.,0.));
#1665=DIRECTION('',(0.,0.,1.));
#1666=DIRECTION('',(0.,0.,-1.));
#1667=DIRECTION('',(1.,0.,0.));
#1668=DIRECTION('',(0.,0.,1.));
#1669=DIRECTION('',(1.,0.,0.));
#1670=DIRECTION('',(0.,0.,1.));
#1671=DIRECTION('',(1.,0.,0.));
#1672=DIRECTION('',(0.,0.,1.));
#1673=DIRECTION('',(1.,0.,0.));
#1674=DIRECTION('',(1.,0.,0.));
#1675=DIRECTION('',(0.,1.,0.));
#1676=DIRECTION('',(0.,0.,1.));
#1677=DIRECTION('',(1.,0.,0.));
#1678=DIRECTION('',(0.,0.,-1.));
#1679=DIRECTION('',(0.,0.,-1.));
#1680=DIRECTION('',(0.,0.,-1.));
#1681=DIRECTION('',(-1.,0.,0.));
#1682=DIRECTION('',(0.,0.,1.));
#1683=DIRECTION('',(1.,0.,0.));
#1684=DIRECTION('',(1.,0.,0.));
#1685=DIRECTION('',(0.,0.,-1.));
#1686=DIRECTION('',(0.,0.,-1.));
#1687=DIRECTION('',(0.,-1.,0.));
#1688=DIRECTION('',(0.,0.,-1.));
#1689=DIRECTION('',(0.,0.,1.));
#1690=DIRECTION('',(1.,0.,0.));
#1691=DIRECTION('',(0.,0.,1.));
#1692=DIRECTION('',(1.,0.,0.));
#1693=DIRECTION('',(0.,0.,1.));
#1694=DIRECTION('',(1.,0.,0.));
#1695=DIRECTION('',(-7.93016446160826E-16,-1.,0.));
#1696=DIRECTION('',(1.,0.,0.));
#1697=DIRECTION('',(-1.,0.,0.));
#1698=DIRECTION('',(0.,0.,1.));
#1699=DIRECTION('',(0.,0.,-1.));
#1700=DIRECTION('',(0.,1.,0.));
#1701=DIRECTION('',(0.,0.,-1.));
#1702=DIRECTION('',(-6.30808536718839E-16,-1.,0.));
#1703=DIRECTION('',(1.,-6.30808536718839E-16,0.));
#1704=DIRECTION('',(-1.,6.30808536718839E-16,0.));
#1705=DIRECTION('',(0.,0.,-1.));
#1706=DIRECTION('',(0.,0.,-1.));
#1707=DIRECTION('',(-1.,0.,0.));
#1708=DIRECTION('',(0.,0.,1.));
#1709=DIRECTION('',(1.,0.,0.));
#1710=DIRECTION('',(0.,0.,1.));
#1711=DIRECTION('',(1.,0.,0.));
#1712=DIRECTION('',(0.,0.,1.));
#1713=DIRECTION('',(1.,0.,0.));
#1714=DIRECTION('',(0.,0.,1.));
#1715=DIRECTION('',(1.,0.,0.));
#1716=DIRECTION('',(1.,0.,0.));
#1717=DIRECTION('',(0.,0.,1.));
#1718=DIRECTION('',(1.,0.,0.));
#1719=DIRECTION('',(0.,0.,-1.));
#1720=DIRECTION('',(-1.,0.,0.));
#1721=DIRECTION('',(0.,0.,-1.));
#1722=DIRECTION('',(-1.,0.,0.));
#1723=DIRECTION('',(0.,0.,1.));
#1724=DIRECTION('',(1.,0.,0.));
#1725=DIRECTION('',(0.,0.,1.));
#1726=DIRECTION('',(1.,0.,0.));
#1727=DIRECTION('',(0.,0.,1.));
#1728=DIRECTION('',(1.,0.,0.));
#1729=DIRECTION('',(0.,0.,1.));
#1730=DIRECTION('',(1.,0.,0.));
#1731=DIRECTION('',(0.,0.,1.));
#1732=DIRECTION('',(1.,0.,0.));
#1733=DIRECTION('',(1.,-7.93016446160826E-16,0.));
#1734=DIRECTION('',(7.93016446160826E-16,1.,0.));
#1735=DIRECTION('',(0.,0.,-1.));
#1736=DIRECTION('',(0.,0.,-1.));
#1737=DIRECTION('',(0.,1.,0.));
#1738=DIRECTION('',(0.,0.,1.));
#1739=DIRECTION('',(0.,1.,0.));
#1740=DIRECTION('',(0.,0.,1.));
#1741=DIRECTION('',(1.,-1.60808665212218E-16,0.));
#1742=DIRECTION('',(1.60808665212218E-16,1.,0.));
#1743=DIRECTION('',(0.,0.,-1.));
#1744=DIRECTION('',(0.,1.,0.));
#1745=DIRECTION('',(0.,-1.,0.));
#1746=DIRECTION('',(0.,0.,-1.));
#1747=DIRECTION('',(1.,-1.60808665212218E-16,0.));
#1748=DIRECTION('',(1.60808665212218E-16,1.,0.));
#1749=DIRECTION('',(0.,4.18005656861882E-16,1.));
#1750=DIRECTION('',(-1.,0.,0.));
#1751=DIRECTION('',(0.,0.,1.));
#1752=DIRECTION('',(0.,1.67202262744752E-15,1.));
#1753=DIRECTION('',(0.,1.,0.));
#1754=DIRECTION('',(0.,0.,-1.));
#1755=DIRECTION('',(0.,0.,-1.));
#1756=DIRECTION('',(0.,-1.,0.));
#1757=DIRECTION('',(0.,0.,1.));
#1758=DIRECTION('',(-1.,0.,0.));
#1759=DIRECTION('',(0.,0.,1.));
#1760=DIRECTION('',(0.,0.,1.));
#1761=DIRECTION('',(1.,0.,0.));
#1762=DIRECTION('',(0.,0.,-1.));
#1763=DIRECTION('',(0.,1.,0.));
#1764=DIRECTION('',(0.,0.,-1.));
#1765=DIRECTION('',(0.,0.,1.));
#1766=DIRECTION('',(1.,0.,0.));
#1767=DIRECTION('',(0.,0.,1.));
#1768=DIRECTION('',(1.,0.,0.));
#1769=DIRECTION('',(0.,0.,1.));
#1770=DIRECTION('',(1.,0.,0.));
#1771=DIRECTION('',(0.,1.,0.));
#1772=DIRECTION('',(-1.,0.,2.66880534765663E-15));
#1773=DIRECTION('',(2.66880534765663E-15,0.,1.));
#1774=DIRECTION('',(2.66880534765663E-15,0.,1.));
#1775=DIRECTION('',(0.,0.,1.));
#1776=DIRECTION('',(1.,0.,0.));
#1777=DIRECTION('',(-1.,0.,0.));
#1778=DIRECTION('',(0.,0.,1.));
#1779=DIRECTION('',(0.,-1.,0.));
#1780=DIRECTION('',(0.,0.,-1.));
#1781=DIRECTION('',(0.,0.,1.));
#1782=DIRECTION('',(1.,0.,0.));
#1783=DIRECTION('',(0.,0.,1.));
#1784=DIRECTION('',(1.,0.,0.));
#1785=DIRECTION('',(0.,-1.,0.));
#1786=DIRECTION('',(0.,0.,1.));
#1787=DIRECTION('',(1.,0.,0.));
#1788=DIRECTION('',(1.,0.,2.66880534765663E-15));
#1789=DIRECTION('',(2.66880534765663E-15,0.,-1.));
#1790=DIRECTION('',(-2.66880534765663E-15,0.,1.));
#1791=DIRECTION('',(0.,0.,1.));
#1792=DIRECTION('',(1.,0.,0.));
#1793=DIRECTION('',(-1.0842021724855E-16,0.,-1.));
#1794=DIRECTION('',(-1.,0.,1.0842021724855E-16));
#1795=DIRECTION('',(1.0842021724855E-16,0.,1.));
#1796=DIRECTION('',(1.,0.,-1.0842021724855E-16));
#1797=DIRECTION('',(-1.0842021724855E-16,0.,-1.));
#1798=DIRECTION('',(-1.,0.,1.0842021724855E-16));
#1799=DIRECTION('',(0.,-1.,0.));
#1800=DIRECTION('',(1.,0.,0.));
#1801=DIRECTION('',(0.,0.,-1.));
#1802=DIRECTION('',(0.,0.,1.));
#1803=DIRECTION('',(0.,0.,1.));
#1804=DIRECTION('',(1.,0.,0.));
#1805=DIRECTION('',(0.,0.,1.));
#1806=DIRECTION('',(1.,0.,0.));
#1807=DIRECTION('',(0.,0.,1.));
#1808=DIRECTION('',(1.,0.,0.));
#1809=DIRECTION('',(0.,-1.,0.));
#1810=DIRECTION('',(1.,0.,0.));
#1811=DIRECTION('',(0.,0.,-1.));
#1812=DIRECTION('',(0.,0.,1.));
#1813=DIRECTION('',(0.,0.,1.));
#1814=DIRECTION('',(1.,0.,0.));
#1815=DIRECTION('',(0.,0.,-1.));
#1816=DIRECTION('',(-1.,0.,0.));
#1817=DIRECTION('',(-2.66880534765663E-15,0.,-1.));
#1818=DIRECTION('',(-1.,0.,2.66880534765663E-15));
#1819=DIRECTION('',(0.,0.,1.));
#1820=DIRECTION('',(1.,0.,0.));
#1821=DIRECTION('',(0.,0.,1.));
#1822=DIRECTION('',(1.,0.,0.));
#1823=DIRECTION('',(1.0842021724855E-16,0.,1.));
#1824=DIRECTION('',(1.,0.,-1.0842021724855E-16));
#1825=DIRECTION('',(1.0842021724855E-16,0.,-1.));
#1826=DIRECTION('',(-1.,0.,-1.0842021724855E-16));
#1827=DIRECTION('',(-1.0842021724855E-16,0.,1.));
#1828=DIRECTION('',(1.,0.,1.0842021724855E-16));
#1829=DIRECTION('',(1.0842021724855E-16,0.,-1.));
#1830=DIRECTION('',(-1.,0.,-1.0842021724855E-16));
#1831=DIRECTION('',(0.,1.,0.));
#1832=DIRECTION('',(-1.,0.,0.));
#1833=DIRECTION('',(0.,0.,1.));
#1834=DIRECTION('',(0.,0.,1.));
#1835=DIRECTION('',(0.,0.,1.));
#1836=DIRECTION('',(1.,0.,0.));
#1837=DIRECTION('',(0.,0.,1.));
#1838=DIRECTION('',(1.,0.,0.));
#1839=DIRECTION('',(0.,0.,1.));
#1840=DIRECTION('',(1.,0.,0.));
#1841=DIRECTION('',(0.,1.,0.));
#1842=DIRECTION('',(-1.,0.,0.));
#1843=DIRECTION('',(0.,0.,1.));
#1844=DIRECTION('',(0.,0.,1.));
#1845=DIRECTION('',(0.,0.,1.));
#1846=DIRECTION('',(1.,0.,0.));
#1847=DIRECTION('',(-1.0842021724855E-16,0.,1.));
#1848=DIRECTION('',(1.,0.,1.0842021724855E-16));
#1849=DIRECTION('',(0.,0.,1.));
#1850=DIRECTION('',(1.,0.,0.));
#1851=DIRECTION('',(0.,0.,1.));
#1852=DIRECTION('',(1.,0.,0.));
#1853=DIRECTION('',(-1.,0.,0.));
#1854=DIRECTION('',(0.,0.,1.));
#1855=DIRECTION('',(-1.,0.,0.));
#1856=DIRECTION('',(-1.,0.,0.));
#1857=DIRECTION('',(0.,-1.,0.));
#1858=DIRECTION('',(0.,0.,-1.));
#1859=DIRECTION('',(0.,-1.,0.));
#1860=DIRECTION('',(0.,0.,-1.));
#1861=DIRECTION('',(-1.,0.,0.));
#1862=DIRECTION('',(0.,0.,1.));
#1863=DIRECTION('',(-1.,0.,0.));
#1864=DIRECTION('',(-1.,0.,0.));
#1865=DIRECTION('',(0.,-1.,1.67202262744752E-15));
#1866=DIRECTION('',(0.,-1.67202262744752E-15,-1.));
#1867=DIRECTION('',(0.,-1.,4.18005656861882E-16));
#1868=DIRECTION('',(0.,-4.18005656861882E-16,-1.));
#1869=CARTESIAN_POINT('',(0.,0.,0.));
#1870=CARTESIAN_POINT('',(0.,0.,0.0183));
#1871=CARTESIAN_POINT('',(0.,0.04715,0.0183));
#1872=CARTESIAN_POINT('',(0.00209,0.04715,0.0183));
#1873=CARTESIAN_POINT('',(4.33680868994202E-19,-0.04715,0.0183));
#1874=CARTESIAN_POINT('',(0.00209,-0.04715,0.0183));
#1875=CARTESIAN_POINT('',(0.049,0.,0.0183));
#1876=CARTESIAN_POINT('',(0.049,-0.036075,0.0183));
#1877=CARTESIAN_POINT('',(0.049,-0.04315,0.0183));
#1878=CARTESIAN_POINT('',(0.049,-0.036075,0.0183));
#1879=CARTESIAN_POINT('',(0.0465,-0.036075,0.0183));
#1880=CARTESIAN_POINT('',(0.0465,0.032325,0.0183));
#1881=CARTESIAN_POINT('',(0.0465,-0.04065,0.0183));
#1882=CARTESIAN_POINT('',(0.03625,-0.04065,0.0183));
#1883=CARTESIAN_POINT('',(-0.0465,-0.04065,0.0183));
#1884=CARTESIAN_POINT('',(-0.0465,-0.036275,0.0183));
#1885=CARTESIAN_POINT('',(-0.0465,0.04065,0.0183));
#1886=CARTESIAN_POINT('',(-0.03925,0.04065,0.0183));
#1887=CARTESIAN_POINT('',(0.0465,0.04065,0.0183));
#1888=CARTESIAN_POINT('',(0.0465,0.032325,0.0183));
#1889=CARTESIAN_POINT('',(0.0465,0.037325,0.0183));
#1890=CARTESIAN_POINT('',(0.049,0.037325,0.0183));
#1891=CARTESIAN_POINT('',(0.049,0.037325,0.0183));
#1892=CARTESIAN_POINT('',(0.049,0.,0.0183));
#1893=CARTESIAN_POINT('',(0.049,0.04315,0.0183));
#1894=CARTESIAN_POINT('',(6.93889390390723E-18,0.04315,0.0183));
#1895=CARTESIAN_POINT('',(0.004,0.04315,0.0183));
#1896=CARTESIAN_POINT('',(0.004,0.05115,0.0183));
#1897=CARTESIAN_POINT('',(0.004,0.04715,0.0183));
#1898=CARTESIAN_POINT('',(6.93889390390723E-18,0.04715,0.0183));
#1899=CARTESIAN_POINT('',(-0.004,0.04715,0.0183));
#1900=CARTESIAN_POINT('',(-0.004,0.05115,0.0183));
#1901=CARTESIAN_POINT('',(-0.004,0.04315,0.0183));
#1902=CARTESIAN_POINT('',(6.93889390390723E-18,0.04315,0.0183));
#1903=CARTESIAN_POINT('',(-0.049,0.04315,0.0183));
#1904=CARTESIAN_POINT('',(-0.049,0.,0.0183));
#1905=CARTESIAN_POINT('',(-0.049,-0.04315,0.0183));
#1906=CARTESIAN_POINT('',(-6.93889390390723E-18,-0.04315,0.0183));
#1907=CARTESIAN_POINT('',(-0.004,-0.04315,0.0183));
#1908=CARTESIAN_POINT('',(-0.004,-0.05115,0.0183));
#1909=CARTESIAN_POINT('',(-0.004,-0.04715,0.0183));
#1910=CARTESIAN_POINT('',(7.80625564189561E-18,-0.04715,0.0183));
#1911=CARTESIAN_POINT('',(0.004,-0.04715,0.0183));
#1912=CARTESIAN_POINT('',(0.004,-0.05115,0.0183));
#1913=CARTESIAN_POINT('',(0.004,-0.04315,0.0183));
#1914=CARTESIAN_POINT('',(-6.93889390390723E-18,-0.04315,0.0183));
#1915=CARTESIAN_POINT('',(0.,0.,0.0183));
#1916=CARTESIAN_POINT('',(0.049,-0.026075,0.0183));
#1917=CARTESIAN_POINT('',(0.049,-0.026075,0.0183));
#1918=CARTESIAN_POINT('',(0.0465,-0.026075,0.0183));
#1919=CARTESIAN_POINT('',(0.049,0.,0.0183));
#1920=CARTESIAN_POINT('',(0.049,0.027325,0.0183));
#1921=CARTESIAN_POINT('',(0.049,0.027325,0.0183));
#1922=CARTESIAN_POINT('',(0.0465,0.027325,0.0183));
#1923=CARTESIAN_POINT('',(0.0465,0.032325,0.0183));
#1924=CARTESIAN_POINT('',(0.0465,0.032325,0.0183));
#1925=CARTESIAN_POINT('',(0.0465,-0.036075,0.01415));
#1926=CARTESIAN_POINT('',(0.0465,-0.036075,0.01));
#1927=CARTESIAN_POINT('',(0.0465,-0.031075,0.01));
#1928=CARTESIAN_POINT('',(0.0465,-0.031075,0.005));
#1929=CARTESIAN_POINT('',(0.0465,-0.031075,0.005));
#1930=CARTESIAN_POINT('',(0.0465,-0.04065,0.005));
#1931=CARTESIAN_POINT('',(0.0465,-0.04065,0.0183));
#1932=CARTESIAN_POINT('',(0.0465,0.032325,0.0183));
#1933=CARTESIAN_POINT('',(0.0465,-0.031075,0.01));
#1934=CARTESIAN_POINT('',(0.0465,-0.026075,0.01));
#1935=CARTESIAN_POINT('',(0.0465,-0.026075,0.01415));
#1936=CARTESIAN_POINT('',(0.0465,0.027325,0.01415));
#1937=CARTESIAN_POINT('',(0.0465,0.027325,0.01));
#1938=CARTESIAN_POINT('',(0.0465,0.032325,0.01));
#1939=CARTESIAN_POINT('',(0.0465,0.032325,0.005));
#1940=CARTESIAN_POINT('',(0.0465,0.032325,0.005));
#1941=CARTESIAN_POINT('',(0.0465,0.024,0.005));
#1942=CARTESIAN_POINT('',(0.0465,0.024,0.005));
#1943=CARTESIAN_POINT('',(0.0465,0.024,0.0025));
#1944=CARTESIAN_POINT('',(0.0465,0.00125,0.0025));
#1945=CARTESIAN_POINT('',(0.0465,-0.0215,0.0025));
#1946=CARTESIAN_POINT('',(0.0465,-0.0215,0.005));
#1947=CARTESIAN_POINT('',(0.0465,-0.0215,0.005));
#1948=CARTESIAN_POINT('',(0.0465,-0.031075,0.005));
#1949=CARTESIAN_POINT('',(0.0465,0.032325,0.0183));
#1950=CARTESIAN_POINT('',(0.0465,0.032325,0.01));
#1951=CARTESIAN_POINT('',(0.0465,0.037325,0.01));
#1952=CARTESIAN_POINT('',(0.0465,0.037325,0.01415));
#1953=CARTESIAN_POINT('',(0.0465,0.04065,0.0183));
#1954=CARTESIAN_POINT('',(0.0465,0.04065,0.005));
#1955=CARTESIAN_POINT('',(0.0465,0.032325,0.005));
#1956=CARTESIAN_POINT('',(6.93889390390723E-18,0.04315,0.0183));
#1957=CARTESIAN_POINT('',(0.049,0.04315,0.0183));
#1958=CARTESIAN_POINT('',(0.049,0.04315,0.003));
#1959=CARTESIAN_POINT('',(0.045,0.04315,0.003));
#1960=CARTESIAN_POINT('',(0.041,0.04315,0.003));
#1961=CARTESIAN_POINT('',(0.041,0.04315,0.0015));
#1962=CARTESIAN_POINT('',(0.041,0.04315,0.));
#1963=CARTESIAN_POINT('',(6.93889390390723E-18,0.04315,0.));
#1964=CARTESIAN_POINT('',(-0.041,0.04315,0.));
#1965=CARTESIAN_POINT('',(-0.041,0.04315,0.0015));
#1966=CARTESIAN_POINT('',(-0.041,0.04315,0.003));
#1967=CARTESIAN_POINT('',(-0.045,0.04315,0.003));
#1968=CARTESIAN_POINT('',(-0.049,0.04315,0.003));
#1969=CARTESIAN_POINT('',(-0.049,0.04315,0.0183));
#1970=CARTESIAN_POINT('',(-0.004,0.04315,0.0157));
#1971=CARTESIAN_POINT('',(-0.004,0.04315,0.0131));
#1972=CARTESIAN_POINT('',(6.93889390390723E-18,0.04315,0.0131));
#1973=CARTESIAN_POINT('',(0.004,0.04315,0.0131));
#1974=CARTESIAN_POINT('',(0.004,0.04315,0.0157));
#1975=CARTESIAN_POINT('',(-6.93889390390723E-18,-0.04315,0.0183));
#1976=CARTESIAN_POINT('',(-0.049,-0.04315,0.0183));
#1977=CARTESIAN_POINT('',(-0.049,-0.04315,0.003));
#1978=CARTESIAN_POINT('',(-0.045,-0.04315,0.003));
#1979=CARTESIAN_POINT('',(-0.041,-0.04315,0.003));
#1980=CARTESIAN_POINT('',(-0.041,-0.04315,0.0015));
#1981=CARTESIAN_POINT('',(-0.041,-0.04315,0.));
#1982=CARTESIAN_POINT('',(-6.93889390390723E-18,-0.04315,0.));
#1983=CARTESIAN_POINT('',(0.041,-0.04315,0.));
#1984=CARTESIAN_POINT('',(0.041,-0.04315,0.0015));
#1985=CARTESIAN_POINT('',(0.041,-0.04315,0.003));
#1986=CARTESIAN_POINT('',(0.045,-0.04315,0.003));
#1987=CARTESIAN_POINT('',(0.049,-0.04315,0.003));
#1988=CARTESIAN_POINT('',(0.049,-0.04315,0.0183));
#1989=CARTESIAN_POINT('',(0.004,-0.04315,0.0157));
#1990=CARTESIAN_POINT('',(0.004,-0.04315,0.0131));
#1991=CARTESIAN_POINT('',(-6.93889390390723E-18,-0.04315,0.0131));
#1992=CARTESIAN_POINT('',(-0.004,-0.04315,0.0131));
#1993=CARTESIAN_POINT('',(-0.004,-0.04315,0.0157));
#1994=CARTESIAN_POINT('',(0.,0.,0.0025));
#1995=CARTESIAN_POINT('',(0.0455,0.024,0.0025));
#1996=CARTESIAN_POINT('',(0.033,0.024,0.0025));
#1997=CARTESIAN_POINT('',(0.033,0.029,0.0025));
#1998=CARTESIAN_POINT('',(0.028,0.029,0.0025));
#1999=CARTESIAN_POINT('',(0.028,0.032325,0.0025));
#2000=CARTESIAN_POINT('',(0.028,0.04065,0.0025));
#2001=CARTESIAN_POINT('',(-0.002,0.04065,0.0025));
#2002=CARTESIAN_POINT('',(-0.032,0.04065,0.0025));
#2003=CARTESIAN_POINT('',(-0.032,0.040575,0.0025));
#2004=CARTESIAN_POINT('',(-0.032,0.0335,0.0025));
#2005=CARTESIAN_POINT('',(-0.037,0.0335,0.0025));
#2006=CARTESIAN_POINT('',(-0.037,0.0285,0.0025));
#2007=CARTESIAN_POINT('',(-0.03875,0.0285,0.0025));
#2008=CARTESIAN_POINT('',(-0.0465,0.0285,0.0025));
#2009=CARTESIAN_POINT('',(-0.0465,-0.0017,0.0025));
#2010=CARTESIAN_POINT('',(-0.0465,-0.0319,0.0025));
#2011=CARTESIAN_POINT('',(-0.04575,-0.0319,0.0025));
#2012=CARTESIAN_POINT('',(-0.0365,-0.0319,0.0025));
#2013=CARTESIAN_POINT('',(-0.0365,-0.0369,0.0025));
#2014=CARTESIAN_POINT('',(-0.0315,-0.0369,0.0025));
#2015=CARTESIAN_POINT('',(-0.0315,-0.0362,0.0025));
#2016=CARTESIAN_POINT('',(-0.0315,-0.04065,0.0025));
#2017=CARTESIAN_POINT('',(-0.00275,-0.04065,0.0025));
#2018=CARTESIAN_POINT('',(0.026,-0.04065,0.0025));
#2019=CARTESIAN_POINT('',(0.026,-0.040575,0.0025));
#2020=CARTESIAN_POINT('',(0.026,-0.0265,0.0025));
#2021=CARTESIAN_POINT('',(0.031,-0.0265,0.0025));
#2022=CARTESIAN_POINT('',(0.031,-0.0215,0.0025));
#2023=CARTESIAN_POINT('',(0.0355,-0.0215,0.0025));
#2024=CARTESIAN_POINT('',(0.,0.,0.));
#2025=CARTESIAN_POINT('',(0.045,-0.04615,0.));
#2026=CARTESIAN_POINT('',(0.046625,-0.04615,0.));
#2027=CARTESIAN_POINT('',(-0.045,-0.04615,0.));
#2028=CARTESIAN_POINT('',(-0.043375,-0.04615,0.));
#2029=CARTESIAN_POINT('',(-0.045,0.04615,0.));
#2030=CARTESIAN_POINT('',(-0.043375,0.04615,0.));
#2031=CARTESIAN_POINT('',(0.045,0.04615,0.));
#2032=CARTESIAN_POINT('',(0.046625,0.04615,0.));
#2033=CARTESIAN_POINT('',(0.03665,-0.0313,0.));
#2034=CARTESIAN_POINT('',(0.03874,-0.0313,0.));
#2035=CARTESIAN_POINT('',(-0.038,-0.0366,0.));
#2036=CARTESIAN_POINT('',(-0.03591,-0.0366,0.));
#2037=CARTESIAN_POINT('',(-0.038,0.03566,0.));
#2038=CARTESIAN_POINT('',(-0.03591,0.03566,0.));
#2039=CARTESIAN_POINT('',(0.03661,0.03269,0.));
#2040=CARTESIAN_POINT('',(0.0387,0.03269,0.));
#2041=CARTESIAN_POINT('',(0.049,0.,0.));
#2042=CARTESIAN_POINT('',(0.049,0.04515,0.));
#2043=CARTESIAN_POINT('',(0.049,-0.04515,0.));
#2044=CARTESIAN_POINT('',(0.045,-0.04515,0.));
#2045=CARTESIAN_POINT('',(0.041,-0.04515,0.));
#2046=CARTESIAN_POINT('',(0.041,-0.04915,0.));
#2047=CARTESIAN_POINT('',(-0.041,-0.04915,0.));
#2048=CARTESIAN_POINT('',(-0.041,-0.04515,0.));
#2049=CARTESIAN_POINT('',(-0.045,-0.04515,0.));
#2050=CARTESIAN_POINT('',(-0.049,-0.04515,0.));
#2051=CARTESIAN_POINT('',(-0.049,0.,0.));
#2052=CARTESIAN_POINT('',(-0.049,0.04515,0.));
#2053=CARTESIAN_POINT('',(-0.045,0.04515,0.));
#2054=CARTESIAN_POINT('',(-0.041,0.04515,0.));
#2055=CARTESIAN_POINT('',(-0.041,0.04915,0.));
#2056=CARTESIAN_POINT('',(0.041,0.04915,0.));
#2057=CARTESIAN_POINT('',(0.041,0.04515,0.));
#2058=CARTESIAN_POINT('',(0.045,0.04515,0.));
#2059=CARTESIAN_POINT('',(-0.046,0.0285,0.005));
#2060=CARTESIAN_POINT('',(-0.037,0.0285,0.005));
#2061=CARTESIAN_POINT('',(-0.037,0.0285,0.005));
#2062=CARTESIAN_POINT('',(-0.046,0.0285,0.005));
#2063=CARTESIAN_POINT('',(-0.0465,0.0285,0.005));
#2064=CARTESIAN_POINT('',(-0.0465,0.0285,0.005));
#2065=CARTESIAN_POINT('',(-0.038,0.03566,0.005));
#2066=CARTESIAN_POINT('',(-0.038,0.03566,0.004));
#2067=CARTESIAN_POINT('',(-0.03591,0.03566,0.004));
#2068=CARTESIAN_POINT('',(-0.032,0.0345,0.005));
#2069=CARTESIAN_POINT('',(-0.032,0.0345,0.005));
#2070=CARTESIAN_POINT('',(-0.032,0.0335,0.005));
#2071=CARTESIAN_POINT('',(-0.032,0.04065,0.005));
#2072=CARTESIAN_POINT('',(-0.032,0.0335,0.0025));
#2073=CARTESIAN_POINT('',(-0.032,0.04065,0.005));
#2074=CARTESIAN_POINT('',(0.,0.,0.005));
#2075=CARTESIAN_POINT('',(-0.038,0.03566,0.005));
#2076=CARTESIAN_POINT('',(-0.03491,0.03566,0.005));
#2077=CARTESIAN_POINT('',(-0.037,0.0335,0.005));
#2078=CARTESIAN_POINT('',(-0.03925,0.04065,0.005));
#2079=CARTESIAN_POINT('',(-0.0465,0.04065,0.005));
#2080=CARTESIAN_POINT('',(-0.0465,0.034575,0.005));
#2081=CARTESIAN_POINT('',(0.026,-0.031,0.005));
#2082=CARTESIAN_POINT('',(0.026,-0.031,0.005));
#2083=CARTESIAN_POINT('',(0.026,-0.0265,0.005));
#2084=CARTESIAN_POINT('',(0.026,-0.04065,0.005));
#2085=CARTESIAN_POINT('',(0.026,-0.0265,0.0025));
#2086=CARTESIAN_POINT('',(0.026,-0.04065,0.005));
#2087=CARTESIAN_POINT('',(0.03665,-0.0313,0.005));
#2088=CARTESIAN_POINT('',(0.03665,-0.0313,0.004));
#2089=CARTESIAN_POINT('',(0.03874,-0.0313,0.004));
#2090=CARTESIAN_POINT('',(0.04575,-0.0215,0.005));
#2091=CARTESIAN_POINT('',(0.031,-0.0215,0.005));
#2092=CARTESIAN_POINT('',(0.031,-0.0215,0.005));
#2093=CARTESIAN_POINT('',(0.04575,-0.0215,0.005));
#2094=CARTESIAN_POINT('',(0.,0.,0.005));
#2095=CARTESIAN_POINT('',(0.03665,-0.0313,0.005));
#2096=CARTESIAN_POINT('',(0.03974,-0.0313,0.005));
#2097=CARTESIAN_POINT('',(0.031,-0.0265,0.005));
#2098=CARTESIAN_POINT('',(0.03625,-0.04065,0.005));
#2099=CARTESIAN_POINT('',(-0.03825,-0.0319,0.005));
#2100=CARTESIAN_POINT('',(-0.03825,-0.0319,0.005));
#2101=CARTESIAN_POINT('',(-0.0465,-0.0319,0.005));
#2102=CARTESIAN_POINT('',(-0.0365,-0.0319,0.005));
#2103=CARTESIAN_POINT('',(-0.0365,-0.0319,0.005));
#2104=CARTESIAN_POINT('',(-0.0465,-0.0319,0.005));
#2105=CARTESIAN_POINT('',(-0.038,-0.0366,0.005));
#2106=CARTESIAN_POINT('',(-0.038,-0.0366,0.004));
#2107=CARTESIAN_POINT('',(-0.03591,-0.0366,0.004));
#2108=CARTESIAN_POINT('',(-0.0315,-0.040575,0.005));
#2109=CARTESIAN_POINT('',(-0.0315,-0.0369,0.005));
#2110=CARTESIAN_POINT('',(-0.0315,-0.0369,0.005));
#2111=CARTESIAN_POINT('',(-0.0315,-0.040575,0.005));
#2112=CARTESIAN_POINT('',(-0.0315,-0.04065,0.005));
#2113=CARTESIAN_POINT('',(-0.0315,-0.04065,0.005));
#2114=CARTESIAN_POINT('',(0.,0.,0.005));
#2115=CARTESIAN_POINT('',(-0.038,-0.0366,0.005));
#2116=CARTESIAN_POINT('',(-0.03491,-0.0366,0.005));
#2117=CARTESIAN_POINT('',(-0.0365,-0.0369,0.005));
#2118=CARTESIAN_POINT('',(-0.0465,-0.036275,0.005));
#2119=CARTESIAN_POINT('',(-0.0465,-0.04065,0.005));
#2120=CARTESIAN_POINT('',(-0.039,-0.04065,0.005));
#2121=CARTESIAN_POINT('',(0.028,0.032325,0.005));
#2122=CARTESIAN_POINT('',(0.028,0.029,0.005));
#2123=CARTESIAN_POINT('',(0.028,0.029,0.005));
#2124=CARTESIAN_POINT('',(0.028,0.032325,0.005));
#2125=CARTESIAN_POINT('',(0.028,0.04065,0.005));
#2126=CARTESIAN_POINT('',(0.028,0.04065,0.005));
#2127=CARTESIAN_POINT('',(0.03625,0.024,0.005));
#2128=CARTESIAN_POINT('',(0.03625,0.024,0.005));
#2129=CARTESIAN_POINT('',(0.033,0.024,0.005));
#2130=CARTESIAN_POINT('',(0.033,0.024,0.005));
#2131=CARTESIAN_POINT('',(0.03661,0.03269,0.005));
#2132=CARTESIAN_POINT('',(0.03661,0.03269,0.004));
#2133=CARTESIAN_POINT('',(0.0387,0.03269,0.004));
#2134=CARTESIAN_POINT('',(0.,0.,0.005));
#2135=CARTESIAN_POINT('',(0.03661,0.03269,0.005));
#2136=CARTESIAN_POINT('',(0.0397,0.03269,0.005));
#2137=CARTESIAN_POINT('',(0.033,0.029,0.005));
#2138=CARTESIAN_POINT('',(0.03725,0.04065,0.005));
#2139=CARTESIAN_POINT('',(0.031,-0.0265,0.005));
#2140=CARTESIAN_POINT('',(-0.0365,-0.0369,0.005));
#2141=CARTESIAN_POINT('',(0.033,0.029,0.005));
#2142=CARTESIAN_POINT('',(-0.037,0.0335,0.005));
#2143=CARTESIAN_POINT('',(-0.038,-0.0366,0.004));
#2144=CARTESIAN_POINT('',(0.03665,-0.0313,0.004));
#2145=CARTESIAN_POINT('',(0.03661,0.03269,0.004));
#2146=CARTESIAN_POINT('',(-0.038,0.03566,0.004));
#2147=CARTESIAN_POINT('',(-0.0465,-0.036275,0.0183));
#2148=CARTESIAN_POINT('',(-0.0465,0.04065,0.0183));
#2149=CARTESIAN_POINT('',(-0.0465,-0.04065,0.0183));
#2150=CARTESIAN_POINT('',(0.03625,-0.04065,0.0183));
#2151=CARTESIAN_POINT('',(-0.03925,0.04065,0.0183));
#2152=CARTESIAN_POINT('',(-0.049,0.,0.0183));
#2153=CARTESIAN_POINT('',(-0.049,-0.04515,0.003));
#2154=CARTESIAN_POINT('',(-0.049,-0.04515,0.003));
#2155=CARTESIAN_POINT('',(-0.049,-0.04915,0.003));
#2156=CARTESIAN_POINT('',(-0.049,0.04915,0.003));
#2157=CARTESIAN_POINT('',(-0.049,0.04515,0.003));
#2158=CARTESIAN_POINT('',(-0.049,0.04515,0.));
#2159=CARTESIAN_POINT('',(0.049,0.,0.0183));
#2160=CARTESIAN_POINT('',(0.049,-0.026075,0.01415));
#2161=CARTESIAN_POINT('',(0.049,-0.026075,0.01));
#2162=CARTESIAN_POINT('',(0.049,-0.031075,0.01));
#2163=CARTESIAN_POINT('',(0.049,-0.036075,0.01));
#2164=CARTESIAN_POINT('',(0.049,-0.036075,0.01415));
#2165=CARTESIAN_POINT('',(0.049,-0.04915,0.003));
#2166=CARTESIAN_POINT('',(0.049,-0.04515,0.003));
#2167=CARTESIAN_POINT('',(0.049,-0.04515,0.0183));
#2168=CARTESIAN_POINT('',(0.049,0.04515,0.0183));
#2169=CARTESIAN_POINT('',(0.049,0.04515,0.003));
#2170=CARTESIAN_POINT('',(0.049,0.04915,0.003));
#2171=CARTESIAN_POINT('',(0.049,0.037325,0.01415));
#2172=CARTESIAN_POINT('',(0.049,0.037325,0.01));
#2173=CARTESIAN_POINT('',(0.049,0.032325,0.01));
#2174=CARTESIAN_POINT('',(0.049,0.027325,0.01));
#2175=CARTESIAN_POINT('',(0.049,0.027325,0.01415));
#2176=CARTESIAN_POINT('',(-0.004,-0.05115,0.0157));
#2177=CARTESIAN_POINT('',(-0.004,-0.05115,0.0131));
#2178=CARTESIAN_POINT('',(-0.004,-0.04715,0.0131));
#2179=CARTESIAN_POINT('',(-0.004,-0.04715,0.0183));
#2180=CARTESIAN_POINT('',(-6.93889390390723E-18,-0.05115,0.0131));
#2181=CARTESIAN_POINT('',(4.33680868994202E-19,-0.04715,0.0131));
#2182=CARTESIAN_POINT('',(0.00209,-0.04715,0.0131));
#2183=CARTESIAN_POINT('',(-6.07153216591885E-18,-0.04715,0.0131));
#2184=CARTESIAN_POINT('',(0.004,-0.04715,0.0131));
#2185=CARTESIAN_POINT('',(0.004,-0.05115,0.0131));
#2186=CARTESIAN_POINT('',(0.004,-0.05115,0.0157));
#2187=CARTESIAN_POINT('',(0.004,-0.04715,0.0131));
#2188=CARTESIAN_POINT('',(4.33680868994202E-19,-0.04715,0.0131));
#2189=CARTESIAN_POINT('',(0.004,0.05115,0.0157));
#2190=CARTESIAN_POINT('',(0.004,0.05115,0.0131));
#2191=CARTESIAN_POINT('',(0.004,0.04715,0.0131));
#2192=CARTESIAN_POINT('',(0.004,0.04715,0.0183));
#2193=CARTESIAN_POINT('',(6.93889390390723E-18,0.05115,0.0131));
#2194=CARTESIAN_POINT('',(0.,0.04715,0.0131));
#2195=CARTESIAN_POINT('',(0.00209,0.04715,0.0131));
#2196=CARTESIAN_POINT('',(-0.004,0.05115,0.0131));
#2197=CARTESIAN_POINT('',(-0.004,0.04715,0.0131));
#2198=CARTESIAN_POINT('',(6.93889390390723E-18,0.04715,0.0131));
#2199=CARTESIAN_POINT('',(-0.004,0.05115,0.0157));
#2200=CARTESIAN_POINT('',(-0.004,0.04715,0.0131));
#2201=CARTESIAN_POINT('',(0.,0.04715,0.0131));
#2202=CARTESIAN_POINT('',(-0.045,0.04915,0.003));
#2203=CARTESIAN_POINT('',(-0.045,0.04615,0.003));
#2204=CARTESIAN_POINT('',(-0.043375,0.04615,0.003));
#2205=CARTESIAN_POINT('',(-0.045,0.04515,0.003));
#2206=CARTESIAN_POINT('',(-0.041,0.04515,0.003));
#2207=CARTESIAN_POINT('',(-0.041,0.04915,0.003));
#2208=CARTESIAN_POINT('',(-0.041,0.04915,0.0015));
#2209=CARTESIAN_POINT('',(-0.041,0.04515,0.0015));
#2210=CARTESIAN_POINT('',(0.045,0.04915,0.003));
#2211=CARTESIAN_POINT('',(0.045,0.04615,0.003));
#2212=CARTESIAN_POINT('',(0.046625,0.04615,0.003));
#2213=CARTESIAN_POINT('',(0.045,0.04515,0.003));
#2214=CARTESIAN_POINT('',(0.041,0.04515,0.003));
#2215=CARTESIAN_POINT('',(0.041,0.04915,0.003));
#2216=CARTESIAN_POINT('',(0.041,0.04915,0.0015));
#2217=CARTESIAN_POINT('',(0.041,0.04515,0.));
#2218=CARTESIAN_POINT('',(-0.045,0.04515,0.0015));
#2219=CARTESIAN_POINT('',(0.045,0.04515,0.00915));
#2220=CARTESIAN_POINT('',(-1.66133132891625E-17,-0.04715,0.00915));
#2221=CARTESIAN_POINT('',(6.93889390390723E-18,0.04715,0.00915));
#2222=CARTESIAN_POINT('',(0.045,0.04615,-0.022));
#2223=CARTESIAN_POINT('',(-0.045,0.04615,-0.022));
#2224=CARTESIAN_POINT('',(0.045,-0.04915,0.003));
#2225=CARTESIAN_POINT('',(0.045,-0.04615,0.003));
#2226=CARTESIAN_POINT('',(0.046625,-0.04615,0.003));
#2227=CARTESIAN_POINT('',(0.045,-0.04515,0.003));
#2228=CARTESIAN_POINT('',(0.041,-0.04515,0.003));
#2229=CARTESIAN_POINT('',(0.041,-0.04915,0.003));
#2230=CARTESIAN_POINT('',(0.041,-0.04915,0.0015));
#2231=CARTESIAN_POINT('',(0.041,-0.04515,0.0015));
#2232=CARTESIAN_POINT('',(-0.045,-0.04915,0.003));
#2233=CARTESIAN_POINT('',(-0.045,-0.04615,0.003));
#2234=CARTESIAN_POINT('',(-0.043375,-0.04615,0.003));
#2235=CARTESIAN_POINT('',(-0.045,-0.04515,0.003));
#2236=CARTESIAN_POINT('',(-0.041,-0.04515,0.003));
#2237=CARTESIAN_POINT('',(-0.041,-0.04915,0.003));
#2238=CARTESIAN_POINT('',(-0.041,-0.04915,0.0015));
#2239=CARTESIAN_POINT('',(-0.041,-0.04515,0.));
#2240=CARTESIAN_POINT('',(-0.045,-0.04615,-0.022));
#2241=CARTESIAN_POINT('',(0.045,-0.04615,-0.022));
#2242=CARTESIAN_POINT('',(0.045,-0.04515,0.0015));
#2243=CARTESIAN_POINT('',(-0.045,-0.04515,0.00915));
#2244=CARTESIAN_POINT('',(0.049,0.032325,0.01));
#2245=CARTESIAN_POINT('',(0.049,0.027325,0.01));
#2246=CARTESIAN_POINT('',(0.049,0.037325,0.01));
#2247=CARTESIAN_POINT('',(0.049,0.027325,0.01415));
#2248=CARTESIAN_POINT('',(0.049,0.037325,0.01415));
#2249=CARTESIAN_POINT('',(0.049,-0.031075,0.01));
#2250=CARTESIAN_POINT('',(0.049,-0.036075,0.01));
#2251=CARTESIAN_POINT('',(0.049,-0.026075,0.01));
#2252=CARTESIAN_POINT('',(0.049,-0.036075,0.01415));
#2253=CARTESIAN_POINT('',(0.049,-0.026075,0.01415));
#2254=MECHANICAL_DESIGN_GEOMETRIC_PRESENTATION_REPRESENTATION('',(#1361),
#2255);
#2255=(
GEOMETRIC_REPRESENTATION_CONTEXT(3)
GLOBAL_UNCERTAINTY_ASSIGNED_CONTEXT((#2256))
GLOBAL_UNIT_ASSIGNED_CONTEXT((#2259,#2258,#2257))
REPRESENTATION_CONTEXT('Part 1','TOP_LEVEL_ASSEMBLY_PART')
);
#2256=UNCERTAINTY_MEASURE_WITH_UNIT(LENGTH_MEASURE(1.E-8),#2259,
'DISTANCE_ACCURACY_VALUE','Maximum Tolerance applied to model');
#2257=(
NAMED_UNIT(*)
SI_UNIT($,.STERADIAN.)
SOLID_ANGLE_UNIT()
);
#2258=(
NAMED_UNIT(*)
PLANE_ANGLE_UNIT()
SI_UNIT($,.RADIAN.)
);
#2259=(
LENGTH_UNIT()
NAMED_UNIT(*)
SI_UNIT($,.METRE.)
);
#2260=PRODUCT_DEFINITION_SHAPE('','',#2261);
#2261=PRODUCT_DEFINITION('','',#2263,#2262);
#2262=PRODUCT_DEFINITION_CONTEXT('',#2269,'design');
#2263=PRODUCT_DEFINITION_FORMATION_WITH_SPECIFIED_SOURCE('','',#2265,
 .NOT_KNOWN.);
#2264=PRODUCT_RELATED_PRODUCT_CATEGORY('','',(#2265));
#2265=PRODUCT('Part 1','Part 1','Part 1',(#2267));
#2266=PRODUCT_CATEGORY('','');
#2267=PRODUCT_CONTEXT('',#2269,'mechanical');
#2268=APPLICATION_PROTOCOL_DEFINITION('international standard',
'ap242_managed_model_based_3d_engineering',2020,#2269);
#2269=APPLICATION_CONTEXT('managed model based 3d engineering');
ENDSEC;
END-ISO-10303-21;
