ISO-10303-21;
HEADER;
/* Generated by software containing ST-Developer
 * from STEP Tools, Inc. (www.steptools.com) 
 */
/* OPTION: using custom renumber hook */

FILE_DESCRIPTION(
/* description */ ('STEP AP242 Edition 2',
'CAx-IF Rec.Pracs.---Representation and Presentation of Product Manufa
cturing Information (PMI)---4.0---2014-10-13',
'CAx-IF Rec.Pracs.---3D Tessellated Geometry---0.4---2014-09-14','2;1',
'CAx-IF Rec.Pracs.---User Defined Attributes---1.5---2016-08-15'),
/* implementation_level */ '2;1');

FILE_NAME(
/* name */ 'Lid - Part 1',
/* time_stamp */ '2026-08-17T00:02:24Z',
/* author */ (''),
/* organization */ (''),
/* preprocessor_version */ 'ST-DEVELOPER v20',
/* originating_system */ 'ONSHAPE BY PTC INC, 1.219',
/* authorisation */ '  ');

FILE_SCHEMA (('AP242_MANAGED_MODEL_BASED_3D_ENGINEERING_MIM_LF { 1 0 10303 442 3 1 4 }'));
ENDSEC;

DATA;
#10=SHAPE_REPRESENTATION_RELATIONSHIP('','',#735,#11);
#11=ADVANCED_BREP_SHAPE_REPRESENTATION('',(#733),#1193);
#12=CYLINDRICAL_SURFACE('',#773,0.004);
#13=CYLINDRICAL_SURFACE('',#774,0.004);
#14=CYLINDRICAL_SURFACE('',#775,0.0016);
#15=CYLINDRICAL_SURFACE('',#776,0.0016);
#16=CYLINDRICAL_SURFACE('',#787,0.005);
#17=CYLINDRICAL_SURFACE('',#788,0.005);
#18=CYLINDRICAL_SURFACE('',#789,0.0002);
#19=CYLINDRICAL_SURFACE('',#790,0.0002);
#20=CYLINDRICAL_SURFACE('',#791,0.0002);
#21=CYLINDRICAL_SURFACE('',#792,0.0002);
#22=CIRCLE('',#740,0.0016);
#23=CIRCLE('',#741,0.0016);
#24=CIRCLE('',#742,0.004);
#25=CIRCLE('',#743,0.004);
#26=CIRCLE('',#748,0.0016);
#27=CIRCLE('',#749,0.0016);
#28=CIRCLE('',#750,0.004);
#29=CIRCLE('',#751,0.004);
#30=CIRCLE('',#755,0.005);
#31=CIRCLE('',#756,0.0002);
#32=CIRCLE('',#757,0.0002);
#33=CIRCLE('',#758,0.005);
#34=CIRCLE('',#759,0.0002);
#35=CIRCLE('',#760,0.0002);
#36=CIRCLE('',#779,0.0002);
#37=CIRCLE('',#780,0.005);
#38=CIRCLE('',#781,0.0002);
#39=CIRCLE('',#784,0.0002);
#40=CIRCLE('',#785,0.005);
#41=CIRCLE('',#786,0.0002);
#42=ORIENTED_EDGE('',*,*,#242,.F.);
#43=ORIENTED_EDGE('',*,*,#243,.T.);
#44=ORIENTED_EDGE('',*,*,#244,.T.);
#45=ORIENTED_EDGE('',*,*,#245,.T.);
#46=ORIENTED_EDGE('',*,*,#246,.F.);
#47=ORIENTED_EDGE('',*,*,#247,.T.);
#48=ORIENTED_EDGE('',*,*,#248,.T.);
#49=ORIENTED_EDGE('',*,*,#249,.T.);
#50=ORIENTED_EDGE('',*,*,#250,.T.);
#51=ORIENTED_EDGE('',*,*,#251,.T.);
#52=ORIENTED_EDGE('',*,*,#252,.F.);
#53=ORIENTED_EDGE('',*,*,#253,.T.);
#54=ORIENTED_EDGE('',*,*,#254,.T.);
#55=ORIENTED_EDGE('',*,*,#255,.T.);
#56=ORIENTED_EDGE('',*,*,#256,.F.);
#57=ORIENTED_EDGE('',*,*,#257,.T.);
#58=ORIENTED_EDGE('',*,*,#258,.F.);
#59=ORIENTED_EDGE('',*,*,#259,.F.);
#60=ORIENTED_EDGE('',*,*,#249,.F.);
#61=ORIENTED_EDGE('',*,*,#260,.F.);
#62=ORIENTED_EDGE('',*,*,#261,.F.);
#63=ORIENTED_EDGE('',*,*,#262,.T.);
#64=ORIENTED_EDGE('',*,*,#263,.F.);
#65=ORIENTED_EDGE('',*,*,#264,.F.);
#66=ORIENTED_EDGE('',*,*,#265,.T.);
#67=ORIENTED_EDGE('',*,*,#266,.T.);
#68=ORIENTED_EDGE('',*,*,#267,.F.);
#69=ORIENTED_EDGE('',*,*,#268,.F.);
#70=ORIENTED_EDGE('',*,*,#269,.T.);
#71=ORIENTED_EDGE('',*,*,#270,.F.);
#72=ORIENTED_EDGE('',*,*,#271,.T.);
#73=ORIENTED_EDGE('',*,*,#272,.T.);
#74=ORIENTED_EDGE('',*,*,#273,.T.);
#75=ORIENTED_EDGE('',*,*,#274,.T.);
#76=ORIENTED_EDGE('',*,*,#245,.F.);
#77=ORIENTED_EDGE('',*,*,#275,.F.);
#78=ORIENTED_EDGE('',*,*,#276,.F.);
#79=ORIENTED_EDGE('',*,*,#277,.T.);
#80=ORIENTED_EDGE('',*,*,#267,.T.);
#81=ORIENTED_EDGE('',*,*,#278,.T.);
#82=ORIENTED_EDGE('',*,*,#279,.F.);
#83=ORIENTED_EDGE('',*,*,#280,.T.);
#84=ORIENTED_EDGE('',*,*,#273,.F.);
#85=ORIENTED_EDGE('',*,*,#281,.T.);
#86=ORIENTED_EDGE('',*,*,#282,.T.);
#87=ORIENTED_EDGE('',*,*,#283,.T.);
#88=ORIENTED_EDGE('',*,*,#284,.F.);
#89=ORIENTED_EDGE('',*,*,#285,.T.);
#90=ORIENTED_EDGE('',*,*,#286,.T.);
#91=ORIENTED_EDGE('',*,*,#269,.F.);
#92=ORIENTED_EDGE('',*,*,#287,.F.);
#93=ORIENTED_EDGE('',*,*,#288,.T.);
#94=ORIENTED_EDGE('',*,*,#289,.T.);
#95=ORIENTED_EDGE('',*,*,#290,.T.);
#96=ORIENTED_EDGE('',*,*,#291,.F.);
#97=ORIENTED_EDGE('',*,*,#292,.T.);
#98=ORIENTED_EDGE('',*,*,#293,.F.);
#99=ORIENTED_EDGE('',*,*,#294,.F.);
#100=ORIENTED_EDGE('',*,*,#295,.F.);
#101=ORIENTED_EDGE('',*,*,#296,.F.);
#102=ORIENTED_EDGE('',*,*,#297,.F.);
#103=ORIENTED_EDGE('',*,*,#298,.T.);
#104=ORIENTED_EDGE('',*,*,#299,.T.);
#105=ORIENTED_EDGE('',*,*,#300,.T.);
#106=ORIENTED_EDGE('',*,*,#301,.F.);
#107=ORIENTED_EDGE('',*,*,#282,.F.);
#108=ORIENTED_EDGE('',*,*,#302,.F.);
#109=ORIENTED_EDGE('',*,*,#303,.T.);
#110=ORIENTED_EDGE('',*,*,#304,.T.);
#111=ORIENTED_EDGE('',*,*,#285,.F.);
#112=ORIENTED_EDGE('',*,*,#305,.T.);
#113=ORIENTED_EDGE('',*,*,#279,.T.);
#114=ORIENTED_EDGE('',*,*,#268,.T.);
#115=ORIENTED_EDGE('',*,*,#280,.F.);
#116=ORIENTED_EDGE('',*,*,#305,.F.);
#117=ORIENTED_EDGE('',*,*,#284,.T.);
#118=ORIENTED_EDGE('',*,*,#306,.F.);
#119=ORIENTED_EDGE('',*,*,#300,.F.);
#120=ORIENTED_EDGE('',*,*,#307,.T.);
#121=ORIENTED_EDGE('',*,*,#263,.T.);
#122=ORIENTED_EDGE('',*,*,#308,.F.);
#123=ORIENTED_EDGE('',*,*,#309,.T.);
#124=ORIENTED_EDGE('',*,*,#242,.T.);
#125=ORIENTED_EDGE('',*,*,#274,.F.);
#126=ORIENTED_EDGE('',*,*,#283,.F.);
#127=ORIENTED_EDGE('',*,*,#301,.T.);
#128=ORIENTED_EDGE('',*,*,#306,.T.);
#129=ORIENTED_EDGE('',*,*,#262,.F.);
#130=ORIENTED_EDGE('',*,*,#310,.F.);
#131=ORIENTED_EDGE('',*,*,#311,.T.);
#132=ORIENTED_EDGE('',*,*,#312,.F.);
#133=ORIENTED_EDGE('',*,*,#313,.T.);
#134=ORIENTED_EDGE('',*,*,#246,.T.);
#135=ORIENTED_EDGE('',*,*,#277,.F.);
#136=ORIENTED_EDGE('',*,*,#314,.F.);
#137=ORIENTED_EDGE('',*,*,#315,.T.);
#138=ORIENTED_EDGE('',*,*,#252,.T.);
#139=ORIENTED_EDGE('',*,*,#316,.T.);
#140=ORIENTED_EDGE('',*,*,#292,.F.);
#141=ORIENTED_EDGE('',*,*,#317,.F.);
#142=ORIENTED_EDGE('',*,*,#253,.F.);
#143=ORIENTED_EDGE('',*,*,#317,.T.);
#144=ORIENTED_EDGE('',*,*,#291,.T.);
#145=ORIENTED_EDGE('',*,*,#318,.F.);
#146=ORIENTED_EDGE('',*,*,#254,.F.);
#147=ORIENTED_EDGE('',*,*,#318,.T.);
#148=ORIENTED_EDGE('',*,*,#294,.T.);
#149=ORIENTED_EDGE('',*,*,#319,.F.);
#150=ORIENTED_EDGE('',*,*,#319,.T.);
#151=ORIENTED_EDGE('',*,*,#293,.T.);
#152=ORIENTED_EDGE('',*,*,#316,.F.);
#153=ORIENTED_EDGE('',*,*,#255,.F.);
#154=ORIENTED_EDGE('',*,*,#320,.F.);
#155=ORIENTED_EDGE('',*,*,#256,.T.);
#156=ORIENTED_EDGE('',*,*,#321,.T.);
#157=ORIENTED_EDGE('',*,*,#288,.F.);
#158=ORIENTED_EDGE('',*,*,#257,.F.);
#159=ORIENTED_EDGE('',*,*,#320,.T.);
#160=ORIENTED_EDGE('',*,*,#287,.T.);
#161=ORIENTED_EDGE('',*,*,#322,.F.);
#162=ORIENTED_EDGE('',*,*,#258,.T.);
#163=ORIENTED_EDGE('',*,*,#322,.T.);
#164=ORIENTED_EDGE('',*,*,#290,.F.);
#165=ORIENTED_EDGE('',*,*,#323,.F.);
#166=ORIENTED_EDGE('',*,*,#259,.T.);
#167=ORIENTED_EDGE('',*,*,#323,.T.);
#168=ORIENTED_EDGE('',*,*,#289,.F.);
#169=ORIENTED_EDGE('',*,*,#321,.F.);
#170=ORIENTED_EDGE('',*,*,#272,.F.);
#171=ORIENTED_EDGE('',*,*,#324,.T.);
#172=ORIENTED_EDGE('',*,*,#302,.T.);
#173=ORIENTED_EDGE('',*,*,#281,.F.);
#174=ORIENTED_EDGE('',*,*,#286,.F.);
#175=ORIENTED_EDGE('',*,*,#304,.F.);
#176=ORIENTED_EDGE('',*,*,#325,.T.);
#177=ORIENTED_EDGE('',*,*,#270,.T.);
#178=ORIENTED_EDGE('',*,*,#266,.F.);
#179=ORIENTED_EDGE('',*,*,#326,.T.);
#180=ORIENTED_EDGE('',*,*,#297,.T.);
#181=ORIENTED_EDGE('',*,*,#278,.F.);
#182=ORIENTED_EDGE('',*,*,#307,.F.);
#183=ORIENTED_EDGE('',*,*,#299,.F.);
#184=ORIENTED_EDGE('',*,*,#327,.T.);
#185=ORIENTED_EDGE('',*,*,#264,.T.);
#186=ORIENTED_EDGE('',*,*,#327,.F.);
#187=ORIENTED_EDGE('',*,*,#298,.F.);
#188=ORIENTED_EDGE('',*,*,#326,.F.);
#189=ORIENTED_EDGE('',*,*,#265,.F.);
#190=ORIENTED_EDGE('',*,*,#271,.F.);
#191=ORIENTED_EDGE('',*,*,#325,.F.);
#192=ORIENTED_EDGE('',*,*,#303,.F.);
#193=ORIENTED_EDGE('',*,*,#324,.F.);
#194=ORIENTED_EDGE('',*,*,#251,.F.);
#195=ORIENTED_EDGE('',*,*,#296,.T.);
#196=ORIENTED_EDGE('',*,*,#250,.F.);
#197=ORIENTED_EDGE('',*,*,#295,.T.);
#198=ORIENTED_EDGE('',*,*,#328,.F.);
#199=ORIENTED_EDGE('',*,*,#329,.T.);
#200=ORIENTED_EDGE('',*,*,#314,.T.);
#201=ORIENTED_EDGE('',*,*,#276,.T.);
#202=ORIENTED_EDGE('',*,*,#244,.F.);
#203=ORIENTED_EDGE('',*,*,#330,.T.);
#204=ORIENTED_EDGE('',*,*,#331,.T.);
#205=ORIENTED_EDGE('',*,*,#332,.T.);
#206=ORIENTED_EDGE('',*,*,#328,.T.);
#207=ORIENTED_EDGE('',*,*,#275,.T.);
#208=ORIENTED_EDGE('',*,*,#333,.F.);
#209=ORIENTED_EDGE('',*,*,#334,.T.);
#210=ORIENTED_EDGE('',*,*,#310,.T.);
#211=ORIENTED_EDGE('',*,*,#261,.T.);
#212=ORIENTED_EDGE('',*,*,#248,.F.);
#213=ORIENTED_EDGE('',*,*,#335,.T.);
#214=ORIENTED_EDGE('',*,*,#336,.T.);
#215=ORIENTED_EDGE('',*,*,#337,.T.);
#216=ORIENTED_EDGE('',*,*,#333,.T.);
#217=ORIENTED_EDGE('',*,*,#260,.T.);
#218=ORIENTED_EDGE('',*,*,#336,.F.);
#219=ORIENTED_EDGE('',*,*,#338,.T.);
#220=ORIENTED_EDGE('',*,*,#312,.T.);
#221=ORIENTED_EDGE('',*,*,#339,.T.);
#222=ORIENTED_EDGE('',*,*,#331,.F.);
#223=ORIENTED_EDGE('',*,*,#340,.T.);
#224=ORIENTED_EDGE('',*,*,#308,.T.);
#225=ORIENTED_EDGE('',*,*,#341,.T.);
#226=ORIENTED_EDGE('',*,*,#330,.F.);
#227=ORIENTED_EDGE('',*,*,#243,.F.);
#228=ORIENTED_EDGE('',*,*,#309,.F.);
#229=ORIENTED_EDGE('',*,*,#340,.F.);
#230=ORIENTED_EDGE('',*,*,#332,.F.);
#231=ORIENTED_EDGE('',*,*,#341,.F.);
#232=ORIENTED_EDGE('',*,*,#315,.F.);
#233=ORIENTED_EDGE('',*,*,#329,.F.);
#234=ORIENTED_EDGE('',*,*,#335,.F.);
#235=ORIENTED_EDGE('',*,*,#247,.F.);
#236=ORIENTED_EDGE('',*,*,#313,.F.);
#237=ORIENTED_EDGE('',*,*,#338,.F.);
#238=ORIENTED_EDGE('',*,*,#337,.F.);
#239=ORIENTED_EDGE('',*,*,#339,.F.);
#240=ORIENTED_EDGE('',*,*,#311,.F.);
#241=ORIENTED_EDGE('',*,*,#334,.F.);
#242=EDGE_CURVE('',#342,#343,#410,.T.);
#243=EDGE_CURVE('',#342,#344,#411,.F.);
#244=EDGE_CURVE('',#344,#345,#412,.T.);
#245=EDGE_CURVE('',#345,#343,#413,.T.);
#246=EDGE_CURVE('',#346,#347,#414,.T.);
#247=EDGE_CURVE('',#346,#348,#415,.F.);
#248=EDGE_CURVE('',#348,#349,#416,.T.);
#249=EDGE_CURVE('',#349,#347,#417,.T.);
#250=EDGE_CURVE('',#350,#350,#22,.T.);
#251=EDGE_CURVE('',#351,#351,#23,.T.);
#252=EDGE_CURVE('',#352,#353,#418,.T.);
#253=EDGE_CURVE('',#352,#354,#419,.T.);
#254=EDGE_CURVE('',#354,#355,#420,.T.);
#255=EDGE_CURVE('',#355,#353,#421,.T.);
#256=EDGE_CURVE('',#356,#357,#422,.T.);
#257=EDGE_CURVE('',#356,#358,#423,.T.);
#258=EDGE_CURVE('',#359,#358,#424,.T.);
#259=EDGE_CURVE('',#357,#359,#425,.T.);
#260=EDGE_CURVE('',#360,#349,#426,.T.);
#261=EDGE_CURVE('',#361,#360,#427,.T.);
#262=EDGE_CURVE('',#361,#362,#428,.T.);
#263=EDGE_CURVE('',#363,#362,#429,.T.);
#264=EDGE_CURVE('',#364,#363,#430,.T.);
#265=EDGE_CURVE('',#364,#365,#24,.F.);
#266=EDGE_CURVE('',#365,#366,#431,.T.);
#267=EDGE_CURVE('',#367,#366,#432,.T.);
#268=EDGE_CURVE('',#368,#367,#433,.T.);
#269=EDGE_CURVE('',#368,#369,#434,.T.);
#270=EDGE_CURVE('',#370,#369,#435,.T.);
#271=EDGE_CURVE('',#370,#371,#25,.F.);
#272=EDGE_CURVE('',#371,#372,#436,.T.);
#273=EDGE_CURVE('',#372,#373,#437,.T.);
#274=EDGE_CURVE('',#373,#343,#438,.T.);
#275=EDGE_CURVE('',#374,#345,#439,.T.);
#276=EDGE_CURVE('',#375,#374,#440,.T.);
#277=EDGE_CURVE('',#375,#347,#441,.T.);
#278=EDGE_CURVE('',#366,#376,#442,.T.);
#279=EDGE_CURVE('',#377,#376,#443,.T.);
#280=EDGE_CURVE('',#377,#367,#444,.T.);
#281=EDGE_CURVE('',#372,#378,#445,.T.);
#282=EDGE_CURVE('',#378,#379,#446,.T.);
#283=EDGE_CURVE('',#379,#373,#447,.T.);
#284=EDGE_CURVE('',#380,#368,#448,.T.);
#285=EDGE_CURVE('',#380,#381,#449,.T.);
#286=EDGE_CURVE('',#381,#369,#450,.T.);
#287=EDGE_CURVE('',#382,#383,#451,.T.);
#288=EDGE_CURVE('',#382,#384,#452,.T.);
#289=EDGE_CURVE('',#384,#385,#453,.T.);
#290=EDGE_CURVE('',#385,#383,#454,.T.);
#291=EDGE_CURVE('',#386,#387,#455,.T.);
#292=EDGE_CURVE('',#386,#388,#456,.T.);
#293=EDGE_CURVE('',#389,#388,#457,.T.);
#294=EDGE_CURVE('',#387,#389,#458,.T.);
#295=EDGE_CURVE('',#390,#390,#26,.T.);
#296=EDGE_CURVE('',#391,#391,#27,.T.);
#297=EDGE_CURVE('',#392,#376,#459,.T.);
#298=EDGE_CURVE('',#392,#393,#28,.T.);
#299=EDGE_CURVE('',#393,#394,#460,.T.);
#300=EDGE_CURVE('',#394,#395,#461,.T.);
#301=EDGE_CURVE('',#379,#395,#462,.T.);
#302=EDGE_CURVE('',#396,#378,#463,.T.);
#303=EDGE_CURVE('',#396,#397,#29,.T.);
#304=EDGE_CURVE('',#397,#381,#464,.T.);
#305=EDGE_CURVE('',#380,#377,#465,.T.);
#306=EDGE_CURVE('',#395,#362,#466,.T.);
#307=EDGE_CURVE('',#394,#363,#467,.T.);
#308=EDGE_CURVE('',#398,#399,#30,.T.);
#309=EDGE_CURVE('',#398,#342,#31,.T.);
#310=EDGE_CURVE('',#400,#361,#468,.T.);
#311=EDGE_CURVE('',#400,#401,#32,.T.);
#312=EDGE_CURVE('',#402,#401,#33,.T.);
#313=EDGE_CURVE('',#402,#346,#34,.T.);
#314=EDGE_CURVE('',#403,#375,#469,.T.);
#315=EDGE_CURVE('',#403,#399,#35,.T.);
#316=EDGE_CURVE('',#353,#388,#470,.T.);
#317=EDGE_CURVE('',#352,#386,#471,.T.);
#318=EDGE_CURVE('',#354,#387,#472,.T.);
#319=EDGE_CURVE('',#355,#389,#473,.T.);
#320=EDGE_CURVE('',#356,#382,#474,.T.);
#321=EDGE_CURVE('',#357,#384,#475,.T.);
#322=EDGE_CURVE('',#358,#383,#476,.T.);
#323=EDGE_CURVE('',#359,#385,#477,.T.);
#324=EDGE_CURVE('',#371,#396,#478,.T.);
#325=EDGE_CURVE('',#397,#370,#479,.T.);
#326=EDGE_CURVE('',#365,#392,#480,.T.);
#327=EDGE_CURVE('',#393,#364,#481,.T.);
#328=EDGE_CURVE('',#404,#374,#482,.T.);
#329=EDGE_CURVE('',#404,#403,#483,.T.);
#330=EDGE_CURVE('',#344,#405,#36,.F.);
#331=EDGE_CURVE('',#405,#406,#37,.T.);
#332=EDGE_CURVE('',#406,#404,#38,.F.);
#333=EDGE_CURVE('',#407,#360,#484,.T.);
#334=EDGE_CURVE('',#407,#400,#485,.T.);
#335=EDGE_CURVE('',#348,#408,#39,.F.);
#336=EDGE_CURVE('',#408,#409,#40,.T.);
#337=EDGE_CURVE('',#409,#407,#41,.F.);
#338=EDGE_CURVE('',#408,#402,#486,.T.);
#339=EDGE_CURVE('',#401,#409,#487,.F.);
#340=EDGE_CURVE('',#405,#398,#488,.T.);
#341=EDGE_CURVE('',#399,#406,#489,.F.);
#342=VERTEX_POINT('',#990);
#343=VERTEX_POINT('',#991);
#344=VERTEX_POINT('',#993);
#345=VERTEX_POINT('',#995);
#346=VERTEX_POINT('',#999);
#347=VERTEX_POINT('',#1000);
#348=VERTEX_POINT('',#1002);
#349=VERTEX_POINT('',#1004);
#350=VERTEX_POINT('',#1008);
#351=VERTEX_POINT('',#1010);
#352=VERTEX_POINT('',#1012);
#353=VERTEX_POINT('',#1013);
#354=VERTEX_POINT('',#1015);
#355=VERTEX_POINT('',#1017);
#356=VERTEX_POINT('',#1020);
#357=VERTEX_POINT('',#1021);
#358=VERTEX_POINT('',#1023);
#359=VERTEX_POINT('',#1025);
#360=VERTEX_POINT('',#1028);
#361=VERTEX_POINT('',#1030);
#362=VERTEX_POINT('',#1032);
#363=VERTEX_POINT('',#1034);
#364=VERTEX_POINT('',#1036);
#365=VERTEX_POINT('',#1038);
#366=VERTEX_POINT('',#1040);
#367=VERTEX_POINT('',#1042);
#368=VERTEX_POINT('',#1044);
#369=VERTEX_POINT('',#1046);
#370=VERTEX_POINT('',#1048);
#371=VERTEX_POINT('',#1050);
#372=VERTEX_POINT('',#1052);
#373=VERTEX_POINT('',#1054);
#374=VERTEX_POINT('',#1057);
#375=VERTEX_POINT('',#1059);
#376=VERTEX_POINT('',#1063);
#377=VERTEX_POINT('',#1065);
#378=VERTEX_POINT('',#1069);
#379=VERTEX_POINT('',#1071);
#380=VERTEX_POINT('',#1075);
#381=VERTEX_POINT('',#1077);
#382=VERTEX_POINT('',#1081);
#383=VERTEX_POINT('',#1082);
#384=VERTEX_POINT('',#1084);
#385=VERTEX_POINT('',#1086);
#386=VERTEX_POINT('',#1089);
#387=VERTEX_POINT('',#1090);
#388=VERTEX_POINT('',#1092);
#389=VERTEX_POINT('',#1094);
#390=VERTEX_POINT('',#1097);
#391=VERTEX_POINT('',#1099);
#392=VERTEX_POINT('',#1101);
#393=VERTEX_POINT('',#1103);
#394=VERTEX_POINT('',#1105);
#395=VERTEX_POINT('',#1107);
#396=VERTEX_POINT('',#1110);
#397=VERTEX_POINT('',#1112);
#398=VERTEX_POINT('',#1121);
#399=VERTEX_POINT('',#1122);
#400=VERTEX_POINT('',#1125);
#401=VERTEX_POINT('',#1127);
#402=VERTEX_POINT('',#1129);
#403=VERTEX_POINT('',#1132);
#404=VERTEX_POINT('',#1164);
#405=VERTEX_POINT('',#1168);
#406=VERTEX_POINT('',#1170);
#407=VERTEX_POINT('',#1174);
#408=VERTEX_POINT('',#1178);
#409=VERTEX_POINT('',#1180);
#410=LINE('',#989,#490);
#411=LINE('',#992,#491);
#412=LINE('',#994,#492);
#413=LINE('',#996,#493);
#414=LINE('',#998,#494);
#415=LINE('',#1001,#495);
#416=LINE('',#1003,#496);
#417=LINE('',#1005,#497);
#418=LINE('',#1011,#498);
#419=LINE('',#1014,#499);
#420=LINE('',#1016,#500);
#421=LINE('',#1018,#501);
#422=LINE('',#1019,#502);
#423=LINE('',#1022,#503);
#424=LINE('',#1024,#504);
#425=LINE('',#1026,#505);
#426=LINE('',#1027,#506);
#427=LINE('',#1029,#507);
#428=LINE('',#1031,#508);
#429=LINE('',#1033,#509);
#430=LINE('',#1035,#510);
#431=LINE('',#1039,#511);
#432=LINE('',#1041,#512);
#433=LINE('',#1043,#513);
#434=LINE('',#1045,#514);
#435=LINE('',#1047,#515);
#436=LINE('',#1051,#516);
#437=LINE('',#1053,#517);
#438=LINE('',#1055,#518);
#439=LINE('',#1056,#519);
#440=LINE('',#1058,#520);
#441=LINE('',#1060,#521);
#442=LINE('',#1062,#522);
#443=LINE('',#1064,#523);
#444=LINE('',#1066,#524);
#445=LINE('',#1068,#525);
#446=LINE('',#1070,#526);
#447=LINE('',#1072,#527);
#448=LINE('',#1074,#528);
#449=LINE('',#1076,#529);
#450=LINE('',#1078,#530);
#451=LINE('',#1080,#531);
#452=LINE('',#1083,#532);
#453=LINE('',#1085,#533);
#454=LINE('',#1087,#534);
#455=LINE('',#1088,#535);
#456=LINE('',#1091,#536);
#457=LINE('',#1093,#537);
#458=LINE('',#1095,#538);
#459=LINE('',#1100,#539);
#460=LINE('',#1104,#540);
#461=LINE('',#1106,#541);
#462=LINE('',#1108,#542);
#463=LINE('',#1109,#543);
#464=LINE('',#1113,#544);
#465=LINE('',#1114,#545);
#466=LINE('',#1117,#546);
#467=LINE('',#1118,#547);
#468=LINE('',#1124,#548);
#469=LINE('',#1131,#549);
#470=LINE('',#1135,#550);
#471=LINE('',#1136,#551);
#472=LINE('',#1138,#552);
#473=LINE('',#1140,#553);
#474=LINE('',#1143,#554);
#475=LINE('',#1144,#555);
#476=LINE('',#1146,#556);
#477=LINE('',#1148,#557);
#478=LINE('',#1151,#558);
#479=LINE('',#1153,#559);
#480=LINE('',#1155,#560);
#481=LINE('',#1157,#561);
#482=LINE('',#1163,#562);
#483=LINE('',#1165,#563);
#484=LINE('',#1173,#564);
#485=LINE('',#1175,#565);
#486=LINE('',#1183,#566);
#487=LINE('',#1184,#567);
#488=LINE('',#1186,#568);
#489=LINE('',#1187,#569);
#490=VECTOR('',#797,1.);
#491=VECTOR('',#798,1.);
#492=VECTOR('',#799,1.);
#493=VECTOR('',#800,1.);
#494=VECTOR('',#803,1.);
#495=VECTOR('',#804,1.);
#496=VECTOR('',#805,1.);
#497=VECTOR('',#806,1.);
#498=VECTOR('',#813,1.);
#499=VECTOR('',#814,1.);
#500=VECTOR('',#815,1.);
#501=VECTOR('',#816,1.);
#502=VECTOR('',#817,1.);
#503=VECTOR('',#818,1.);
#504=VECTOR('',#819,1.);
#505=VECTOR('',#820,1.);
#506=VECTOR('',#821,1.);
#507=VECTOR('',#822,1.);
#508=VECTOR('',#823,1.);
#509=VECTOR('',#824,1.);
#510=VECTOR('',#825,1.);
#511=VECTOR('',#828,1.);
#512=VECTOR('',#829,1.);
#513=VECTOR('',#830,1.);
#514=VECTOR('',#831,1.);
#515=VECTOR('',#832,1.);
#516=VECTOR('',#835,1.);
#517=VECTOR('',#836,1.);
#518=VECTOR('',#837,1.);
#519=VECTOR('',#838,1.);
#520=VECTOR('',#839,1.);
#521=VECTOR('',#840,1.);
#522=VECTOR('',#843,1.);
#523=VECTOR('',#844,1.);
#524=VECTOR('',#845,1.);
#525=VECTOR('',#848,1.);
#526=VECTOR('',#849,1.);
#527=VECTOR('',#850,1.);
#528=VECTOR('',#853,1.);
#529=VECTOR('',#854,1.);
#530=VECTOR('',#855,1.);
#531=VECTOR('',#858,1.);
#532=VECTOR('',#859,1.);
#533=VECTOR('',#860,1.);
#534=VECTOR('',#861,1.);
#535=VECTOR('',#862,1.);
#536=VECTOR('',#863,1.);
#537=VECTOR('',#864,1.);
#538=VECTOR('',#865,1.);
#539=VECTOR('',#870,1.);
#540=VECTOR('',#873,1.);
#541=VECTOR('',#874,1.);
#542=VECTOR('',#875,1.);
#543=VECTOR('',#876,1.);
#544=VECTOR('',#879,1.);
#545=VECTOR('',#880,1.);
#546=VECTOR('',#885,1.);
#547=VECTOR('',#886,1.);
#548=VECTOR('',#893,1.);
#549=VECTOR('',#900,1.);
#550=VECTOR('',#905,1.);
#551=VECTOR('',#906,1.);
#552=VECTOR('',#909,1.);
#553=VECTOR('',#912,1.);
#554=VECTOR('',#917,1.);
#555=VECTOR('',#918,1.);
#556=VECTOR('',#921,1.);
#557=VECTOR('',#924,1.);
#558=VECTOR('',#929,1.);
#559=VECTOR('',#932,1.);
#560=VECTOR('',#935,1.);
#561=VECTOR('',#938,1.);
#562=VECTOR('',#949,1.);
#563=VECTOR('',#950,1.);
#564=VECTOR('',#961,1.);
#565=VECTOR('',#962,1.);
#566=VECTOR('',#973,1.);
#567=VECTOR('',#974,1.);
#568=VECTOR('',#977,1.);
#569=VECTOR('',#978,1.);
#570=EDGE_LOOP('',(#42,#43,#44,#45));
#571=EDGE_LOOP('',(#46,#47,#48,#49));
#572=EDGE_LOOP('',(#50));
#573=EDGE_LOOP('',(#51));
#574=EDGE_LOOP('',(#52,#53,#54,#55));
#575=EDGE_LOOP('',(#56,#57,#58,#59));
#576=EDGE_LOOP('',(#60,#61,#62,#63,#64,#65,#66,#67,#68,#69,#70,#71,#72,
#73,#74,#75,#76,#77,#78,#79));
#577=EDGE_LOOP('',(#80,#81,#82,#83));
#578=EDGE_LOOP('',(#84,#85,#86,#87));
#579=EDGE_LOOP('',(#88,#89,#90,#91));
#580=EDGE_LOOP('',(#92,#93,#94,#95));
#581=EDGE_LOOP('',(#96,#97,#98,#99));
#582=EDGE_LOOP('',(#100));
#583=EDGE_LOOP('',(#101));
#584=EDGE_LOOP('',(#102,#103,#104,#105,#106,#107,#108,#109,#110,#111,#112,
#113));
#585=EDGE_LOOP('',(#114,#115,#116,#117));
#586=EDGE_LOOP('',(#118,#119,#120,#121));
#587=EDGE_LOOP('',(#122,#123,#124,#125,#126,#127,#128,#129,#130,#131,#132,
#133,#134,#135,#136,#137));
#588=EDGE_LOOP('',(#138,#139,#140,#141));
#589=EDGE_LOOP('',(#142,#143,#144,#145));
#590=EDGE_LOOP('',(#146,#147,#148,#149));
#591=EDGE_LOOP('',(#150,#151,#152,#153));
#592=EDGE_LOOP('',(#154,#155,#156,#157));
#593=EDGE_LOOP('',(#158,#159,#160,#161));
#594=EDGE_LOOP('',(#162,#163,#164,#165));
#595=EDGE_LOOP('',(#166,#167,#168,#169));
#596=EDGE_LOOP('',(#170,#171,#172,#173));
#597=EDGE_LOOP('',(#174,#175,#176,#177));
#598=EDGE_LOOP('',(#178,#179,#180,#181));
#599=EDGE_LOOP('',(#182,#183,#184,#185));
#600=EDGE_LOOP('',(#186,#187,#188,#189));
#601=EDGE_LOOP('',(#190,#191,#192,#193));
#602=EDGE_LOOP('',(#194));
#603=EDGE_LOOP('',(#195));
#604=EDGE_LOOP('',(#196));
#605=EDGE_LOOP('',(#197));
#606=EDGE_LOOP('',(#198,#199,#200,#201));
#607=EDGE_LOOP('',(#202,#203,#204,#205,#206,#207));
#608=EDGE_LOOP('',(#208,#209,#210,#211));
#609=EDGE_LOOP('',(#212,#213,#214,#215,#216,#217));
#610=EDGE_LOOP('',(#218,#219,#220,#221));
#611=EDGE_LOOP('',(#222,#223,#224,#225));
#612=EDGE_LOOP('',(#226,#227,#228,#229));
#613=EDGE_LOOP('',(#230,#231,#232,#233));
#614=EDGE_LOOP('',(#234,#235,#236,#237));
#615=EDGE_LOOP('',(#238,#239,#240,#241));
#616=FACE_BOUND('',#570,.T.);
#617=FACE_BOUND('',#571,.T.);
#618=FACE_BOUND('',#572,.T.);
#619=FACE_BOUND('',#573,.T.);
#620=FACE_BOUND('',#574,.T.);
#621=FACE_BOUND('',#575,.T.);
#622=FACE_BOUND('',#576,.T.);
#623=FACE_BOUND('',#577,.T.);
#624=FACE_BOUND('',#578,.T.);
#625=FACE_BOUND('',#579,.T.);
#626=FACE_BOUND('',#580,.T.);
#627=FACE_BOUND('',#581,.T.);
#628=FACE_BOUND('',#582,.T.);
#629=FACE_BOUND('',#583,.T.);
#630=FACE_BOUND('',#584,.T.);
#631=FACE_BOUND('',#585,.T.);
#632=FACE_BOUND('',#586,.T.);
#633=FACE_BOUND('',#587,.T.);
#634=FACE_BOUND('',#588,.T.);
#635=FACE_BOUND('',#589,.T.);
#636=FACE_BOUND('',#590,.T.);
#637=FACE_BOUND('',#591,.T.);
#638=FACE_BOUND('',#592,.T.);
#639=FACE_BOUND('',#593,.T.);
#640=FACE_BOUND('',#594,.T.);
#641=FACE_BOUND('',#595,.T.);
#642=FACE_BOUND('',#596,.T.);
#643=FACE_BOUND('',#597,.T.);
#644=FACE_BOUND('',#598,.T.);
#645=FACE_BOUND('',#599,.T.);
#646=FACE_BOUND('',#600,.T.);
#647=FACE_BOUND('',#601,.T.);
#648=FACE_BOUND('',#602,.T.);
#649=FACE_BOUND('',#603,.T.);
#650=FACE_BOUND('',#604,.T.);
#651=FACE_BOUND('',#605,.T.);
#652=FACE_BOUND('',#606,.T.);
#653=FACE_BOUND('',#607,.T.);
#654=FACE_BOUND('',#608,.T.);
#655=FACE_BOUND('',#609,.T.);
#656=FACE_BOUND('',#610,.T.);
#657=FACE_BOUND('',#611,.T.);
#658=FACE_BOUND('',#612,.T.);
#659=FACE_BOUND('',#613,.T.);
#660=FACE_BOUND('',#614,.T.);
#661=FACE_BOUND('',#615,.T.);
#662=PLANE('',#737);
#663=PLANE('',#738);
#664=PLANE('',#739);
#665=PLANE('',#744);
#666=PLANE('',#745);
#667=PLANE('',#746);
#668=PLANE('',#747);
#669=PLANE('',#752);
#670=PLANE('',#753);
#671=PLANE('',#754);
#672=PLANE('',#761);
#673=PLANE('',#762);
#674=PLANE('',#763);
#675=PLANE('',#764);
#676=PLANE('',#765);
#677=PLANE('',#766);
#678=PLANE('',#767);
#679=PLANE('',#768);
#680=PLANE('',#769);
#681=PLANE('',#770);
#682=PLANE('',#771);
#683=PLANE('',#772);
#684=PLANE('',#777);
#685=PLANE('',#778);
#686=PLANE('',#782);
#687=PLANE('',#783);
#688=ADVANCED_FACE('',(#616),#662,.F.);
#689=ADVANCED_FACE('',(#617),#663,.F.);
#690=ADVANCED_FACE('',(#618,#619,#620,#621,#622),#664,.F.);
#691=ADVANCED_FACE('',(#623),#665,.F.);
#692=ADVANCED_FACE('',(#624),#666,.T.);
#693=ADVANCED_FACE('',(#625),#667,.T.);
#694=ADVANCED_FACE('',(#626,#627,#628,#629,#630),#668,.T.);
#695=ADVANCED_FACE('',(#631),#669,.F.);
#696=ADVANCED_FACE('',(#632),#670,.F.);
#697=ADVANCED_FACE('',(#633),#671,.T.);
#698=ADVANCED_FACE('',(#634),#672,.T.);
#699=ADVANCED_FACE('',(#635),#673,.F.);
#700=ADVANCED_FACE('',(#636),#674,.F.);
#701=ADVANCED_FACE('',(#637),#675,.F.);
#702=ADVANCED_FACE('',(#638),#676,.T.);
#703=ADVANCED_FACE('',(#639),#677,.F.);
#704=ADVANCED_FACE('',(#640),#678,.T.);
#705=ADVANCED_FACE('',(#641),#679,.T.);
#706=ADVANCED_FACE('',(#642),#680,.T.);
#707=ADVANCED_FACE('',(#643),#681,.T.);
#708=ADVANCED_FACE('',(#644),#682,.T.);
#709=ADVANCED_FACE('',(#645),#683,.T.);
#710=ADVANCED_FACE('',(#646),#12,.T.);
#711=ADVANCED_FACE('',(#647),#13,.T.);
#712=ADVANCED_FACE('',(#648,#649),#14,.F.);
#713=ADVANCED_FACE('',(#650,#651),#15,.F.);
#714=ADVANCED_FACE('',(#652),#684,.F.);
#715=ADVANCED_FACE('',(#653),#685,.F.);
#716=ADVANCED_FACE('',(#654),#686,.F.);
#717=ADVANCED_FACE('',(#655),#687,.F.);
#718=ADVANCED_FACE('',(#656),#16,.F.);
#719=ADVANCED_FACE('',(#657),#17,.F.);
#720=ADVANCED_FACE('',(#658),#18,.T.);
#721=ADVANCED_FACE('',(#659),#19,.T.);
#722=ADVANCED_FACE('',(#660),#20,.T.);
#723=ADVANCED_FACE('',(#661),#21,.T.);
#724=CLOSED_SHELL('',(#688,#689,#690,#691,#692,#693,#694,#695,#696,#697,
#698,#699,#700,#701,#702,#703,#704,#705,#706,#707,#708,#709,#710,#711,#712,
#713,#714,#715,#716,#717,#718,#719,#720,#721,#722,#723));
#725=STYLED_ITEM('',(#726),#733);
#726=PRESENTATION_STYLE_ASSIGNMENT((#727));
#727=SURFACE_STYLE_USAGE(.BOTH.,#728);
#728=SURFACE_SIDE_STYLE('',(#729));
#729=SURFACE_STYLE_FILL_AREA(#730);
#730=FILL_AREA_STYLE('',(#731));
#731=FILL_AREA_STYLE_COLOUR('',#732);
#732=COLOUR_RGB('',0.615686274509804,0.811764705882353,0.929411764705882);
#733=MANIFOLD_SOLID_BREP('Part 1',#724);
#734=SHAPE_DEFINITION_REPRESENTATION(#1198,#735);
#735=SHAPE_REPRESENTATION('Part 1',(#736),#1193);
#736=AXIS2_PLACEMENT_3D('',#987,#793,#794);
#737=AXIS2_PLACEMENT_3D('',#988,#795,#796);
#738=AXIS2_PLACEMENT_3D('',#997,#801,#802);
#739=AXIS2_PLACEMENT_3D('',#1006,#807,#808);
#740=AXIS2_PLACEMENT_3D('',#1007,#809,#810);
#741=AXIS2_PLACEMENT_3D('',#1009,#811,#812);
#742=AXIS2_PLACEMENT_3D('',#1037,#826,#827);
#743=AXIS2_PLACEMENT_3D('',#1049,#833,#834);
#744=AXIS2_PLACEMENT_3D('',#1061,#841,#842);
#745=AXIS2_PLACEMENT_3D('',#1067,#846,#847);
#746=AXIS2_PLACEMENT_3D('',#1073,#851,#852);
#747=AXIS2_PLACEMENT_3D('',#1079,#856,#857);
#748=AXIS2_PLACEMENT_3D('',#1096,#866,#867);
#749=AXIS2_PLACEMENT_3D('',#1098,#868,#869);
#750=AXIS2_PLACEMENT_3D('',#1102,#871,#872);
#751=AXIS2_PLACEMENT_3D('',#1111,#877,#878);
#752=AXIS2_PLACEMENT_3D('',#1115,#881,#882);
#753=AXIS2_PLACEMENT_3D('',#1116,#883,#884);
#754=AXIS2_PLACEMENT_3D('',#1119,#887,#888);
#755=AXIS2_PLACEMENT_3D('',#1120,#889,#890);
#756=AXIS2_PLACEMENT_3D('',#1123,#891,#892);
#757=AXIS2_PLACEMENT_3D('',#1126,#894,#895);
#758=AXIS2_PLACEMENT_3D('',#1128,#896,#897);
#759=AXIS2_PLACEMENT_3D('',#1130,#898,#899);
#760=AXIS2_PLACEMENT_3D('',#1133,#901,#902);
#761=AXIS2_PLACEMENT_3D('',#1134,#903,#904);
#762=AXIS2_PLACEMENT_3D('',#1137,#907,#908);
#763=AXIS2_PLACEMENT_3D('',#1139,#910,#911);
#764=AXIS2_PLACEMENT_3D('',#1141,#913,#914);
#765=AXIS2_PLACEMENT_3D('',#1142,#915,#916);
#766=AXIS2_PLACEMENT_3D('',#1145,#919,#920);
#767=AXIS2_PLACEMENT_3D('',#1147,#922,#923);
#768=AXIS2_PLACEMENT_3D('',#1149,#925,#926);
#769=AXIS2_PLACEMENT_3D('',#1150,#927,#928);
#770=AXIS2_PLACEMENT_3D('',#1152,#930,#931);
#771=AXIS2_PLACEMENT_3D('',#1154,#933,#934);
#772=AXIS2_PLACEMENT_3D('',#1156,#936,#937);
#773=AXIS2_PLACEMENT_3D('',#1158,#939,#940);
#774=AXIS2_PLACEMENT_3D('',#1159,#941,#942);
#775=AXIS2_PLACEMENT_3D('',#1160,#943,#944);
#776=AXIS2_PLACEMENT_3D('',#1161,#945,#946);
#777=AXIS2_PLACEMENT_3D('',#1162,#947,#948);
#778=AXIS2_PLACEMENT_3D('',#1166,#951,#952);
#779=AXIS2_PLACEMENT_3D('',#1167,#953,#954);
#780=AXIS2_PLACEMENT_3D('',#1169,#955,#956);
#781=AXIS2_PLACEMENT_3D('',#1171,#957,#958);
#782=AXIS2_PLACEMENT_3D('',#1172,#959,#960);
#783=AXIS2_PLACEMENT_3D('',#1176,#963,#964);
#784=AXIS2_PLACEMENT_3D('',#1177,#965,#966);
#785=AXIS2_PLACEMENT_3D('',#1179,#967,#968);
#786=AXIS2_PLACEMENT_3D('',#1181,#969,#970);
#787=AXIS2_PLACEMENT_3D('',#1182,#971,#972);
#788=AXIS2_PLACEMENT_3D('',#1185,#975,#976);
#789=AXIS2_PLACEMENT_3D('',#1188,#979,#980);
#790=AXIS2_PLACEMENT_3D('',#1189,#981,#982);
#791=AXIS2_PLACEMENT_3D('',#1190,#983,#984);
#792=AXIS2_PLACEMENT_3D('',#1191,#985,#986);
#793=DIRECTION('',(0.,0.,1.));
#794=DIRECTION('',(1.,0.,0.));
#795=DIRECTION('',(0.,-1.,0.));
#796=DIRECTION('',(0.,0.,-1.));
#797=DIRECTION('',(0.,0.,1.));
#798=DIRECTION('',(1.,0.,0.));
#799=DIRECTION('',(0.,0.,1.));
#800=DIRECTION('',(1.,0.,0.));
#801=DIRECTION('',(0.,-1.,0.));
#802=DIRECTION('',(0.,0.,-1.));
#803=DIRECTION('',(0.,0.,1.));
#804=DIRECTION('',(1.,0.,0.));
#805=DIRECTION('',(0.,0.,1.));
#806=DIRECTION('',(1.,0.,0.));
#807=DIRECTION('',(0.,0.,1.));
#808=DIRECTION('',(1.,0.,0.));
#809=DIRECTION('',(0.,0.,1.));
#810=DIRECTION('',(1.,0.,0.));
#811=DIRECTION('',(0.,0.,1.));
#812=DIRECTION('',(1.,0.,0.));
#813=DIRECTION('',(1.,0.,0.));
#814=DIRECTION('',(-1.71330713676721E-16,-1.,0.));
#815=DIRECTION('',(1.,0.,0.));
#816=DIRECTION('',(0.,1.,0.));
#817=DIRECTION('',(-1.71330713676721E-16,-1.,0.));
#818=DIRECTION('',(-1.,0.,0.));
#819=DIRECTION('',(0.,1.,0.));
#820=DIRECTION('',(-1.,2.2098388229004E-16,0.));
#821=DIRECTION('',(0.,1.,0.));
#822=DIRECTION('',(-1.,0.,0.));
#823=DIRECTION('',(-1.60808665212218E-16,-1.,0.));
#824=DIRECTION('',(1.,0.,0.));
#825=DIRECTION('',(0.,1.,0.));
#826=DIRECTION('',(0.,0.,1.));
#827=DIRECTION('',(1.,0.,0.));
#828=DIRECTION('',(0.,1.,0.));
#829=DIRECTION('',(1.,0.,0.));
#830=DIRECTION('',(-1.60808665212218E-16,-1.,0.));
#831=DIRECTION('',(1.,0.,0.));
#832=DIRECTION('',(0.,-1.,0.));
#833=DIRECTION('',(0.,0.,1.));
#834=DIRECTION('',(1.,0.,0.));
#835=DIRECTION('',(0.,-1.,0.));
#836=DIRECTION('',(1.,0.,0.));
#837=DIRECTION('',(-1.60808665212218E-16,-1.,0.));
#838=DIRECTION('',(0.,1.,0.));
#839=DIRECTION('',(-1.,0.,0.));
#840=DIRECTION('',(-1.60808665212218E-16,-1.,0.));
#841=DIRECTION('',(0.,1.,0.));
#842=DIRECTION('',(0.,0.,1.));
#843=DIRECTION('',(0.,0.,1.));
#844=DIRECTION('',(1.,0.,0.));
#845=DIRECTION('',(0.,0.,-1.));
#846=DIRECTION('',(0.,1.,0.));
#847=DIRECTION('',(0.,0.,1.));
#848=DIRECTION('',(0.,0.,1.));
#849=DIRECTION('',(1.,0.,0.));
#850=DIRECTION('',(0.,0.,-1.));
#851=DIRECTION('',(0.,1.,0.));
#852=DIRECTION('',(0.,0.,1.));
#853=DIRECTION('',(0.,0.,-1.));
#854=DIRECTION('',(1.,0.,0.));
#855=DIRECTION('',(0.,0.,-1.));
#856=DIRECTION('',(0.,0.,1.));
#857=DIRECTION('',(1.,0.,0.));
#858=DIRECTION('',(-1.,0.,0.));
#859=DIRECTION('',(-1.71330713676721E-16,-1.,0.));
#860=DIRECTION('',(-1.,2.20983882290039E-16,0.));
#861=DIRECTION('',(0.,1.,0.));
#862=DIRECTION('',(-1.71330713676721E-16,-1.,0.));
#863=DIRECTION('',(1.,0.,0.));
#864=DIRECTION('',(0.,1.,0.));
#865=DIRECTION('',(1.,0.,0.));
#866=DIRECTION('',(0.,0.,1.));
#867=DIRECTION('',(1.,0.,0.));
#868=DIRECTION('',(0.,0.,1.));
#869=DIRECTION('',(1.,0.,0.));
#870=DIRECTION('',(0.,1.,0.));
#871=DIRECTION('',(0.,0.,1.));
#872=DIRECTION('',(1.,0.,0.));
#873=DIRECTION('',(0.,1.,0.));
#874=DIRECTION('',(1.,0.,0.));
#875=DIRECTION('',(-1.60808665212218E-16,-1.,0.));
#876=DIRECTION('',(0.,-1.,0.));
#877=DIRECTION('',(0.,0.,1.));
#878=DIRECTION('',(1.,0.,0.));
#879=DIRECTION('',(0.,-1.,0.));
#880=DIRECTION('',(-1.60808665212218E-16,-1.,0.));
#881=DIRECTION('',(1.,-1.60808665212218E-16,0.));
#882=DIRECTION('',(1.60808665212218E-16,1.,0.));
#883=DIRECTION('',(0.,1.,0.));
#884=DIRECTION('',(0.,0.,1.));
#885=DIRECTION('',(0.,0.,-1.));
#886=DIRECTION('',(0.,0.,-1.));
#887=DIRECTION('',(1.,-1.60808665212218E-16,0.));
#888=DIRECTION('',(1.60808665212218E-16,1.,0.));
#889=DIRECTION('',(1.,-1.60808665212218E-16,0.));
#890=DIRECTION('',(1.60808665212218E-16,1.,0.));
#891=DIRECTION('',(1.,-1.60808665212218E-16,0.));
#892=DIRECTION('',(1.60808665212218E-16,1.,0.));
#893=DIRECTION('',(0.,0.,1.));
#894=DIRECTION('',(1.,-1.60808665212218E-16,0.));
#895=DIRECTION('',(1.60808665212218E-16,1.,0.));
#896=DIRECTION('',(1.,-1.60808665212218E-16,0.));
#897=DIRECTION('',(1.60808665212218E-16,1.,0.));
#898=DIRECTION('',(1.,-1.60808665212218E-16,0.));
#899=DIRECTION('',(1.60808665212218E-16,1.,0.));
#900=DIRECTION('',(0.,0.,1.));
#901=DIRECTION('',(1.,-1.60808665212218E-16,0.));
#902=DIRECTION('',(1.60808665212218E-16,1.,0.));
#903=DIRECTION('',(0.,-1.,0.));
#904=DIRECTION('',(0.,0.,-1.));
#905=DIRECTION('',(0.,0.,1.));
#906=DIRECTION('',(0.,0.,1.));
#907=DIRECTION('',(-1.,1.71330713676721E-16,0.));
#908=DIRECTION('',(-1.71330713676721E-16,-1.,0.));
#909=DIRECTION('',(0.,0.,1.));
#910=DIRECTION('',(0.,-1.,0.));
#911=DIRECTION('',(0.,0.,-1.));
#912=DIRECTION('',(0.,0.,1.));
#913=DIRECTION('',(1.,0.,0.));
#914=DIRECTION('',(0.,0.,-1.));
#915=DIRECTION('',(-1.,1.71330713676721E-16,0.));
#916=DIRECTION('',(-1.71330713676721E-16,-1.,0.));
#917=DIRECTION('',(0.,0.,1.));
#918=DIRECTION('',(0.,0.,1.));
#919=DIRECTION('',(0.,1.,0.));
#920=DIRECTION('',(0.,0.,1.));
#921=DIRECTION('',(0.,0.,1.));
#922=DIRECTION('',(1.,0.,0.));
#923=DIRECTION('',(0.,0.,-1.));
#924=DIRECTION('',(0.,0.,1.));
#925=DIRECTION('',(2.2098388229004E-16,1.,0.));
#926=DIRECTION('',(-1.,2.2098388229004E-16,0.));
#927=DIRECTION('',(1.,0.,0.));
#928=DIRECTION('',(0.,0.,-1.));
#929=DIRECTION('',(0.,0.,1.));
#930=DIRECTION('',(-1.,0.,0.));
#931=DIRECTION('',(0.,0.,1.));
#932=DIRECTION('',(0.,0.,-1.));
#933=DIRECTION('',(-1.,0.,0.));
#934=DIRECTION('',(0.,0.,1.));
#935=DIRECTION('',(0.,0.,1.));
#936=DIRECTION('',(1.,0.,0.));
#937=DIRECTION('',(0.,0.,-1.));
#938=DIRECTION('',(0.,0.,-1.));
#939=DIRECTION('',(0.,0.,-1.));
#940=DIRECTION('',(-1.,0.,0.));
#941=DIRECTION('',(0.,0.,1.));
#942=DIRECTION('',(1.,0.,0.));
#943=DIRECTION('',(0.,0.,1.));
#944=DIRECTION('',(1.,0.,0.));
#945=DIRECTION('',(0.,0.,1.));
#946=DIRECTION('',(1.,0.,0.));
#947=DIRECTION('',(0.,1.,0.));
#948=DIRECTION('',(0.,0.,1.));
#949=DIRECTION('',(0.,0.,1.));
#950=DIRECTION('',(1.,0.,0.));
#951=DIRECTION('',(1.,0.,0.));
#952=DIRECTION('',(0.,0.,-1.));
#953=DIRECTION('',(1.,0.,0.));
#954=DIRECTION('',(0.,0.,-1.));
#955=DIRECTION('',(1.,0.,0.));
#956=DIRECTION('',(0.,0.,-1.));
#957=DIRECTION('',(1.,0.,0.));
#958=DIRECTION('',(0.,0.,-1.));
#959=DIRECTION('',(0.,1.,0.));
#960=DIRECTION('',(0.,0.,1.));
#961=DIRECTION('',(0.,0.,1.));
#962=DIRECTION('',(1.,0.,0.));
#963=DIRECTION('',(1.,0.,0.));
#964=DIRECTION('',(0.,0.,-1.));
#965=DIRECTION('',(1.,0.,0.));
#966=DIRECTION('',(0.,0.,-1.));
#967=DIRECTION('',(1.,0.,0.));
#968=DIRECTION('',(0.,0.,-1.));
#969=DIRECTION('',(1.,0.,0.));
#970=DIRECTION('',(0.,0.,-1.));
#971=DIRECTION('',(1.,-1.60808665212218E-16,0.));
#972=DIRECTION('',(1.60808665212218E-16,1.,0.));
#973=DIRECTION('',(1.,-1.60808665212218E-16,0.));
#974=DIRECTION('',(1.,-1.60808665212218E-16,0.));
#975=DIRECTION('',(1.,-1.60808665212218E-16,0.));
#976=DIRECTION('',(1.60808665212218E-16,1.,0.));
#977=DIRECTION('',(1.,-1.60808665212218E-16,0.));
#978=DIRECTION('',(1.,-1.60808665212218E-16,0.));
#979=DIRECTION('',(1.,-1.60808665212218E-16,0.));
#980=DIRECTION('',(1.60808665212218E-16,1.,0.));
#981=DIRECTION('',(1.,-1.60808665212218E-16,0.));
#982=DIRECTION('',(1.60808665212218E-16,1.,0.));
#983=DIRECTION('',(1.,-1.60808665212218E-16,0.));
#984=DIRECTION('',(1.60808665212218E-16,1.,0.));
#985=DIRECTION('',(1.,-1.60808665212218E-16,0.));
#986=DIRECTION('',(1.60808665212218E-16,1.,0.));
#987=CARTESIAN_POINT('',(0.,0.,0.));
#988=CARTESIAN_POINT('',(0.04775,0.037225,-0.0083));
#989=CARTESIAN_POINT('',(0.049,0.037225,-0.0083));
#990=CARTESIAN_POINT('',(0.049,0.037225,-0.0060751404538713));
#991=CARTESIAN_POINT('',(0.049,0.037225,0.));
#992=CARTESIAN_POINT('',(0.04775,0.037225,-0.0060751404538713));
#993=CARTESIAN_POINT('',(0.0465,0.037225,-0.0060751404538713));
#994=CARTESIAN_POINT('',(0.0465,0.037225,-0.0083));
#995=CARTESIAN_POINT('',(0.0465,0.037225,0.));
#996=CARTESIAN_POINT('',(0.04775,0.037225,0.));
#997=CARTESIAN_POINT('',(0.04775,-0.026175,-0.0083));
#998=CARTESIAN_POINT('',(0.049,-0.026175,-0.0083));
#999=CARTESIAN_POINT('',(0.049,-0.026175,-0.0060751404538713));
#1000=CARTESIAN_POINT('',(0.049,-0.026175,0.));
#1001=CARTESIAN_POINT('',(0.04775,-0.026175,-0.0060751404538713));
#1002=CARTESIAN_POINT('',(0.0465,-0.026175,-0.0060751404538713));
#1003=CARTESIAN_POINT('',(0.0465,-0.026175,-0.0083));
#1004=CARTESIAN_POINT('',(0.0465,-0.026175,0.));
#1005=CARTESIAN_POINT('',(0.04775,-0.026175,0.));
#1006=CARTESIAN_POINT('',(0.,-6.93889390390723E-18,0.));
#1007=CARTESIAN_POINT('',(-6.93889390390723E-18,-0.04715,0.));
#1008=CARTESIAN_POINT('',(0.00159999999999999,-0.04715,0.));
#1009=CARTESIAN_POINT('',(0.,0.04715,0.));
#1010=CARTESIAN_POINT('',(0.0016,0.04715,0.));
#1011=CARTESIAN_POINT('',(0.,0.031,0.));
#1012=CARTESIAN_POINT('',(-0.046,0.031,0.));
#1013=CARTESIAN_POINT('',(-0.0321,0.031,0.));
#1014=CARTESIAN_POINT('',(-0.046,9.42318925221967E-19,0.));
#1015=CARTESIAN_POINT('',(-0.046,-0.0327,0.));
#1016=CARTESIAN_POINT('',(0.,-0.0327,0.));
#1017=CARTESIAN_POINT('',(-0.0321,-0.0327,0.));
#1018=CARTESIAN_POINT('',(-0.0321,-6.93889390390723E-18,0.));
#1019=CARTESIAN_POINT('',(0.046,-1.48201067330364E-17,0.));
#1020=CARTESIAN_POINT('',(0.046,0.0229,0.));
#1021=CARTESIAN_POINT('',(0.046,-0.0206,0.));
#1022=CARTESIAN_POINT('',(0.,0.0229,0.));
#1023=CARTESIAN_POINT('',(0.0303,0.0229,0.));
#1024=CARTESIAN_POINT('',(0.0303,-6.93889390390723E-18,0.));
#1025=CARTESIAN_POINT('',(0.0303,-0.0206,0.));
#1026=CARTESIAN_POINT('',(-4.55226797517481E-18,-0.0206,0.));
#1027=CARTESIAN_POINT('',(0.0465,-0.031075,0.));
#1028=CARTESIAN_POINT('',(0.0465,-0.035975,0.));
#1029=CARTESIAN_POINT('',(0.04775,-0.035975,0.));
#1030=CARTESIAN_POINT('',(0.049,-0.035975,0.));
#1031=CARTESIAN_POINT('',(0.049,-6.93889390390723E-18,0.));
#1032=CARTESIAN_POINT('',(0.049,-0.04315,0.));
#1033=CARTESIAN_POINT('',(-6.93889390390723E-18,-0.04315,0.));
#1034=CARTESIAN_POINT('',(0.004,-0.04315,0.));
#1035=CARTESIAN_POINT('',(0.004,-0.05115,0.));
#1036=CARTESIAN_POINT('',(0.004,-0.04715,0.));
#1037=CARTESIAN_POINT('',(-6.93889390390723E-18,-0.04715,0.));
#1038=CARTESIAN_POINT('',(-0.004,-0.04715,0.));
#1039=CARTESIAN_POINT('',(-0.004,-0.05115,0.));
#1040=CARTESIAN_POINT('',(-0.004,-0.04315,0.));
#1041=CARTESIAN_POINT('',(-6.93889390390723E-18,-0.04315,0.));
#1042=CARTESIAN_POINT('',(-0.049,-0.04315,0.));
#1043=CARTESIAN_POINT('',(-0.049,0.,0.));
#1044=CARTESIAN_POINT('',(-0.049,0.04315,0.));
#1045=CARTESIAN_POINT('',(6.93889390390723E-18,0.04315,0.));
#1046=CARTESIAN_POINT('',(-0.004,0.04315,0.));
#1047=CARTESIAN_POINT('',(-0.004,0.05115,0.));
#1048=CARTESIAN_POINT('',(-0.004,0.04715,0.));
#1049=CARTESIAN_POINT('',(6.93889390390723E-18,0.04715,0.));
#1050=CARTESIAN_POINT('',(0.004,0.04715,0.));
#1051=CARTESIAN_POINT('',(0.004,0.05115,0.));
#1052=CARTESIAN_POINT('',(0.004,0.04315,0.));
#1053=CARTESIAN_POINT('',(6.93889390390723E-18,0.04315,0.));
#1054=CARTESIAN_POINT('',(0.049,0.04315,0.));
#1055=CARTESIAN_POINT('',(0.049,-6.93889390390723E-18,0.));
#1056=CARTESIAN_POINT('',(0.0465,0.032325,0.));
#1057=CARTESIAN_POINT('',(0.0465,0.027425,0.));
#1058=CARTESIAN_POINT('',(0.04775,0.027425,0.));
#1059=CARTESIAN_POINT('',(0.049,0.027425,0.));
#1060=CARTESIAN_POINT('',(0.049,-6.93889390390723E-18,0.));
#1061=CARTESIAN_POINT('',(-6.93889390390723E-18,-0.04315,0.00225));
#1062=CARTESIAN_POINT('',(-0.004,-0.04315,0.001125));
#1063=CARTESIAN_POINT('',(-0.004,-0.04315,0.00275));
#1064=CARTESIAN_POINT('',(-6.93889390390723E-18,-0.04315,0.00275));
#1065=CARTESIAN_POINT('',(-0.049,-0.04315,0.00275));
#1066=CARTESIAN_POINT('',(-0.049,-0.04315,0.00225));
#1067=CARTESIAN_POINT('',(6.93889390390723E-18,0.04315,0.00225));
#1068=CARTESIAN_POINT('',(0.004,0.04315,0.001125));
#1069=CARTESIAN_POINT('',(0.004,0.04315,0.00275));
#1070=CARTESIAN_POINT('',(6.93889390390723E-18,0.04315,0.00275));
#1071=CARTESIAN_POINT('',(0.049,0.04315,0.00275));
#1072=CARTESIAN_POINT('',(0.049,0.04315,0.00225));
#1073=CARTESIAN_POINT('',(6.93889390390723E-18,0.04315,0.00225));
#1074=CARTESIAN_POINT('',(-0.049,0.04315,0.00225));
#1075=CARTESIAN_POINT('',(-0.049,0.04315,0.00275));
#1076=CARTESIAN_POINT('',(6.93889390390723E-18,0.04315,0.00275));
#1077=CARTESIAN_POINT('',(-0.004,0.04315,0.00275));
#1078=CARTESIAN_POINT('',(-0.004,0.04315,0.001125));
#1079=CARTESIAN_POINT('',(0.,-6.93889390390723E-18,0.00275));
#1080=CARTESIAN_POINT('',(0.03815,0.0229,0.00275));
#1081=CARTESIAN_POINT('',(0.046,0.0229,0.00275));
#1082=CARTESIAN_POINT('',(0.0303,0.0229,0.00275));
#1083=CARTESIAN_POINT('',(0.046,0.,0.00275));
#1084=CARTESIAN_POINT('',(0.046,-0.0206,0.00275));
#1085=CARTESIAN_POINT('',(0.03815,-0.0206,0.00275));
#1086=CARTESIAN_POINT('',(0.0303,-0.0206,0.00275));
#1087=CARTESIAN_POINT('',(0.0303,0.00115,0.00275));
#1088=CARTESIAN_POINT('',(-0.046,0.,0.00275));
#1089=CARTESIAN_POINT('',(-0.046,0.031,0.00275));
#1090=CARTESIAN_POINT('',(-0.046,-0.0327,0.00275));
#1091=CARTESIAN_POINT('',(-0.03905,0.031,0.00275));
#1092=CARTESIAN_POINT('',(-0.0321,0.031,0.00275));
#1093=CARTESIAN_POINT('',(-0.0321,-0.00085,0.00275));
#1094=CARTESIAN_POINT('',(-0.0321,-0.0327,0.00275));
#1095=CARTESIAN_POINT('',(-0.03905,-0.0327,0.00275));
#1096=CARTESIAN_POINT('',(-6.93889390390723E-18,-0.04715,0.00275));
#1097=CARTESIAN_POINT('',(0.00159999999999999,-0.04715,0.00275));
#1098=CARTESIAN_POINT('',(0.,0.04715,0.00275));
#1099=CARTESIAN_POINT('',(0.0016,0.04715,0.00275));
#1100=CARTESIAN_POINT('',(-0.004,-0.05115,0.00275));
#1101=CARTESIAN_POINT('',(-0.004,-0.04715,0.00275));
#1102=CARTESIAN_POINT('',(-6.93889390390723E-18,-0.04715,0.00275));
#1103=CARTESIAN_POINT('',(0.004,-0.04715,0.00275));
#1104=CARTESIAN_POINT('',(0.004,-0.05115,0.00275));
#1105=CARTESIAN_POINT('',(0.004,-0.04315,0.00275));
#1106=CARTESIAN_POINT('',(-6.93889390390723E-18,-0.04315,0.00275));
#1107=CARTESIAN_POINT('',(0.049,-0.04315,0.00275));
#1108=CARTESIAN_POINT('',(0.049,-6.93889390390723E-18,0.00275));
#1109=CARTESIAN_POINT('',(0.004,0.05115,0.00275));
#1110=CARTESIAN_POINT('',(0.004,0.04715,0.00275));
#1111=CARTESIAN_POINT('',(6.93889390390723E-18,0.04715,0.00275));
#1112=CARTESIAN_POINT('',(-0.004,0.04715,0.00275));
#1113=CARTESIAN_POINT('',(-0.004,0.05115,0.00275));
#1114=CARTESIAN_POINT('',(-0.049,0.,0.00275));
#1115=CARTESIAN_POINT('',(-0.049,0.,0.00225));
#1116=CARTESIAN_POINT('',(-6.93889390390723E-18,-0.04315,0.00225));
#1117=CARTESIAN_POINT('',(0.049,-0.04315,0.00225));
#1118=CARTESIAN_POINT('',(0.004,-0.04315,0.001125));
#1119=CARTESIAN_POINT('',(0.049,-6.93889390390723E-18,0.00225));
#1120=CARTESIAN_POINT('',(0.049,0.032325,-0.0083));
#1121=CARTESIAN_POINT('',(0.049,0.0368442307692308,-0.00616071197487625));
#1122=CARTESIAN_POINT('',(0.049,0.0278057692307692,-0.00616071197487627));
#1123=CARTESIAN_POINT('',(0.049,0.037025,-0.0060751404538713));
#1124=CARTESIAN_POINT('',(0.049,-0.035975,-0.0083));
#1125=CARTESIAN_POINT('',(0.049,-0.035975,-0.00607514045387132));
#1126=CARTESIAN_POINT('',(0.049,-0.035775,-0.00607514045387132));
#1127=CARTESIAN_POINT('',(0.049,-0.0355942307692308,-0.00616071197487627));
#1128=CARTESIAN_POINT('',(0.049,-0.031075,-0.0083));
#1129=CARTESIAN_POINT('',(0.049,-0.0265557692307693,-0.00616071197487625));
#1130=CARTESIAN_POINT('',(0.049,-0.026375,-0.0060751404538713));
#1131=CARTESIAN_POINT('',(0.049,0.027425,-0.0083));
#1132=CARTESIAN_POINT('',(0.049,0.027425,-0.00607514045387133));
#1133=CARTESIAN_POINT('',(0.049,0.027625,-0.00607514045387133));
#1134=CARTESIAN_POINT('',(-0.03905,0.031,-0.02225));
#1135=CARTESIAN_POINT('',(-0.0321,0.031,-0.02225));
#1136=CARTESIAN_POINT('',(-0.046,0.031,-0.02225));
#1137=CARTESIAN_POINT('',(-0.046,0.,-0.02225));
#1138=CARTESIAN_POINT('',(-0.046,-0.0327,-0.02225));
#1139=CARTESIAN_POINT('',(-0.03905,-0.0327,-0.02225));
#1140=CARTESIAN_POINT('',(-0.0321,-0.0327,-0.02225));
#1141=CARTESIAN_POINT('',(-0.0321,-0.00085,-0.02225));
#1142=CARTESIAN_POINT('',(0.046,0.,-0.02225));
#1143=CARTESIAN_POINT('',(0.046,0.0229,-0.02225));
#1144=CARTESIAN_POINT('',(0.046,-0.0206,-0.02225));
#1145=CARTESIAN_POINT('',(0.03815,0.0229,-0.02225));
#1146=CARTESIAN_POINT('',(0.0303,0.0229,-0.02225));
#1147=CARTESIAN_POINT('',(0.0303,0.00115,-0.02225));
#1148=CARTESIAN_POINT('',(0.0303,-0.0206,-0.02225));
#1149=CARTESIAN_POINT('',(0.03815,-0.0206,-0.02225));
#1150=CARTESIAN_POINT('',(0.004,0.05115,0.001125));
#1151=CARTESIAN_POINT('',(0.004,0.04715,0.001125));
#1152=CARTESIAN_POINT('',(-0.004,0.05115,0.001125));
#1153=CARTESIAN_POINT('',(-0.004,0.04715,0.001125));
#1154=CARTESIAN_POINT('',(-0.004,-0.05115,0.001125));
#1155=CARTESIAN_POINT('',(-0.004,-0.04715,0.001125));
#1156=CARTESIAN_POINT('',(0.004,-0.05115,0.001125));
#1157=CARTESIAN_POINT('',(0.004,-0.04715,0.001125));
#1158=CARTESIAN_POINT('',(-6.93889390390723E-18,-0.04715,0.001125));
#1159=CARTESIAN_POINT('',(6.93889390390723E-18,0.04715,0.001125));
#1160=CARTESIAN_POINT('',(0.,0.04715,-0.02275));
#1161=CARTESIAN_POINT('',(-6.93889390390723E-18,-0.04715,-0.02275));
#1162=CARTESIAN_POINT('',(0.04775,0.027425,-0.0083));
#1163=CARTESIAN_POINT('',(0.0465,0.027425,-0.0083));
#1164=CARTESIAN_POINT('',(0.0465,0.027425,-0.00607514045387133));
#1165=CARTESIAN_POINT('',(0.04775,0.027425,-0.00607514045387133));
#1166=CARTESIAN_POINT('',(0.0465,0.032325,-0.0083));
#1167=CARTESIAN_POINT('',(0.0465,0.037025,-0.0060751404538713));
#1168=CARTESIAN_POINT('',(0.0465,0.0368442307692308,-0.00616071197487625));
#1169=CARTESIAN_POINT('',(0.0465,0.032325,-0.0083));
#1170=CARTESIAN_POINT('',(0.0465,0.0278057692307692,-0.00616071197487627));
#1171=CARTESIAN_POINT('',(0.0465,0.027625,-0.00607514045387133));
#1172=CARTESIAN_POINT('',(0.04775,-0.035975,-0.0083));
#1173=CARTESIAN_POINT('',(0.0465,-0.035975,-0.0083));
#1174=CARTESIAN_POINT('',(0.0465,-0.035975,-0.00607514045387132));
#1175=CARTESIAN_POINT('',(0.04775,-0.035975,-0.00607514045387132));
#1176=CARTESIAN_POINT('',(0.0465,-0.031075,-0.0083));
#1177=CARTESIAN_POINT('',(0.0465,-0.026375,-0.0060751404538713));
#1178=CARTESIAN_POINT('',(0.0465,-0.0265557692307693,-0.00616071197487625));
#1179=CARTESIAN_POINT('',(0.0465,-0.031075,-0.0083));
#1180=CARTESIAN_POINT('',(0.0465,-0.0355942307692308,-0.00616071197487627));
#1181=CARTESIAN_POINT('',(0.0465,-0.035775,-0.00607514045387132));
#1182=CARTESIAN_POINT('',(0.024,-0.031075,-0.0083));
#1183=CARTESIAN_POINT('',(0.024,-0.0265557692307693,-0.00616071197487625));
#1184=CARTESIAN_POINT('',(0.024,-0.0355942307692308,-0.00616071197487627));
#1185=CARTESIAN_POINT('',(0.024,0.032325,-0.0083));
#1186=CARTESIAN_POINT('',(0.024,0.0368442307692308,-0.00616071197487625));
#1187=CARTESIAN_POINT('',(0.024,0.0278057692307693,-0.00616071197487627));
#1188=CARTESIAN_POINT('',(0.024,0.037025,-0.0060751404538713));
#1189=CARTESIAN_POINT('',(0.024,0.027625,-0.00607514045387133));
#1190=CARTESIAN_POINT('',(0.024,-0.026375,-0.0060751404538713));
#1191=CARTESIAN_POINT('',(0.024,-0.035775,-0.00607514045387132));
#1192=MECHANICAL_DESIGN_GEOMETRIC_PRESENTATION_REPRESENTATION('',(#725),
#1193);
#1193=(
GEOMETRIC_REPRESENTATION_CONTEXT(3)
GLOBAL_UNCERTAINTY_ASSIGNED_CONTEXT((#1194))
GLOBAL_UNIT_ASSIGNED_CONTEXT((#1197,#1196,#1195))
REPRESENTATION_CONTEXT('Part 1','TOP_LEVEL_ASSEMBLY_PART')
);
#1194=UNCERTAINTY_MEASURE_WITH_UNIT(LENGTH_MEASURE(1.E-8),#1197,
'DISTANCE_ACCURACY_VALUE','Maximum Tolerance applied to model');
#1195=(
NAMED_UNIT(*)
SI_UNIT($,.STERADIAN.)
SOLID_ANGLE_UNIT()
);
#1196=(
NAMED_UNIT(*)
PLANE_ANGLE_UNIT()
SI_UNIT($,.RADIAN.)
);
#1197=(
LENGTH_UNIT()
NAMED_UNIT(*)
SI_UNIT($,.METRE.)
);
#1198=PRODUCT_DEFINITION_SHAPE('','',#1199);
#1199=PRODUCT_DEFINITION('','',#1201,#1200);
#1200=PRODUCT_DEFINITION_CONTEXT('',#1207,'design');
#1201=PRODUCT_DEFINITION_FORMATION_WITH_SPECIFIED_SOURCE('','',#1203,
 .NOT_KNOWN.);
#1202=PRODUCT_RELATED_PRODUCT_CATEGORY('','',(#1203));
#1203=PRODUCT('Part 1','Part 1','Part 1',(#1205));
#1204=PRODUCT_CATEGORY('','');
#1205=PRODUCT_CONTEXT('',#1207,'mechanical');
#1206=APPLICATION_PROTOCOL_DEFINITION('international standard',
'ap242_managed_model_based_3d_engineering',2020,#1207);
#1207=APPLICATION_CONTEXT('managed model based 3d engineering');
ENDSEC;
END-ISO-10303-21;
